<svg width="1741" height="1263" viewBox="0 0 1741 1263" fill="none" xmlns="http://www.w3.org/2000/svg">
<rect width="1741" height="1263" fill="#1E1E1E"/>
<path d="M239.976 844.643C239.976 844.643 212.244 847.324 206.976 860.642C200.718 876.463 213.011 896.363 229.976 897.642C245.144 898.786 274.976 876.642 274.976 876.642L336.976 973.641C336.976 973.641 312.244 1000.24 311.976 1011.64C311.976 1011.64 331.976 1056.53 336.976 1036.64C341.976 1016.75 420.976 981.641 438.976 973.641C456.976 965.641 438.051 935.014 420.976 933.642C410.351 932.788 384.976 952.642 384.976 952.642L321.976 844.643C321.976 844.643 352.809 840.92 357.976 829.643C363.916 816.68 354.162 806.442 344.305 796.096C343.527 795.28 342.748 794.462 341.976 793.643C311.443 761.222 239.976 844.643 239.976 844.643Z" fill="#AA5F27"/>
<path d="M441.976 849.643C446.653 862.912 448.519 879.067 450.318 894.636C454.13 927.642 457.637 958.01 486.976 952.642C496.107 950.971 501.91 949.661 508.976 943.642C519.528 934.653 509.784 923.385 499.566 911.567C489.483 899.905 478.938 887.709 486.976 876.642C498.589 860.655 515.745 856.106 534.976 860.642C547.59 863.618 550.137 877.161 552.608 890.302C555.157 903.857 557.625 916.982 570.976 917.642C582.941 918.233 590.233 914.612 599.976 907.642C633.785 883.46 592.615 821.375 551.976 812.643C539.206 809.899 529.15 817.535 519.415 824.927C508.9 832.912 498.759 840.612 485.976 834.643C478.543 831.172 475.757 823.6 473.1 816.377C470.088 808.19 467.241 800.451 457.976 799.643C445.966 798.595 435.891 802.138 429.976 812.643C425.058 821.379 429.659 828.46 434.809 836.384C437.461 840.466 440.26 844.772 441.976 849.643Z" fill="#AA5F27"/>
<path d="M670.976 907.642C580.082 891.671 619.976 666.643 619.976 666.643C619.976 666.643 652.411 659.43 670.976 666.643C693.357 675.339 687.105 700.245 680.718 725.691C674.396 750.875 667.942 776.588 688.976 787.643C705.649 796.406 720.555 788.001 735.702 779.461C750.304 771.227 765.13 762.868 781.976 769.643C828.751 788.455 874.23 873.068 826.976 890.642C810.505 896.768 798.065 897.712 781.976 890.642C767.977 884.49 767.788 869.206 767.6 853.99C767.412 838.683 767.224 823.445 752.976 817.643C732.046 809.119 712.115 811.822 695.976 827.643C685.97 837.452 691.734 851.758 697.267 865.49C702.991 879.695 708.466 893.285 695.976 900.642C691.956 903.01 689.516 904.827 687.735 906.154C683.105 909.603 682.92 909.741 670.976 907.642Z" fill="#AA5F27"/>
<path fill-rule="evenodd" clip-rule="evenodd" d="M947.976 779.644C947.976 779.644 995.478 807.089 1018.98 791.643C1039.22 778.337 1043.48 757.738 1040.98 733.643C1035.68 682.749 959.199 683.695 912.976 705.643C852.232 734.488 837.044 822.886 879.976 874.642C912.21 913.501 974.636 947.997 1004.98 907.642C1015.59 893.527 1021.6 882.107 1018.98 864.642C1016.2 846.148 996.759 849.924 976.055 853.946C955.722 857.895 934.168 862.082 925.976 845.643C913.201 820.005 939.976 773.643 939.976 773.643L947.976 786.643V779.644ZM964.976 761.643C961.621 755.466 958.425 746.191 964.976 743.643C967.524 742.653 971.976 743.643 971.976 743.643C971.976 743.643 1003.18 735.734 1004.98 748.643C1006.19 757.336 1000.75 763.574 992.976 767.643C983.068 772.829 970.313 771.471 964.976 761.643Z" fill="#AA5F27"/>
<path d="M1070.98 943.642C1084.93 958.634 1089.57 958.991 1108.97 960.486C1109.62 960.537 1110.29 960.588 1110.98 960.642C1134.76 962.493 1138.22 940.536 1142.06 916.119C1145.43 894.73 1149.09 871.455 1166.98 860.642C1179.06 853.336 1194.84 855.687 1209.25 857.833C1227.27 860.518 1243.14 862.884 1246.98 845.643C1251.17 826.813 1245.13 810.192 1228.98 799.643C1218.32 792.685 1204.04 803.598 1191.8 812.955C1179.78 822.14 1169.72 829.827 1166.98 817.643C1165.09 809.276 1171.53 803.96 1177.97 798.642C1184.4 793.327 1190.84 788.01 1188.98 779.644C1184.95 761.534 1162.74 744.409 1147.98 755.643C1139.91 761.781 1138.09 779.644 1138.09 779.644C1138.09 779.644 1025.51 894.785 1070.98 943.642Z" fill="#AA5F27"/>
<path d="M1268.98 853.643C1234.12 873.752 1231.17 893.412 1227.28 919.25C1225.37 931.957 1223.24 946.158 1216.98 962.641C1197.98 1012.64 1224.98 1030.64 1261.98 986.641C1290.3 952.965 1295.18 935.692 1304.44 902.988C1307.27 892.962 1310.52 881.486 1314.98 867.642C1331.47 816.413 1323.85 820.975 1287.51 842.705C1282 846.001 1275.83 849.691 1268.98 853.643Z" fill="#AA5F27"/>
<path d="M1301.98 762.643C1291.21 775.907 1295.16 797.137 1309.98 805.643C1326.99 815.415 1353.73 799.253 1352.98 779.644C1352.18 758.665 1315.2 746.341 1301.98 762.643Z" fill="#AA5F27"/>
<path d="M1288.98 1029.64C1288.98 1029.64 1304.04 1041.67 1314.98 1049.64C1345.97 1072.21 1361.99 1038.07 1380.38 998.867C1398.3 960.657 1418.48 917.642 1456.98 917.642C1465.78 917.642 1470.47 923.998 1475.22 930.431C1479.81 936.667 1484.47 942.975 1492.98 943.642C1517.49 945.563 1539.86 925.217 1538.98 900.642C1538.55 888.675 1527.46 884.625 1516.27 880.537C1505.21 876.499 1494.05 872.425 1492.98 860.642C1491.81 847.803 1504.31 842.173 1516.62 836.633C1529.1 831.016 1541.37 825.492 1538.98 812.643C1534.92 790.909 1514.9 776.795 1492.98 779.644C1482.77 780.97 1478.82 789.701 1474.84 798.494C1470.92 807.16 1466.97 815.885 1456.98 817.643C1446.47 819.492 1439.72 812.088 1432.96 804.676C1426.22 797.282 1419.48 789.879 1408.98 791.643C1387.13 795.313 1372.03 812.49 1371.98 834.643C1371.96 843.61 1379.1 849.044 1385.98 854.275C1393.39 859.912 1400.49 865.312 1397.98 874.642C1390.09 903.875 1363.25 919.593 1336.75 935.115C1306.14 953.044 1275.98 970.709 1275.98 1008.64C1275.98 1024.64 1288.98 1029.64 1288.98 1029.64Z" fill="#AA5F27"/>
<path fill-rule="evenodd" clip-rule="evenodd" d="M375.976 1065.64C604.976 905.64 1255.98 1019.64 1359.98 1141.64C1463.98 1263.64 1717.37 1031.83 1650.98 867.642C1466.98 412.642 245.977 474.642 105.976 897.642C68.6601 1010.39 146.977 1225.64 375.976 1065.64ZM206.976 860.642C212.244 847.324 239.976 844.643 239.976 844.643C239.976 844.643 311.443 761.222 341.976 793.643C342.748 794.462 343.527 795.28 344.305 796.096C354.162 806.442 363.916 816.68 357.976 829.643C352.809 840.92 321.976 844.643 321.976 844.643L384.976 952.642C384.976 952.642 410.351 932.788 420.976 933.642C438.051 935.014 456.976 965.641 438.976 973.641C420.976 981.641 341.976 1016.75 336.976 1036.64C331.976 1056.53 311.976 1011.64 311.976 1011.64C312.244 1000.24 336.976 973.641 336.976 973.641L274.976 876.642C274.976 876.642 245.144 898.786 229.976 897.642C213.011 896.363 200.718 876.463 206.976 860.642ZM486.976 952.642C457.637 958.01 454.13 927.642 450.318 894.636C448.519 879.067 446.653 862.912 441.976 849.643C440.26 844.772 437.461 840.466 434.809 836.384C429.659 828.46 425.058 821.379 429.976 812.643C435.891 802.138 445.966 798.595 457.976 799.643C467.241 800.451 470.088 808.19 473.1 816.377C475.757 823.6 478.543 831.172 485.976 834.643C498.759 840.612 508.9 832.912 519.415 824.927C529.15 817.535 539.206 809.899 551.976 812.643C592.615 821.375 633.785 883.46 599.976 907.642C590.233 914.612 582.941 918.233 570.976 917.642C557.625 916.982 555.157 903.857 552.608 890.302C550.137 877.161 547.59 863.618 534.976 860.642C515.745 856.106 498.589 860.655 486.976 876.642C478.938 887.709 489.483 899.905 499.566 911.567C509.784 923.385 519.528 934.653 508.976 943.642C501.91 949.661 496.107 950.971 486.976 952.642ZM619.976 666.643C619.976 666.643 580.082 891.671 670.976 907.642C682.92 909.741 683.105 909.603 687.735 906.154C689.516 904.827 691.956 903.01 695.976 900.642C708.466 893.285 702.991 879.695 697.267 865.49C691.734 851.758 685.97 837.452 695.976 827.643C712.115 811.822 732.046 809.119 752.976 817.643C767.224 823.445 767.412 838.683 767.6 853.99C767.788 869.206 767.977 884.49 781.976 890.642C798.065 897.712 810.505 896.768 826.976 890.642C874.23 873.068 828.751 788.455 781.976 769.643C765.13 762.868 750.304 771.227 735.702 779.461C720.555 788.001 705.649 796.406 688.976 787.643C667.942 776.588 674.396 750.875 680.718 725.691C687.105 700.245 693.357 675.339 670.976 666.643C652.411 659.43 619.976 666.643 619.976 666.643ZM1018.98 791.643C995.478 807.089 947.976 779.644 947.976 779.644V786.643L939.976 773.643C939.976 773.643 913.201 820.005 925.976 845.643C934.168 862.082 955.722 857.895 976.055 853.946C996.759 849.924 1016.2 846.148 1018.98 864.642C1021.6 882.107 1015.59 893.527 1004.98 907.642C974.636 947.997 912.21 913.501 879.976 874.642C837.044 822.886 852.232 734.488 912.976 705.643C959.199 683.695 1035.68 682.749 1040.98 733.643C1043.48 757.738 1039.22 778.337 1018.98 791.643ZM1110.98 960.642C1110.29 960.588 1109.62 960.537 1108.97 960.486C1089.57 958.991 1084.93 958.634 1070.98 943.642C1025.51 894.785 1138.09 779.644 1138.09 779.644C1138.09 779.644 1139.91 761.781 1147.98 755.643C1162.74 744.409 1184.95 761.534 1188.98 779.644C1190.84 788.01 1184.4 793.327 1177.97 798.642C1171.53 803.96 1165.09 809.276 1166.98 817.643C1169.72 829.827 1179.78 822.14 1191.8 812.955C1204.04 803.598 1218.32 792.685 1228.98 799.643C1245.13 810.192 1251.17 826.813 1246.98 845.643C1243.14 862.884 1227.27 860.518 1209.25 857.833C1194.84 855.687 1179.06 853.336 1166.98 860.642C1149.09 871.455 1145.43 894.73 1142.06 916.119C1138.22 940.536 1134.76 962.493 1110.98 960.642ZM1216.98 962.641C1223.24 946.158 1225.37 931.957 1227.28 919.25C1231.17 893.412 1234.12 873.752 1268.98 853.643C1275.83 849.691 1282 846.001 1287.51 842.705C1323.85 820.975 1331.47 816.413 1314.98 867.642C1310.52 881.486 1307.27 892.962 1304.44 902.988C1295.18 935.692 1290.3 952.965 1261.98 986.641C1224.98 1030.64 1197.98 1012.64 1216.98 962.641ZM1309.98 805.643C1295.16 797.137 1291.21 775.907 1301.98 762.643C1315.2 746.341 1352.18 758.665 1352.98 779.644C1353.73 799.253 1326.99 815.415 1309.98 805.643ZM1314.98 1049.64C1304.04 1041.67 1288.98 1029.64 1288.98 1029.64C1288.98 1029.64 1275.98 1024.64 1275.98 1008.64C1275.98 970.709 1306.14 953.044 1336.75 935.115C1363.25 919.593 1390.09 903.875 1397.98 874.642C1400.49 865.312 1393.39 859.912 1385.98 854.275C1379.1 849.044 1371.96 843.61 1371.98 834.643C1372.03 812.49 1387.13 795.313 1408.98 791.643C1419.48 789.879 1426.22 797.282 1432.96 804.676C1439.72 812.088 1446.47 819.492 1456.98 817.643C1466.97 815.885 1470.92 807.16 1474.84 798.494C1478.82 789.701 1482.77 780.97 1492.98 779.644C1514.9 776.795 1534.92 790.909 1538.98 812.643C1541.37 825.492 1529.1 831.016 1516.62 836.633C1504.31 842.173 1491.81 847.803 1492.98 860.642C1494.05 872.425 1505.21 876.499 1516.27 880.537C1527.46 884.625 1538.55 888.675 1538.98 900.642C1539.86 925.217 1517.49 945.563 1492.98 943.642C1484.47 942.975 1479.81 936.667 1475.22 930.431C1470.47 923.998 1465.78 917.642 1456.98 917.642C1418.48 917.642 1398.3 960.657 1380.38 998.867C1361.99 1038.07 1345.97 1072.21 1314.98 1049.64ZM174.977 973.641C160.693 975.119 150 985.318 148.977 999.641C148.245 1009.88 153.121 1019.01 160.977 1024.48C164.984 1027.26 169.767 1029.1 174.977 1029.64C192.014 1031.41 208.189 1016.73 206.976 999.641C206.297 990.063 200.744 982.075 192.977 977.536C189.394 975.443 185.339 974.084 181.074 973.641C179.079 973.434 177.037 973.428 174.977 973.641ZM1512.98 1029.64C1510.07 1028.95 1507.38 1027.85 1504.98 1026.4C1501.32 1024.19 1498.33 1021.18 1496.22 1017.64C1493.47 1013.03 1492.22 1007.5 1492.98 1001.64C1494.71 988.15 1506.39 979.125 1519.98 979.641C1526.83 979.901 1532.92 982.424 1537.4 986.641C1539.51 988.62 1541.26 990.973 1542.57 993.641C1543.75 996.063 1544.58 998.744 1544.98 1001.64C1547.23 1018.09 1529.14 1033.45 1512.98 1029.64Z" fill="#FFBF8F"/>
<path fill-rule="evenodd" clip-rule="evenodd" d="M148.977 999.641C150 985.318 160.693 975.119 174.977 973.641C177.037 973.428 179.079 973.434 181.074 973.641L160.977 1024.48C153.121 1019.01 148.245 1009.88 148.977 999.641ZM174.977 1029.64C192.014 1031.41 208.189 1016.73 206.976 999.641C206.297 990.063 200.744 982.075 192.977 977.536L174.977 1029.64Z" fill="#99928C"/>
<path d="M160.977 1024.48C164.984 1027.26 169.767 1029.1 174.977 1029.64L192.977 977.536C189.394 975.443 185.339 974.084 181.074 973.641L160.977 1024.48Z" fill="#77716C"/>
<path fill-rule="evenodd" clip-rule="evenodd" d="M1496.22 1017.64C1493.47 1013.03 1492.22 1007.5 1492.98 1001.64C1494.71 988.15 1506.39 979.125 1519.98 979.641C1526.83 979.901 1532.92 982.424 1537.4 986.641H1530.98L1496.22 1017.64ZM1504.98 1026.4C1507.38 1027.85 1510.07 1028.95 1512.98 1029.64C1529.14 1033.45 1547.23 1018.09 1544.98 1001.64C1544.58 998.744 1543.75 996.063 1542.57 993.641L1504.98 1026.4Z" fill="#99928C"/>
<path d="M1530.98 986.641L1496.22 1017.64C1498.33 1021.18 1501.32 1024.19 1504.98 1026.4L1542.57 993.641C1541.26 990.973 1539.51 988.62 1537.4 986.641H1530.98Z" fill="#77716C"/>
<path d="M964.976 743.643C958.425 746.191 961.621 755.466 964.976 761.643C970.313 771.471 983.068 772.829 992.976 767.643C1000.75 763.574 1006.19 757.336 1004.98 748.643C1003.18 735.734 971.976 743.643 971.976 743.643C971.976 743.643 967.524 742.653 964.976 743.643Z" fill="#FFBF8F"/>
<path fill-rule="evenodd" clip-rule="evenodd" d="M274.976 1177.64C137.867 1250.29 -58.0199 1051.45 17.9766 894.636C170.359 580.208 613.225 415.625 1016.98 445.285C1022.2 445.669 1027.42 446.085 1032.62 446.534C1332.94 472.407 1609.13 606.638 1724.48 867.642C1798.47 1035.08 1584.05 1325.64 1417.98 1248.64C1009.23 1059.14 680.718 962.64 274.976 1177.64ZM1359.98 1141.64C1255.98 1019.64 604.976 905.64 375.976 1065.64C146.977 1225.64 68.6601 1010.39 105.976 897.642C245.977 474.642 1466.98 412.642 1650.98 867.642C1717.37 1031.83 1463.98 1263.64 1359.98 1141.64Z" fill="#AA5F27"/>
<path d="M886.476 199.096C894.584 203.117 905.378 204.754 914.976 205.143C924.307 205.521 934.906 204.485 943.476 201.255C936.284 191.663 928.44 187.419 916.476 186.643C903.818 185.822 894.832 189.552 886.476 199.096Z" fill="white"/>
<path d="M916.476 171.143C898.318 171.829 874.977 162 873.976 180.143C873.473 189.276 878.757 195.267 886.476 199.096C894.832 189.552 903.818 185.822 916.476 186.643C928.44 187.419 936.284 191.663 943.476 201.255C953.356 197.532 960.54 190.893 959.976 180.143C958.952 160.608 936.024 170.404 916.476 171.143Z" fill="black"/>
<path d="M959.976 94.643C965.476 100.143 970.983 104.568 977.976 103.643C984.117 102.831 989.476 99.643 994.476 94.643C992.476 88.643 982.476 83.143 974.976 84.143C974.976 84.143 962.476 86.643 959.976 94.643Z" fill="black"/>
<path d="M834.476 95.643C839.976 100.643 849.223 104.075 855.976 103.643C862.321 103.237 868.976 101.143 874.976 96.143C871.476 85.143 860.976 84.643 854.976 83.643C849.635 82.7528 833.476 89.643 834.476 95.643Z" fill="black"/>
<path d="M968.976 62.143C959.152 65.0695 949.454 72.2073 951.976 82.143C953.712 88.9799 955.476 88.143 959.976 94.643C962.476 86.643 974.976 84.143 974.976 84.143C982.476 83.143 992.476 88.643 994.476 94.643C998.976 90.143 997.973 88.086 999.718 82.143C1003.75 68.4006 982.703 58.0541 968.976 62.143Z" fill="white"/>
<path d="M876.976 82.143C879.737 70.8648 866.564 62.8749 854.976 62.143C842.498 61.3549 826.495 70.1345 829.976 82.143C831.86 88.6423 830.476 91.143 834.476 95.643C833.476 89.643 849.635 82.7528 854.976 83.643C860.976 84.643 871.476 85.143 874.976 96.143C879.476 90.143 875.465 88.3179 876.976 82.143Z" fill="white"/>
<path d="M606.893 492.13L593.976 511.643C600.476 541.643 611.465 566.6 640.976 573.143C673.187 580.284 684.976 584.643 702.353 563.643C707.853 528.143 684.976 467.643 640.976 475.143C628.338 484.958 616.983 483.627 606.893 492.13Z" fill="white"/>
<path d="M1083.85 542.143C1103.85 569.643 1124.65 568.72 1153.48 563.643C1183.07 558.43 1211.8 534.022 1203.48 505.143C1199.68 491.956 1190.1 481.771 1178.32 476.333C1167.17 471.181 1154.04 470.29 1141.98 475.143C1112.48 487.014 1099.85 510.143 1083.85 542.143Z" fill="white"/>
<path d="M1031.48 459.143C1042.98 505.143 1061.85 519.143 1083.85 542.143C1099.85 510.143 1112.48 487.014 1141.98 475.143L1071.98 404.143C1059.63 420.909 1038.75 432.48 1032.62 446.534C1030.9 450.484 1030.35 454.63 1031.48 459.143Z" fill="white"/>
<path d="M640.976 475.143C684.976 467.643 707.853 528.143 702.353 563.643C734.353 547.143 776.976 448.143 776.976 448.143L684.976 419.643C684.976 419.643 654.976 448.143 640.976 475.143Z" fill="white"/>
<path d="M640.976 475.143C654.976 448.143 684.976 419.643 684.976 419.643L646.104 438.196L645.31 438.575L640.976 440.643L606.893 492.13C616.983 483.627 628.338 484.958 640.976 475.143Z" fill="white"/>
<path d="M1141.98 475.143C1154.04 470.29 1167.17 471.181 1178.32 476.333C1156.41 450.13 1141.1 429.047 1112.48 397.643L1071.98 404.143L1141.98 475.143Z" fill="white"/>
<path fill-rule="evenodd" clip-rule="evenodd" d="M1032.62 446.534C1038.75 432.48 1059.63 420.909 1071.98 404.143L1112.48 397.643C1049.79 394.788 1002.97 355.038 989.976 293.643C976.158 228.329 1076.04 210.28 1071.98 143.643C1069.02 95.1801 1054.84 62.5396 1016.98 32.143C964.823 -9.72898 906.529 -5.75775 845.976 22.643C795.253 46.4333 767.038 76.4695 750.976 130.143C731.276 195.976 811.121 233.972 794.476 300.643C776.139 374.096 656.979 432.959 646.104 438.196L684.976 419.643L776.976 448.143L779.977 449.631C858.845 441.088 938.647 439.531 1016.98 445.285C1022.2 445.669 1027.42 446.085 1032.62 446.534ZM951.976 82.143C949.454 72.2073 959.152 65.0695 968.976 62.143C982.703 58.0541 1003.75 68.4006 999.718 82.143C997.973 88.086 998.976 90.143 994.476 94.643C989.476 99.643 984.117 102.831 977.976 103.643C970.983 104.568 965.476 100.143 959.976 94.643C955.476 88.143 953.712 88.9799 951.976 82.143ZM854.976 62.143C866.564 62.8749 879.737 70.8648 876.976 82.143C875.465 88.3179 879.476 90.143 874.976 96.143C868.976 101.143 862.321 103.237 855.976 103.643C849.223 104.075 839.976 100.643 834.476 95.643C830.476 91.143 831.86 88.6423 829.976 82.143C826.495 70.1345 842.498 61.3549 854.976 62.143ZM873.976 180.143C874.977 162 898.318 171.829 916.476 171.143C936.024 170.404 958.952 160.608 959.976 180.143C960.54 190.893 953.356 197.532 943.476 201.255C934.906 204.485 924.307 205.521 914.976 205.143C905.378 204.754 894.584 203.117 886.476 199.096C878.757 195.267 873.473 189.276 873.976 180.143Z" fill="white"/>
<path d="M1140.98 773.643L1138.09 779.644M1138.09 779.644C1138.09 779.644 1025.51 894.785 1070.98 943.642C1084.93 958.634 1089.57 958.991 1108.97 960.486C1109.62 960.537 1110.29 960.588 1110.98 960.642C1134.76 962.493 1138.22 940.536 1142.06 916.119C1145.43 894.73 1149.09 871.455 1166.98 860.642C1179.06 853.336 1194.84 855.687 1209.25 857.833C1227.27 860.518 1243.14 862.884 1246.98 845.643C1251.17 826.813 1245.13 810.192 1228.98 799.643C1218.32 792.685 1204.04 803.598 1191.8 812.955C1179.78 822.14 1169.72 829.827 1166.98 817.643C1165.09 809.276 1171.53 803.96 1177.97 798.642C1184.4 793.327 1190.84 788.01 1188.98 779.644C1184.95 761.534 1162.74 744.409 1147.98 755.643C1139.91 761.782 1138.09 779.644 1138.09 779.644ZM174.977 1029.64C192.014 1031.41 208.189 1016.73 206.976 999.641C206.297 990.063 200.744 982.075 192.977 977.536M174.977 1029.64C169.767 1029.1 164.984 1027.26 160.977 1024.48M174.977 1029.64L192.977 977.536M181.074 973.641C179.079 973.434 177.037 973.428 174.977 973.641C160.693 975.119 150 985.318 148.977 999.641C148.245 1009.88 153.121 1019.01 160.977 1024.48M181.074 973.641L160.977 1024.48M181.074 973.641C185.339 974.084 189.394 975.443 192.977 977.536M1496.22 1017.64C1493.47 1013.03 1492.22 1007.5 1492.98 1001.64C1494.71 988.15 1506.39 979.125 1519.98 979.641C1526.83 979.901 1532.92 982.424 1537.4 986.641M1496.22 1017.64L1530.98 986.641H1537.4M1496.22 1017.64C1498.33 1021.18 1501.32 1024.19 1504.98 1026.4M1504.98 1026.4C1507.38 1027.85 1510.07 1028.95 1512.98 1029.64C1529.14 1033.45 1547.23 1018.09 1544.98 1001.64C1544.58 998.744 1543.75 996.063 1542.57 993.641M1504.98 1026.4L1542.57 993.641M1542.57 993.641C1541.26 990.973 1539.51 988.62 1537.4 986.641M640.976 440.643L645.31 438.575M640.976 440.643C640.976 440.643 623.351 467.268 606.893 492.13M640.976 440.643L606.893 492.13M593.976 511.643C600.476 541.643 611.465 566.6 640.976 573.143C673.187 580.284 684.976 584.643 702.353 563.643M593.976 511.643L606.893 492.13M593.976 511.643C598.025 501.833 602.33 495.976 606.893 492.13M593.976 511.643C597.934 505.665 602.369 498.964 606.893 492.13M640.976 475.143C684.976 467.643 707.853 528.143 702.353 563.643M640.976 475.143C654.976 448.143 684.976 419.643 684.976 419.643M640.976 475.143C628.338 484.958 616.983 483.627 606.893 492.13M702.353 563.643C734.353 547.143 776.976 448.143 776.976 448.143M776.976 448.143L684.976 419.643M776.976 448.143L779.977 449.631C858.845 441.088 938.647 439.531 1016.98 445.285M684.976 419.643L646.104 438.196M1031.48 459.143C1042.98 505.143 1061.85 519.143 1083.85 542.143M1031.48 459.143L1016.98 445.285M1031.48 459.143C1030.35 454.63 1030.9 450.484 1032.62 446.534M1083.85 542.143C1103.85 569.643 1124.65 568.72 1153.48 563.643C1183.07 558.43 1211.8 534.022 1203.48 505.143M1083.85 542.143C1099.85 510.143 1112.48 487.014 1141.98 475.143M1203.48 505.143C1193.83 494.565 1185.7 485.158 1178.32 476.333M1203.48 505.143C1199.68 491.956 1190.1 481.771 1178.32 476.333M1141.98 475.143C1114.64 447.416 1099.31 431.87 1071.98 404.143M1141.98 475.143L1071.98 404.143M1141.98 475.143C1154.04 470.29 1167.17 471.181 1178.32 476.333M1112.48 397.643C1096.66 400.181 1087.79 401.605 1071.98 404.143M1112.48 397.643C1049.79 394.788 1002.97 355.038 989.976 293.643C976.158 228.329 1076.04 210.28 1071.98 143.643C1069.02 95.1801 1054.84 62.5396 1016.98 32.143C964.822 -9.72898 906.529 -5.75775 845.976 22.643C795.253 46.4333 767.038 76.4695 750.976 130.143C731.276 195.976 811.121 233.972 794.476 300.643C776.139 374.096 656.979 432.959 646.104 438.196M1112.48 397.643C1141.1 429.047 1156.41 450.13 1178.32 476.333M1112.48 397.643L1071.98 404.143M1071.98 404.143C1059.63 420.909 1038.75 432.48 1032.62 446.534M645.31 438.575L646.104 438.196M645.31 438.575C645.31 438.575 645.582 438.447 646.104 438.196M821.476 143.643C849.476 143.643 888.742 107.938 916.476 109.643C944.891 111.39 968.976 143.643 999.718 149.643M834.476 95.643C830.476 91.143 831.86 88.6423 829.976 82.143C826.495 70.1345 842.498 61.3549 854.976 62.143C866.564 62.8749 879.737 70.8648 876.976 82.143C875.465 88.3179 879.476 90.143 874.976 96.143M834.476 95.643C839.976 100.643 849.223 104.075 855.976 103.643C862.321 103.237 868.976 101.143 874.976 96.143M834.476 95.643C833.476 89.643 849.635 82.7528 854.976 83.643C860.976 84.643 871.476 85.143 874.976 96.143M959.976 94.643C955.476 88.143 953.712 88.9799 951.976 82.143C949.454 72.2073 959.152 65.0695 968.976 62.143C982.703 58.0541 1003.75 68.4006 999.718 82.143C997.973 88.086 998.976 90.143 994.476 94.643M959.976 94.643C965.476 100.143 970.983 104.568 977.976 103.643C984.117 102.831 989.476 99.643 994.476 94.643M959.976 94.643C962.476 86.643 974.976 84.143 974.976 84.143C982.476 83.143 992.476 88.643 994.476 94.643M886.476 199.096C878.757 195.267 873.473 189.276 873.976 180.143C874.977 162 898.318 171.829 916.476 171.143C936.024 170.404 958.952 160.608 959.976 180.143C960.54 190.893 953.356 197.532 943.476 201.255M886.476 199.096C894.584 203.117 905.378 204.754 914.976 205.143C924.307 205.521 934.906 204.485 943.476 201.255M886.476 199.096C894.832 189.552 903.818 185.822 916.476 186.643C928.441 187.419 936.284 191.663 943.476 201.255M1016.98 445.285C613.225 415.625 170.359 580.208 17.9766 894.636C-58.0199 1051.45 137.867 1250.29 274.976 1177.64C680.718 962.64 1009.23 1059.14 1417.98 1248.64C1584.05 1325.64 1798.47 1035.08 1724.48 867.642C1609.13 606.638 1332.94 472.407 1032.62 446.534M1016.98 445.285C1022.2 445.669 1027.42 446.085 1032.62 446.534M239.976 844.643C239.976 844.643 212.244 847.324 206.976 860.642C200.718 876.463 213.011 896.363 229.976 897.642C245.144 898.786 274.976 876.642 274.976 876.642L336.976 973.641C336.976 973.641 312.244 1000.24 311.976 1011.64C311.976 1011.64 331.976 1056.53 336.976 1036.64C341.976 1016.75 420.976 981.641 438.976 973.641C456.976 965.641 438.051 935.014 420.976 933.642C410.351 932.788 384.976 952.642 384.976 952.642L321.976 844.643C321.976 844.643 352.809 840.92 357.976 829.643C363.916 816.68 354.162 806.442 344.305 796.096C343.527 795.28 342.748 794.462 341.976 793.643C311.443 761.222 239.976 844.643 239.976 844.643ZM441.976 849.643C440.26 844.772 437.461 840.466 434.809 836.384C429.659 828.46 425.058 821.379 429.976 812.643C435.891 802.138 445.966 798.595 457.976 799.643C467.241 800.451 470.088 808.19 473.1 816.377C475.757 823.6 478.543 831.172 485.976 834.643C498.759 840.612 508.9 832.912 519.415 824.927C529.15 817.535 539.206 809.899 551.976 812.643C592.615 821.375 633.785 883.46 599.976 907.642C590.233 914.612 582.941 918.233 570.976 917.642C557.625 916.982 555.157 903.857 552.608 890.302C550.137 877.161 547.59 863.618 534.976 860.642C515.745 856.106 498.589 860.655 486.976 876.642C478.938 887.709 489.483 899.905 499.566 911.567C509.784 923.385 519.528 934.653 508.976 943.642C501.91 949.661 496.107 950.971 486.976 952.642C457.637 958.01 454.13 927.642 450.318 894.636C448.519 879.067 446.653 862.912 441.976 849.643ZM670.976 907.642C580.082 891.671 619.976 666.643 619.976 666.643C619.976 666.643 652.412 659.43 670.976 666.643C693.357 675.339 687.105 700.245 680.718 725.691C674.396 750.875 667.942 776.588 688.976 787.643C705.649 796.406 720.555 788.001 735.702 779.461C750.304 771.227 765.13 762.868 781.976 769.643C828.751 788.455 874.23 873.068 826.976 890.642C810.505 896.768 798.065 897.712 781.976 890.642C767.977 884.49 767.788 869.206 767.6 853.99C767.412 838.683 767.224 823.445 752.976 817.643C732.046 809.119 712.115 811.822 695.976 827.643C685.97 837.452 691.734 851.758 697.267 865.49C702.991 879.695 708.466 893.285 695.976 900.642C691.956 903.01 689.516 904.827 687.735 906.154C683.105 909.603 682.92 909.741 670.976 907.642ZM947.976 779.644C947.976 779.644 995.478 807.089 1018.98 791.643C1039.22 778.337 1043.48 757.738 1040.98 733.643C1035.68 682.749 959.199 683.695 912.976 705.643C852.232 734.488 837.044 822.886 879.976 874.642C912.21 913.501 974.636 947.997 1004.98 907.642C1015.59 893.527 1021.6 882.107 1018.98 864.642C1016.2 846.148 996.759 849.924 976.055 853.946C955.722 857.895 934.168 862.082 925.976 845.643C913.201 820.005 939.976 773.643 939.976 773.643L947.976 786.643V779.644ZM964.976 743.643C958.425 746.191 961.621 755.466 964.976 761.643C970.313 771.471 983.068 772.829 992.976 767.643C1000.75 763.574 1006.19 757.336 1004.98 748.643C1003.18 735.734 971.976 743.643 971.976 743.643C971.976 743.643 967.524 742.653 964.976 743.643ZM1268.98 853.643C1275.83 849.691 1282 846.001 1287.51 842.705C1323.85 820.975 1331.47 816.413 1314.98 867.642C1310.52 881.486 1307.27 892.962 1304.44 902.988C1295.18 935.692 1290.3 952.965 1261.98 986.641C1224.98 1030.64 1197.98 1012.64 1216.98 962.641C1223.24 946.158 1225.37 931.957 1227.28 919.25C1231.17 893.412 1234.12 873.752 1268.98 853.643ZM1301.98 762.643C1291.21 775.907 1295.16 797.137 1309.98 805.643C1326.99 815.415 1353.73 799.253 1352.98 779.644C1352.18 758.665 1315.2 746.341 1301.98 762.643ZM1288.98 1029.64C1288.98 1029.64 1304.04 1041.67 1314.98 1049.64C1345.97 1072.21 1361.99 1038.07 1380.38 998.867C1398.3 960.657 1418.48 917.642 1456.98 917.642C1465.78 917.642 1470.47 923.998 1475.22 930.431C1479.81 936.667 1484.47 942.975 1492.98 943.642C1517.49 945.563 1539.86 925.217 1538.98 900.642C1538.55 888.675 1527.46 884.625 1516.27 880.537C1505.21 876.499 1494.05 872.425 1492.98 860.642C1491.81 847.803 1504.31 842.173 1516.62 836.633C1529.1 831.016 1541.37 825.492 1538.98 812.643C1534.92 790.909 1514.9 776.795 1492.98 779.644C1482.77 780.97 1478.82 789.701 1474.84 798.494C1470.92 807.16 1466.97 815.885 1456.98 817.643C1446.47 819.492 1439.72 812.088 1432.96 804.676C1426.22 797.282 1419.48 789.879 1408.98 791.643C1387.13 795.313 1372.03 812.49 1371.98 834.643C1371.96 843.61 1379.1 849.044 1385.98 854.275C1393.39 859.912 1400.49 865.312 1397.98 874.642C1390.09 903.875 1363.25 919.593 1336.75 935.115C1306.14 953.044 1275.98 970.709 1275.98 1008.64C1275.98 1024.64 1288.98 1029.64 1288.98 1029.64ZM375.976 1065.64C604.976 905.64 1255.98 1019.64 1359.98 1141.64C1463.98 1263.64 1717.37 1031.83 1650.98 867.642C1466.98 412.642 245.977 474.642 105.976 897.642C68.6601 1010.39 146.977 1225.64 375.976 1065.64Z" stroke="black" stroke-width="2"/>
</svg>
