<svg width="286" height="226" viewBox="0 0 286 226" fill="none" xmlns="http://www.w3.org/2000/svg">
<path fill-rule="evenodd" clip-rule="evenodd" d="M90.1873 4.38039C220.749 -6.86686 188.321 234.948 90.1873 221.291C-7.94688 207.634 -40.374 15.6276 90.1873 4.38039ZM90.1873 43.8803C166.324 36.8127 147.414 188.766 90.1873 180.184C32.9604 171.602 14.0505 50.9479 90.1873 43.8803Z" fill="#80602C"/>
<path d="M247.187 216.205H281.687V4.38035H236.187L199.187 43.8803L215.687 61.3803L236.187 43.8803V216.205H247.187Z" fill="#80602C"/>
<path fill-rule="evenodd" clip-rule="evenodd" d="M90.1873 4.38039C220.749 -6.86686 188.321 234.948 90.1873 221.291C-7.94688 207.634 -40.374 15.6276 90.1873 4.38039ZM90.1873 43.8803C166.324 36.8127 147.414 188.766 90.1873 180.184C32.9604 171.602 14.0505 50.9479 90.1873 43.8803Z" stroke="#5B4522" stroke-width="8"/>
<path d="M247.187 216.205H281.687V4.38035H236.187L199.187 43.8803L215.687 61.3803L236.187 43.8803V216.205H247.187Z" stroke="#5B4522" stroke-width="8"/>
</svg>
