<svg width="366" height="232" viewBox="0 0 366 232" fill="none" xmlns="http://www.w3.org/2000/svg">
<path fill-rule="evenodd" clip-rule="evenodd" d="M90.1873 10.3569C220.749 -0.890334 188.321 240.925 90.1873 227.268C-7.94688 213.61 -40.374 21.6042 90.1873 10.3569ZM90.1873 49.8569C166.324 42.7893 147.414 194.742 90.1873 186.16C32.9604 177.578 14.0505 56.9245 90.1873 49.8569Z" fill="#80602C"/>
<path d="M355.762 219.357C346.297 225.603 219.966 234.656 219.966 219.357C219.966 204.058 218.818 198.688 219.966 185.526C224.6 132.377 330.859 73.9538 278.811 62.2366C253.592 56.5593 237 93.5485 215.028 79.9312C204.509 73.4121 193.084 66.9277 195.687 54.8295C204.187 15.3253 271.787 -12.6771 309.674 15.3253C330.943 31.046 337.158 49.8657 339.302 76.2276C343.368 126.233 276.342 177.046 276.342 177.046C276.342 177.046 349.178 174.327 355.762 179.926C362.346 185.526 365.226 213.111 355.762 219.357Z" fill="#80602C"/>
<path fill-rule="evenodd" clip-rule="evenodd" d="M90.1873 10.3569C220.749 -0.890334 188.321 240.925 90.1873 227.268C-7.94688 213.61 -40.374 21.6042 90.1873 10.3569ZM90.1873 49.8569C166.324 42.7893 147.414 194.742 90.1873 186.16C32.9604 177.578 14.0505 56.9245 90.1873 49.8569Z" stroke="#5B4522" stroke-width="8"/>
<path d="M355.762 219.357C346.297 225.603 219.966 234.656 219.966 219.357C219.966 204.058 218.818 198.688 219.966 185.526C224.6 132.377 330.859 73.9538 278.811 62.2366C253.592 56.5593 237 93.5485 215.028 79.9312C204.509 73.4121 193.084 66.9277 195.687 54.8295C204.187 15.3253 271.787 -12.6771 309.674 15.3253C330.943 31.046 337.158 49.8657 339.302 76.2276C343.368 126.233 276.342 177.046 276.342 177.046C276.342 177.046 349.178 174.327 355.762 179.926C362.346 185.526 365.226 213.111 355.762 219.357Z" stroke="#5B4522" stroke-width="8"/>
</svg>
