<svg width="339" height="235" viewBox="0 0 339 235" fill="none" xmlns="http://www.w3.org/2000/svg">
<path fill-rule="evenodd" clip-rule="evenodd" d="M90.1873 13.1344C220.749 1.88711 188.321 243.702 90.1873 230.045C-7.94688 216.388 -40.374 24.3816 90.1873 13.1344ZM90.1873 52.6343C166.324 45.5667 147.414 197.52 90.1873 188.938C32.9604 180.356 14.0505 59.7019 90.1873 52.6343Z" fill="#80602C"/>
<path d="M224.661 41.0492C226.535 12.0082 261.947 -0.956592 290.272 5.71986C316.382 11.874 331.312 32.3418 333.533 59.0744C336.015 88.9611 328.6 88.9688 327.044 118.918C325.482 148.99 335.365 161.358 327.044 190.298C320.239 213.964 302.538 227.707 278.015 229.953C251.176 232.411 214.839 219.707 219.614 193.182C221.565 182.342 224.847 174.198 234.755 169.388C251.575 161.225 254.524 201.29 272.968 198.229C283.755 196.439 293.78 193.065 296.04 182.367C308.687 122.523 247.733 136.943 247.733 122.523C247.733 113.871 312.187 118.918 301.808 59.0744C299.757 47.2453 293.193 40.4171 282.341 35.2812C261.083 25.2198 246.303 84.9924 231.15 67.0055C224.418 59.0147 223.988 51.476 224.661 41.0492Z" fill="#80602C"/>
<path fill-rule="evenodd" clip-rule="evenodd" d="M90.1873 13.1344C220.749 1.88711 188.321 243.702 90.1873 230.045C-7.94688 216.388 -40.374 24.3816 90.1873 13.1344ZM90.1873 52.6343C166.324 45.5667 147.414 197.52 90.1873 188.938C32.9604 180.356 14.0505 59.7019 90.1873 52.6343Z" stroke="#5B4522" stroke-width="8"/>
<path d="M224.661 41.0492C226.535 12.0082 261.947 -0.956592 290.272 5.71986C316.382 11.874 331.312 32.3418 333.533 59.0744C336.015 88.9611 328.6 88.9688 327.044 118.918C325.482 148.99 335.365 161.358 327.044 190.298C320.239 213.964 302.538 227.707 278.015 229.953C251.176 232.411 214.839 219.707 219.614 193.182C221.565 182.342 224.847 174.198 234.755 169.388C251.575 161.225 254.524 201.29 272.968 198.229C283.755 196.439 293.78 193.065 296.04 182.367C308.687 122.523 247.733 136.943 247.733 122.523C247.733 113.871 312.187 118.918 301.808 59.0744C299.757 47.2453 293.193 40.4171 282.341 35.2812C261.083 25.2198 246.303 84.9924 231.15 67.0055C224.418 59.0147 223.988 51.476 224.661 41.0492Z" stroke="#5B4522" stroke-width="8"/>
</svg>
