<svg width="375" height="226" viewBox="0 0 375 226" fill="none" xmlns="http://www.w3.org/2000/svg">
<path fill-rule="evenodd" clip-rule="evenodd" d="M90.1873 4.38038C220.749 -6.86686 188.321 234.948 90.1873 221.291C-7.94687 207.634 -40.374 15.6276 90.1873 4.38038ZM90.1873 43.8803C166.324 36.8127 147.414 188.766 90.1873 180.184C32.9604 171.602 14.0505 50.9479 90.1873 43.8803Z" fill="#80602C"/>
<path d="M311.891 221.291H352.235V163.859H370.271V126.838H347.489V106.903H311.891V126.838H274.394L352.235 4.38038L298.126 6.75358L216.963 132.533L214.187 163.859H311.891V221.291Z" fill="#80602C"/>
<path fill-rule="evenodd" clip-rule="evenodd" d="M90.1873 4.38038C220.749 -6.86686 188.321 234.948 90.1873 221.291C-7.94687 207.634 -40.374 15.6276 90.1873 4.38038ZM90.1873 43.8803C166.324 36.8127 147.414 188.766 90.1873 180.184C32.9604 171.602 14.0505 50.9479 90.1873 43.8803Z" stroke="#5B4522" stroke-width="8"/>
<path d="M311.891 221.291H352.235V163.859H370.271V126.838H347.489V106.903H311.891V126.838H274.394L352.235 4.38038L298.126 6.75358L216.963 132.533L214.187 163.859H311.891V221.291Z" stroke="#5B4522" stroke-width="8"/>
</svg>
