<svg width="362" height="236" viewBox="0 0 362 236" fill="none" xmlns="http://www.w3.org/2000/svg">
<path fill-rule="evenodd" clip-rule="evenodd" d="M90.1873 4.3804C220.749 -6.86685 188.321 234.948 90.1873 221.291C-7.94688 207.634 -40.374 15.6276 90.1873 4.3804ZM90.1873 43.8803C166.324 36.8127 147.414 188.766 90.1873 180.184C32.9604 171.602 14.0505 50.9479 90.1873 43.8803Z" fill="#80602C"/>
<path d="M223.187 4.3804H357.28V44.8026H281.877V82.5042C281.877 82.5042 349.935 98.1189 357.28 146.636C365.753 202.603 239.123 230.59 239.123 230.59L226.685 193.277C226.685 193.277 291.078 177.845 291.594 146.636C292.13 114.221 223.187 99.6059 223.187 99.6059V4.3804Z" fill="#80602C"/>
<path fill-rule="evenodd" clip-rule="evenodd" d="M90.1873 4.3804C220.749 -6.86685 188.321 234.948 90.1873 221.291C-7.94688 207.634 -40.374 15.6276 90.1873 4.3804ZM90.1873 43.8803C166.324 36.8127 147.414 188.766 90.1873 180.184C32.9604 171.602 14.0505 50.9479 90.1873 43.8803Z" stroke="#5B4522" stroke-width="8"/>
<path d="M223.187 4.3804H357.28V44.8026H281.877V82.5042C281.877 82.5042 349.935 98.1189 357.28 146.636C365.753 202.603 239.123 230.59 239.123 230.59L226.685 193.277C226.685 193.277 291.078 177.845 291.594 146.636C292.13 114.221 223.187 99.6059 223.187 99.6059V4.3804Z" stroke="#5B4522" stroke-width="8"/>
</svg>
