<svg width="759" height="1004" viewBox="0 0 759 1004" fill="none" xmlns="http://www.w3.org/2000/svg">
<path fill-rule="evenodd" clip-rule="evenodd" d="M321.199 694.235C321.892 803.073 322.371 878.155 262.043 980.802L481.543 998.302C481.543 998.302 503.043 640.802 475.043 572.802C438.672 484.473 345.604 486.746 287.043 505.802C213.12 529.857 126.32 643.634 194.043 681.802C238.079 706.621 321.043 656.802 321.043 656.802C321.043 669.748 321.122 682.198 321.199 694.235ZM305.043 545.752L316.543 545.302C320.377 546.063 323.821 547.595 326.558 549.802C326.558 549.802 318.127 562.31 311.543 559.802C305.893 557.65 305.043 545.752 305.043 545.752Z" fill="#D9D9D9"/>
<path d="M316.543 545.302L305.043 545.752C305.043 545.752 305.893 557.65 311.543 559.802C318.127 562.31 326.558 549.802 326.558 549.802C323.821 547.595 320.377 546.063 316.543 545.302Z" fill="black"/>
<path d="M316.543 545.302C312.54 544.508 308.562 544.641 305.043 545.752M316.543 545.302L305.043 545.752M316.543 545.302C320.377 546.063 323.821 547.595 326.558 549.802M305.043 545.752C300.423 547.21 296.595 550.355 294.543 555.302C290.69 564.587 295.944 574.529 305.043 578.802C316.442 584.156 333.484 575.389 333.043 562.802C332.851 557.322 330.399 552.898 326.558 549.802M305.043 545.752C305.043 545.752 305.893 557.65 311.543 559.802C318.127 562.31 326.558 549.802 326.558 549.802M262.043 980.802L481.543 998.302C481.543 998.302 503.043 640.802 475.043 572.802C438.672 484.473 345.604 486.746 287.043 505.802C213.12 529.857 126.32 643.634 194.043 681.802C238.079 706.621 321.043 656.802 321.043 656.802C321.043 669.748 321.122 682.198 321.199 694.235C321.892 803.073 322.371 878.155 262.043 980.802Z" stroke="black" stroke-width="10"/>
<path d="M569.189 391.353L614.003 412.352C614.003 412.352 750.906 327.437 753.925 252.902C756.944 178.368 587.403 151.413 555.983 195.485C524.564 239.557 567.035 253.385 576.808 250.386C586.581 247.387 633.518 224.569 660.15 256.411C686.781 288.253 569.189 391.353 569.189 391.353Z" fill="#823334"/>
<path d="M528.288 440.91C516.06 454.831 513.661 475.995 527.447 488.351C540.704 500.234 560.045 496.867 572.871 484.502C587.346 470.548 589.662 444.969 573.516 433.016C559.108 422.349 540.13 427.43 528.288 440.91Z" fill="#823334"/>
<path d="M569.189 391.353L614.003 412.352C614.003 412.352 750.906 327.437 753.925 252.902C756.944 178.368 587.403 151.413 555.983 195.485C524.564 239.557 567.035 253.385 576.808 250.386C586.581 247.387 633.518 224.569 660.15 256.411C686.781 288.253 569.189 391.353 569.189 391.353Z" stroke="black" stroke-width="10"/>
<path d="M528.288 440.91C516.06 454.831 513.661 475.995 527.447 488.351C540.704 500.234 560.045 496.867 572.871 484.502C587.346 470.548 589.662 444.969 573.516 433.016C559.108 422.349 540.13 427.43 528.288 440.91Z" stroke="black" stroke-width="10"/>
<path d="M132.464 458.006L162.648 438.479C162.648 438.479 163.105 321.538 118.39 291.035C73.675 260.532 -8.20972 354.579 6.81727 390.865C21.8443 427.151 46.7123 406.311 48.6301 399.14C50.5479 391.969 54.5794 354.295 84.435 350.132C114.291 345.969 132.464 458.006 132.464 458.006Z" fill="#823334"/>
<path d="M147.217 502.239C151.075 515.12 163.179 524.73 176.094 520.989C188.513 517.392 193.889 504.188 191.218 491.537C188.204 477.261 173.351 466.004 159.775 471.353C147.661 476.126 143.48 489.766 147.217 502.239Z" fill="#823334"/>
<path d="M132.464 458.006L162.648 438.479C162.648 438.479 163.105 321.538 118.39 291.035C73.675 260.532 -8.20972 354.579 6.81727 390.865C21.8443 427.151 46.7123 406.311 48.6301 399.14C50.5479 391.969 54.5794 354.295 84.435 350.132C114.291 345.969 132.464 458.006 132.464 458.006Z" stroke="black" stroke-width="10"/>
<path d="M147.217 502.239C151.075 515.12 163.179 524.73 176.094 520.989C188.513 517.392 193.889 504.188 191.218 491.537C188.204 477.261 173.351 466.004 159.775 471.353C147.661 476.126 143.48 489.766 147.217 502.239Z" stroke="black" stroke-width="10"/>
<path d="M345.783 328.787L410.467 316.33C410.467 316.33 491.513 117.968 436.483 35.4513C381.453 -47.0652 177.78 56.5088 178.403 128.471C179.025 200.434 235.58 182.097 243.76 171.231C251.94 160.364 284.65 99.1254 338.23 112.546C391.811 125.967 345.783 328.787 345.783 328.787Z" fill="#823334"/>
<path d="M340.483 414.062C338.198 438.594 352.164 463.229 376.674 465.739C400.242 468.153 418.44 449.41 422.585 426.083C427.264 399.759 409.756 370.44 383.021 370.209C359.163 370.003 342.696 390.306 340.483 414.062Z" fill="#823334"/>
<path d="M345.783 328.787L410.467 316.33C410.467 316.33 491.513 117.968 436.483 35.4513C381.453 -47.0652 177.78 56.5088 178.403 128.471C179.025 200.434 235.58 182.097 243.76 171.231C251.94 160.364 284.65 99.1254 338.23 112.546C391.811 125.967 345.783 328.787 345.783 328.787Z" stroke="black" stroke-width="10"/>
<path d="M340.483 414.062C338.198 438.594 352.164 463.229 376.674 465.739C400.242 468.153 418.44 449.41 422.585 426.083C427.264 399.759 409.756 370.44 383.021 370.209C359.163 370.003 342.696 390.306 340.483 414.062Z" stroke="black" stroke-width="10"/>
</svg>
