<svg width="1920" height="1080" viewBox="0 0 1920 1080" fill="none" xmlns="http://www.w3.org/2000/svg">
<rect width="1920" height="1080" fill="#1E1E1E"/>
<path d="M110.733 370.602L110.161 334.019L195.164 322.831L207.362 249.792L260.727 223.895L261.87 179.267L230.232 148.97L227.945 114.399L160.286 84.8562L151.709 29.1654L0 0L101.394 36.9596L94.3419 89.6333L162.001 119.176L164.288 153.747L195.926 184.044L194.783 228.672L141.227 254.569L137.987 303.597L61.5605 313.654L64.8005 354.762L0 384.304L59.464 387.196L110.733 370.602Z" fill="#A47A36"/>
<path d="M1732.08 957.304L1761.62 897.465L1669.76 830.46L1688.43 785.455L1675.47 747.238L1638.31 714.804L1674.33 676.587L1676.43 638.999L1629.54 606.565L1646.89 541.823L1679.67 500.715L1692.82 445.275L1758.38 409.95L1772.67 372.487L1826.23 354.511L1816.32 307.62L1854.44 276.317L1920 259.472V0H0L151.709 29.1654L160.286 84.8562L227.945 114.399L230.232 148.97L261.87 179.267L260.727 223.895L207.362 249.792L195.164 322.831L110.161 334.019L110.733 370.602L59.464 387.196L0 384.305V1080H1920L1867.59 1011.36L1752.85 985.338L1732.08 957.304Z" fill="#80602C"/>
<path d="M1920 259.472L1854.44 276.317L1816.32 307.62L1826.23 354.511L1772.67 372.488L1758.38 409.95L1692.82 445.275L1679.67 500.715L1646.89 541.823L1629.54 606.565L1676.43 638.999L1674.33 676.587L1638.31 714.804L1675.47 747.238L1688.43 785.455L1669.76 830.46L1761.62 897.465L1732.08 957.304L1752.85 985.338L1867.59 1011.36L1810.79 980.31L1790.02 952.276L1819.56 892.436L1727.7 825.431L1746.18 798.654L1733.22 760.563L1696.06 728.129L1732.08 689.913L1734.18 641.639L1687.29 609.205L1704.82 555.148L1737.61 514.04L1750.57 458.601L1816.13 423.276L1830.42 385.813L1883.98 367.71L1874.07 320.945L1920 259.472Z" fill="#A47A36"/>
<path d="M1763.86 122.894C1764.36 121.312 1763.47 119.63 1761.89 119.137C1760.31 118.645 1758.63 119.528 1758.14 121.11L1761 122.002L1763.86 122.894ZM1658 73.0018L1658.04 70.0021L1658 73.0018ZM1640 91.0018L1643 90.9336L1640 91.0018ZM1664 107.002L1662.94 104.194L1664 107.002ZM1675.5 91.0018L1678.5 91.0814L1675.5 91.0018ZM1706.5 91.0018L1709.4 91.7596L1706.5 91.0018ZM1719 114.002L1719.87 111.131L1719 114.002ZM1743 97.5018L1745.98 97.8153L1743 97.5018ZM1730.5 77.5018L1731.45 74.6574L1730.5 77.5018ZM1630 129.002H1627C1627 145.211 1634.57 157.071 1646.17 164.533C1657.65 171.913 1672.92 174.928 1688.54 174.06C1719.63 172.333 1753.85 155.032 1763.86 122.894L1761 122.002L1758.14 121.11C1749.15 149.972 1717.87 166.421 1688.21 168.069C1673.46 168.888 1659.54 165.997 1649.42 159.487C1639.43 153.058 1633 143.043 1633 129.002H1630ZM1658 73.0018L1658.04 70.0021C1646.44 69.8386 1636.74 79.3976 1637 91.0699L1640 91.0018L1643 90.9336C1642.81 82.7288 1649.68 75.8849 1657.96 76.0015L1658 73.0018ZM1640 91.0018L1637 91.0699C1637.16 97.8874 1641.2 103.705 1646.48 107.21C1651.76 110.715 1658.7 112.199 1665.06 109.81L1664 107.002L1662.94 104.194C1658.75 105.769 1653.82 104.883 1649.8 102.212C1645.78 99.5419 1643.1 95.3777 1643 90.9336L1640 91.0018ZM1664 107.002L1665.06 109.81C1673.37 106.683 1678.26 100.024 1678.5 91.0814L1675.5 91.0018L1672.5 90.9221C1672.33 97.3635 1669.03 101.904 1662.94 104.194L1664 107.002ZM1675.5 91.0018L1678.5 91.0814C1678.8 79.5613 1669.47 70.163 1658.04 70.0021L1658 73.0018L1657.96 76.0015C1666.14 76.1167 1672.72 82.8411 1672.5 90.9221L1675.5 91.0018ZM1706.5 91.0018L1703.6 90.244C1700.63 101.599 1706.71 113.41 1718.13 116.873L1719 114.002L1719.87 111.131C1711.72 108.66 1707.2 100.187 1709.4 91.7596L1706.5 91.0018ZM1719 114.002L1718.13 116.873C1730.95 120.76 1744.61 110.862 1745.98 97.8153L1743 97.5018L1740.02 97.1883C1739.01 106.764 1728.82 113.845 1719.87 111.131L1719 114.002ZM1743 97.5018L1745.98 97.8153C1747.08 87.351 1741.61 78.0623 1731.45 74.6574L1730.5 77.5018L1729.55 80.3461C1736.86 82.7983 1740.84 89.3324 1740.02 97.1883L1743 97.5018ZM1730.5 77.5018L1731.45 74.6574C1719.49 70.6445 1706.72 78.2866 1703.6 90.244L1706.5 91.0018L1709.4 91.7596C1711.71 82.9071 1721.12 77.5207 1729.55 80.3461L1730.5 77.5018Z" fill="black"/>
</svg>
