<svg width="571" height="248" viewBox="0 0 571 248" fill="none" xmlns="http://www.w3.org/2000/svg">
<rect width="571" height="248" fill="#1E1E1E"/>
<path d="M61.7142 37.6568C32.7142 54.6568 38.7142 173.657 55.7142 201.657C72.7143 229.657 497.714 231.657 516.714 209.657C535.714 187.657 536.714 55.6569 521.714 37.6568C506.714 19.6568 90.7143 20.6569 61.7142 37.6568Z" fill="#80602C"/>
<path fill-rule="evenodd" clip-rule="evenodd" d="M23.9953 16.6569C-9.65229 37.5797 -2.6907 184.04 17.0337 218.501C36.7581 252.962 529.868 255.423 551.913 228.347C573.958 201.27 575.118 38.8106 557.714 16.6569C540.31 -5.49667 57.6428 -4.26584 23.9953 16.6569ZM55.7142 201.657C38.7142 173.657 32.7142 54.6568 61.7142 37.6568C90.7143 20.6569 506.714 19.6568 521.714 37.6568C536.714 55.6569 535.714 187.657 516.714 209.657C497.714 231.657 72.7143 229.657 55.7142 201.657Z" fill="#5B4522"/>
<path d="M61.7142 37.6568C32.7142 54.6568 38.7142 173.657 55.7142 201.657C72.7143 229.657 497.714 231.657 516.714 209.657C535.714 187.657 536.714 55.6569 521.714 37.6568C506.714 19.6568 90.7143 20.6569 61.7142 37.6568Z" stroke="black"/>
<path fill-rule="evenodd" clip-rule="evenodd" d="M23.9953 16.6569C-9.65229 37.5797 -2.6907 184.04 17.0337 218.501C36.7581 252.962 529.868 255.423 551.913 228.347C573.958 201.27 575.118 38.8106 557.714 16.6569C540.31 -5.49667 57.6428 -4.26584 23.9953 16.6569ZM55.7142 201.657C38.7142 173.657 32.7142 54.6568 61.7142 37.6568C90.7143 20.6569 506.714 19.6568 521.714 37.6568C536.714 55.6569 535.714 187.657 516.714 209.657C497.714 231.657 72.7143 229.657 55.7142 201.657Z" stroke="black"/>
</svg>
