<svg width="1032" height="241" viewBox="0 0 1032 241" fill="none" xmlns="http://www.w3.org/2000/svg">
<path d="M62.2455 35.5896H971.246C971.246 35.5896 936.246 148.59 910.246 174.59C884.246 200.59 139.245 209.59 114.245 174.59C89.2454 139.59 62.2455 35.5896 62.2455 35.5896Z" fill="#80602C"/>
<path fill-rule="evenodd" clip-rule="evenodd" d="M0.615021 0.5H1031.29C1031.29 0.5 989.808 167.228 958.993 205.59C928.178 243.952 91.8754 257.231 62.2453 205.59C32.6153 153.948 0.615021 0.5 0.615021 0.5ZM971.246 35.5896H62.2455C62.2455 35.5896 89.2454 139.59 114.245 174.59C139.245 209.59 884.246 200.59 910.246 174.59C936.246 148.59 971.246 35.5896 971.246 35.5896Z" fill="#5B4522"/>
<path d="M62.2455 35.5896H971.246C971.246 35.5896 936.246 148.59 910.246 174.59C884.246 200.59 139.245 209.59 114.245 174.59C89.2454 139.59 62.2455 35.5896 62.2455 35.5896Z" stroke="black"/>
<path fill-rule="evenodd" clip-rule="evenodd" d="M0.615021 0.5H1031.29C1031.29 0.5 989.808 167.228 958.993 205.59C928.178 243.952 91.8754 257.231 62.2453 205.59C32.6153 153.948 0.615021 0.5 0.615021 0.5ZM971.246 35.5896H62.2455C62.2455 35.5896 89.2454 139.59 114.245 174.59C139.245 209.59 884.246 200.59 910.246 174.59C936.246 148.59 971.246 35.5896 971.246 35.5896Z" stroke="black"/>
</svg>
