<svg width="248" height="369" viewBox="0 0 248 369" fill="none" xmlns="http://www.w3.org/2000/svg">
<path d="M37.6568 306.364C54.6568 335.364 173.657 329.364 201.657 312.364C229.657 295.364 231.657 72.508 209.657 53.508C187.657 34.508 55.6569 33.508 37.6568 48.508C19.6568 63.508 20.6569 277.364 37.6568 306.364Z" fill="#80602C"/>
<path fill-rule="evenodd" clip-rule="evenodd" d="M16.6569 344.083C37.5797 377.73 184.04 370.769 218.501 351.044C252.962 331.32 255.423 40.3542 228.347 18.3093C201.27 -3.73562 38.8106 -4.89585 16.6569 12.508C-5.49667 29.9119 -4.26584 310.435 16.6569 344.083ZM201.657 312.364C173.657 329.364 54.6568 335.364 37.6568 306.364C20.6569 277.364 19.6568 63.508 37.6568 48.508C55.6569 33.508 187.657 34.508 209.657 53.508C231.657 72.508 229.657 295.364 201.657 312.364Z" fill="#5B4522"/>
<path d="M37.6568 306.364C54.6568 335.364 173.657 329.364 201.657 312.364C229.657 295.364 231.657 72.508 209.657 53.508C187.657 34.508 55.6569 33.508 37.6568 48.508C19.6568 63.508 20.6569 277.364 37.6568 306.364Z" stroke="black"/>
<path fill-rule="evenodd" clip-rule="evenodd" d="M16.6569 344.083C37.5797 377.73 184.04 370.769 218.501 351.044C252.962 331.32 255.423 40.3542 228.347 18.3093C201.27 -3.73562 38.8106 -4.89585 16.6569 12.508C-5.49667 29.9119 -4.26584 310.435 16.6569 344.083ZM201.657 312.364C173.657 329.364 54.6568 335.364 37.6568 306.364C20.6569 277.364 19.6568 63.508 37.6568 48.508C55.6569 33.508 187.657 34.508 209.657 53.508C231.657 72.508 229.657 295.364 201.657 312.364Z" stroke="black"/>
</svg>
