<svg width="527" height="314" viewBox="0 0 527 314" fill="none" xmlns="http://www.w3.org/2000/svg">
<path d="M83.0984 301.182C90.0984 312.682 247.598 240.422 241.098 230.682C234.598 220.943 236.092 219.182 236.092 219.182L171.447 70.6821C171.447 70.6821 159.098 36.623 153.598 29.6821C148.098 22.7412 -3.90166 89.1821 0.598362 104.182C5.09839 119.182 76.0983 289.682 83.0984 301.182Z" fill="#D9D9D9"/>
<path d="M177.098 6.68208C177.098 21.1821 171.447 70.6821 171.447 70.6821L236.092 219.182C236.092 219.182 314.243 230.682 317.098 225.682C319.954 220.682 320.852 189.682 320.852 189.682L329.297 108.682C329.297 108.682 339.098 22.682 339.098 14.6821C339.098 6.68212 177.098 -7.81794 177.098 6.68208Z" fill="#C9C9C9"/>
<path d="M415.098 40.1821C408.897 45.1821 329.297 108.682 329.297 108.682L320.852 189.682L362.598 253.682L380.598 237.649L474.598 153.921L513.598 119.182C513.598 119.182 421.299 35.1821 415.098 40.1821Z" fill="#BEBEBE"/>
<path d="M522.598 157.682C514.098 157.682 474.598 153.921 474.598 153.921L380.598 237.649L399.598 239.939L403.598 240.422L470.098 248.438C470.098 248.438 506.598 253.682 513.598 253.682C520.598 253.682 531.098 157.682 522.598 157.682Z" fill="#BDB9B9"/>
<path d="M495.098 286.182C491.598 280.682 470.098 248.438 470.098 248.438L403.598 240.422L421.299 281.682C421.299 281.682 432.098 308.682 434.598 312.682C437.098 316.682 498.598 291.682 495.098 286.182Z" fill="#ADADAD"/>
<path d="M421.299 281.682L403.598 240.422L399.598 239.939L385.098 263.061C385.098 263.061 373.098 280.682 370.598 286.182C368.098 291.682 403.598 312.682 406.598 309.682C409.598 306.682 421.299 281.682 421.299 281.682Z" fill="#949494"/>
<path d="M380.598 237.649L362.598 253.682C362.598 253.682 361.189 259.68 362.598 263.061C364.008 266.441 385.098 263.061 385.098 263.061L399.598 239.939L380.598 237.649Z" fill="#818181"/>
<path d="M171.447 70.6821C171.447 70.6821 159.098 36.623 153.598 29.6821C148.098 22.7412 -3.90166 89.1821 0.598362 104.182C5.09839 119.182 76.0983 289.682 83.0984 301.182C90.0984 312.682 247.598 240.422 241.098 230.682C234.598 220.943 236.092 219.182 236.092 219.182M171.447 70.6821C171.447 70.6821 177.098 21.1821 177.098 6.68208C177.098 -7.81794 339.098 6.68212 339.098 14.6821C339.098 22.682 329.297 108.682 329.297 108.682M171.447 70.6821L236.092 219.182M236.092 219.182C236.092 219.182 314.243 230.682 317.098 225.682C319.954 220.682 320.852 189.682 320.852 189.682M329.297 108.682C329.297 108.682 408.897 45.1821 415.098 40.1821C421.299 35.1821 513.598 119.182 513.598 119.182L474.598 153.921M329.297 108.682L320.852 189.682M362.598 253.682L320.852 189.682M362.598 253.682L380.598 237.649M362.598 253.682C362.598 253.682 361.189 259.68 362.598 263.061C364.008 266.441 385.098 263.061 385.098 263.061M474.598 153.921C474.598 153.921 514.098 157.682 522.598 157.682C531.098 157.682 520.598 253.682 513.598 253.682C506.598 253.682 470.098 248.438 470.098 248.438M474.598 153.921L380.598 237.649M380.598 237.649L399.598 239.939M470.098 248.438C470.098 248.438 491.598 280.682 495.098 286.182C498.598 291.682 437.098 316.682 434.598 312.682C432.098 308.682 421.299 281.682 421.299 281.682M470.098 248.438L403.598 240.422M403.598 240.422L421.299 281.682M403.598 240.422L399.598 239.939M421.299 281.682C421.299 281.682 409.598 306.682 406.598 309.682C403.598 312.682 368.098 291.682 370.598 286.182C373.098 280.682 385.098 263.061 385.098 263.061M399.598 239.939L385.098 263.061" stroke="#593214"/>
<path fill-rule="evenodd" clip-rule="evenodd" d="M25.2875 99.9771C25.2875 99.9771 26.4114 120.161 34.4375 118.737C36.7307 118.331 38.3249 117.927 39.7976 116.123C42.9886 112.214 31.3504 108.719 34.1333 104.51C35.7745 102.027 39.5718 103.789 40.9823 101.169C42.9448 97.5234 40.0551 93.4569 36.3347 91.6401C31.5679 89.3122 22.7563 92.4698 24.1256 97.5948C24.3928 98.5948 25.2875 99.9771 25.2875 99.9771ZM32.2452 100.638C31.3516 100.116 30.9448 99.2819 31.0833 98.2561C31.2911 96.7175 33.3163 95.7297 34.6567 96.5133C35.5503 97.0357 35.9571 97.8698 35.8186 98.8955C35.6108 100.434 33.5856 101.422 32.2452 100.638Z" fill="#413E3E"/>
<path d="M46.3424 98.5548C46.3424 98.5548 46.9796 110.605 52.0067 110.168C53.9402 110 55.5115 109.675 56.4734 107.99C57.8843 105.518 53.3466 104.284 53.2782 101.439C53.2211 99.0605 56.9266 97.3778 55.2613 95.6793C54.2285 94.6259 52.8509 94.1797 51.5646 94.9019C50.3652 95.5753 51.5567 97.9286 50.199 98.1483C48.6663 98.3963 49.9447 95.0162 48.4561 94.5749C47.0915 94.1704 45.4283 94.771 45.1805 96.1725C45.0003 97.1918 46.3424 98.5548 46.3424 98.5548Z" fill="#413E3E"/>
<path fill-rule="evenodd" clip-rule="evenodd" d="M58.8546 93.3691C57.7676 97.3528 59.6896 101.549 63.5512 102.999C67.5118 104.485 71.7246 102.305 73.1384 98.3226C74.6229 94.1411 73.364 90.8771 68.0805 87.9524C62.7971 85.0278 59.9727 89.2718 58.8546 93.3691ZM64.6056 99.4983C62.5838 98.7079 61.2831 95.8894 61.8075 93.7615C62.2781 91.8521 63.8212 90.8189 65.6593 91.3578C67.8654 92.0045 68.9806 95.1087 68.5555 97.2958C68.1506 99.3787 66.413 100.205 64.6056 99.4983Z" fill="#413E3E"/>
<path d="M68.3354 77.1381C69.4893 78.3619 71.3121 77.9231 72.635 76.8842C74.0812 75.7484 74.9392 73.6758 73.7174 72.3014C72.52 70.9546 70.4382 71.4718 69.12 72.7006C67.8327 73.9006 67.1281 75.8577 68.3354 77.1381Z" fill="#413E3E"/>
<path fill-rule="evenodd" clip-rule="evenodd" d="M96.2923 79.1718C97.408 76.7504 102.025 78.3541 102.996 75.9021C103.927 73.5538 102.277 71.8562 100.047 70.8272C96.3878 69.1387 92.0055 72.4149 89.512 75.9654C85.8066 81.2416 89.3657 88.3929 95.7808 88.8183C100.255 89.115 107.197 87.4239 106.699 83.4933C106.56 82.3964 106.375 81.672 105.479 80.9919C103.338 79.3667 100.731 85.4819 98.1368 84.4122C95.974 83.5205 95.2823 81.3638 96.2923 79.1718ZM95.2741 77.0844C94.2261 76.6684 93.792 75.7784 94.1095 74.6965C94.5374 73.2379 96.6526 72.2063 98.0655 72.767C99.1135 73.183 99.5476 74.0729 99.2301 75.1549C98.8021 76.6135 96.687 77.6451 95.2741 77.0844Z" fill="#413E3E"/>
<path d="M117.736 60.9109C120.547 61.3832 121.102 63.8735 119.725 64.9883C117.082 67.1278 113.52 69.558 115.244 73.1849C116.811 76.4814 118.805 75.195 123.959 75.938C125.634 76.1794 125.669 77.9855 125.405 79.6566C124.772 83.6511 112.382 81.0261 109.739 75.5014C106.935 69.64 111.328 59.8343 117.736 60.9109Z" fill="#413E3E"/>
<path d="M137.306 76.8497C140.008 76.569 141.082 76.0044 143.559 73.7997C151.014 67.1661 130.704 62.6178 135.507 57.2906C136.733 55.9313 139.06 56.4536 139.381 54.6515C139.645 53.1665 139.063 51.7986 137.688 51.1799C136.036 50.437 135.217 53.844 133.519 53.2133C131.9 52.6122 133.015 50.2006 131.581 49.2402C128.988 47.5045 124.638 50.3063 124.774 53.4234C124.836 54.8453 126.967 55.4061 126.372 56.699C125.885 57.7568 124.208 56.9625 123.692 58.0061C123.023 59.358 123.966 60.966 125.385 61.4777C126.846 62.0043 127.453 60.1159 128.958 59.7348C136.167 57.9098 126.78 77.9427 137.306 76.8497Z" fill="#413E3E"/>
<path fill-rule="evenodd" clip-rule="evenodd" d="M93.3152 90.3249C92.8148 90.0317 92.4733 89.9493 91.8919 89.8643C90.7553 89.698 88.4372 90.8316 85.9979 92.5171C82.7081 85.272 76.7907 77.4531 75.6286 78.5166C75.0056 79.0869 74.6808 79.4513 74.2326 80.1598C73.1432 81.8818 79.5122 88.8202 83.1752 94.6767C79.244 97.989 76.1042 102.022 78.5665 103.382C82.5165 105.563 85.9185 106.457 87.8393 102.323C88.5906 100.706 88.1429 98.0566 87.061 95.0978C90.705 92.9672 94.4128 90.968 93.3152 90.3249ZM81.2634 100.719C81.8895 101.184 83.5617 104.001 85.0491 102.337C86.106 101.155 85.6028 99.1173 84.3634 96.735C81.8533 98.3489 80.1019 99.8575 81.2634 100.719Z" fill="#413E3E"/>
<path fill-rule="evenodd" clip-rule="evenodd" d="M25.2875 99.9771C25.2875 99.9771 26.4114 120.161 34.4375 118.737C36.7307 118.331 38.3249 117.927 39.7976 116.123C42.9886 112.214 31.3504 108.719 34.1333 104.51C35.7745 102.027 39.5718 103.789 40.9823 101.169C42.9448 97.5234 40.0551 93.4569 36.3347 91.6401C31.5679 89.3122 22.7563 92.4698 24.1256 97.5948C24.3928 98.5948 25.2875 99.9771 25.2875 99.9771ZM32.2452 100.638C31.3516 100.116 30.9448 99.2819 31.0833 98.2561C31.2911 96.7175 33.3163 95.7297 34.6567 96.5133C35.5503 97.0357 35.9571 97.8698 35.8186 98.8955C35.6108 100.434 33.5856 101.422 32.2452 100.638Z" stroke="black"/>
<path d="M46.3424 98.5548C46.3424 98.5548 46.9796 110.605 52.0067 110.168C53.9402 110 55.5115 109.675 56.4734 107.99C57.8843 105.518 53.3466 104.284 53.2782 101.439C53.2211 99.0605 56.9266 97.3778 55.2613 95.6793C54.2285 94.6259 52.8509 94.1797 51.5646 94.9019C50.3652 95.5753 51.5567 97.9286 50.199 98.1483C48.6663 98.3963 49.9447 95.0162 48.4561 94.5749C47.0915 94.1704 45.4283 94.771 45.1805 96.1725C45.0003 97.1918 46.3424 98.5548 46.3424 98.5548Z" stroke="black"/>
<path fill-rule="evenodd" clip-rule="evenodd" d="M58.8546 93.3691C57.7676 97.3528 59.6896 101.549 63.5512 102.999C67.5118 104.485 71.7246 102.305 73.1384 98.3226C74.6229 94.1411 73.364 90.8771 68.0805 87.9524C62.7971 85.0278 59.9727 89.2718 58.8546 93.3691ZM64.6056 99.4983C62.5838 98.7079 61.2831 95.8894 61.8075 93.7615C62.2781 91.8521 63.8212 90.8189 65.6593 91.3578C67.8654 92.0045 68.9806 95.1087 68.5555 97.2958C68.1506 99.3787 66.413 100.205 64.6056 99.4983Z" stroke="black"/>
<path d="M68.3354 77.1381C69.4893 78.3619 71.3121 77.9231 72.635 76.8842C74.0812 75.7484 74.9392 73.6758 73.7174 72.3014C72.52 70.9546 70.4382 71.4718 69.12 72.7006C67.8327 73.9006 67.1281 75.8577 68.3354 77.1381Z" stroke="black"/>
<path fill-rule="evenodd" clip-rule="evenodd" d="M96.2923 79.1718C97.408 76.7504 102.025 78.3541 102.996 75.9021C103.927 73.5538 102.277 71.8562 100.047 70.8272C96.3878 69.1387 92.0055 72.4149 89.512 75.9654C85.8066 81.2416 89.3657 88.3929 95.7808 88.8183C100.255 89.115 107.197 87.4239 106.699 83.4933C106.56 82.3964 106.375 81.672 105.479 80.9919C103.338 79.3667 100.731 85.4819 98.1368 84.4122C95.974 83.5205 95.2823 81.3638 96.2923 79.1718ZM95.2741 77.0844C94.2261 76.6684 93.792 75.7784 94.1095 74.6965C94.5374 73.2379 96.6526 72.2063 98.0655 72.767C99.1135 73.183 99.5476 74.0729 99.2301 75.1549C98.8021 76.6135 96.687 77.6451 95.2741 77.0844Z" stroke="black"/>
<path d="M117.736 60.9109C120.547 61.3832 121.102 63.8735 119.725 64.9883C117.082 67.1278 113.52 69.558 115.244 73.1849C116.811 76.4814 118.805 75.195 123.959 75.938C125.634 76.1794 125.669 77.9855 125.405 79.6566C124.772 83.6511 112.382 81.0261 109.739 75.5014C106.935 69.64 111.328 59.8343 117.736 60.9109Z" stroke="black"/>
<path d="M137.306 76.8497C140.008 76.569 141.082 76.0044 143.559 73.7997C151.014 67.1661 130.704 62.6178 135.507 57.2906C136.733 55.9313 139.06 56.4536 139.381 54.6515C139.645 53.1665 139.063 51.7986 137.688 51.1799C136.036 50.437 135.217 53.844 133.519 53.2133C131.9 52.6122 133.015 50.2006 131.581 49.2402C128.988 47.5045 124.638 50.3063 124.774 53.4234C124.836 54.8453 126.967 55.4061 126.372 56.699C125.885 57.7568 124.208 56.9625 123.692 58.0061C123.023 59.358 123.966 60.966 125.385 61.4777C126.846 62.0043 127.453 60.1159 128.958 59.7348C136.167 57.9098 126.78 77.9427 137.306 76.8497Z" stroke="black"/>
<path fill-rule="evenodd" clip-rule="evenodd" d="M93.3152 90.3249C92.8148 90.0317 92.4733 89.9493 91.8919 89.8643C90.7553 89.698 88.4372 90.8316 85.9979 92.5171C82.7081 85.272 76.7907 77.4531 75.6286 78.5166C75.0056 79.0869 74.6808 79.4513 74.2326 80.1598C73.1432 81.8818 79.5122 88.8202 83.1752 94.6767C79.244 97.989 76.1042 102.022 78.5665 103.382C82.5165 105.563 85.9185 106.457 87.8393 102.323C88.5906 100.706 88.1429 98.0566 87.061 95.0978C90.705 92.9672 94.4128 90.968 93.3152 90.3249ZM81.2634 100.719C81.8895 101.184 83.5617 104.001 85.0491 102.337C86.106 101.155 85.6028 99.1173 84.3634 96.735C81.8533 98.3489 80.1019 99.8575 81.2634 100.719Z" stroke="black"/>
<path fill-rule="evenodd" clip-rule="evenodd" d="M369.577 259.753C369.577 259.753 375.634 263.203 376.732 260.626C377.045 259.89 377.228 259.355 376.983 258.594C376.451 256.944 373.249 259.641 372.554 258.053C372.143 257.116 373.368 256.352 372.874 255.456C372.188 254.209 370.466 254.281 369.24 255.013C367.669 255.95 366.926 259.078 368.668 259.642C369.008 259.752 369.577 259.753 369.577 259.753ZM371.077 257.873C370.758 258.032 370.44 257.994 370.169 257.762C369.762 257.414 369.857 256.647 370.336 256.407C370.655 256.247 370.973 256.286 371.245 256.518C371.651 256.866 371.556 257.633 371.077 257.873Z" fill="#413E3E"/>
<path d="M373.125 253.424C373.125 253.424 376.735 255.494 377.555 253.965C377.87 253.377 378.071 252.863 377.764 252.271C377.313 251.403 376.102 252.479 375.265 251.966C374.566 251.538 374.775 250.156 373.97 250.318C373.471 250.419 373.082 250.732 373.05 251.237C373.019 251.709 373.925 251.805 373.733 252.238C373.517 252.725 372.778 251.725 372.37 252.071C371.996 252.388 371.857 252.98 372.217 253.313C372.478 253.556 373.125 253.424 373.125 253.424Z" fill="#413E3E"/>
<path fill-rule="evenodd" clip-rule="evenodd" d="M373.977 248.852C374.926 249.909 376.503 250.141 377.649 249.3C378.825 248.437 378.986 246.817 378.098 245.665C377.166 244.456 375.984 244.208 374.143 245.182C372.302 246.157 373 247.763 373.977 248.852ZM376.834 248.342C376.225 248.776 375.164 248.624 374.646 248.075C374.181 247.582 374.172 246.945 374.674 246.516C375.277 246.002 376.385 246.261 376.939 246.792C377.466 247.299 377.379 247.953 376.834 248.342Z" fill="#413E3E"/>
<path fill-rule="evenodd" clip-rule="evenodd" d="M369.577 259.753C369.577 259.753 375.634 263.203 376.732 260.626C377.045 259.89 377.228 259.355 376.983 258.594C376.451 256.944 373.249 259.641 372.554 258.053C372.143 257.116 373.368 256.352 372.874 255.456C372.188 254.209 370.466 254.281 369.24 255.013C367.669 255.95 366.926 259.078 368.668 259.642C369.008 259.752 369.577 259.753 369.577 259.753ZM371.077 257.873C370.758 258.032 370.44 257.994 370.169 257.762C369.762 257.414 369.857 256.647 370.336 256.407C370.655 256.247 370.973 256.286 371.245 256.518C371.651 256.866 371.556 257.633 371.077 257.873Z" stroke="black"/>
<path d="M373.125 253.424C373.125 253.424 376.735 255.494 377.555 253.965C377.87 253.377 378.071 252.863 377.764 252.271C377.313 251.403 376.102 252.479 375.265 251.966C374.566 251.538 374.775 250.156 373.97 250.318C373.471 250.419 373.082 250.732 373.05 251.237C373.019 251.709 373.925 251.805 373.733 252.238C373.517 252.725 372.778 251.725 372.37 252.071C371.996 252.388 371.857 252.98 372.217 253.313C372.478 253.556 373.125 253.424 373.125 253.424Z" stroke="black"/>
<path fill-rule="evenodd" clip-rule="evenodd" d="M373.977 248.852C374.926 249.909 376.503 250.141 377.649 249.3C378.825 248.437 378.986 246.817 378.098 245.665C377.166 244.456 375.984 244.208 374.143 245.182C372.302 246.157 373 247.763 373.977 248.852ZM376.834 248.342C376.225 248.776 375.164 248.624 374.646 248.075C374.181 247.582 374.172 246.945 374.674 246.516C375.277 246.002 376.385 246.261 376.939 246.792C377.466 247.299 377.379 247.953 376.834 248.342Z" stroke="black"/>
<path fill-rule="evenodd" clip-rule="evenodd" d="M405.54 303.961C405.54 303.961 410.131 300.083 408.357 298.432C407.85 297.961 407.47 297.654 406.778 297.628C405.279 297.569 406.531 300.958 405.034 301.05C404.151 301.104 403.89 299.888 403.016 300.022C401.799 300.208 401.351 301.621 401.585 302.83C401.885 304.378 404.211 305.905 405.183 304.663C405.372 304.421 405.54 303.961 405.54 303.961ZM404.453 302.191C404.489 302.496 404.363 302.742 404.095 302.893C403.693 303.119 403.096 302.815 403.042 302.356C403.006 302.051 403.131 301.805 403.4 301.654C403.802 301.428 404.399 301.732 404.453 302.191Z" fill="#413E3E"/>
<path d="M401.436 299.217C401.436 299.217 404.183 296.91 403.18 295.794C402.794 295.365 402.436 295.051 401.864 295.124C401.024 295.231 401.543 296.529 400.88 297.054C400.326 297.493 399.263 296.915 399.158 297.614C399.093 298.047 399.233 298.454 399.635 298.631C400.009 298.795 400.355 298.091 400.65 298.374C400.983 298.693 399.952 298.995 400.113 299.427C400.261 299.823 400.701 300.111 401.078 299.919C401.353 299.779 401.436 299.217 401.436 299.217Z" fill="#413E3E"/>
<path fill-rule="evenodd" clip-rule="evenodd" d="M397.967 297.174C399.107 296.719 399.759 295.512 399.412 294.336C399.057 293.13 397.786 292.52 396.587 292.897C395.329 293.292 394.779 294.175 395.03 295.953C395.281 297.73 396.794 297.642 397.967 297.174ZM398.393 294.712C398.567 295.334 398.13 296.147 397.531 296.403C396.994 296.633 396.473 296.451 396.272 295.918C396.031 295.279 396.568 294.459 397.163 294.169C397.73 293.892 398.237 294.157 398.393 294.712Z" fill="#413E3E"/>
<path d="M392.417 297.827C392.501 297.334 392.071 296.98 391.588 296.852C391.059 296.711 390.414 296.879 390.306 297.414C390.2 297.94 390.696 298.341 391.223 298.435C391.738 298.525 392.329 298.343 392.417 297.827Z" fill="#413E3E"/>
<path fill-rule="evenodd" clip-rule="evenodd" d="M387.899 290.826C387.124 290.994 386.679 289.611 385.923 289.819C385.199 290.019 385.091 290.714 385.246 291.427C385.499 292.598 387.061 293.052 388.35 293.009C390.266 292.945 391.327 290.821 390.28 289.222C389.55 288.106 387.907 286.761 387.063 287.582C386.827 287.812 386.688 287.985 386.687 288.319C386.684 289.118 388.602 288.643 388.813 289.451C388.988 290.124 388.6 290.674 387.899 290.826ZM387.585 291.441C387.674 291.764 387.54 292.027 387.227 292.145C386.804 292.304 386.18 291.987 386.061 291.551C385.972 291.228 386.106 290.965 386.419 290.847C386.842 290.688 387.465 291.005 387.585 291.441Z" fill="#413E3E"/>
<path d="M379.727 289.002C379.336 288.25 379.828 287.673 380.339 287.8C381.32 288.045 382.534 288.456 383.087 287.398C383.589 286.436 382.927 286.193 382.181 284.836C381.939 284.395 382.361 284.064 382.805 283.828C383.867 283.263 385.46 286.674 384.622 288.29C383.732 290.005 380.618 290.716 379.727 289.002Z" fill="#413E3E"/>
<path d="M380.01 281.505C379.46 280.913 379.134 280.759 378.167 280.566C375.259 279.983 377.812 285.618 375.688 285.431C375.146 285.383 374.854 284.737 374.369 284.983C373.969 285.186 373.748 285.569 373.848 286.006C373.967 286.531 374.922 286.116 375.076 286.632C375.223 287.124 374.451 287.291 374.48 287.803C374.531 288.729 375.975 289.261 376.69 288.671C377.017 288.401 376.769 287.795 377.182 287.705C377.52 287.632 377.632 288.172 377.972 288.108C378.413 288.025 378.626 287.513 378.493 287.085C378.357 286.644 377.8 286.837 377.44 286.548C375.717 285.163 382.152 283.808 380.01 281.505Z" fill="#413E3E"/>
<path fill-rule="evenodd" clip-rule="evenodd" d="M391.079 289.537C391.099 289.709 391.14 289.805 391.224 289.958C391.388 290.257 392.072 290.605 392.908 290.882C391.777 292.96 390.979 295.763 391.44 295.849C391.686 295.895 391.831 295.907 392.079 295.886C392.683 295.837 393.191 293.084 393.926 291.166C395.416 291.507 396.935 291.531 396.817 290.703C396.628 289.375 396.232 288.407 394.907 288.691C394.389 288.802 393.84 289.382 393.331 290.168C392.173 289.684 391.035 289.162 391.079 289.537ZM395.703 290.539C395.701 290.307 396.07 289.406 395.409 289.351C394.94 289.312 394.546 289.796 394.202 290.516C395.034 290.823 395.706 290.969 395.703 290.539Z" fill="#413E3E"/>
<path fill-rule="evenodd" clip-rule="evenodd" d="M405.54 303.961C405.54 303.961 410.131 300.083 408.357 298.432C407.85 297.961 407.47 297.654 406.778 297.628C405.279 297.569 406.531 300.958 405.034 301.05C404.151 301.104 403.89 299.888 403.016 300.022C401.799 300.208 401.351 301.621 401.585 302.83C401.885 304.378 404.211 305.905 405.183 304.663C405.372 304.421 405.54 303.961 405.54 303.961ZM404.453 302.191C404.489 302.496 404.363 302.742 404.095 302.893C403.693 303.119 403.096 302.815 403.042 302.356C403.006 302.051 403.131 301.805 403.4 301.654C403.802 301.428 404.399 301.732 404.453 302.191Z" stroke="black"/>
<path d="M401.436 299.217C401.436 299.217 404.183 296.91 403.18 295.794C402.794 295.365 402.436 295.051 401.864 295.124C401.024 295.231 401.543 296.529 400.88 297.054C400.326 297.493 399.263 296.915 399.158 297.614C399.093 298.047 399.233 298.454 399.635 298.631C400.009 298.795 400.355 298.091 400.65 298.374C400.983 298.693 399.952 298.995 400.113 299.427C400.261 299.823 400.701 300.111 401.078 299.919C401.353 299.779 401.436 299.217 401.436 299.217Z" stroke="black"/>
<path fill-rule="evenodd" clip-rule="evenodd" d="M397.967 297.174C399.107 296.719 399.759 295.512 399.412 294.336C399.057 293.13 397.786 292.52 396.587 292.897C395.329 293.292 394.779 294.175 395.03 295.953C395.281 297.73 396.794 297.642 397.967 297.174ZM398.393 294.712C398.567 295.334 398.13 296.147 397.531 296.403C396.994 296.633 396.473 296.451 396.272 295.918C396.031 295.279 396.568 294.459 397.163 294.169C397.73 293.892 398.237 294.157 398.393 294.712Z" stroke="black"/>
<path d="M392.417 297.827C392.501 297.334 392.071 296.98 391.588 296.852C391.059 296.711 390.414 296.879 390.306 297.414C390.2 297.94 390.696 298.341 391.223 298.435C391.738 298.525 392.329 298.343 392.417 297.827Z" stroke="black"/>
<path fill-rule="evenodd" clip-rule="evenodd" d="M387.899 290.826C387.124 290.994 386.679 289.611 385.923 289.819C385.199 290.019 385.091 290.714 385.246 291.427C385.499 292.598 387.061 293.052 388.35 293.009C390.266 292.945 391.327 290.821 390.28 289.222C389.55 288.106 387.907 286.761 387.063 287.582C386.827 287.812 386.688 287.985 386.687 288.319C386.684 289.118 388.602 288.643 388.813 289.451C388.988 290.124 388.6 290.674 387.899 290.826ZM387.585 291.441C387.674 291.764 387.54 292.027 387.227 292.145C386.804 292.304 386.18 291.987 386.061 291.551C385.972 291.228 386.106 290.965 386.419 290.847C386.842 290.688 387.465 291.005 387.585 291.441Z" stroke="black"/>
<path d="M379.727 289.002C379.336 288.25 379.828 287.673 380.339 287.8C381.32 288.045 382.534 288.456 383.087 287.398C383.589 286.436 382.927 286.193 382.181 284.836C381.939 284.395 382.361 284.064 382.805 283.828C383.867 283.263 385.46 286.674 384.622 288.29C383.732 290.005 380.618 290.716 379.727 289.002Z" stroke="black"/>
<path d="M380.01 281.505C379.46 280.913 379.134 280.759 378.167 280.566C375.259 279.983 377.812 285.618 375.688 285.431C375.146 285.383 374.854 284.737 374.369 284.983C373.969 285.186 373.748 285.569 373.848 286.006C373.967 286.531 374.922 286.116 375.076 286.632C375.223 287.124 374.451 287.291 374.48 287.803C374.531 288.729 375.975 289.261 376.69 288.671C377.017 288.401 376.769 287.795 377.182 287.705C377.52 287.632 377.632 288.172 377.972 288.108C378.413 288.025 378.626 287.513 378.493 287.085C378.357 286.644 377.8 286.837 377.44 286.548C375.717 285.163 382.152 283.808 380.01 281.505Z" stroke="black"/>
<path fill-rule="evenodd" clip-rule="evenodd" d="M391.079 289.537C391.099 289.709 391.14 289.805 391.224 289.958C391.388 290.257 392.072 290.605 392.908 290.882C391.777 292.96 390.979 295.763 391.44 295.849C391.686 295.895 391.831 295.907 392.079 295.886C392.683 295.837 393.191 293.084 393.926 291.166C395.416 291.507 396.935 291.531 396.817 290.703C396.628 289.375 396.232 288.407 394.907 288.691C394.389 288.802 393.84 289.382 393.331 290.168C392.173 289.684 391.035 289.162 391.079 289.537ZM395.703 290.539C395.701 290.307 396.07 289.406 395.409 289.351C394.94 289.312 394.546 289.796 394.202 290.516C395.034 290.823 395.706 290.969 395.703 290.539Z" stroke="black"/>
<path fill-rule="evenodd" clip-rule="evenodd" d="M484.311 283.033C484.311 283.033 484 274.893 480.756 275.41C479.829 275.558 479.184 275.709 478.578 276.426C477.265 277.978 481.93 279.468 480.779 281.145C480.1 282.133 478.582 281.397 477.996 282.442C477.179 283.898 478.315 285.556 479.801 286.315C481.705 287.286 485.278 286.076 484.762 284.001C484.662 283.596 484.311 283.033 484.311 283.033ZM481.512 282.718C481.869 282.935 482.027 283.273 481.964 283.686C481.869 284.304 481.046 284.688 480.512 284.363C480.155 284.146 479.997 283.807 480.06 283.395C480.155 282.776 480.978 282.393 481.512 282.718Z" fill="#403D3D"/>
<path d="M475.818 283.458C475.818 283.458 475.646 278.598 473.617 278.739C472.837 278.793 472.201 278.913 471.802 279.585C471.216 280.572 473.036 281.1 473.043 282.247C473.05 283.206 471.545 283.858 472.204 284.554C472.613 284.986 473.164 285.175 473.688 284.893C474.176 284.63 473.712 283.674 474.261 283.595C474.88 283.506 474.341 284.859 474.938 285.047C475.485 285.219 476.159 284.989 476.269 284.426C476.349 284.017 475.818 283.458 475.818 283.458Z" fill="#403D3D"/>
<path fill-rule="evenodd" clip-rule="evenodd" d="M470.74 285.46C471.206 283.862 470.461 282.158 468.915 281.547C467.33 280.92 465.617 281.769 465.019 283.363C464.392 285.038 464.876 286.362 466.984 287.577C469.093 288.793 470.26 287.103 470.74 285.46ZM468.466 282.95C469.275 283.282 469.779 284.427 469.553 285.281C469.35 286.047 468.721 286.452 467.984 286.222C467.1 285.946 466.672 284.687 466.859 283.809C467.036 282.973 467.742 282.652 468.466 282.95Z" fill="#403D3D"/>
<path d="M466.806 291.933C466.349 291.431 465.612 291.595 465.071 292.005C464.481 292.452 464.12 293.281 464.603 293.844C465.076 294.395 465.918 294.201 466.458 293.715C466.985 293.241 467.283 292.457 466.806 291.933Z" fill="#403D3D"/>
<path fill-rule="evenodd" clip-rule="evenodd" d="M455.556 290.917C455.089 291.884 453.24 291.206 452.831 292.187C452.44 293.126 453.093 293.822 453.984 294.252C455.447 294.958 457.235 293.669 458.265 292.256C459.795 290.156 458.411 287.25 455.83 287.033C454.029 286.882 451.22 287.515 451.393 289.102C451.441 289.545 451.511 289.838 451.867 290.119C452.718 290.788 453.811 288.343 454.849 288.792C455.714 289.167 455.978 290.04 455.556 290.917ZM455.951 291.765C456.371 291.94 456.539 292.301 456.404 292.735C456.221 293.32 455.361 293.721 454.796 293.485C454.377 293.31 454.208 292.948 454.344 292.514C454.526 291.93 455.386 291.529 455.951 291.765Z" fill="#403D3D"/>
<path d="M446.787 298.123C445.658 297.913 445.452 296.906 446.015 296.467C447.094 295.623 448.547 294.669 447.877 293.196C447.269 291.856 446.457 292.361 444.385 292.025C443.712 291.916 443.711 291.188 443.829 290.517C444.112 288.912 449.086 290.056 450.112 292.301C451.201 294.682 449.361 298.602 446.787 298.123Z" fill="#403D3D"/>
<path d="M439.014 291.564C437.923 291.658 437.487 291.878 436.473 292.749C433.423 295.369 441.574 297.344 439.601 299.457C439.098 299.996 438.164 299.769 438.022 300.493C437.905 301.09 438.13 301.645 438.68 301.904C439.34 302.215 439.694 300.848 440.374 301.114C441.022 301.367 440.556 302.331 441.127 302.728C442.159 303.446 443.932 302.348 443.899 301.091C443.884 300.517 443.029 300.276 443.278 299.76C443.482 299.337 444.152 299.669 444.367 299.252C444.646 298.712 444.277 298.057 443.709 297.841C443.124 297.619 442.866 298.375 442.257 298.518C439.34 299.203 443.263 291.197 439.014 291.564Z" fill="#403D3D"/>
<path fill-rule="evenodd" clip-rule="evenodd" d="M456.834 286.444C457.033 286.565 457.17 286.601 457.404 286.639C457.861 286.714 458.803 286.274 459.797 285.612C461.072 288.554 463.401 291.746 463.877 291.326C464.132 291.101 464.265 290.956 464.451 290.674C464.902 289.987 462.384 287.147 460.95 284.762C462.557 283.455 463.85 281.852 462.868 281.287C461.292 280.38 459.927 279.996 459.124 281.648C458.81 282.294 458.972 283.365 459.387 284.565C457.904 285.397 456.396 286.177 456.834 286.444ZM461.763 282.34C461.514 282.149 460.86 281.002 460.249 281.662C459.814 282.131 460.003 282.955 460.485 283.924C461.508 283.291 462.224 282.696 461.763 282.34Z" fill="#403D3D"/>
<path fill-rule="evenodd" clip-rule="evenodd" d="M484.311 283.033C484.311 283.033 484 274.893 480.756 275.41C479.829 275.558 479.184 275.709 478.578 276.426C477.265 277.978 481.93 279.468 480.779 281.145C480.1 282.133 478.582 281.397 477.996 282.442C477.179 283.898 478.315 285.556 479.801 286.315C481.705 287.286 485.278 286.076 484.762 284.001C484.662 283.596 484.311 283.033 484.311 283.033ZM481.512 282.718C481.869 282.935 482.027 283.273 481.964 283.686C481.869 284.304 481.046 284.688 480.512 284.363C480.155 284.146 479.997 283.807 480.06 283.395C480.155 282.776 480.978 282.393 481.512 282.718Z" stroke="black"/>
<path d="M475.818 283.458C475.818 283.458 475.646 278.598 473.617 278.739C472.837 278.793 472.201 278.913 471.802 279.585C471.216 280.572 473.036 281.1 473.043 282.247C473.05 283.206 471.545 283.858 472.204 284.554C472.613 284.986 473.164 285.175 473.688 284.893C474.176 284.63 473.712 283.674 474.261 283.595C474.88 283.506 474.341 284.859 474.938 285.047C475.485 285.219 476.159 284.989 476.269 284.426C476.349 284.017 475.818 283.458 475.818 283.458Z" stroke="black"/>
<path fill-rule="evenodd" clip-rule="evenodd" d="M470.74 285.46C471.206 283.862 470.461 282.158 468.915 281.547C467.33 280.92 465.617 281.769 465.019 283.363C464.392 285.038 464.876 286.362 466.984 287.577C469.093 288.793 470.26 287.103 470.74 285.46ZM468.466 282.95C469.275 283.282 469.779 284.427 469.553 285.281C469.35 286.047 468.721 286.452 467.984 286.222C467.1 285.946 466.672 284.687 466.859 283.809C467.036 282.973 467.742 282.652 468.466 282.95Z" stroke="black"/>
<path d="M466.806 291.933C466.349 291.431 465.612 291.595 465.071 292.005C464.481 292.452 464.12 293.281 464.603 293.844C465.076 294.395 465.918 294.201 466.458 293.715C466.985 293.241 467.283 292.457 466.806 291.933Z" stroke="black"/>
<path fill-rule="evenodd" clip-rule="evenodd" d="M455.556 290.917C455.089 291.884 453.24 291.206 452.831 292.187C452.44 293.126 453.093 293.822 453.984 294.252C455.447 294.958 457.235 293.669 458.265 292.256C459.795 290.156 458.411 287.25 455.83 287.033C454.029 286.882 451.22 287.515 451.393 289.102C451.441 289.545 451.511 289.838 451.867 290.119C452.718 290.788 453.811 288.343 454.849 288.792C455.714 289.167 455.978 290.04 455.556 290.917ZM455.951 291.765C456.371 291.94 456.539 292.301 456.404 292.735C456.221 293.32 455.361 293.721 454.796 293.485C454.377 293.31 454.208 292.948 454.344 292.514C454.526 291.93 455.386 291.529 455.951 291.765Z" stroke="black"/>
<path d="M446.787 298.123C445.658 297.913 445.452 296.906 446.015 296.467C447.094 295.623 448.547 294.669 447.877 293.196C447.269 291.856 446.457 292.361 444.385 292.025C443.712 291.916 443.711 291.188 443.829 290.517C444.112 288.912 449.086 290.056 450.112 292.301C451.201 294.682 449.361 298.602 446.787 298.123Z" stroke="black"/>
<path d="M439.014 291.564C437.923 291.658 437.487 291.878 436.473 292.749C433.423 295.369 441.574 297.344 439.601 299.457C439.098 299.996 438.164 299.769 438.022 300.493C437.905 301.09 438.13 301.645 438.68 301.904C439.34 302.215 439.694 300.848 440.374 301.114C441.022 301.367 440.556 302.331 441.127 302.728C442.159 303.446 443.932 302.348 443.899 301.091C443.884 300.517 443.029 300.276 443.278 299.76C443.482 299.337 444.152 299.669 444.367 299.252C444.646 298.712 444.277 298.057 443.709 297.841C443.124 297.619 442.866 298.375 442.257 298.518C439.34 299.203 443.263 291.197 439.014 291.564Z" stroke="black"/>
<path fill-rule="evenodd" clip-rule="evenodd" d="M456.834 286.444C457.033 286.565 457.17 286.601 457.404 286.639C457.861 286.714 458.803 286.274 459.797 285.612C461.072 288.554 463.401 291.746 463.877 291.326C464.132 291.101 464.265 290.956 464.451 290.674C464.902 289.987 462.384 287.147 460.95 284.762C462.557 283.455 463.85 281.852 462.868 281.287C461.292 280.38 459.927 279.996 459.124 281.648C458.81 282.294 458.972 283.365 459.387 284.565C457.904 285.397 456.396 286.177 456.834 286.444ZM461.763 282.34C461.514 282.149 460.86 281.002 460.249 281.662C459.814 282.131 460.003 282.955 460.485 283.924C461.508 283.291 462.224 282.696 461.763 282.34Z" stroke="black"/>
<path fill-rule="evenodd" clip-rule="evenodd" d="M511.944 166.307C511.944 166.307 500.776 160.905 499.152 165.637C498.688 166.989 498.43 167.964 498.96 169.292C500.109 172.168 505.448 166.96 506.879 169.707C507.724 171.326 505.648 172.84 506.635 174.377C508.008 176.515 511.05 176.174 513.132 174.717C515.8 172.851 516.727 167.182 513.569 166.392C512.952 166.238 511.944 166.307 511.944 166.307ZM509.519 169.845C510.065 169.521 510.634 169.551 511.144 169.93C511.908 170.499 511.835 171.88 511.016 172.367C510.47 172.691 509.901 172.661 509.391 172.282C508.627 171.712 508.7 170.331 509.519 169.845Z" fill="#413E3E"/>
<path d="M506.443 178.032C506.443 178.032 499.785 174.789 498.524 177.617C498.039 178.705 497.746 179.645 498.364 180.663C499.272 182.156 501.284 180.087 502.832 180.897C504.125 181.574 503.926 184.063 505.333 183.675C506.206 183.434 506.855 182.827 506.85 181.922C506.846 181.078 505.228 181.017 505.514 180.223C505.837 179.326 507.271 181.018 507.951 180.351C508.574 179.738 508.746 178.667 508.068 178.117C507.574 177.717 506.443 178.032 506.443 178.032Z" fill="#413E3E"/>
<path fill-rule="evenodd" clip-rule="evenodd" d="M505.504 186.291C503.689 184.522 500.865 184.305 498.938 185.947C496.961 187.63 496.878 190.54 498.595 192.484C500.398 194.525 502.524 194.821 505.666 192.855C508.808 190.889 507.37 188.11 505.504 186.291ZM500.503 187.554C501.529 186.704 503.428 186.845 504.415 187.759C505.299 188.58 505.395 189.716 504.559 190.542C503.555 191.534 501.557 191.209 500.51 190.33C499.512 189.493 499.586 188.314 500.503 187.554Z" fill="#413E3E"/>
<path d="M511.395 196.209C510.395 196.465 510.088 197.574 510.252 198.593C510.432 199.707 511.289 200.784 512.39 200.537C513.469 200.295 513.811 199.024 513.544 197.951C513.283 196.903 512.442 195.942 511.395 196.209Z" fill="#413E3E"/>
<path fill-rule="evenodd" clip-rule="evenodd" d="M501.985 210.611C502.953 211.93 500.719 213.931 501.746 215.182C502.729 216.38 504.132 216 505.347 215.109C507.342 213.647 506.888 210.32 505.724 207.925C503.994 204.366 499.097 204.149 496.96 207.466C495.469 209.779 494.311 214.009 496.569 214.911C497.2 215.162 497.644 215.279 498.275 215C499.784 214.335 497.278 211.116 498.624 210.041C499.746 209.146 501.109 209.416 501.985 210.611ZM503.409 210.685C503.944 210.246 504.551 210.278 505.037 210.77C505.693 211.434 505.617 212.876 504.896 213.468C504.361 213.907 503.754 213.875 503.267 213.383C502.612 212.719 502.687 211.277 503.409 210.685Z" fill="#413E3E"/>
<path d="M505.407 227.554C504.317 228.922 502.815 228.479 502.627 227.409C502.265 225.353 502.02 222.718 499.56 222.565C497.324 222.425 497.422 223.878 495.489 226.424C494.861 227.251 493.882 226.732 493.063 226.093C491.107 224.565 496.203 218.695 499.955 218.92C503.935 219.159 507.892 224.435 505.407 227.554Z" fill="#413E3E"/>
<path d="M491.029 233.316C490.375 234.85 490.359 235.595 490.805 237.58C492.148 243.556 500.632 234.007 502.063 238.17C502.428 239.233 501.455 240.326 502.327 241.035C503.045 241.619 503.953 241.713 504.694 241.159C505.584 240.493 503.999 239.04 504.843 238.316C505.647 237.626 506.61 238.942 507.552 238.458C509.255 237.583 509.046 234.414 507.332 233.56C506.55 233.17 505.615 234.147 505.098 233.443C504.675 232.867 505.601 232.203 505.194 231.615C504.668 230.854 503.524 230.882 502.827 231.491C502.11 232.119 502.943 233.007 502.699 233.928C501.534 238.34 493.574 227.341 491.029 233.316Z" fill="#413E3E"/>
<path fill-rule="evenodd" clip-rule="evenodd" d="M496.885 205.694C497.191 205.513 497.337 205.354 497.555 205.067C497.983 204.507 498.064 202.925 497.885 201.114C502.753 201.504 508.71 200.654 508.485 199.714C508.365 199.21 508.266 198.927 508.019 198.476C507.418 197.379 501.799 198.733 497.566 198.956C496.957 195.861 495.727 192.976 494.264 193.893C491.918 195.364 490.426 196.924 492.073 199.185C492.718 200.069 494.273 200.617 496.183 200.917C496.243 203.507 496.213 206.092 496.885 205.694ZM494.891 196.132C494.456 196.33 492.446 196.39 492.896 197.683C493.216 198.602 494.46 198.938 496.107 198.982C495.988 197.154 495.699 195.765 494.891 196.132Z" fill="#413E3E"/>
<path fill-rule="evenodd" clip-rule="evenodd" d="M511.944 166.307C511.944 166.307 500.776 160.905 499.152 165.637C498.688 166.989 498.43 167.964 498.96 169.292C500.109 172.168 505.448 166.96 506.879 169.707C507.724 171.326 505.648 172.84 506.635 174.377C508.008 176.515 511.05 176.174 513.132 174.717C515.8 172.851 516.727 167.182 513.569 166.392C512.952 166.238 511.944 166.307 511.944 166.307ZM509.519 169.845C510.065 169.521 510.634 169.551 511.144 169.93C511.908 170.499 511.835 171.88 511.016 172.367C510.47 172.691 509.901 172.661 509.391 172.282C508.627 171.712 508.7 170.331 509.519 169.845Z" stroke="black"/>
<path d="M506.443 178.032C506.443 178.032 499.785 174.789 498.524 177.617C498.039 178.705 497.746 179.645 498.364 180.663C499.272 182.156 501.284 180.087 502.832 180.897C504.125 181.574 503.926 184.063 505.333 183.675C506.206 183.434 506.855 182.827 506.85 181.922C506.846 181.078 505.228 181.017 505.514 180.223C505.837 179.326 507.271 181.018 507.951 180.351C508.574 179.738 508.746 178.667 508.068 178.117C507.574 177.717 506.443 178.032 506.443 178.032Z" stroke="black"/>
<path fill-rule="evenodd" clip-rule="evenodd" d="M505.504 186.291C503.689 184.522 500.865 184.305 498.938 185.947C496.961 187.63 496.878 190.54 498.595 192.484C500.398 194.525 502.524 194.821 505.666 192.855C508.808 190.889 507.37 188.11 505.504 186.291ZM500.503 187.554C501.529 186.704 503.428 186.845 504.415 187.759C505.299 188.58 505.395 189.716 504.559 190.542C503.555 191.534 501.557 191.209 500.51 190.33C499.512 189.493 499.586 188.314 500.503 187.554Z" stroke="black"/>
<path d="M511.395 196.209C510.395 196.465 510.088 197.574 510.252 198.593C510.432 199.707 511.289 200.784 512.39 200.537C513.469 200.295 513.811 199.024 513.544 197.951C513.283 196.903 512.442 195.942 511.395 196.209Z" stroke="black"/>
<path fill-rule="evenodd" clip-rule="evenodd" d="M501.985 210.611C502.953 211.93 500.719 213.931 501.746 215.182C502.729 216.38 504.132 216 505.347 215.109C507.342 213.647 506.888 210.32 505.724 207.925C503.994 204.366 499.097 204.149 496.96 207.466C495.469 209.779 494.311 214.009 496.569 214.911C497.2 215.162 497.644 215.279 498.275 215C499.784 214.335 497.278 211.116 498.624 210.041C499.746 209.146 501.109 209.416 501.985 210.611ZM503.409 210.685C503.944 210.246 504.551 210.278 505.037 210.77C505.693 211.434 505.617 212.876 504.896 213.468C504.361 213.907 503.754 213.875 503.267 213.383C502.612 212.719 502.687 211.277 503.409 210.685Z" stroke="black"/>
<path d="M505.407 227.554C504.317 228.922 502.815 228.479 502.627 227.409C502.265 225.353 502.02 222.718 499.56 222.565C497.324 222.425 497.422 223.878 495.489 226.424C494.861 227.251 493.882 226.732 493.063 226.093C491.107 224.565 496.203 218.695 499.955 218.92C503.935 219.159 507.892 224.435 505.407 227.554Z" stroke="black"/>
<path d="M491.029 233.316C490.375 234.85 490.359 235.595 490.805 237.58C492.148 243.556 500.632 234.007 502.063 238.17C502.428 239.233 501.455 240.326 502.327 241.035C503.045 241.619 503.953 241.713 504.694 241.159C505.584 240.493 503.999 239.04 504.843 238.316C505.647 237.626 506.61 238.942 507.552 238.458C509.255 237.583 509.046 234.414 507.332 233.56C506.55 233.17 505.615 234.147 505.098 233.443C504.675 232.867 505.601 232.203 505.194 231.615C504.668 230.854 503.524 230.882 502.827 231.491C502.11 232.119 502.943 233.007 502.699 233.928C501.534 238.34 493.574 227.341 491.029 233.316Z" stroke="black"/>
<path fill-rule="evenodd" clip-rule="evenodd" d="M496.885 205.694C497.191 205.513 497.337 205.354 497.555 205.067C497.983 204.507 498.064 202.925 497.885 201.114C502.753 201.504 508.71 200.654 508.485 199.714C508.365 199.21 508.266 198.927 508.019 198.476C507.418 197.379 501.799 198.733 497.566 198.956C496.957 195.861 495.727 192.976 494.264 193.893C491.918 195.364 490.426 196.924 492.073 199.185C492.718 200.069 494.273 200.617 496.183 200.917C496.243 203.507 496.213 206.092 496.885 205.694ZM494.891 196.132C494.456 196.33 492.446 196.39 492.896 197.683C493.216 198.602 494.46 198.938 496.107 198.982C495.988 197.154 495.699 195.765 494.891 196.132Z" stroke="black"/>
<path fill-rule="evenodd" clip-rule="evenodd" d="M197.443 22.1518C197.443 22.1518 189.161 37.5914 196.828 39.7494C199.019 40.366 200.598 40.7049 202.713 39.9549C207.296 38.33 198.729 31.0725 203.093 29.0612C205.667 27.875 208.177 30.7048 210.612 29.3237C214 27.4023 213.342 23.2248 210.924 20.3853C207.827 16.7471 198.677 15.5625 197.521 19.9172C197.296 20.7669 197.443 22.1518 197.443 22.1518ZM203.22 25.4299C202.679 24.684 202.706 23.9016 203.298 23.1953C204.186 22.1358 206.409 22.2134 207.221 23.3323C207.762 24.0782 207.735 24.8606 207.143 25.5669C206.255 26.6264 204.032 26.5487 203.22 25.4299Z" fill="#312F2F"/>
<path d="M216.496 29.5292C216.496 29.5292 211.522 38.7335 216.116 40.423C217.883 41.0728 219.405 41.4607 221.02 40.5942C223.387 39.3233 219.988 36.5898 221.234 34.449C222.276 32.66 226.286 32.8946 225.611 30.9662C225.192 29.7702 224.192 28.887 222.737 28.9081C221.38 28.9278 221.341 31.1528 220.053 30.7721C218.6 30.3423 221.269 28.3441 220.17 27.4202C219.163 26.5732 217.434 26.353 216.574 27.2946C215.949 27.9794 216.496 29.5292 216.496 29.5292Z" fill="#312F2F"/>
<path fill-rule="evenodd" clip-rule="evenodd" d="M229.811 30.6898C227.033 33.213 226.787 37.0991 229.496 39.7225C232.275 42.4131 236.957 42.4811 240.021 40.09C243.237 37.5793 243.635 34.6509 240.36 30.3626C237.085 26.0742 232.669 28.0948 229.811 30.6898ZM232.024 37.5453C230.62 36.1485 230.777 33.5342 232.212 32.164C233.5 30.9345 235.322 30.7853 236.681 31.9217C238.313 33.2857 237.862 36.0378 236.487 37.4918C235.177 38.8765 233.279 38.7941 232.024 37.5453Z" fill="#312F2F"/>
<path d="M245.547 22.4333C245.994 23.8044 247.788 24.2086 249.421 23.9669C251.206 23.7027 252.907 22.5072 252.47 20.9971C252.042 19.5172 249.986 19.0675 248.269 19.452C246.594 19.8276 245.08 20.9988 245.547 22.4333Z" fill="#312F2F"/>
<path fill-rule="evenodd" clip-rule="evenodd" d="M269.046 35.1419C271.132 33.7905 274.431 36.8308 276.406 35.3989C278.297 34.0277 277.634 32.1061 276.157 30.4487C273.735 27.729 268.401 28.4067 264.592 30.0448C258.932 32.4789 258.76 39.2156 264.171 42.1011C267.945 44.1135 274.788 45.6385 276.157 42.5197C276.539 41.6493 276.71 41.0372 276.239 40.1733C275.114 38.1089 270.029 41.6063 268.253 39.7726C266.772 38.2441 267.157 36.3653 269.046 35.1419ZM269.114 33.1838C268.389 32.4551 268.418 31.6203 269.192 30.9439C270.236 30.0321 272.558 30.1132 273.535 31.0956C274.26 31.8243 274.231 32.6591 273.457 33.3355C272.414 34.2473 270.092 34.1662 269.114 33.1838Z" fill="#312F2F"/>
<path d="M296.168 30.1697C298.408 31.6463 297.75 33.718 296.035 33.9944C292.743 34.5248 288.515 34.9028 288.357 38.287C288.213 41.3628 290.546 41.2061 294.709 43.8225C296.062 44.6725 295.264 46.0279 294.265 47.163C291.88 49.8764 282.256 42.9639 282.482 37.8022C282.722 32.3258 291.062 26.8034 296.168 30.1697Z" fill="#312F2F"/>
<path d="M305.955 49.8455C308.445 50.7196 309.643 50.7302 312.82 50.0853C322.379 48.1448 306.717 36.6316 313.361 34.5994C315.056 34.0809 316.849 35.4008 317.957 34.191C318.87 33.194 318.989 31.9451 318.071 30.9346C316.968 29.7211 314.689 31.9234 313.494 30.7748C312.356 29.6801 314.437 28.3358 313.624 27.048C312.155 24.7204 307.067 25.0587 305.756 27.4282C305.157 28.5091 306.762 29.7789 305.648 30.5008C304.737 31.0914 303.637 29.8299 302.706 30.398C301.501 31.134 301.587 32.7061 302.592 33.6544C303.627 34.6306 305.025 33.4715 306.515 33.7914C313.653 35.3236 296.254 46.4413 305.955 49.8455Z" fill="#312F2F"/>
<path fill-rule="evenodd" clip-rule="evenodd" d="M261.325 42.2324C261.022 41.8142 260.761 41.6162 260.292 41.3202C259.375 40.7414 256.829 40.6548 253.924 40.9295C254.374 34.231 252.792 26.054 251.288 26.3784C250.482 26.5523 250.031 26.6929 249.314 27.0395C247.571 27.882 249.953 35.5861 250.466 41.4027C245.51 42.2879 240.915 44.0251 242.442 46.0215C244.893 49.2239 247.456 51.2504 251.032 48.9497C252.431 48.0498 253.256 45.9026 253.668 43.2719C257.831 43.1492 261.989 43.1496 261.325 42.2324ZM246.021 45.1243C246.355 45.7201 246.524 48.4819 248.587 47.8422C250.054 47.3877 250.549 45.6729 250.559 43.4073C247.625 43.6003 245.402 44.0192 246.021 45.1243Z" fill="#312F2F"/>
<path fill-rule="evenodd" clip-rule="evenodd" d="M197.443 22.1518C197.443 22.1518 189.161 37.5914 196.828 39.7494C199.019 40.366 200.598 40.7049 202.713 39.9549C207.296 38.33 198.729 31.0725 203.093 29.0612C205.667 27.875 208.177 30.7048 210.612 29.3237C214 27.4023 213.342 23.2248 210.924 20.3853C207.827 16.7471 198.677 15.5625 197.521 19.9172C197.296 20.7669 197.443 22.1518 197.443 22.1518ZM203.22 25.4299C202.679 24.684 202.706 23.9016 203.298 23.1953C204.186 22.1358 206.409 22.2134 207.221 23.3323C207.762 24.0782 207.735 24.8606 207.143 25.5669C206.255 26.6264 204.032 26.5487 203.22 25.4299Z" stroke="black"/>
<path d="M216.496 29.5292C216.496 29.5292 211.522 38.7335 216.116 40.423C217.883 41.0728 219.405 41.4607 221.02 40.5942C223.387 39.3233 219.988 36.5898 221.234 34.449C222.276 32.66 226.286 32.8946 225.611 30.9662C225.192 29.7702 224.192 28.887 222.737 28.9081C221.38 28.9278 221.341 31.1528 220.053 30.7721C218.6 30.3423 221.269 28.3441 220.17 27.4202C219.163 26.5732 217.434 26.353 216.574 27.2946C215.949 27.9794 216.496 29.5292 216.496 29.5292Z" stroke="black"/>
<path fill-rule="evenodd" clip-rule="evenodd" d="M229.811 30.6898C227.033 33.213 226.787 37.0991 229.496 39.7225C232.275 42.4131 236.957 42.4811 240.021 40.09C243.237 37.5793 243.635 34.6509 240.36 30.3626C237.085 26.0742 232.669 28.0948 229.811 30.6898ZM232.024 37.5453C230.62 36.1485 230.777 33.5342 232.212 32.164C233.5 30.9345 235.322 30.7853 236.681 31.9217C238.313 33.2857 237.862 36.0378 236.487 37.4918C235.177 38.8765 233.279 38.7941 232.024 37.5453Z" stroke="black"/>
<path d="M245.547 22.4333C245.994 23.8044 247.788 24.2086 249.421 23.9669C251.206 23.7027 252.907 22.5072 252.47 20.9971C252.042 19.5172 249.986 19.0675 248.269 19.452C246.594 19.8276 245.08 20.9988 245.547 22.4333Z" stroke="black"/>
<path fill-rule="evenodd" clip-rule="evenodd" d="M269.046 35.1419C271.132 33.7905 274.431 36.8308 276.406 35.3989C278.297 34.0277 277.634 32.1061 276.157 30.4487C273.735 27.729 268.401 28.4067 264.592 30.0448C258.932 32.4789 258.76 39.2156 264.171 42.1011C267.945 44.1135 274.788 45.6385 276.157 42.5197C276.539 41.6493 276.71 41.0372 276.239 40.1733C275.114 38.1089 270.029 41.6063 268.253 39.7726C266.772 38.2441 267.157 36.3653 269.046 35.1419ZM269.114 33.1838C268.389 32.4551 268.418 31.6203 269.192 30.9439C270.236 30.0321 272.558 30.1132 273.535 31.0956C274.26 31.8243 274.231 32.6591 273.457 33.3355C272.414 34.2473 270.092 34.1662 269.114 33.1838Z" stroke="black"/>
<path d="M296.168 30.1697C298.408 31.6463 297.75 33.718 296.035 33.9944C292.743 34.5248 288.515 34.9028 288.357 38.287C288.213 41.3628 290.546 41.2061 294.709 43.8225C296.062 44.6725 295.264 46.0279 294.265 47.163C291.88 49.8764 282.256 42.9639 282.482 37.8022C282.722 32.3258 291.062 26.8034 296.168 30.1697Z" stroke="black"/>
<path d="M305.955 49.8455C308.445 50.7196 309.643 50.7302 312.82 50.0853C322.379 48.1448 306.717 36.6316 313.361 34.5994C315.056 34.0809 316.849 35.4008 317.957 34.191C318.87 33.194 318.989 31.9451 318.071 30.9346C316.968 29.7211 314.689 31.9234 313.494 30.7748C312.356 29.6801 314.437 28.3358 313.624 27.048C312.155 24.7204 307.067 25.0587 305.756 27.4282C305.157 28.5091 306.762 29.7789 305.648 30.5008C304.737 31.0914 303.637 29.8299 302.706 30.398C301.501 31.134 301.587 32.7061 302.592 33.6544C303.627 34.6306 305.025 33.4715 306.515 33.7914C313.653 35.3236 296.254 46.4413 305.955 49.8455Z" stroke="black"/>
<path fill-rule="evenodd" clip-rule="evenodd" d="M261.325 42.2324C261.022 41.8142 260.761 41.6162 260.292 41.3202C259.375 40.7414 256.829 40.6548 253.924 40.9295C254.374 34.231 252.792 26.054 251.288 26.3784C250.482 26.5523 250.031 26.6929 249.314 27.0395C247.571 27.882 249.953 35.5861 250.466 41.4027C245.51 42.2879 240.915 44.0251 242.442 46.0215C244.893 49.2239 247.456 51.2504 251.032 48.9497C252.431 48.0498 253.256 45.9026 253.668 43.2719C257.831 43.1492 261.989 43.1496 261.325 42.2324ZM246.021 45.1243C246.355 45.7201 246.524 48.4819 248.587 47.8422C250.054 47.3877 250.549 45.6729 250.559 43.4073C247.625 43.6003 245.402 44.0192 246.021 45.1243Z" stroke="black"/>
<path fill-rule="evenodd" clip-rule="evenodd" d="M416.187 52.1726C416.187 52.1726 404.032 57.6061 408.33 62.5984C409.558 64.0248 410.487 64.9883 412.242 65.546C416.043 66.7542 413.289 58.224 417.105 59.0919C419.355 59.6037 419.865 62.5314 422.103 62.8582C425.218 63.3129 426.536 60.4519 426.094 57.5626C425.527 53.8605 419.81 48.7502 417.184 50.8487C416.672 51.2582 416.187 52.1726 416.187 52.1726ZM418.726 56.9405C418.674 56.2266 419.023 55.763 419.724 55.6166C420.775 55.397 422.253 56.5107 422.332 57.5817C422.384 58.2956 422.035 58.7592 421.334 58.9056C420.283 59.1252 418.805 58.0115 418.726 56.9405Z" fill="#312F2F"/>
<path d="M426.015 65.8057C426.015 65.8057 418.744 69.0272 421.151 72.2598C422.077 73.5031 422.948 74.4697 424.411 74.7161C426.557 75.0776 425.402 71.7817 427.154 71.0753C428.618 70.4851 431.244 72.5517 431.6 71.0528C431.821 70.1231 431.516 69.1059 430.518 68.4206C429.587 67.7816 428.62 69.1184 427.906 68.269C427.1 67.3101 429.759 67.3728 429.403 66.2831C429.077 65.2842 427.995 64.3206 427.012 64.4818C426.298 64.5991 426.015 65.8057 426.015 65.8057Z" fill="#312F2F"/>
<path fill-rule="evenodd" clip-rule="evenodd" d="M434.572 72.8993C431.617 73.1037 429.807 75.353 430.539 78.2507C431.29 81.2227 434.443 83.5101 437.535 83.5227C440.782 83.536 442.291 81.9429 441.878 77.7597C441.465 73.5764 437.61 72.689 434.572 72.8993ZM433.177 78.1369C432.814 76.6125 434.025 75.0952 435.58 74.9487C436.974 74.8173 438.276 75.6007 438.719 76.9449C439.251 78.5582 437.782 80.0188 436.232 80.2449C434.757 80.4602 433.502 79.4997 433.177 78.1369Z" fill="#312F2F"/>
<path d="M448.754 75.4168C448.478 76.4663 449.527 77.5733 450.738 78.2092C452.063 78.9045 453.724 78.9921 454.066 77.8626C454.4 76.7557 453.193 75.4952 451.864 74.9064C450.567 74.3314 449.043 74.3187 448.754 75.4168Z" fill="#312F2F"/>
<path fill-rule="evenodd" clip-rule="evenodd" d="M459.349 94.43C461.338 94.6075 462.295 98.0417 464.242 98.1165C466.106 98.1882 466.468 96.6997 466.166 94.9818C465.669 92.1629 461.758 90.0175 458.478 89.1886C453.603 87.9567 450.638 91.9782 453.095 96.3314C454.809 99.3674 458.814 103.579 461.063 102.335C461.69 101.988 462.065 101.697 462.11 100.945C462.218 99.148 457.285 98.8397 456.853 96.8705C456.493 95.229 457.549 94.2693 459.349 94.43ZM460.224 93.2699C460.039 92.4782 460.412 91.9836 461.224 91.9428C462.318 91.8879 463.862 93.051 464.11 94.1183C464.295 94.9099 463.922 95.4045 463.11 95.4453C462.016 95.5003 460.472 94.3371 460.224 93.2699Z" fill="#312F2F"/>
<path d="M479.881 104.41C480.778 106.384 479.455 107.33 478.173 106.676C475.712 105.42 472.68 103.622 471.142 105.608C469.744 107.413 471.395 108.437 473.118 112.028C473.678 113.194 472.563 113.637 471.405 113.85C468.636 114.358 465.019 105.531 467.355 102.495C469.832 99.2739 477.834 99.9101 479.881 104.41Z" fill="#312F2F"/>
<path d="M478.213 121.091C479.536 122.818 480.345 123.398 482.777 124.529C490.093 127.932 484.317 113.406 489.691 115.355C491.062 115.852 491.723 117.516 492.987 117.31C494.028 117.141 494.637 116.437 494.44 115.381C494.204 114.113 491.724 114.361 491.398 113.089C491.087 111.876 493.07 112.055 493.062 110.881C493.048 108.758 489.447 106.524 487.554 107.338C486.691 107.71 487.244 109.253 486.183 109.159C485.314 109.081 485.099 107.785 484.227 107.685C483.097 107.555 482.491 108.554 482.773 109.614C483.064 110.705 484.503 110.669 485.381 111.579C489.583 115.936 473.061 114.364 478.213 121.091Z" fill="#312F2F"/>
<path fill-rule="evenodd" clip-rule="evenodd" d="M451.106 95.0462C451.077 94.6462 450.983 94.4006 450.79 93.9953C450.411 93.2028 448.718 91.9288 446.628 90.7026C449.765 86.8379 452.146 81.0974 450.988 80.5738C450.366 80.293 450 80.1623 449.367 80.0296C447.826 79.7071 446.188 85.5426 444.078 89.3323C440.336 87.4945 436.479 86.3488 436.673 88.2978C436.985 91.4241 437.87 93.8879 441.272 94.2015C442.603 94.3242 444.071 93.4118 445.464 92.0071C448.344 93.9289 451.169 95.9235 451.106 95.0462ZM439.485 89.4679C439.46 89.991 438.407 91.7543 440.079 92.3543C441.268 92.7807 442.329 91.9737 443.294 90.5984C441.218 89.3085 439.531 88.4974 439.485 89.4679Z" fill="#312F2F"/>
<path fill-rule="evenodd" clip-rule="evenodd" d="M416.187 52.1726C416.187 52.1726 404.032 57.6061 408.33 62.5984C409.558 64.0248 410.487 64.9883 412.242 65.546C416.043 66.7542 413.289 58.224 417.105 59.0919C419.355 59.6037 419.865 62.5314 422.103 62.8582C425.218 63.3129 426.536 60.4519 426.094 57.5626C425.527 53.8605 419.81 48.7502 417.184 50.8487C416.672 51.2582 416.187 52.1726 416.187 52.1726ZM418.726 56.9405C418.674 56.2266 419.023 55.763 419.724 55.6166C420.775 55.397 422.253 56.5107 422.332 57.5817C422.384 58.2956 422.035 58.7592 421.334 58.9056C420.283 59.1252 418.805 58.0115 418.726 56.9405Z" stroke="black"/>
<path d="M426.015 65.8057C426.015 65.8057 418.744 69.0272 421.151 72.2598C422.077 73.5031 422.948 74.4697 424.411 74.7161C426.557 75.0776 425.402 71.7817 427.154 71.0753C428.618 70.4851 431.244 72.5517 431.6 71.0528C431.821 70.1231 431.516 69.1059 430.518 68.4206C429.587 67.7816 428.62 69.1184 427.906 68.269C427.1 67.3101 429.759 67.3728 429.403 66.2831C429.077 65.2842 427.995 64.3206 427.012 64.4818C426.298 64.5991 426.015 65.8057 426.015 65.8057Z" stroke="black"/>
<path fill-rule="evenodd" clip-rule="evenodd" d="M434.572 72.8993C431.617 73.1037 429.807 75.353 430.539 78.2507C431.29 81.2227 434.443 83.5101 437.535 83.5227C440.782 83.536 442.291 81.9429 441.878 77.7597C441.465 73.5764 437.61 72.689 434.572 72.8993ZM433.177 78.1369C432.814 76.6125 434.025 75.0952 435.58 74.9487C436.974 74.8173 438.276 75.6007 438.719 76.9449C439.251 78.5582 437.782 80.0188 436.232 80.2449C434.757 80.4602 433.502 79.4997 433.177 78.1369Z" stroke="black"/>
<path d="M448.754 75.4168C448.478 76.4663 449.527 77.5733 450.738 78.2092C452.063 78.9045 453.724 78.9921 454.066 77.8626C454.4 76.7557 453.193 75.4952 451.864 74.9064C450.567 74.3314 449.043 74.3187 448.754 75.4168Z" stroke="black"/>
<path fill-rule="evenodd" clip-rule="evenodd" d="M459.349 94.43C461.338 94.6075 462.295 98.0417 464.242 98.1165C466.106 98.1882 466.468 96.6997 466.166 94.9818C465.669 92.1629 461.758 90.0175 458.478 89.1886C453.603 87.9567 450.638 91.9782 453.095 96.3314C454.809 99.3674 458.814 103.579 461.063 102.335C461.69 101.988 462.065 101.697 462.11 100.945C462.218 99.148 457.285 98.8397 456.853 96.8705C456.493 95.229 457.549 94.2693 459.349 94.43ZM460.224 93.2699C460.039 92.4782 460.412 91.9836 461.224 91.9428C462.318 91.8879 463.862 93.051 464.11 94.1183C464.295 94.9099 463.922 95.4045 463.11 95.4453C462.016 95.5003 460.472 94.3371 460.224 93.2699Z" stroke="black"/>
<path d="M479.881 104.41C480.778 106.384 479.455 107.33 478.173 106.676C475.712 105.42 472.68 103.622 471.142 105.608C469.744 107.413 471.395 108.437 473.118 112.028C473.678 113.194 472.563 113.637 471.405 113.85C468.636 114.358 465.019 105.531 467.355 102.495C469.832 99.2739 477.834 99.9101 479.881 104.41Z" stroke="black"/>
<path d="M478.213 121.091C479.536 122.818 480.345 123.398 482.777 124.529C490.093 127.932 484.317 113.406 489.691 115.355C491.062 115.852 491.723 117.516 492.987 117.31C494.028 117.141 494.637 116.437 494.44 115.381C494.204 114.113 491.724 114.361 491.398 113.089C491.087 111.876 493.07 112.055 493.062 110.881C493.048 108.758 489.447 106.524 487.554 107.338C486.691 107.71 487.244 109.253 486.183 109.159C485.314 109.081 485.099 107.785 484.227 107.685C483.097 107.555 482.491 108.554 482.773 109.614C483.064 110.705 484.503 110.669 485.381 111.579C489.583 115.936 473.061 114.364 478.213 121.091Z" stroke="black"/>
<path fill-rule="evenodd" clip-rule="evenodd" d="M451.106 95.0462C451.077 94.6462 450.983 94.4006 450.79 93.9953C450.411 93.2028 448.718 91.9288 446.628 90.7026C449.765 86.8379 452.146 81.0974 450.988 80.5738C450.366 80.293 450 80.1623 449.367 80.0296C447.826 79.7071 446.188 85.5426 444.078 89.3323C440.336 87.4945 436.479 86.3488 436.673 88.2978C436.985 91.4241 437.87 93.8879 441.272 94.2015C442.603 94.3242 444.071 93.4118 445.464 92.0071C448.344 93.9289 451.169 95.9235 451.106 95.0462ZM439.485 89.4679C439.46 89.991 438.407 91.7543 440.079 92.3543C441.268 92.7807 442.329 91.9737 443.294 90.5984C441.218 89.3085 439.531 88.4974 439.485 89.4679Z" stroke="black"/>
<path d="M71.2345 221.702C71.8081 221.702 74.9182 221.376 79.3781 220.592C81.8338 220.16 83.6651 219.566 85.6911 217.835C86.4258 217.208 87.2152 216.105 89.5911 214.218C93.8372 210.847 97.8435 209.014 99.3256 208.438C100.776 207.875 101.886 207.284 106.229 204.58C108.778 202.994 112.769 199.842 115.074 198.246C117.697 196.431 120.41 195.995 124.523 195.009C129.924 193.713 131.953 192.208 133.573 191.46C134.877 190.858 135.509 189.731 140.432 185.709C144.45 182.428 147.623 180.667 148.609 179.803C150.129 178.472 151.657 177.948 153.716 177.246C157.777 175.86 159.9 175.144 163.231 173.868C164.739 173.291 165.833 172.509 166.908 171.395C167.69 170.584 168.884 170.036 169.874 169.498C170.863 168.959 172.177 167.98 173.335 167.232C174.375 166.56 175.802 165.834 177.044 165.335C178.039 164.936 179.02 164.266 180.461 163.525C182.731 162.452 183.718 161.631 184.749 160.805C185.038 160.558 185.364 160.231 185.7 159.895" stroke="#413E3E" stroke-width="2" stroke-linecap="round"/>
<path d="M78.8985 234.558C78.8985 234.395 79.1433 233.984 79.7589 233.245C80.5567 232.287 83.8975 229.717 88.2635 226.421C90.6622 224.611 93.3811 223.442 95.663 222.897C96.0282 222.81 96.3626 222.775 98.8967 221.999C101.431 221.222 106.163 219.754 108.764 218.916C112.726 217.639 115.31 216.352 117.747 215.319C118.479 215.008 119.028 214.616 121.44 213.227C123.536 212.019 127.36 209.716 130.192 208.091C136.875 204.255 138.228 203.491 139.875 202.505C141.272 201.668 145.042 199.714 147.623 198.26C148.83 197.58 149.848 197.147 151.165 196.487C153.014 195.561 154.545 194.512 155.535 193.973C156.56 193.415 157.512 192.86 158.953 191.833C159.67 191.322 163.252 189.985 168.523 188.337C172.048 187.236 173.087 186.927 174.2 186.351C175.744 185.551 176.795 185.196 177.908 184.58C179.666 183.605 181.161 182.645 182.441 181.86C183.59 181.155 184.786 179.52 186.026 178.317C187.388 176.995 188.415 176.217 189.651 175.063C190.808 174.237 191.384 173.577 191.959 173.207C192.289 173.001 192.697 172.756 193.365 172.257" stroke="#413E3E" stroke-width="2" stroke-linecap="round"/>
<path d="M87.3042 248.897C88.2832 248.573 91.9026 246.108 95.4096 243.836C97.4597 242.508 99.4085 241.648 104.18 238.485C105.545 237.58 106.173 237.114 106.83 236.704C107.57 236.242 110.843 234.57 115.58 232.675C118.357 231.564 120.012 230.933 121.211 230.398C122.38 229.876 125.842 228.145 128.175 227.02C129.803 226.235 131.301 225.168 132.992 224.056C134.688 222.939 138.129 222.12 141.71 221.132C143.919 220.523 145.232 219.811 147.688 218.295C152.658 215.229 156.278 213.462 157.016 213.134C159.311 212.116 160.231 211.487 161.588 210.787C166.251 208.383 170.615 206.211 172.384 205.429C174.463 204.511 176.706 204.317 178.238 203.698C179.353 203.247 180.667 202.75 182.152 201.927C183.951 200.931 185.943 199.209 187.63 197.973C189.23 196.801 190.719 195.832 192.575 194.142C193.94 192.899 195.09 192.124 196.08 191.336C196.574 191.13 197.07 190.883 197.564 190.595C197.812 190.47 198.057 190.388 198.556 190.057" stroke="#413E3E" stroke-width="2" stroke-linecap="round"/>
<path d="M95.2155 266.45C96.3601 265.96 99.4876 263.988 103.831 261.28C106.798 259.432 111.602 257.105 114.162 255.762C116.722 254.42 116.966 254.257 118.969 253.316C120.972 252.375 124.724 250.662 127.066 249.657C130.186 248.318 131.634 247.91 134.662 246.928C137.101 246.136 141.442 244.966 144.689 243.846C147.937 242.726 149.976 241.747 151.924 240.753C155.693 238.83 158.169 237.201 160.096 235.764C163.092 233.531 165.507 232.498 166.124 232.293C166.7 232.101 169.685 230.37 174.337 227.818C178.525 225.521 180.004 223.937 182.108 222.325C184.17 220.745 187.668 219.398 189.116 218.532C190.15 217.915 191.135 217.42 192.74 216.595C194.183 215.855 195.995 214.374 197.274 213.136C198.189 212.25 199.456 211.734 200.53 211.279C201.67 210.796 202.754 210.166 203.744 209.795C203.993 209.672 204.238 209.509 204.568 209.221C204.898 208.933 205.306 208.525 205.973 207.61" stroke="#413E3E" stroke-width="2" stroke-linecap="round"/>
<path d="M203.995 143.084C205.14 143.084 208.757 143.736 210.706 144.278C212.104 144.666 218.196 144.567 222.817 144.772C225.008 144.87 226.157 145.388 227.928 145.843C230.374 146.471 233.326 147.039 234.769 147.285C237.096 147.682 240.076 147.697 246.288 147.863C249.506 147.948 253.411 148.602 256.4 148.811C258.316 148.945 261.901 150.08 264.846 150.787C267.517 151.428 270 151.9 271.4 152.025C272.73 152.143 274.366 152.394 276.753 152.93C278.814 153.392 281.446 153.715 282.898 153.961C284.665 154.209 286.648 154.291 287.51 154.414C288.045 154.456 288.779 154.456 289.536 154.456" stroke="#413E3E" stroke-width="2" stroke-linecap="round"/>
<path d="M211.741 161.593C212.508 161.912 213.541 162.269 214.621 162.559C215.27 162.733 215.804 162.722 217.645 162.834C219.196 162.929 222.009 162.915 223.505 162.948C225.098 162.982 225.771 163.3 227.44 163.927C228.523 164.333 230.132 164.777 231.147 165.12C232.564 165.599 233.131 166.012 233.773 166.365C234.202 166.602 234.925 166.783 237.396 167.17C239.866 167.556 244.082 168.1 246.35 168.411C248.618 168.723 248.81 168.787 249.451 168.884C251.174 169.143 252.969 169.272 254.113 169.352C254.588 169.385 254.842 169.464 255.916 169.609C256.99 169.754 258.874 169.977 259.957 170.093C261.261 170.231 261.622 170.24 262.741 170.288C263.733 170.331 265.586 170.304 266.652 170.336C267.719 170.368 267.942 170.432 268.521 170.529C269.099 170.626 270.025 170.754 272.259 170.819C274.493 170.885 278.007 170.885 280.136 170.917C282.266 170.949 282.905 171.013 283.378 171.078C283.85 171.143 284.138 171.207 285.276 171.256C286.415 171.304 288.395 171.336 290.435 171.369" stroke="#413E3E" stroke-width="2" stroke-linecap="round"/>
<path d="M221.711 184.049C222.415 184.049 224.03 184.113 225.303 184.307C225.735 184.373 226.282 184.34 227.12 184.404C227.959 184.468 229.077 184.595 231.49 184.661C233.902 184.727 237.576 184.727 239.74 184.775C241.903 184.823 242.446 184.919 243.333 184.984C244.22 185.049 245.434 185.081 246.171 185.114C246.908 185.146 247.131 185.178 248.556 185.242C249.981 185.307 252.6 185.403 254.013 185.468C255.556 185.539 255.814 185.598 257.477 185.822C259.014 186.028 261.951 186.492 263.672 186.723C265.802 187.008 266.46 186.985 267.134 187.034C269.102 187.175 269.718 187.147 271.767 187.338C273.531 187.503 276.754 187.913 279.343 188.111C281.931 188.308 283.784 188.308 284.882 188.26C286.691 188.018 287.174 187.986 287.577 187.922C287.756 187.889 287.884 187.857 288.306 187.824" stroke="#413E3E" stroke-width="2" stroke-linecap="round"/>
<path d="M229.358 202.053C229.39 202.053 229.422 202.053 231.674 202.085C233.927 202.117 238.398 202.181 241.07 202.262C243.741 202.343 244.475 202.438 244.981 202.488C245.488 202.537 245.743 202.537 248.063 202.857C250.383 203.176 254.759 203.815 257.556 204.16C260.354 204.505 261.44 204.537 263.756 204.777C266.072 205.017 269.586 205.464 272.306 205.679C275.027 205.893 276.847 205.861 278.456 205.749C281.415 205.542 282.884 205.216 283.094 205.167C284.105 205.055 286.041 204.86 287.251 204.78C287.812 204.764 288.771 204.764 289.758 204.764" stroke="#413E3E" stroke-width="2" stroke-linecap="round"/>
<path d="M348.053 104.643C348.457 105.045 349.712 107.257 351.807 110.489C353.706 113.419 355.184 114.912 356.291 116.093C357.132 116.991 358.399 118.626 360.197 120.454C361.995 122.281 364.249 124.285 365.611 125.467C366.972 126.65 367.373 126.95 368.356 127.832C369.339 128.713 370.891 130.165 371.992 131.339C373.092 132.514 373.693 133.365 376.432 136.233C379.172 139.101 384.03 143.96 386.784 146.663C389.537 149.367 390.038 149.768 390.897 150.65C391.756 151.533 392.959 152.885 393.879 154.083C395.507 156.204 396.77 158.266 398.009 159.884C398.51 160.539 398.696 160.9 399.526 162.183C400.355 163.465 401.808 165.669 402.732 167.18C404.086 169.396 404.768 170.768 405.475 171.703C405.772 172.095 405.982 172.287 407.238 173.292C408.493 174.297 410.797 176.1 412.109 177.104C414.145 178.662 415.19 179.522 418.043 181.594C418.634 182.005 418.784 182.105 418.912 182.232C419.039 182.359 419.14 182.509 419.243 182.664" stroke="#3A3737" stroke-width="2" stroke-linecap="round"/>
<path d="M332.418 114.51C332.619 115.366 333.326 116.58 334.209 117.992C335.617 120.244 336.819 121.844 337.272 122.398C337.993 123.28 338.69 124.069 339.295 124.875C340.236 126.132 341.219 127.256 342.1 128.49C343.476 130.416 344.761 131.861 346.394 133.669C347.695 135.111 349.88 137.682 351.091 139.274C352.628 141.294 353.007 142.585 355.167 144.998C356.852 146.88 360.032 149.816 361.732 151.415C363.958 153.507 364.847 154.024 367.069 155.714C367.578 156.102 367.831 156.249 368.887 157.203C369.943 158.157 371.796 159.91 372.851 160.964C374.157 162.268 374.814 163.128 376.099 164.563C376.912 165.472 377.934 166.85 379.453 168.549C380.972 170.247 382.925 172.251 384.007 173.383C385.26 174.696 385.844 175.373 386.703 176.282C387.123 176.727 387.461 177.19 389.269 179.175C391.078 181.161 394.334 184.667 396.312 186.924C398.999 189.991 399.811 191.313 400.366 191.918C401.367 193.009 402.087 193.793 402.72 194.097C402.898 194.198 403.098 194.348 403.277 194.476C403.455 194.603 403.605 194.704 403.76 194.959" stroke="#3A3737" stroke-width="2" stroke-linecap="round"/>
<path d="M327.258 137.734C327.258 137.834 327.358 138.036 328.211 138.764C330.243 140.5 332.463 142.028 333.599 143.165C334.386 143.951 334.946 144.711 335.726 145.945C337.822 149.26 338.539 149.722 339.32 150.982C339.768 151.705 340.649 152.888 342.515 155.361C344.381 157.834 347.236 161.54 349.033 164.101C351.659 167.845 352.352 169.607 352.73 170.212C353.362 171.223 353.666 171.984 356.263 176.47C357.069 177.863 357.953 179.097 360.57 181.896C363.188 184.695 367.546 189.002 369.866 191.272C372.647 193.991 373.9 194.852 375.32 196.093C375.633 196.366 375.876 196.574 377.182 197.829C378.488 199.084 380.843 201.389 382.331 202.901C385.207 205.824 385.794 206.644 386.983 207.805C387.464 208.362 387.921 208.82 388.375 209.224C388.58 209.427 388.73 209.628 389.036 209.986" stroke="#3A3737" stroke-width="2" stroke-linecap="round"/>
<path d="M324.525 162.779C324.525 162.979 325.227 164.135 326.364 165.803C326.908 166.602 328.458 168.529 330.583 171.336C331.474 172.514 331.81 172.996 332.589 174.454C334.204 177.479 335.605 179.525 335.882 179.953C336.171 180.398 337.466 182.694 339.463 185.83C340.615 187.638 341.77 189.128 343.962 191.776C345.243 193.322 347.106 195.074 348.135 196.153C349.41 197.491 350.372 198.794 351.687 200.412C352.47 201.375 352.907 202.14 354.164 203.974C355.162 205.429 356.723 208.061 357.649 209.528C358.575 210.995 358.775 211.246 359.755 212.302C360.735 213.357 362.488 215.211 363.617 216.341C365.147 217.873 366.162 218.684 367.071 219.543C368.54 220.759 369.556 221.824 369.783 222.127C369.909 222.279 370.06 222.43 370.214 222.736" stroke="#3A3737" stroke-width="2" stroke-linecap="round"/>
<path d="M444.271 182.329C444.271 182.909 444.079 185.334 443.907 187.025C443.804 188.036 443.492 188.855 443.202 189.895C442.597 192.066 441.886 194.497 441.594 196.443C441.362 197.988 441.446 199.132 441.373 200.296C441.264 202.035 441.252 203.757 441.106 205.214C440.808 208.184 440.425 210.039 440.132 211.649C439.894 212.956 439.741 214.185 439.717 214.939C439.7 215.457 439.595 216.953 439.45 219.408C439.231 223.125 437.891 224.27 437.356 225.774C437.208 229.289 437.11 230.452 436.844 231.553C436.77 231.773 436.722 231.966 436.672 232.165" stroke="#222121" stroke-width="2" stroke-linecap="round"/>
<path d="M427.611 196.652C427.611 197.521 427.707 199.472 428.024 200.448C428.432 201.707 427.713 203.804 426.737 205.561C426.202 206.524 426.295 208.092 426.174 209.361C426.016 211.015 426.003 211.798 425.882 212.481C425.711 213.443 425.614 214.718 425.517 216.205C425.426 217.576 425.03 218.617 424.592 219.811C424.229 220.803 423.764 221.882 423.229 222.493C422.988 222.767 422.74 222.956 422.643 223.296C422.496 224.367 422.544 225.343 422.617 226.359C422.642 227.181 422.642 228.628 422.642 230.119" stroke="#222121" stroke-width="2" stroke-linecap="round"/>
<path d="M409.927 212.581C409.927 213.885 409.831 216.621 409.66 217.304C409.398 218.349 409.246 219.737 409.221 222.169C409.21 223.165 409.585 224.121 409.659 225.001C409.769 226.313 409.685 228.07 409.368 228.777C409.294 228.948 409.246 229.093 409.173 229.288C409.1 229.483 409.004 229.724 408.904 229.973" stroke="#222121" stroke-width="2" stroke-linecap="round"/>
<path d="M396.189 225.004C396.189 225.052 396.189 225.1 396.189 225.8C396.189 226.5 396.189 227.851 396.043 229.388" stroke="#222121" stroke-width="2" stroke-linecap="round"/>
<path d="M423.959 260.664C423.993 260.664 424.347 260.53 425.11 260.149C425.55 259.929 426.041 259.549 426.511 259.266C427.381 258.743 428.072 258.489 428.496 258.327C429.113 258.093 429.45 257.74 429.723 257.57C429.846 257.493 429.995 257.451 430.552 257.215C431.034 257.01 431.95 256.709 432.553 256.477C433.436 256.137 433.821 255.937 434.151 255.811C434.683 255.606 435.096 255.309 435.401 255.072C435.584 254.93 435.84 254.767 436.577 254.352C437.313 253.937 438.525 253.281 439.208 252.909C440.011 252.472 440.501 252.215 441.382 251.716C442.578 251.038 443.242 250.479 443.411 250.386C443.982 250.072 444.38 250.02 444.931 249.817C445.844 249.48 446.507 249.271 446.642 249.204C446.86 249.095 447.068 248.932 447.339 248.779C448.332 248.221 449.04 247.639 449.304 247.461C449.517 247.317 449.72 247.18 449.925 247.095C449.976 247.078 450.026 247.061 450.078 247.044C450.129 247.027 450.179 247.01 450.232 246.993" stroke="#222121" stroke-linecap="round"/>
<path d="M420.949 254.594C420.983 254.594 421.186 254.526 421.929 254.231C422.49 254.008 423.413 253.615 423.941 253.416C424.558 253.183 425.212 253.031 426.121 252.7C426.692 252.492 427.153 252.231 427.713 251.977C428.259 251.729 428.971 251.331 429.778 250.966C430.57 250.607 431.215 250.109 431.704 249.714C431.945 249.52 432.593 249.155 433.022 248.957C433.652 248.667 434.634 248.32 435.138 248.158C435.82 247.939 436.37 247.725 436.678 247.588C437.104 247.399 437.645 246.96 438.021 246.73C438.523 246.422 439.024 246.228 439.271 246.126C439.535 246.058 439.739 245.99 439.883 245.922C439.96 245.888 440.044 245.854 440.233 245.819" stroke="#222121" stroke-linecap="round"/>
<path d="M417.583 248.727C417.599 248.727 417.616 248.727 418.408 248.508C419.199 248.289 420.765 247.852 421.622 247.601C422.586 247.319 422.734 247.18 422.887 247.003C423.407 246.395 424.43 245.958 424.953 245.718C425.313 245.552 425.91 245.447 426.449 245.301C427.099 245.125 427.58 244.936 427.835 244.833C427.904 244.8 427.971 244.749 428.09 244.673C428.209 244.596 428.377 244.495 428.602 244.391" stroke="#222121" stroke-linecap="round"/>
<path d="M415.848 244.697C416.389 244.392 417.105 244.153 417.327 244.043C417.562 243.926 417.938 243.762 418.406 243.592C418.653 243.507 418.806 243.456 418.917 243.413C418.976 243.388 419.044 243.354 419.215 243.269" stroke="#222121" stroke-linecap="round"/>
<path d="M397.578 256.221C397.79 256.327 398.427 256.805 399.042 257.219C400.07 257.912 400.296 258.247 401.506 259.257C402.369 259.978 403.549 260.459 403.963 260.687C404.417 260.936 405.122 261.392 406.147 262.417C406.754 263.023 407.678 264.003 408.88 264.951C409.673 265.576 410.136 265.899 410.483 266.233C410.954 266.686 411.574 267.178 411.976 267.646C412.266 267.984 412.536 268.194 412.989 268.566C413.294 268.817 413.656 268.966 414.043 269.313C414.377 269.554 414.696 269.766 415.016 269.98C415.097 270.033 415.176 270.086 415.418 270.141" stroke="#191818" stroke-linecap="round"/>
<path d="M401.498 252.141C401.843 252.352 402.587 253.098 403.03 253.354C403.671 253.725 404.376 254.487 405.493 255.696C406.297 256.567 407.067 257.018 407.722 257.513C408.25 257.912 408.509 258.299 408.883 258.513C409.57 258.907 410.056 259.474 410.31 259.74C410.59 260.06 410.856 260.326 411.176 260.606C411.257 260.674 411.336 260.726 411.418 260.781" stroke="#191818" stroke-linecap="round"/>
<path d="M404.698 249.021C404.777 249.367 405.202 249.845 405.59 250.153C406.035 250.507 406.509 250.992 406.87 251.406C406.963 251.5 407.069 251.579 407.15 251.66C407.23 251.74 407.283 251.819 407.498 252.061" stroke="#191818" stroke-linecap="round"/>
<path d="M389.658 240.941C389.658 241.047 389.658 241.999 389.645 243.451C389.64 244.006 389.605 244.191 389.592 245.368C389.578 246.546 389.578 248.711 389.591 249.892C389.658 251.684 389.684 252.46 389.724 252.739C389.738 252.938 389.738 253.255 389.818 253.741" stroke="#191818" stroke-linecap="round"/>
<path d="M394.618 241.181C394.618 241.5 394.512 242.508 394.445 243.246C394.378 243.74 394.352 244.14 394.312 244.736C394.298 245.252 394.298 246.202 394.298 247.181" stroke="#191818" stroke-linecap="round"/>
<path d="M397.898 241.021V241.421" stroke="#191818" stroke-linecap="round"/>
</svg>
