<svg width="568" height="406" viewBox="0 0 568 406" fill="none" xmlns="http://www.w3.org/2000/svg">
<path fill-rule="evenodd" clip-rule="evenodd" d="M28.7452 3.77769C-18.9298 10.5852 0.367153 384.996 37.8261 396.341C75.2851 407.687 479.955 409.389 532.738 396.341C585.521 383.294 574.737 19.6618 523.657 10.5851C472.577 1.50849 76.4202 -3.0298 28.7452 3.77769ZM63.7452 374.778C30.7451 364.778 13.7452 34.7777 55.7452 28.7777C97.7452 22.7776 446.745 26.7776 491.745 34.7777C536.745 42.7777 546.245 363.278 499.745 374.778C453.245 386.278 96.7452 384.778 63.7452 374.778Z" fill="#19191F"/>
<path d="M55.7452 28.7777C13.7452 34.7777 30.7451 364.778 63.7452 374.778C96.7452 384.778 453.245 386.278 499.745 374.778C546.245 363.278 536.745 42.7777 491.745 34.7777C446.745 26.7776 97.7452 22.7776 55.7452 28.7777Z" fill="#343346"/>
<path fill-rule="evenodd" clip-rule="evenodd" d="M28.7452 3.77769C-18.9298 10.5852 0.367153 384.996 37.8261 396.341C75.2851 407.687 479.955 409.389 532.738 396.341C585.521 383.294 574.737 19.6618 523.657 10.5851C472.577 1.50849 76.4202 -3.0298 28.7452 3.77769ZM63.7452 374.778C30.7451 364.778 13.7452 34.7777 55.7452 28.7777C97.7452 22.7776 446.745 26.7776 491.745 34.7777C536.745 42.7777 546.245 363.278 499.745 374.778C453.245 386.278 96.7452 384.778 63.7452 374.778Z" stroke="black"/>
<path d="M55.7452 28.7777C13.7452 34.7777 30.7451 364.778 63.7452 374.778C96.7452 384.778 453.245 386.278 499.745 374.778C546.245 363.278 536.745 42.7777 491.745 34.7777C446.745 26.7776 97.7452 22.7776 55.7452 28.7777Z" stroke="black"/>
<path d="M67.6892 64.6177C67.4652 63.3377 66.8412 62.7457 65.8172 62.8417C65.2412 62.8737 64.7452 63.2577 64.3292 63.9937C63.7532 65.1137 63.4972 66.5697 63.5612 68.3617C63.6572 70.1217 63.7852 71.4017 63.9452 72.2017C64.1372 72.9697 64.4572 73.6417 64.9052 74.2177C65.1612 74.6657 65.5452 74.8737 66.0572 74.8417C66.9532 74.8417 67.6092 74.0897 68.0252 72.5857L68.4092 71.4337C68.5692 71.2737 68.6012 71.1137 68.5052 70.9537C68.8252 70.1537 69.0012 69.2097 69.0332 68.1217C68.7132 67.8977 68.5212 67.6897 68.4572 67.4977C68.2652 66.9537 68.1692 66.5857 68.1692 66.3937C67.9452 66.2337 67.8172 65.9297 67.7852 65.4817C67.7532 65.0337 67.7212 64.7457 67.6892 64.6177ZM58.9052 69.1297L59.0972 66.6817C59.3212 64.4737 59.9932 62.5857 61.1132 61.0177C62.2012 59.7057 63.7372 59.0337 65.7212 59.0017H66.0092C67.8652 59.0017 69.2092 59.4017 70.0412 60.2017C70.9372 60.9057 71.5932 61.6737 72.0092 62.5057C72.4572 63.3377 72.7452 63.9457 72.8732 64.3297C73.0012 64.7137 73.0812 65.2737 73.1132 66.0097C73.1772 67.3857 72.9052 68.1697 72.2972 68.3617C72.7452 71.4017 72.4732 73.8177 71.4812 75.6097C71.1612 76.3457 70.6972 77.1457 70.0892 78.0097C69.6412 78.5857 68.8412 78.9057 67.6892 78.9697C66.5372 78.9697 65.5292 78.9057 64.6652 78.7777C63.8332 78.6497 62.9052 78.2497 61.8812 77.5777C60.8572 76.8737 60.1372 75.7377 59.7212 74.1697C59.2732 72.6657 59.0012 70.9857 58.9052 69.1297ZM77.6162 64.6177C77.6162 64.3297 77.5842 63.9937 77.5202 63.6097V63.2737C77.5522 63.0497 77.5362 62.8097 77.4722 62.5537C77.4722 62.2337 77.5042 61.9457 77.5682 61.6897C77.5682 61.0497 77.6482 60.6337 77.8082 60.4417C77.8082 60.2817 78.0322 59.9137 78.4802 59.3377C78.6082 59.2097 78.8482 59.0017 79.2002 58.7137C79.7122 58.5537 80.0642 58.4577 80.2562 58.4257C80.3842 58.2977 80.8162 58.3457 81.5522 58.5697C81.8722 58.6017 82.3682 58.7137 83.0402 58.9057C83.2642 58.9697 83.5522 59.2257 83.9042 59.6737C83.8402 59.8017 83.7282 60.2817 83.5682 61.1137C83.4402 61.9137 83.3922 62.5697 83.4242 63.0817C83.6162 62.9217 83.9522 62.5857 84.4322 62.0737C84.9122 61.5617 85.1682 61.2897 85.2002 61.2577C86.0322 60.8737 86.8482 60.6017 87.6482 60.4417C88.8002 60.3457 89.5522 60.4257 89.9042 60.6817C90.1922 60.7777 90.4162 60.9217 90.5762 61.1137C90.8642 61.3697 91.1042 61.8177 91.2962 62.4577C91.4882 63.0657 91.4722 63.4497 91.2482 63.6097C91.0562 63.7697 90.4162 63.8977 89.3282 63.9937C89.2642 63.9937 89.0402 64.1217 88.6562 64.3777L86.1602 66.3457C85.6482 66.6017 85.2962 66.8257 85.1042 67.0177L84.1922 68.6977C84.1602 68.7617 84.1282 69.1777 84.0962 69.9457C84.0642 70.7137 84.0642 71.2737 84.0962 71.6257C84.1282 71.9457 84.1282 73.0177 84.0962 74.8417V76.9057C84.0962 78.0257 84.0802 78.6657 84.0482 78.8257C84.0162 79.0177 83.8882 79.3377 83.6642 79.7857C83.5682 79.9457 83.2642 80.0257 82.7522 80.0257C81.5042 80.9537 80.7042 80.9057 80.3522 79.8817L79.7282 79.4977C79.4722 79.3697 79.3122 79.2097 79.2482 79.0177C78.9922 78.6657 78.8642 78.4577 78.8642 78.3937L78.6722 77.7217L78.3842 77.1457C78.2882 77.1137 78.2082 76.5057 78.1442 75.3217C78.0802 74.1057 78.0482 73.3697 78.0482 73.1137C78.0482 72.8257 78.0162 72.5217 77.9522 72.2017C78.1762 71.9777 78.2722 71.5937 78.2402 71.0497C78.2402 70.5057 78.2082 70.0897 78.1442 69.8017C78.0802 69.4817 78.0802 69.2897 78.1442 69.2257C78.2082 69.1297 78.1922 68.6817 78.0962 67.8817C78.0002 67.7537 77.9842 67.5137 78.0482 67.1617L77.6162 64.6177ZM104.873 64.3777L104.777 63.2737C104.777 62.7617 104.633 62.3297 104.345 61.9777C104.217 61.9137 104.089 61.7537 103.961 61.4977H103.913C103.913 61.4657 103.833 61.4337 103.673 61.4017C103.513 61.3377 103.385 61.3377 103.289 61.4017C103.129 61.4657 102.649 61.8977 101.849 62.6977L101.225 64.0897C100.873 64.5697 100.425 65.5137 99.8807 66.9217C99.8487 66.9537 99.8487 67.1297 99.8807 67.4497C99.9447 67.8657 100.041 68.9057 100.169 70.5697C100.425 72.9377 100.569 74.3297 100.601 74.7457L101.129 74.6497C101.225 74.5537 101.449 74.4577 101.801 74.3617C102.249 73.8497 102.585 73.4817 102.809 73.2577L103.769 71.7217C103.769 71.5617 103.865 71.2577 104.057 70.8097C104.281 70.3297 104.441 69.8977 104.537 69.5137C104.537 69.4497 104.569 69.1937 104.633 68.7457C104.729 68.0737 104.777 67.4177 104.777 66.7777C104.873 66.7777 104.905 66.6977 104.873 66.5377C104.873 66.3777 104.873 66.1857 104.873 65.9617V64.3777ZM93.9287 60.5857C93.7367 59.5617 93.6407 58.8577 93.6407 58.4737V58.0897C93.6407 57.6737 93.9127 57.2897 94.4567 56.9377L95.0807 56.6497C95.1127 56.6177 95.5607 56.5537 96.4247 56.4577C96.8727 56.4577 97.1447 56.4737 97.2407 56.5057C97.3367 56.5057 97.5447 56.5857 97.8647 56.7457C98.2167 56.9057 98.4567 57.0497 98.5847 57.1777C98.8407 57.6897 98.9687 58.1857 98.9687 58.6657V59.9617L99.3047 59.6737L99.7847 59.1457C99.8487 59.0177 100.057 58.8417 100.409 58.6177C100.761 58.3937 101.289 58.2337 101.993 58.1377C102.953 57.9777 104.009 58.0417 105.161 58.3297C105.705 58.3937 106.041 58.5057 106.169 58.6657C106.169 58.6017 106.441 58.6497 106.985 58.8097C106.953 58.8737 107.017 58.9377 107.177 59.0017C107.369 59.0657 107.625 59.1617 107.945 59.2897L108.281 59.6737L108.473 60.2497C108.665 60.3137 108.841 60.5537 109.001 60.9697L109.481 62.7457C109.481 62.9377 109.561 63.2417 109.721 63.6577V64.8097C109.753 65.1617 109.769 65.5457 109.769 65.9617C109.769 66.3457 109.737 66.8257 109.673 67.4017V67.9777L109.625 68.3137V68.4097C109.561 68.5377 109.561 68.6817 109.625 68.8417C109.497 69.8337 109.289 70.6177 109.001 71.1937L108.089 73.4497C107.929 73.6097 107.785 73.8337 107.657 74.1217C107.561 74.4097 107.129 74.9057 106.361 75.6097C104.793 77.0817 103.049 77.8177 101.129 77.8177C101.065 77.8497 100.953 77.9457 100.793 78.1057C100.793 78.2337 100.841 78.3297 100.937 78.3937L101.129 81.6577C101.129 82.4577 101.161 82.8737 101.225 82.9057C101.257 83.0657 101.305 83.5937 101.369 84.4897C101.433 85.3857 101.529 85.9457 101.657 86.1697L101.753 87.5137V87.9457C101.689 88.4577 101.561 88.8577 101.369 89.1457C101.177 89.4337 100.873 89.6257 100.457 89.7217C100.073 89.8177 99.5767 89.8177 98.9687 89.7217C98.3927 89.6577 98.0407 89.5297 97.9127 89.3377C97.4647 88.7297 97.1607 88.1537 97.0007 87.6097C96.7127 86.4257 96.5687 85.3057 96.5687 84.2497C96.4727 83.6737 96.4247 83.1297 96.4247 82.6177C96.3607 82.0417 96.2647 81.5937 96.1367 81.2737C96.0087 80.9537 95.9447 80.7137 95.9447 80.5537C95.7207 79.1777 95.6087 78.4257 95.6087 78.2977C95.6087 77.9457 95.5287 77.5777 95.3687 77.1937C95.2087 75.7537 95.1287 74.8737 95.1287 74.5537L94.6967 69.3697V68.4097C94.6007 68.2817 94.5047 67.3857 94.4087 65.7217C94.1847 65.3057 94.0247 63.5937 93.9287 60.5857ZM129.147 75.8497L129.099 77.2897C129.099 77.8337 129.131 78.2497 129.195 78.5377C129.291 78.7937 129.339 79.0337 129.339 79.2577C129.339 79.7697 128.443 79.6897 126.651 79.0177C126.587 79.0497 126.427 79.0337 126.171 78.9697C125.915 78.9377 125.739 78.8897 125.643 78.8257C125.579 78.7617 125.483 78.6977 125.355 78.6337C124.875 78.5057 124.651 78.2337 124.683 77.8177C124.651 77.6577 124.587 77.4817 124.491 77.2897C124.427 77.0977 124.395 76.8257 124.395 76.4737C124.427 76.1217 124.411 75.6097 124.347 74.9377C124.283 74.2337 124.267 73.8337 124.299 73.7377C124.555 72.2337 124.747 71.2097 124.875 70.6657C125.195 69.0017 125.227 67.4017 124.971 65.8657C124.747 64.3297 124.155 63.5297 123.195 63.4657C122.427 63.4657 121.739 63.9617 121.131 64.9537C120.139 66.9057 119.643 70.3137 119.643 75.1777C119.643 75.9777 119.739 76.7457 119.931 77.4817C120.123 78.2177 120.187 78.8257 120.123 79.3057C120.091 79.8177 119.643 80.0257 118.779 79.9297C117.947 79.8657 117.403 79.7377 117.147 79.5457L116.571 79.2577C116.187 79.2577 115.947 79.0817 115.851 78.7297C115.787 78.6017 115.643 78.4097 115.419 78.1537L114.555 77.0497C114.331 76.7937 114.235 76.5697 114.267 76.3777V75.5137L114.219 75.1777C113.995 74.9537 113.899 74.5217 113.931 73.8817C113.995 73.2417 114.155 72.0257 114.411 70.2337C114.763 67.7377 114.939 65.8337 114.939 64.5217C114.907 63.3057 114.907 62.6977 114.939 62.6977L115.371 58.3297V56.5537C115.371 54.5057 115.611 52.4897 116.091 50.5057C116.251 50.1537 116.363 49.9297 116.427 49.8337C116.523 49.7057 116.587 49.5617 116.619 49.4017C116.651 48.8897 116.827 48.4737 117.147 48.1537L117.051 48.2017C117.115 47.9777 117.291 47.7697 117.579 47.5777C118.123 47.2897 118.971 47.3537 120.123 47.7697C120.347 47.9297 120.507 48.0257 120.603 48.0577C120.795 48.1537 120.987 48.2017 121.179 48.2017C121.755 48.5857 122.011 48.9377 121.947 49.2577C121.947 49.3217 121.819 49.8337 121.563 50.7937C121.435 51.4977 121.371 51.9137 121.371 52.0417C120.667 54.6977 120.187 57.6417 119.931 60.8737C120.347 60.4577 120.827 60.1217 121.371 59.8657C122.619 59.3857 123.611 59.1617 124.347 59.1937C126.651 59.3537 128.235 60.2817 129.099 61.9777C129.931 63.3537 130.235 65.3217 130.011 67.8817C129.979 68.4577 129.691 71.1137 129.147 75.8497ZM143.908 61.1617C143.844 61.0017 143.62 60.9377 143.236 60.9697C142.884 61.0017 142.612 61.1937 142.42 61.5457C141.108 63.6257 140.404 65.8497 140.308 68.2177C141.396 68.4737 142.324 67.9937 143.092 66.7777C144.084 63.6417 144.356 61.7697 143.908 61.1617ZM140.164 80.2177L139.684 80.1217L139.012 79.4497C138.82 79.4497 138.676 79.3697 138.58 79.2097C138.228 78.7937 137.588 77.9617 136.66 76.7137L135.94 74.0737C135.94 73.5617 135.844 73.1137 135.652 72.7297C135.332 71.2897 135.14 70.4737 135.076 70.2817C135.012 70.0577 134.964 69.4657 134.932 68.5057C134.932 67.5457 134.98 66.8417 135.076 66.3937C135.172 65.7857 135.764 64.2817 136.852 61.8817C137.14 61.5937 137.316 61.2097 137.38 60.7297L138.148 59.6257C138.852 58.7937 139.604 58.1857 140.404 57.8017C140.404 57.7377 140.948 57.5777 142.036 57.3217C142.26 57.2897 142.772 57.3697 143.572 57.5617C145.492 58.0097 146.692 58.5697 147.172 59.2417L147.316 59.4817C147.924 60.3457 148.276 61.6737 148.372 63.4657C148.276 64.2657 148.196 64.9377 148.132 65.4817C148.068 66.0257 147.716 67.0177 147.076 68.4577C146.596 69.3537 146.132 70.0737 145.684 70.6177C144.98 71.1297 144.5 71.3857 144.244 71.3857C144.116 71.4497 143.844 71.4817 143.428 71.4817H142.324C142.228 71.4497 142.02 71.4337 141.7 71.4337C141.38 71.4337 140.916 71.3537 140.308 71.1937C140.308 71.8977 140.5 72.9057 140.884 74.2177C141.3 75.4977 141.636 76.2817 141.892 76.5697C142.564 77.0817 143.092 77.4177 143.476 77.5777C143.86 77.7377 144.372 77.7697 145.012 77.6737C145.652 77.5457 146.116 77.3217 146.404 77.0017L147.652 75.4657C148.452 74.3777 149.268 74.2817 150.1 75.1777C150.484 75.5937 150.628 76.0097 150.532 76.4257C150.468 76.8097 150.148 77.5937 149.572 78.7777C149.092 79.5457 148.58 80.1857 148.036 80.6977C147.044 81.2097 146.452 81.4657 146.26 81.4657C145.972 81.4977 145.524 81.4497 144.916 81.3217C144.596 81.4817 144.052 81.4657 143.284 81.2737C143.284 81.2097 143.188 81.1617 142.996 81.1297C142.836 81.1297 142.612 81.0817 142.324 80.9857L142.42 80.9377C142.356 80.9377 142.164 80.9377 141.844 80.9377L140.5 80.2177H140.164ZM162.051 72.2497C162.051 72.1217 162.083 72.0097 162.147 71.9137C162.243 71.8177 162.371 71.6417 162.531 71.3857C162.531 71.1617 162.691 70.3617 163.011 68.9857C163.299 67.8657 163.651 66.5697 164.067 65.0977C164.163 65.0017 164.211 64.8257 164.211 64.5697L164.691 62.3137C164.691 61.5137 164.899 61.0337 165.315 60.8737C165.635 60.5537 166.083 60.4737 166.659 60.6337C167.235 60.7937 167.827 61.1457 168.435 61.6897C168.563 61.7537 168.691 61.7857 168.819 61.7857L169.491 62.3617C169.427 62.4897 169.395 63.1457 169.395 64.3297C169.395 65.4817 169.411 66.1857 169.443 66.4417V67.2577C169.443 67.6737 169.459 67.9457 169.491 68.0737V68.6497L169.443 69.5617C169.571 70.2017 169.587 71.1297 169.491 72.3457V73.8337C169.459 73.9297 169.459 74.0897 169.491 74.3137C169.523 74.5057 169.555 74.7137 169.587 74.9377C169.555 75.0017 169.539 75.1297 169.539 75.3217V75.7057C169.603 76.0897 169.619 76.3457 169.587 76.4737L169.683 77.9137C169.811 78.2977 169.923 78.8257 170.019 79.4977C169.987 79.6577 169.987 79.9617 170.019 80.4097C169.859 80.7937 169.491 80.9857 168.915 80.9857C168.339 80.9217 167.907 80.7457 167.619 80.4577C167.459 80.4257 167.251 80.3297 166.995 80.1697C166.899 80.1697 166.755 80.1217 166.563 80.0257C166.403 79.8337 166.243 79.7057 166.083 79.6417C165.155 78.5857 164.611 77.3697 164.451 75.9937C164.387 75.9297 164.355 75.8497 164.355 75.7537C164.099 76.3937 163.491 77.4817 162.531 79.0177C162.211 79.4017 161.987 79.6897 161.859 79.8817C161.731 80.1057 161.635 80.2497 161.571 80.3137C161.347 80.7617 160.675 80.8097 159.555 80.4577C159.075 80.2977 158.771 80.2177 158.643 80.2177L157.155 79.7857C156.515 79.4657 155.955 79.0497 155.475 78.5377C155.347 78.5377 155.203 78.4737 155.043 78.3457C154.883 78.1857 154.787 78.0417 154.755 77.9137L154.179 77.0017C153.795 76.6497 153.475 76.1057 153.219 75.3697C153.187 74.9857 153.139 74.6497 153.075 74.3617V74.0737L153.027 73.7377L153.123 72.5377L153.555 69.8977C153.683 69.7697 153.747 69.5297 153.747 69.1777L153.891 68.2657C154.051 68.0417 154.131 67.7697 154.131 67.4497C154.195 67.3537 154.243 67.1297 154.275 66.7777C154.371 66.6497 154.419 66.4737 154.419 66.2497C154.451 66.0257 154.547 65.6257 154.707 65.0497C154.899 64.6657 154.995 64.1377 154.995 63.4657C154.995 62.7617 155.123 61.9617 155.379 61.0657C156.019 60.2017 156.963 59.9777 158.211 60.3937C158.435 60.3937 158.771 60.5537 159.219 60.8737C159.699 61.1617 160.051 61.3537 160.275 61.4497C160.531 61.7057 160.691 61.8977 160.755 62.0257C160.627 62.1537 160.547 62.3297 160.515 62.5537C159.555 65.9137 158.979 68.5857 158.787 70.5697C158.755 70.9217 158.675 71.3697 158.547 71.9137C158.451 72.4577 158.355 73.0177 158.259 73.5937C158.003 75.1297 158.307 75.9297 159.171 75.9937C159.491 76.0257 159.795 75.9617 160.083 75.8017C160.371 75.6417 160.531 75.4337 160.563 75.1777C161.459 73.4497 161.955 72.4737 162.051 72.2497ZM176.317 60.1537C177.181 59.0977 178.365 58.5377 179.869 58.4737C182.333 58.3777 184.157 58.9857 185.341 60.2977C186.557 61.6097 187.197 62.9057 187.261 64.1857C187.357 65.4657 187.037 66.1537 186.301 66.2497C185.245 66.2817 184.557 66.1377 184.237 65.8177C183.949 65.8497 183.581 65.6417 183.133 65.1937C182.941 65.0977 182.685 64.7297 182.365 64.0897L181.837 62.8897C181.581 62.3137 181.261 61.9937 180.877 61.9297C180.397 62.1217 180.157 62.6017 180.157 63.3697C180.285 64.8737 181.005 66.3137 182.317 67.6897C182.317 67.6897 182.333 67.7377 182.365 67.8337C182.429 67.8977 182.669 68.1537 183.085 68.6017C185.613 71.3857 186.925 73.6257 187.021 75.3217C187.021 76.4097 186.797 77.1297 186.349 77.4817C184.973 79.1137 183.181 79.9617 180.973 80.0257C178.765 80.0897 176.941 79.4017 175.501 77.9617C175.117 77.5777 174.925 77.2097 174.925 76.8577C174.733 76.2497 174.669 75.8497 174.733 75.6577C174.637 74.7617 174.637 74.0897 174.733 73.6417C174.925 72.6177 175.677 72.0897 176.989 72.0577C177.469 72.0577 177.773 72.3457 177.901 72.9217C178.317 74.5537 178.701 75.6257 179.053 76.1377C179.437 76.6497 180.045 76.8897 180.877 76.8577C181.933 76.7937 182.429 76.2017 182.365 75.0817C182.333 73.9617 181.805 72.9217 180.781 71.9617C180.461 71.5777 180.141 71.2897 179.821 71.0977C179.533 70.8737 179.341 70.7137 179.245 70.6177C179.213 70.5217 179.133 70.4257 179.005 70.3297C178.365 69.8177 177.549 68.9697 176.557 67.7857C175.597 66.6017 175.085 65.4977 175.021 64.4737C174.893 62.6497 175.325 61.2097 176.317 60.1537ZM206.982 64.6177C206.79 64.2017 206.31 64.3777 205.542 65.1457C204.998 65.4337 204.262 66.5217 203.334 68.4097C202.406 70.2657 201.894 71.2737 201.798 71.4337C200.966 73.0977 200.934 73.9137 201.702 73.8817C202.438 73.8177 203.27 73.1617 204.198 71.9137C204.646 71.3697 204.918 71.0657 205.014 71.0017C205.302 70.1697 205.542 69.6897 205.734 69.5617C206.054 67.8977 206.614 66.6337 207.414 65.7697C207.542 65.4177 207.398 65.0337 206.982 64.6177ZM209.574 63.7057C209.638 64.1217 209.718 64.3937 209.814 64.5217C209.91 64.6177 210.054 64.6657 210.246 64.6657C210.438 64.6657 210.71 64.7457 211.062 64.9057C211.414 65.0337 211.59 65.1457 211.59 65.2417C211.462 65.5297 211.27 65.7857 211.014 66.0097C210.982 66.1057 210.742 66.5537 210.294 67.3537C209.142 69.3377 208.598 70.6177 208.662 71.1937C208.758 71.7377 209.126 72.0577 209.766 72.1537C210.438 72.2497 211.014 71.8657 211.494 71.0017C211.494 70.9697 212.038 70.0257 213.126 68.1697C214.022 65.5137 214.39 63.5777 214.23 62.3617C214.102 61.1137 213.766 60.0257 213.222 59.0977C213.158 59.0017 212.63 58.4897 211.638 57.5617L210.678 57.0817C210.006 56.5057 209.19 56.2337 208.23 56.2657C207.302 56.2977 206.486 56.4577 205.782 56.7457C203.35 58.0577 201.782 59.0337 201.078 59.6737C200.406 60.2817 199.67 61.1617 198.87 62.3137C198.07 63.4337 197.462 64.4097 197.046 65.2417C196.63 66.0417 196.198 67.0977 195.75 68.4097C195.302 69.7217 194.982 70.6337 194.79 71.1457C194.598 71.6257 194.502 72.2657 194.502 73.0657C194.502 73.8337 194.47 74.3937 194.406 74.7457C194.342 75.0977 194.326 75.3697 194.358 75.5617C194.358 76.9377 194.694 78.4737 195.366 80.1697C195.558 80.6497 195.75 80.9697 195.942 81.1297C196.166 81.2897 196.454 81.4177 196.806 81.5137C197.158 81.6097 197.494 81.7537 197.814 81.9457C198.166 82.1697 199.126 82.1537 200.694 81.8977C200.886 81.8017 201.094 81.7217 201.318 81.6577C201.542 81.6257 201.75 81.5937 201.942 81.5617C202.134 81.5617 202.438 81.4337 202.854 81.1777C203.27 80.9217 203.734 80.6017 204.246 80.2177C204.758 79.8657 205.158 79.6257 205.446 79.4977C206.406 78.4737 207.462 78.4257 208.614 79.3537C209.03 79.8657 209.206 80.5697 209.142 81.4657C209.046 83.4497 208.054 84.7937 206.166 85.4977C205.718 85.6577 205.398 85.7857 205.206 85.8817C205.046 85.9777 204.886 86.0577 204.726 86.1217C204.086 86.3777 203.67 86.5377 203.478 86.6017C200.15 86.7617 198.326 86.6817 198.006 86.3617C197.686 86.0417 197.446 85.8337 197.286 85.7377C197.158 85.6417 197.046 85.5297 196.95 85.4017C196.726 85.1137 196.486 84.9377 196.23 84.8737C195.974 84.6177 195.702 84.4577 195.414 84.3937C195.126 84.3297 194.63 83.9937 193.926 83.3857C193.83 83.3857 193.686 83.2737 193.494 83.0497C193.334 82.8577 193.254 82.6817 193.254 82.5217C193.158 82.5537 192.918 82.3937 192.534 82.0417C191.702 81.2737 191.094 79.9937 190.71 78.2017C190.326 76.3777 190.102 74.9537 190.038 73.9297C190.038 72.4257 190.134 71.1937 190.326 70.2337C190.55 69.2417 190.87 68.0737 191.286 66.7297C191.734 65.3537 192.23 64.1537 192.774 63.1297L194.214 60.3457L195.558 58.7617C196.07 58.3777 196.374 58.0417 196.47 57.7537C196.566 57.6897 196.742 57.5617 196.998 57.3697C197.254 57.1457 197.43 57.0177 197.526 56.9857C198.678 55.8337 200.326 54.6817 202.47 53.5297C203.142 53.1137 203.798 52.8417 204.438 52.7137C205.11 52.5537 206.07 52.5057 207.318 52.5697C208.598 52.6017 209.366 52.6497 209.622 52.7137C210.646 52.9377 212.838 54.4577 216.198 57.2737C217.254 58.6497 217.878 60.0257 218.07 61.4017C218.262 62.7457 218.166 64.9697 217.782 68.0737C217.718 68.1377 217.542 68.5537 217.254 69.3217C216.998 70.0897 216.774 70.5857 216.582 70.8097C216.422 71.0337 216.134 71.5137 215.718 72.2497C214.758 73.9137 214.118 74.8097 213.798 74.9377C213.222 75.2257 212.694 75.5777 212.214 75.9937C211.99 75.9297 211.654 75.9937 211.206 76.1857C210.79 76.3457 210.182 76.3297 209.382 76.1377C208.614 75.9137 207.878 75.5297 207.174 74.9857C206.47 74.4417 206.198 73.9137 206.358 73.4017C205.686 74.3297 204.838 75.1937 203.814 75.9937C202.822 76.7617 201.926 77.0017 201.126 76.7137C200.71 76.7137 200.326 76.6657 199.974 76.5697C199.174 76.5697 198.55 76.0577 198.102 75.0337C197.814 74.1697 197.782 72.9537 198.006 71.3857C199.51 68.0577 200.438 66.1537 200.79 65.6737C201.174 65.1937 201.494 64.6977 201.75 64.1857C202.614 62.4897 203.766 61.4977 205.206 61.2097C206.07 61.0177 206.966 61.1457 207.894 61.5937C208.598 62.0097 209.158 62.7137 209.574 63.7057ZM224.623 48.6817C226.767 48.6817 228.271 49.1137 229.135 49.9777C229.135 50.5217 228.767 51.6257 228.031 53.2897C227.903 53.8337 227.695 54.2657 227.407 54.5857L226.783 55.2097C226.623 55.3057 226.463 55.3537 226.303 55.3537C225.151 55.6417 224.255 55.4177 223.615 54.6817C223.487 54.4897 223.327 54.3457 223.135 54.2497C222.975 54.1537 222.847 53.8657 222.751 53.3857C222.463 52.9697 222.319 52.6497 222.319 52.4257C222.255 50.4417 222.975 49.1937 224.479 48.6817H224.623ZM224.239 60.0097C224.559 59.8497 225.311 60.0097 226.495 60.4897C226.623 60.6177 226.815 60.7457 227.071 60.8737L227.839 61.4977C227.967 61.6257 228.031 61.8337 228.031 62.1217V66.3457C228.031 66.9857 227.999 67.5617 227.935 68.0737V68.3617C227.839 69.6737 227.919 72.6337 228.175 77.2417C228.271 78.1377 228.063 78.6817 227.551 78.8737C227.007 78.8737 226.655 78.7937 226.495 78.6337C226.367 78.5697 226.255 78.5377 226.159 78.5377H225.823L225.535 78.6337C225.439 78.6337 225.263 78.5697 225.007 78.4417C224.751 78.2817 224.575 78.1217 224.479 77.9617C224.415 77.8017 224.287 77.7057 224.095 77.6737C223.743 77.5457 223.551 77.3057 223.519 76.9537C223.071 76.0897 222.831 75.5777 222.799 75.4177C222.799 75.2577 222.751 75.0817 222.655 74.8897L222.415 70.7137C222.415 70.2337 222.447 69.8657 222.511 69.6097V68.4577C222.543 68.1057 222.575 67.4657 222.607 66.5377C222.639 65.5777 222.687 64.8097 222.751 64.2337C222.687 63.4017 222.655 62.8417 222.655 62.5537C222.655 62.2657 222.671 62.0577 222.703 61.9297C222.351 61.5777 222.367 61.0977 222.751 60.4897C223.167 60.1697 223.567 60.0097 223.951 60.0097H224.239ZM233.386 74.0257C233.386 73.8977 233.418 73.4177 233.482 72.5857C233.226 72.2017 233.098 71.3377 233.098 69.9937C233.066 66.5697 233.05 64.8257 233.05 64.7617C233.082 64.6977 233.05 64.5857 232.954 64.4257C232.858 64.2337 232.81 64.0417 232.81 63.8497V63.3217C232.682 62.2657 232.746 61.4657 233.002 60.9217C233.066 60.6017 233.242 60.3617 233.53 60.2017C233.754 59.8817 234.074 59.7217 234.49 59.7217C234.906 59.7217 235.258 59.7697 235.546 59.8657C235.77 59.7697 235.978 59.8977 236.17 60.2497C236.554 60.4097 236.762 60.4897 236.794 60.4897L237.034 60.6817C237.29 60.6817 237.45 60.7297 237.514 60.8257C237.61 60.8897 237.674 61.0817 237.706 61.4017L238.138 65.5777V66.3937C238.202 66.7777 238.234 67.0817 238.234 67.3057L238.282 69.5617L238.474 69.6097C238.666 68.8417 238.874 68.2017 239.098 67.6897C239.354 67.1457 239.514 66.7457 239.578 66.4897C239.61 66.2337 239.722 65.9937 239.914 65.7697C240.106 65.3857 240.202 65.1137 240.202 64.9537C240.202 64.7937 240.33 64.5857 240.586 64.3297C240.874 63.6257 241.146 63.1137 241.402 62.7937L241.546 62.4097C241.674 62.2177 241.77 62.0577 241.834 61.9297C242.186 61.6417 242.442 61.3857 242.602 61.1617L242.986 60.8737C243.05 60.8737 243.114 60.7937 243.178 60.6337C243.242 60.4417 243.658 60.3297 244.426 60.2977C245.034 60.2017 245.546 60.2017 245.962 60.2977C246.25 60.2977 246.426 60.3137 246.49 60.3457L246.778 60.6337L247.162 60.7297C247.706 61.0177 248.058 61.7057 248.218 62.7937C248.218 64.9697 248.298 66.4097 248.458 67.1137C248.682 68.9377 249.05 70.5697 249.562 72.0097C250.106 73.4497 250.634 74.4097 251.146 74.8897C251.818 75.7537 251.946 76.6657 251.53 77.6257C251.242 78.1057 250.874 78.3617 250.426 78.3937C249.978 78.4257 249.658 78.4097 249.466 78.3457C249.21 78.3457 249.002 78.2977 248.842 78.2017C248.49 78.2977 248.186 78.2177 247.93 77.9617C247.642 77.9617 247.418 77.8177 247.258 77.5297C246.138 76.0577 245.482 75.1457 245.29 74.7937C245.13 74.4417 245.002 74.2017 244.906 74.0737C244.842 73.9457 244.794 73.8337 244.762 73.7377C244.73 73.6417 244.682 73.4977 244.618 73.3057C244.554 73.0177 244.426 72.7617 244.234 72.5377C244.074 72.2817 243.994 72.0897 243.994 71.9617C243.898 71.8017 243.834 71.5457 243.802 71.1937C243.61 71.0657 243.514 70.9057 243.514 70.7137C243.354 70.6177 243.242 70.3297 243.178 69.8497L242.986 68.6017L242.89 68.5537C241.29 70.5697 240.378 72.8577 240.154 75.4177C240.09 76.0577 240.026 76.4737 239.962 76.6657C239.802 76.9217 239.866 77.3217 240.154 77.8657V78.1537C240.154 78.2817 239.978 78.5217 239.626 78.8737C239.242 78.9057 239.018 78.9217 238.954 78.9217H238.426C238.362 78.9217 238.234 78.9697 238.042 79.0657C237.85 79.0657 237.69 79.0977 237.562 79.1617C237.434 79.2257 237.258 79.2097 237.034 79.1137C236.458 79.0817 236.122 79.0337 236.026 78.9697C235.93 78.9377 235.786 78.8897 235.594 78.8257C235.402 78.7937 235.242 78.6977 235.114 78.5377C234.954 78.5377 234.842 78.4417 234.778 78.2497C233.946 77.4177 233.53 76.7137 233.53 76.1377V75.8017L233.482 75.4177C233.546 74.9057 233.514 74.4417 233.386 74.0257ZM269.209 75.8497L269.161 77.2897C269.161 77.8337 269.193 78.2497 269.257 78.5377C269.353 78.7937 269.401 79.0337 269.401 79.2577C269.401 79.7697 268.505 79.6897 266.713 79.0177C266.649 79.0497 266.489 79.0337 266.233 78.9697C265.977 78.9377 265.801 78.8897 265.705 78.8257C265.641 78.7617 265.545 78.6977 265.417 78.6337C264.937 78.5057 264.713 78.2337 264.745 77.8177C264.713 77.6577 264.649 77.4817 264.553 77.2897C264.489 77.0977 264.457 76.8257 264.457 76.4737C264.489 76.1217 264.473 75.6097 264.409 74.9377C264.345 74.2337 264.329 73.8337 264.361 73.7377C264.617 72.2337 264.809 71.2097 264.937 70.6657C265.257 69.0017 265.289 67.4017 265.033 65.8657C264.809 64.3297 264.217 63.5297 263.257 63.4657C262.489 63.4657 261.801 63.9617 261.193 64.9537C260.201 66.9057 259.705 70.3137 259.705 75.1777C259.705 75.9777 259.801 76.7457 259.993 77.4817C260.185 78.2177 260.249 78.8257 260.185 79.3057C260.153 79.8177 259.705 80.0257 258.841 79.9297C258.009 79.8657 257.465 79.7377 257.209 79.5457L256.633 79.2577C256.249 79.2577 256.009 79.0817 255.913 78.7297C255.849 78.6017 255.705 78.4097 255.481 78.1537L254.617 77.0497C254.393 76.7937 254.297 76.5697 254.329 76.3777V75.5137L254.281 75.1777C254.057 74.9537 253.961 74.5217 253.993 73.8817C254.057 73.2417 254.217 72.0257 254.473 70.2337C254.825 67.7377 255.001 65.8337 255.001 64.5217C254.969 63.3057 254.969 62.6977 255.001 62.6977L255.433 58.3297V56.5537C255.433 54.5057 255.673 52.4897 256.153 50.5057C256.313 50.1537 256.425 49.9297 256.489 49.8337C256.585 49.7057 256.649 49.5617 256.681 49.4017C256.713 48.8897 256.889 48.4737 257.209 48.1537L257.113 48.2017C257.177 47.9777 257.353 47.7697 257.641 47.5777C258.185 47.2897 259.033 47.3537 260.185 47.7697C260.409 47.9297 260.569 48.0257 260.665 48.0577C260.857 48.1537 261.049 48.2017 261.241 48.2017C261.817 48.5857 262.073 48.9377 262.009 49.2577C262.009 49.3217 261.881 49.8337 261.625 50.7937C261.497 51.4977 261.433 51.9137 261.433 52.0417C260.729 54.6977 260.249 57.6417 259.993 60.8737C260.409 60.4577 260.889 60.1217 261.433 59.8657C262.681 59.3857 263.673 59.1617 264.409 59.1937C266.713 59.3537 268.297 60.2817 269.161 61.9777C269.993 63.3537 270.297 65.3217 270.073 67.8817C270.041 68.4577 269.753 71.1137 269.209 75.8497ZM283.97 61.1617C283.906 61.0017 283.682 60.9377 283.298 60.9697C282.946 61.0017 282.674 61.1937 282.482 61.5457C281.17 63.6257 280.466 65.8497 280.37 68.2177C281.458 68.4737 282.386 67.9937 283.154 66.7777C284.146 63.6417 284.418 61.7697 283.97 61.1617ZM280.226 80.2177L279.746 80.1217L279.074 79.4497C278.882 79.4497 278.738 79.3697 278.642 79.2097C278.29 78.7937 277.65 77.9617 276.722 76.7137L276.002 74.0737C276.002 73.5617 275.906 73.1137 275.714 72.7297C275.394 71.2897 275.202 70.4737 275.138 70.2817C275.074 70.0577 275.026 69.4657 274.994 68.5057C274.994 67.5457 275.042 66.8417 275.138 66.3937C275.234 65.7857 275.826 64.2817 276.914 61.8817C277.202 61.5937 277.378 61.2097 277.442 60.7297L278.21 59.6257C278.914 58.7937 279.666 58.1857 280.466 57.8017C280.466 57.7377 281.01 57.5777 282.098 57.3217C282.322 57.2897 282.834 57.3697 283.634 57.5617C285.554 58.0097 286.754 58.5697 287.234 59.2417L287.378 59.4817C287.986 60.3457 288.338 61.6737 288.434 63.4657C288.338 64.2657 288.258 64.9377 288.194 65.4817C288.13 66.0257 287.778 67.0177 287.138 68.4577C286.658 69.3537 286.194 70.0737 285.746 70.6177C285.042 71.1297 284.562 71.3857 284.306 71.3857C284.178 71.4497 283.906 71.4817 283.49 71.4817H282.386C282.29 71.4497 282.082 71.4337 281.762 71.4337C281.442 71.4337 280.978 71.3537 280.37 71.1937C280.37 71.8977 280.562 72.9057 280.946 74.2177C281.362 75.4977 281.698 76.2817 281.954 76.5697C282.626 77.0817 283.154 77.4177 283.538 77.5777C283.922 77.7377 284.434 77.7697 285.074 77.6737C285.714 77.5457 286.178 77.3217 286.466 77.0017L287.714 75.4657C288.514 74.3777 289.33 74.2817 290.162 75.1777C290.546 75.5937 290.69 76.0097 290.594 76.4257C290.53 76.8097 290.21 77.5937 289.634 78.7777C289.154 79.5457 288.642 80.1857 288.098 80.6977C287.106 81.2097 286.514 81.4657 286.322 81.4657C286.034 81.4977 285.586 81.4497 284.978 81.3217C284.658 81.4817 284.114 81.4657 283.346 81.2737C283.346 81.2097 283.25 81.1617 283.058 81.1297C282.898 81.1297 282.674 81.0817 282.386 80.9857L282.482 80.9377C282.418 80.9377 282.226 80.9377 281.906 80.9377L280.562 80.2177H280.226ZM293.569 64.6177C293.569 64.3297 293.537 63.9937 293.473 63.6097V63.2737C293.505 63.0497 293.489 62.8097 293.425 62.5537C293.425 62.2337 293.457 61.9457 293.521 61.6897C293.521 61.0497 293.601 60.6337 293.761 60.4417C293.761 60.2817 293.985 59.9137 294.433 59.3377C294.561 59.2097 294.801 59.0017 295.153 58.7137C295.665 58.5537 296.017 58.4577 296.209 58.4257C296.337 58.2977 296.769 58.3457 297.505 58.5697C297.825 58.6017 298.321 58.7137 298.993 58.9057C299.217 58.9697 299.505 59.2257 299.857 59.6737C299.793 59.8017 299.681 60.2817 299.521 61.1137C299.393 61.9137 299.345 62.5697 299.377 63.0817C299.569 62.9217 299.905 62.5857 300.385 62.0737C300.865 61.5617 301.121 61.2897 301.153 61.2577C301.985 60.8737 302.801 60.6017 303.601 60.4417C304.753 60.3457 305.505 60.4257 305.857 60.6817C306.145 60.7777 306.369 60.9217 306.529 61.1137C306.817 61.3697 307.057 61.8177 307.249 62.4577C307.441 63.0657 307.425 63.4497 307.201 63.6097C307.009 63.7697 306.369 63.8977 305.281 63.9937C305.217 63.9937 304.993 64.1217 304.609 64.3777L302.113 66.3457C301.601 66.6017 301.249 66.8257 301.057 67.0177L300.145 68.6977C300.113 68.7617 300.081 69.1777 300.049 69.9457C300.017 70.7137 300.017 71.2737 300.049 71.6257C300.081 71.9457 300.081 73.0177 300.049 74.8417V76.9057C300.049 78.0257 300.033 78.6657 300.001 78.8257C299.969 79.0177 299.841 79.3377 299.617 79.7857C299.521 79.9457 299.217 80.0257 298.705 80.0257C297.457 80.9537 296.657 80.9057 296.305 79.8817L295.681 79.4977C295.425 79.3697 295.265 79.2097 295.201 79.0177C294.945 78.6657 294.817 78.4577 294.817 78.3937L294.625 77.7217L294.337 77.1457C294.241 77.1137 294.161 76.5057 294.097 75.3217C294.033 74.1057 294.001 73.3697 294.001 73.1137C294.001 72.8257 293.969 72.5217 293.905 72.2017C294.129 71.9777 294.225 71.5937 294.193 71.0497C294.193 70.5057 294.161 70.0897 294.097 69.8017C294.033 69.4817 294.033 69.2897 294.097 69.2257C294.161 69.1297 294.145 68.6817 294.049 67.8817C293.953 67.7537 293.937 67.5137 294.001 67.1617L293.569 64.6177ZM315.882 51.6097H316.026C317.146 51.6737 317.866 52.0097 318.186 52.6177C318.538 53.1937 318.666 53.7537 318.57 54.2977C318.506 54.8417 318.074 55.5137 317.274 56.3137C316.506 57.1137 315.802 57.4977 315.162 57.4657C314.97 57.4657 314.586 57.3697 314.01 57.1777C313.466 56.9857 313.178 56.8737 313.146 56.8417C313.114 56.7137 313.018 56.6177 312.858 56.5537C312.026 56.2337 311.562 55.4177 311.466 54.1057C311.466 53.9777 311.562 53.8817 311.754 53.8177C311.626 53.8177 311.61 53.6257 311.706 53.2417C311.93 52.5377 312.426 52.0737 313.194 51.8497C314.186 51.6577 315.082 51.5777 315.882 51.6097ZM315.786 63.7537L314.97 71.7697C314.97 71.9617 314.97 72.1537 314.97 72.3457C314.97 72.5057 314.986 72.6497 315.018 72.7777C314.986 72.9057 314.97 73.0657 314.97 73.2577V76.7137C315.098 77.8017 315.098 78.4417 314.97 78.6337C314.778 78.6977 314.554 78.7937 314.298 78.9217C314.042 79.0817 313.546 79.1137 312.81 79.0177C312.106 78.9537 311.594 78.8417 311.274 78.6817L310.698 78.5377C310.378 78.5377 310.17 78.3937 310.074 78.1057C309.658 77.8497 309.434 77.5137 309.402 77.0977C309.306 76.9377 309.418 76.7137 309.738 76.4257C309.706 76.2657 309.642 76.0417 309.546 75.7537C309.45 75.4337 309.418 75.1457 309.45 74.8897C309.546 74.7297 309.498 74.4897 309.306 74.1697C309.306 73.8177 309.354 73.4177 309.45 72.9697C309.578 72.8417 309.61 72.3777 309.546 71.5777C309.77 71.2577 309.882 70.8097 309.882 70.2337C309.754 69.7217 309.802 69.2097 310.026 68.6977C310.25 68.1857 310.378 67.6737 310.41 67.1617C310.474 66.3617 310.618 65.5777 310.842 64.8097C310.842 64.4897 310.986 63.9777 311.274 63.2737C311.594 62.5697 311.802 62.1537 311.898 62.0257L312.666 61.2577L313.53 60.9217H313.578C313.962 60.7937 314.346 60.8097 314.73 60.9697C315.658 61.3217 316.218 61.5937 316.41 61.7857C316.282 61.9137 316.202 62.1057 316.17 62.3617C316.138 62.6177 316.106 62.8417 316.074 63.0337C315.946 63.1937 315.85 63.4337 315.786 63.7537ZM329.438 49.9297C329.374 50.7297 329.342 51.3217 329.342 51.7057C329.342 52.0577 329.326 52.3777 329.294 52.6657V53.9137L329.246 54.2497V55.2577C329.246 55.5457 329.23 55.8337 329.198 56.1217L330.878 55.7857C331.006 55.7857 331.47 55.7057 332.27 55.5457C333.07 55.3857 333.79 55.3217 334.43 55.3537C335.102 55.3537 335.55 55.4817 335.774 55.7377C336.03 55.9937 336.158 56.3617 336.158 56.8417C336.222 57.2257 336.11 57.5937 335.822 57.9457L335.63 58.2337C335.374 58.6497 335.006 58.9217 334.526 59.0497L332.846 59.2897L330.686 59.8177L329.39 60.2977C329.422 61.0977 329.47 61.9777 329.534 62.9377C329.63 63.8977 329.678 64.5697 329.678 64.9537L329.822 66.7297C330.238 69.5457 330.782 72.4257 331.454 75.3697C331.646 75.6577 331.854 76.3137 332.078 77.3377L332.462 78.3457C332.59 79.4337 331.918 79.9777 330.446 79.9777C330.19 79.9777 329.55 79.9137 328.526 79.7857C328.238 79.7537 327.822 79.4657 327.278 78.9217C327.278 78.8577 327.102 78.6497 326.75 78.2977L325.838 76.0897C325.774 75.9937 325.694 75.6897 325.598 75.1777C325.246 74.8257 324.958 74.0257 324.734 72.7777C324.734 72.7137 324.702 72.5537 324.638 72.2977V71.6257C324.414 71.4017 324.254 70.7777 324.158 69.7537C324.062 68.7297 323.95 67.7697 323.822 66.8737C323.822 65.6257 323.726 64.4257 323.534 63.2737L323.438 62.2177V61.7857C323.47 61.4657 323.47 61.3057 323.438 61.3057H322.862C322.382 61.3697 321.982 61.3697 321.662 61.3057C320.254 61.3057 319.278 60.9057 318.734 60.1057C318.35 59.2417 318.334 58.6817 318.686 58.4257C319.038 58.1697 319.902 57.9137 321.278 57.6577C321.886 57.6577 322.67 57.4497 323.63 57.0337C323.63 56.2337 323.678 55.7857 323.774 55.6897C323.87 54.9537 323.966 54.4897 324.062 54.2977C324.19 54.0737 324.27 53.8497 324.302 53.6257C324.334 52.8577 324.606 51.7217 325.118 50.2177C325.31 49.4817 325.486 48.9857 325.646 48.7297C326.062 48.1217 326.926 47.9297 328.238 48.1537C328.782 48.2497 329.182 48.4577 329.438 48.7777C329.534 48.7457 329.534 49.1297 329.438 49.9297Z" fill="#45AF5C"/>
<path d="M343.797 59.0017L344.133 61.8817C344.133 62.6177 343.909 63.3377 343.461 64.0417C343.621 64.2017 343.701 64.3777 343.701 64.5697C343.701 64.8257 343.493 65.1297 343.077 65.4817L342.597 65.9617C342.309 66.3457 341.701 66.5217 340.773 66.4897H340.725C340.341 66.3617 340.069 66.2657 339.909 66.2017C339.557 66.0097 339.285 65.4657 339.093 64.5697C338.869 64.0577 338.757 63.7697 338.757 63.7057L338.325 62.8417C338.261 61.9777 338.101 61.4177 337.845 61.1617C337.845 60.4897 338.165 59.8657 338.805 59.2897C339.413 58.7457 340.357 58.4737 341.637 58.4737C342.213 58.2817 342.645 58.1857 342.933 58.1857C343.509 58.3457 343.797 58.6177 343.797 59.0017ZM342.933 80.4097C342.709 80.4097 341.957 80.2497 340.677 79.9297C340.069 79.9297 339.573 79.8337 339.189 79.6417C338.837 79.4817 338.661 79.3377 338.661 79.2097C338.117 78.6657 337.845 78.0577 337.845 77.3857C338.101 76.6177 338.261 76.0737 338.325 75.7537L338.757 74.9377C338.757 74.7137 338.853 74.3937 339.045 73.9777C339.237 73.5297 339.349 73.2577 339.381 73.1617C339.413 73.0657 339.445 72.9857 339.477 72.9217C339.509 72.8257 339.557 72.7457 339.621 72.6817C339.813 72.4577 339.973 72.3297 340.101 72.2977C340.453 72.2017 340.661 72.1217 340.725 72.0577L341.349 72.0097C341.925 72.0097 342.341 72.2017 342.597 72.5857L343.077 73.1137C343.493 73.4337 343.701 73.6577 343.701 73.7857L343.557 74.9377C343.941 75.1937 344.133 75.6897 344.133 76.4257C344.133 77.1617 344.021 78.2497 343.797 79.6897C343.797 80.0737 343.509 80.3137 342.933 80.4097ZM384.004 72.8257C384.036 72.5697 384.052 72.2337 384.052 71.8177C384.052 71.4017 384.02 70.8097 383.956 70.0417C383.956 69.7857 383.572 69.1937 382.804 68.2657L382.516 67.9777C382.388 68.8097 382.308 69.2737 382.276 69.3697C382.212 69.4977 382.084 71.0977 381.892 74.1697C382.532 74.1697 383.028 74.0417 383.38 73.7857L384.004 72.8257ZM381.556 52.3297H381.412C380.932 52.5217 380.42 52.9217 379.876 53.5297C379.588 54.0417 379.444 54.4257 379.444 54.6817L379.012 56.5537C378.916 57.7377 378.964 58.5697 379.156 59.0497C379.156 59.3057 379.412 59.6897 379.924 60.2017C379.988 60.3617 380.244 60.6497 380.692 61.0657C380.724 60.8097 380.852 60.1057 381.076 58.9537C381.012 59.0817 380.98 59.0177 380.98 58.7617C381.044 57.4497 381.188 56.5057 381.412 55.9297C381.444 54.8737 381.428 54.3457 381.364 54.3457C381.332 54.3137 381.348 53.9937 381.412 53.3857C381.508 52.7777 381.556 52.4257 381.556 52.3297ZM380.212 67.1617L379.3 66.7297C379.204 66.7297 378.868 66.5057 378.292 66.0577C377.748 65.6097 377.428 65.3377 377.332 65.2417C377.236 65.1137 377.156 65.0177 377.092 64.9537L376.468 64.6177C376.116 64.4577 375.828 64.1697 375.604 63.7537L374.5 62.2657C374.436 62.1697 374.324 61.8177 374.164 61.2097C374.036 61.0817 373.908 60.8257 373.78 60.4417C373.652 60.0577 373.604 59.7377 373.636 59.4817C373.508 59.2577 373.46 58.7617 373.492 57.9937C373.556 57.2257 373.588 56.6817 373.588 56.3617C373.588 56.0417 373.604 55.7697 373.636 55.5457C373.86 55.2897 373.988 54.7137 374.02 53.8177C374.052 53.7857 374.084 53.7057 374.116 53.5777C374.18 53.4817 374.436 52.9537 374.884 51.9937C375.012 51.8657 375.172 51.7377 375.364 51.6097C375.556 51.4497 375.78 51.2097 376.036 50.8897C376.1 50.8897 376.292 50.7137 376.612 50.3617C376.932 49.9777 377.284 49.6737 377.668 49.4497C377.924 49.4497 378.212 49.4177 378.532 49.3537C379.972 49.0977 381.204 48.9057 382.228 48.7777L382.612 47.1937C382.612 46.4257 382.932 45.8497 383.572 45.4657L383.908 45.2737C384.708 45.1457 385.14 45.4177 385.204 46.0897C385.3 46.7617 385.172 47.7697 384.82 49.1137L386.164 49.3537C386.964 49.8017 387.476 50.1857 387.7 50.5057C388.244 50.9217 388.756 51.5617 389.236 52.4257C389.844 54.2817 390.068 55.5617 389.908 56.2657C389.844 56.8737 389.876 57.2417 390.004 57.3697C390.132 57.6577 389.988 57.9297 389.572 58.1857C389.156 58.4097 388.628 58.6017 387.988 58.7617C387.38 58.8897 386.996 58.8737 386.836 58.7137C386.26 58.7137 385.892 58.3617 385.732 57.6577L385.3 57.0817C385.14 56.7617 385.06 56.4897 385.06 56.2657C385.06 56.0097 385.012 55.3537 384.916 54.2977C384.724 54.1697 384.452 53.6737 384.1 52.8097L383.524 57.3697C383.556 57.4017 383.508 57.7377 383.38 58.3777C383.252 59.0177 383.204 59.5617 383.236 60.0097C383.268 60.4257 383.156 61.1937 382.9 62.3137C383.22 62.5697 383.956 63.0017 385.108 63.6097C386.26 64.1857 386.948 64.6497 387.172 65.0017L388.276 66.2017L388.9 67.5457C388.964 67.6737 389.044 68.1377 389.14 68.9377C389.268 69.7057 389.3 70.2657 389.236 70.6177C389.396 70.7777 389.38 71.1937 389.188 71.8657C389.22 71.9617 389.204 72.2817 389.14 72.8257C388.916 73.4977 388.74 73.9297 388.612 74.1217C388.612 74.2817 388.372 74.6017 387.892 75.0817C387.54 75.6577 387.188 76.1217 386.836 76.4737C386.484 76.7937 385.908 77.1937 385.108 77.6737C384.948 77.9937 384.308 78.2177 383.188 78.3457C382.74 78.5377 382.356 78.5057 382.036 78.2497C381.844 78.3137 381.588 78.3137 381.268 78.2497L380.932 80.2177C380.356 81.9777 379.972 82.8897 379.78 82.9537C379.332 83.2097 379.06 83.1137 378.964 82.6657C378.868 82.2497 378.836 81.8497 378.868 81.4657C378.932 81.0817 378.964 80.8577 378.964 80.7937L379.012 80.5057V80.2657C379.012 80.1697 379.012 80.0577 379.012 79.9297C379.044 79.8337 379.06 79.7057 379.06 79.5457C379.092 79.3857 379.156 79.1137 379.252 78.7297C379.348 78.3457 379.396 78.0257 379.396 77.7697L378.82 77.5777L377.668 77.4817L376.948 77.1937C376.82 77.0337 376.196 76.6177 375.076 75.9457C374.82 75.9457 374.58 75.6737 374.356 75.1297C374.26 75.0017 374.116 74.8097 373.924 74.5537C373.54 74.1057 373.348 73.6577 373.348 73.2097C373.188 72.8257 373.188 72.4257 373.348 72.0097C373.892 70.9537 374.868 70.6817 376.276 71.1937C376.308 71.2257 376.42 71.2897 376.612 71.3857C376.932 71.6097 377.46 72.0417 378.196 72.6817C378.932 73.3217 379.332 73.6577 379.396 73.6897C379.46 73.6897 379.588 73.7377 379.78 73.8337C379.78 73.7057 379.796 73.6097 379.828 73.5457C379.892 73.5457 379.972 73.4657 380.068 73.3057C380.132 73.1137 380.116 72.8097 380.02 72.3937C380.02 72.3297 380.036 71.6417 380.068 70.3297C380.132 68.9857 380.164 68.1857 380.164 67.9297C380.164 67.6417 380.196 67.4497 380.26 67.3537C380.228 67.3217 380.212 67.2577 380.212 67.1617Z" fill="white"/>
<path d="M360.502 64.4257C361.462 64.4257 362.262 64.4257 362.902 64.4257C363.574 64.4257 364.358 64.3617 365.254 64.2337C366.15 64.1057 366.758 63.9137 367.078 63.6577C367.174 63.6257 367.51 63.3697 368.086 62.8897C368.31 62.8897 368.502 63.8657 368.662 65.8177C368.63 66.0097 368.614 66.2337 368.614 66.4897C368.614 66.7457 368.63 66.8897 368.662 66.9217C368.598 67.1777 368.566 67.4177 368.566 67.6417C368.406 67.7377 368.23 68.0737 368.038 68.6497C367.878 68.6497 367.606 68.7457 367.222 68.9377C366.966 69.0657 366.31 69.2417 365.254 69.4657C365.254 69.5617 364.982 69.6257 364.438 69.6577C363.094 69.7217 362.422 69.6577 362.422 69.4657C362.39 69.4657 362.31 69.4657 362.182 69.4657C362.086 69.4657 361.83 69.3217 361.414 69.0337C361.254 69.0657 360.886 68.9857 360.31 68.7937C360.246 68.8577 360.15 68.8577 360.022 68.7937C359.574 68.4417 359.238 68.2657 359.014 68.2657C358.79 68.2657 358.486 68.0417 358.102 67.5937C357.974 67.6577 357.51 67.4817 356.71 67.0657C356.646 67.1297 356.486 67.0817 356.23 66.9217C355.974 66.7617 355.83 66.6977 355.798 66.7297C355.766 66.7617 355.302 66.6017 354.406 66.2497C354.054 66.0577 353.734 65.9777 353.446 66.0097C352.966 65.8497 352.502 65.7377 352.054 65.6737C351.606 65.6097 350.998 65.7057 350.23 65.9617C349.59 66.4097 349.174 66.4577 348.982 66.1057C348.918 66.0417 348.822 65.6577 348.694 64.9537C348.598 64.2177 348.598 63.6737 348.694 63.3217C348.822 62.9377 349.206 62.6017 349.846 62.3137C351.094 62.0257 352.294 61.9937 353.446 62.2177C354.854 62.6657 355.99 62.8897 356.854 62.8897C356.886 62.9537 357.398 63.1617 358.39 63.5137C359.318 63.8337 359.862 64.0577 360.022 64.1857C360.214 64.2817 360.374 64.3617 360.502 64.4257Z" fill="#2C27D3"/>
<path d="M260.726 309.778C261.995 306.278 258.245 299.278 258.245 295.778C257.745 294.278 257.745 295.778 255.745 292.278C255.258 291.091 249.918 274.956 249.714 273.846C249.679 273.656 249.645 273.467 249.611 273.278C279.745 285.778 292.745 311.278 260.726 309.778Z" fill="#CACACA"/>
<path d="M260.726 309.778C261.995 306.278 258.245 299.278 258.245 295.778L256.745 297.778L260.726 309.778Z" fill="#A6A6A6"/>
<path fill-rule="evenodd" clip-rule="evenodd" d="M245.281 204.887C245.32 202.811 246.721 201.146 248.781 200.887C249.272 201.378 249.495 202.085 249.714 202.778C250.162 204.198 250.592 205.559 253.281 204.887C253.346 206.746 252.433 208.232 250.691 208.887C248.232 209.812 245.23 207.514 245.281 204.887Z" fill="#D9D9D9"/>
<path d="M253.281 204.887C253.198 202.537 251.113 200.593 248.781 200.887C249.272 201.378 249.495 202.085 249.714 202.778C250.162 204.198 250.592 205.559 253.281 204.887Z" fill="#252525"/>
<path d="M260.726 379.481C259.959 380.141 259.114 380.752 258.184 381.311C258.099 382.07 259.76 382.778 266.245 382.778C279.456 382.778 288.214 372.093 281.599 366.687C281.203 366.364 280.753 366.06 280.245 365.778C280.077 365.684 279.91 365.593 279.745 365.504C279.405 365.321 279.071 365.148 278.745 364.984C277.906 364.564 277.116 364.207 276.373 363.906C276.151 363.816 275.933 363.731 275.72 363.65C275.016 363.385 274.358 363.171 273.745 363C269.288 361.755 267.241 362.778 267.241 362.778C267.175 369.482 265.461 375.404 260.726 379.481Z" fill="#BDBDBD"/>
<path d="M280.245 365.778C280.753 366.06 281.203 366.364 281.599 366.687L282.501 364.984L279.745 365.504C279.91 365.593 280.077 365.684 280.245 365.778Z" fill="#D9D9D9"/>
<path d="M279.745 363.278L276.373 363.906C277.116 364.207 277.906 364.564 278.745 364.984L279.745 363.278Z" fill="#D9D9D9"/>
<path d="M276.745 361.778L273.745 363C274.358 363.171 275.016 363.385 275.72 363.65L276.745 361.778Z" fill="#D9D9D9"/>
<path fill-rule="evenodd" clip-rule="evenodd" d="M249.611 273.278C247.408 260.92 240.8 248.913 244.077 238.051C244.334 235.782 246.401 233.028 246.245 233.278C245.272 234.842 244.565 236.434 244.077 238.051C243.798 240.51 245.645 242.398 254.745 239.278C256.924 238.531 265.745 233.778 267.745 227.278C269.205 222.533 269.08 218.52 267.745 215.2C261.359 199.316 232.782 177.336 212.245 189.278C197.385 197.919 191.798 208.473 184.399 222.45C183.24 224.64 182.036 226.914 180.745 229.278C158.177 270.604 149.471 332.119 158.876 364.14C131.236 370.71 96.5822 370.788 98.7453 377.278C101.458 385.416 140.829 393.555 179.284 386.771C201.275 394.471 235.798 390.778 255.245 382.778C256.308 382.341 257.285 381.85 258.184 381.311C258.282 380.431 260.726 379.481 260.726 379.481C265.461 375.404 267.175 369.482 267.241 362.778C267.328 353.877 264.51 343.598 261.995 334.428C258.738 322.552 259.456 313.278 260.726 309.778L256.745 297.778L255.745 292.278C255.258 291.091 249.918 274.956 249.714 273.846C249.679 273.656 249.645 273.467 249.611 273.278ZM245.281 204.887C245.32 202.811 246.721 201.146 248.781 200.887C251.113 200.593 253.198 202.537 253.281 204.887C253.346 206.746 252.433 208.232 250.691 208.887C248.232 209.812 245.23 207.514 245.281 204.887Z" fill="#D9D9D9"/>
<path d="M249.611 273.278C279.745 285.778 292.745 311.278 260.726 309.778M249.611 273.278C249.645 273.467 249.679 273.656 249.714 273.846M249.611 273.278C247.408 260.92 240.8 248.913 244.077 238.051M260.726 309.778C259.456 313.278 258.738 322.552 261.995 334.428C264.51 343.598 267.328 353.877 267.241 362.778M260.726 309.778C261.995 306.278 258.245 299.278 258.245 295.778M260.726 309.778L256.745 297.778M249.714 273.846C249.918 274.956 255.258 291.091 255.745 292.278M249.714 273.846L255.745 292.278M255.745 292.278C257.745 295.778 257.745 294.278 258.245 295.778M255.745 292.278L256.745 297.778M258.245 295.778L256.745 297.778M248.781 200.887C246.721 201.146 245.32 202.811 245.281 204.887C245.23 207.514 248.232 209.812 250.691 208.887C252.433 208.232 253.346 206.746 253.281 204.887M248.781 200.887C251.113 200.593 253.198 202.537 253.281 204.887M248.781 200.887C249.272 201.378 249.495 202.085 249.714 202.778C250.162 204.198 250.592 205.559 253.281 204.887M260.726 379.481C265.461 375.404 267.175 369.482 267.241 362.778M260.726 379.481C259.959 380.141 259.114 380.752 258.184 381.311M260.726 379.481C260.726 379.481 258.282 380.431 258.184 381.311M267.241 362.778C267.241 362.778 269.288 361.755 273.745 363M258.184 381.311C258.099 382.07 259.76 382.778 266.245 382.778C279.456 382.778 288.214 372.093 281.599 366.687M258.184 381.311C257.285 381.85 256.308 382.341 255.245 382.778C235.798 390.778 201.275 394.471 179.284 386.771M273.745 363L276.745 361.778L275.72 363.65M273.745 363C274.358 363.171 275.016 363.385 275.72 363.65M275.745 363.778L275.72 363.65M276.373 363.906L279.745 363.278L278.745 364.984M276.373 363.906C277.116 364.207 277.906 364.564 278.745 364.984M276.373 363.906C276.151 363.816 275.933 363.731 275.72 363.65M278.745 364.984C279.071 365.148 279.405 365.321 279.745 365.504M279.745 365.504C279.91 365.593 280.077 365.684 280.245 365.778C280.753 366.06 281.203 366.364 281.599 366.687M279.745 365.504L282.501 364.984L281.599 366.687M181.245 355.778C175.332 359.444 167.441 362.104 158.876 364.14M184.399 385.778C182.698 386.139 180.992 386.47 179.284 386.771M158.876 364.14C131.236 370.71 96.5822 370.788 98.7453 377.278C101.458 385.416 140.829 393.555 179.284 386.771M158.876 364.14C149.471 332.119 158.177 270.604 180.745 229.278C182.036 226.914 183.24 224.64 184.399 222.45C191.798 208.473 197.385 197.919 212.245 189.278C232.782 177.336 261.359 199.316 267.745 215.2C269.08 218.52 269.205 222.533 267.745 227.278C265.745 233.778 256.924 238.531 254.745 239.278C245.645 242.398 243.798 240.51 244.077 238.051M244.077 238.051C244.334 235.782 246.401 233.028 246.245 233.278C245.272 234.842 244.565 236.434 244.077 238.051Z" stroke="black"/>
</svg>
