<svg width="257" height="197" viewBox="0 0 257 197" fill="none" xmlns="http://www.w3.org/2000/svg">
<path d="M101.122 150C122.622 153.31 144.122 150 162.122 150.81C176.052 149.494 185.622 152 185.622 152C185.622 152 134.122 146.5 101.122 150Z" fill="#1C9A10"/>
<path d="M104.111 156.5C106.388 158.77 107.765 159.115 109.305 159.501C110.14 159.71 111.022 159.931 112.122 160.477C111.022 160.686 110.14 160.748 109.305 160.807C107.765 160.915 106.388 161.012 104.111 162L103.772 161.895C104.426 160.676 104.856 159.284 104.111 156.5Z" fill="#115B0A"/>
<path fill-rule="evenodd" clip-rule="evenodd" d="M162.122 150.81C159.857 154.424 157.394 157.066 155.064 159.563C150.763 164.173 146.919 168.295 145.622 177.145C133.677 177.56 121.588 174.999 105.622 169.28C104.475 168.87 103.309 168.443 102.122 168C101.847 165.187 102.63 163.857 103.37 162.599C103.508 162.365 103.645 162.133 103.772 161.895L104.111 162C106.388 161.012 107.765 160.915 109.305 160.807C110.14 160.748 111.022 160.686 112.122 160.477C111.022 159.931 110.14 159.71 109.305 159.501C107.765 159.115 106.388 158.77 104.111 156.5C103.558 154.433 103.358 154.1 101.122 150C122.622 153.31 144.122 150 162.122 150.81Z" fill="#1C9A10"/>
<path d="M185.622 152C185.622 152 182.606 153.03 182.165 155C178.828 156.757 177.622 159 173.622 159.5C169.622 160 182.165 160.477 182.165 160.477C182.541 162.626 183.091 164.789 182.622 168C168.264 173.649 157.008 176.749 145.622 177.145C146.919 168.295 150.763 164.173 155.064 159.563C157.394 157.066 159.857 154.424 162.122 150.81C176.052 149.494 185.622 152 185.622 152Z" fill="#16780D"/>
<path d="M173.622 159.5C177.622 159 178.828 156.757 182.165 155C181.685 157.141 181.872 158.805 182.165 160.477C182.165 160.477 169.622 160 173.622 159.5Z" fill="#0E4B08"/>
<path fill-rule="evenodd" clip-rule="evenodd" d="M182.622 168C180.255 170.958 184.188 174.441 188.83 178.552C192.036 181.39 195.579 184.528 197.622 188C189.624 192.532 159.122 196.707 137.622 196.5C137.622 191.606 139.673 186.645 141.966 183.282C143.209 181.46 144.524 179.533 145.622 177.145C157.008 176.749 168.264 173.649 182.622 168Z" fill="#474D46"/>
<path d="M182.622 168C195.122 168 195.122 178.5 197.622 188C195.579 184.528 192.036 181.39 188.83 178.552C184.188 174.441 180.255 170.958 182.622 168Z" fill="#3C423C"/>
<path fill-rule="evenodd" clip-rule="evenodd" d="M88.1611 183.547C88.8743 180.286 89.5675 177.117 90.8409 174.5C92.2417 174.137 93.538 173.861 94.7692 173.6C98.6189 172.782 101.833 172.099 105.622 169.28C121.588 174.999 133.677 177.56 145.622 177.145C144.524 179.533 143.209 181.46 141.966 183.282C139.673 186.645 137.622 191.606 137.622 196.5C116.122 196.293 94.1236 192.201 87.1215 188C87.5096 186.525 87.8374 185.027 88.1611 183.547Z" fill="#565D55"/>
<path d="M90.8409 174.5C92.7125 170.654 95.8374 168 102.122 168C103.309 168.443 104.475 168.87 105.622 169.28C101.833 172.099 98.6189 172.782 94.7692 173.6C93.538 173.861 92.2417 174.137 90.8409 174.5Z" fill="#474D46"/>
<path d="M102.122 168C101.847 165.187 102.63 163.857 103.37 162.599C103.508 162.365 103.645 162.133 103.772 161.895M102.122 168C95.8374 168 92.7125 170.654 90.8409 174.5M102.122 168C103.309 168.443 104.475 168.87 105.622 169.28M197.622 188C195.122 178.5 195.122 168 182.622 168M197.622 188C189.624 192.532 159.122 196.707 137.622 196.5M197.622 188C195.579 184.528 192.036 181.39 188.83 178.552C184.188 174.441 180.255 170.958 182.622 168M182.622 168C183.091 164.789 182.541 162.626 182.165 160.477M182.622 168C168.264 173.649 157.008 176.749 145.622 177.145M101.122 150C134.122 146.5 185.622 152 185.622 152M101.122 150C103.358 154.1 103.558 154.433 104.111 156.5M101.122 150C122.622 153.31 144.122 150 162.122 150.81M185.622 152C185.622 152 182.606 153.03 182.165 155M185.622 152C185.622 152 176.052 149.494 162.122 150.81M182.165 155C178.828 156.757 177.622 159 173.622 159.5C169.622 160 182.165 160.477 182.165 160.477M182.165 155C181.685 157.141 181.872 158.805 182.165 160.477M104.111 156.5C104.856 159.284 104.426 160.676 103.772 161.895M104.111 156.5C106.388 158.77 107.765 159.115 109.305 159.501C110.14 159.71 111.022 159.931 112.122 160.477C111.022 160.686 110.14 160.748 109.305 160.807C107.765 160.915 106.388 161.012 104.111 162L103.772 161.895M162.122 150.81C159.857 154.424 157.394 157.066 155.064 159.563C150.763 164.173 146.919 168.295 145.622 177.145M145.622 177.145C144.524 179.533 143.209 181.46 141.966 183.282C139.673 186.645 137.622 191.606 137.622 196.5M145.622 177.145C133.677 177.56 121.588 174.999 105.622 169.28M137.622 196.5C116.122 196.293 94.1236 192.201 87.1215 188C87.5096 186.525 87.8374 185.027 88.1611 183.547C88.8743 180.286 89.5675 177.117 90.8409 174.5M90.8409 174.5C92.2417 174.137 93.538 173.861 94.7692 173.6C98.6189 172.782 101.833 172.099 105.622 169.28" stroke="#1E1E1E" stroke-width="0.8"/>
<path d="M186.224 150.042C192.751 143.974 188.688 134.312 167.583 120.373C138.607 101.236 114.92 86.6422 94.6344 75.6524C78.4606 85.7457 73.9969 98.0093 69.5321 110.276C66.1056 119.69 62.6785 129.105 53.9568 137.543C78.2276 145.03 109.4 148.346 135.874 149.667C146.197 149.861 156.534 149.916 166.61 149.954C167.915 149.958 169.217 149.963 170.513 149.968L170.516 149.968C175.85 149.987 181.1 150.005 186.224 150.042Z" fill="#C8C4C4"/>
<path d="M135.874 149.667C109.4 148.346 78.2276 145.03 53.9568 137.543C52.8404 138.623 51.6372 139.687 50.3361 140.733C73.7069 147.225 104.729 149.081 135.874 149.667Z" fill="#ACACAC"/>
<path d="M23.7885 122.581L11.3595 109.69C14.5959 125.375 29.394 134.915 50.3361 140.733C51.6372 139.687 52.8404 138.623 53.9568 137.543C41.6028 133.732 31.0368 128.84 23.7885 122.581Z" fill="#ACACAC"/>
<path d="M0.594376 45.5L10.9755 107.4L11.3595 109.69L23.7885 122.581C31.0368 128.84 41.6028 133.732 53.9568 137.543C62.6785 129.105 66.1056 119.69 69.5321 110.276C73.9969 98.0093 78.4606 85.7457 94.6344 75.6524C55.0078 54.1849 28.3566 46.4695 0.594376 45.5Z" fill="#D9D9D9"/>
<path d="M186.224 150.042C192.751 143.974 188.688 134.312 167.583 120.373C138.607 101.236 114.92 86.6422 94.6344 75.6524M186.224 150.042C177.705 150.468 158.506 150.796 135.874 149.667M186.224 150.042C181.1 150.005 175.85 149.987 170.516 149.968L170.513 149.968C169.217 149.963 167.915 149.958 166.61 149.954C156.534 149.916 146.197 149.861 135.874 149.667M10.9755 107.4L0.594376 45.5C28.3566 46.4695 55.0078 54.1849 94.6344 75.6524M10.9755 107.4L11.3595 109.69M10.9755 107.4C11.0767 108.177 11.2049 108.941 11.3595 109.69M11.3595 109.69L23.7885 122.581C31.0368 128.84 41.6028 133.732 53.9568 137.543M11.3595 109.69C14.5959 125.375 29.394 134.915 50.3361 140.733M94.6344 75.6524C78.4606 85.7457 73.9969 98.0093 69.5321 110.276C66.1056 119.69 62.6785 129.105 53.9568 137.543M50.3361 140.733C73.7069 147.225 104.729 149.081 135.874 149.667M50.3361 140.733C51.6372 139.687 52.8404 138.623 53.9568 137.543M135.874 149.667C109.4 148.346 78.2276 145.03 53.9568 137.543" stroke="black"/>
<path d="M163.531 164C176.967 169.066 164.398 138.367 161.725 138.807L145.815 138.33C149.39 139.905 151.294 159.387 163.531 164Z" fill="#D9D9D9"/>
<path d="M142.643 141.001C150.8 149.983 143.63 160.139 163.531 164C151.294 159.387 149.39 139.905 145.815 138.33C144.924 137.938 143.928 138.658 142.643 141.001Z" fill="#D9D9D9"/>
<path d="M180.18 155.522C182.952 157.677 179.299 142.326 177.84 140.99L177.555 140.937L168.507 139.236C172.822 141.156 177.526 153.457 180.18 155.522Z" fill="#D9D9D9"/>
<path d="M165.37 140.076C171.154 146.108 171.383 151.667 180.18 155.522C177.526 153.457 172.822 141.156 168.507 139.236C167.424 138.754 166.366 138.926 165.37 140.076Z" fill="#D9D9D9"/>
<path d="M189.805 150.872C195.67 153.442 184.448 142.472 184.448 142.472L182.376 140.935C183.564 141.996 185.193 148.851 189.805 150.872Z" fill="#D9D9D9"/>
<path d="M181.453 141.565C180.007 145.215 181.689 151.494 189.805 150.872C185.193 148.851 183.564 141.996 182.376 140.935L182.263 140.851C181.984 140.688 181.726 140.878 181.453 141.565Z" fill="#D9D9D9"/>
<path d="M189.805 150.872C195.67 153.442 184.448 142.472 184.448 142.472L182.376 140.935M189.805 150.872C181.689 151.494 180.007 145.215 181.453 141.565C181.726 140.878 181.984 140.688 182.263 140.851M189.805 150.872C185.193 148.851 183.564 141.996 182.376 140.935M180.18 155.522C171.383 151.667 171.154 146.108 165.37 140.076C166.366 138.926 167.424 138.754 168.507 139.236M180.18 155.522C182.952 157.677 179.299 142.326 177.84 140.99M180.18 155.522C177.526 153.457 172.822 141.156 168.507 139.236M177.297 142.088C177.329 141.413 177.42 141.05 177.555 140.937M163.531 164C143.63 160.139 150.8 149.983 142.643 141.001C143.928 138.658 144.924 137.938 145.815 138.33M163.531 164C176.967 169.066 164.398 138.367 161.725 138.807M163.531 164C151.294 159.387 149.39 139.905 145.815 138.33M161.278 140.938C161.177 139.52 161.357 138.867 161.725 138.807M161.725 138.807L145.815 138.33M177.84 140.99L177.555 140.937M177.84 140.99C177.732 140.892 177.636 140.87 177.555 140.937M168.507 139.236L177.555 140.937M182.263 140.851L182.376 140.935M182.263 140.851C182.3 140.873 182.337 140.901 182.376 140.935" stroke="black"/>
<path d="M82.7903 60.5811C141.405 93.9511 194.926 127.065 195.33 135.614M85.5179 50.2461C148.235 82.2991 201.609 117.508 205.017 133.284M82.4694 36.5C162.9 79.0141 207.653 109.911 215.446 127.498" stroke="#525252"/>
<path d="M88.6204 134.869C94.6923 138.971 96.696 141.07 92.7162 147.439C96.0392 143.355 97.042 140.516 102.864 144.155C99.5019 140.898 98.2887 139.755 101.195 133.871C96.7648 140.343 93.2982 136.637 88.6204 134.869Z" fill="#FBED4C" stroke="black"/>
<path d="M131.432 148.831C136.795 143.838 139.291 142.358 144.601 147.668C141.37 143.512 138.829 141.896 143.684 137.041C139.755 139.585 138.368 140.51 133.288 136.355C138.598 142.127 134.207 144.671 131.432 148.831Z" fill="#FBED4C" stroke="black"/>
<path d="M192.913 147.553C196.413 144 198.561 142.336 203.963 147.553C200.659 143.454 198.091 141.882 202.86 136.944C198.976 139.556 197.605 140.505 192.453 136.439C197.864 142.118 195.615 143.345 192.913 147.553Z" fill="#FBED4C" stroke="black"/>
<path fill-rule="evenodd" clip-rule="evenodd" d="M164.333 6.32599C159.333 14.826 160.833 52.326 164.333 56.326C167.833 60.326 250.833 61.826 254.333 56.326C257.833 50.826 256.333 13.3258 250.133 6.32599C243.933 -0.67386 169.333 -2.17401 164.333 6.32599ZM171.833 49.3259C168.333 42.3258 169.833 20.3257 171.833 13.3259C173.833 6.326 239.833 10.3257 243.333 13.3259C246.833 16.326 250.133 44.326 246.833 49.3259C243.533 54.3258 175.333 56.326 171.833 49.3259Z" fill="#202127"/>
<path d="M171.833 13.3259C169.833 20.3257 168.333 42.3258 171.833 49.3259C175.333 56.326 243.533 54.3258 246.833 49.3259C250.133 44.326 246.833 16.326 243.333 13.3259C239.833 10.3257 173.833 6.326 171.833 13.3259Z" fill="#823334"/>
<path fill-rule="evenodd" clip-rule="evenodd" d="M164.333 6.32599C159.333 14.826 160.833 52.326 164.333 56.326C167.833 60.326 250.833 61.826 254.333 56.326C257.833 50.826 256.333 13.3258 250.133 6.32599C243.933 -0.67386 169.333 -2.17401 164.333 6.32599ZM171.833 49.3259C168.333 42.3258 169.833 20.3257 171.833 13.3259C173.833 6.326 239.833 10.3257 243.333 13.3259C246.833 16.326 250.133 44.326 246.833 49.3259C243.533 54.3258 175.333 56.326 171.833 49.3259Z" stroke="black"/>
<path d="M171.833 13.3259C169.833 20.3257 168.333 42.3258 171.833 49.3259C175.333 56.326 243.533 54.3258 246.833 49.3259C250.133 44.326 246.833 16.326 243.333 13.3259C239.833 10.3257 173.833 6.326 171.833 13.3259Z" stroke="black"/>
<path d="M179.299 29.3374C179.303 29.1295 179.41 28.9553 179.62 28.815C179.621 28.799 179.621 28.783 179.621 28.767C179.623 28.655 179.747 28.4571 179.992 28.1734C180.253 27.8899 180.4 27.7164 180.433 27.653C180.788 27.4512 181.022 27.3352 181.135 27.3052C181.262 27.3394 181.35 27.3569 181.398 27.3578L181.446 27.3586C181.912 27.2547 182.44 27.2799 183.029 27.4343C183.634 27.5888 184.054 27.8522 184.287 28.2243C184.411 28.4665 184.534 28.7887 184.655 29.1909C184.837 29.7542 184.926 30.1638 184.921 30.4197C185.01 30.8373 185.011 31.2214 184.925 31.572L184.897 31.8115C184.896 31.8755 184.855 31.9388 184.774 32.0014C184.693 32.064 184.596 32.0943 184.484 32.0924C184.388 32.0747 184.3 32.1131 184.218 32.2077C184.137 32.2863 183.968 32.3234 183.712 32.3189C183.472 32.3147 183.345 32.2405 183.332 32.0962C183.284 32.0794 183.205 32.022 183.095 31.9241C183 31.8264 182.954 31.7536 182.955 31.7056L182.837 31.5355C182.838 31.5035 182.807 31.455 182.744 31.3899C182.605 31.0994 182.553 30.8745 182.588 30.7151C182.675 30.3005 182.703 30.077 182.671 30.0444C182.676 29.8044 182.6 29.5631 182.444 29.3203C182.428 29.3041 182.396 29.2955 182.348 29.2947C182.317 29.2781 182.269 29.2613 182.205 29.2442C182.175 29.1316 182.144 29.0751 182.112 29.0745C182 29.1045 181.878 29.1904 181.748 29.3322C181.513 29.9522 181.37 30.3657 181.318 30.5729L181.149 32.0341L181.129 33.138C181.151 33.7144 181.209 34.0675 181.303 34.1972C181.302 34.2611 181.332 34.3737 181.393 34.5348C181.405 34.743 181.567 35.1139 181.878 35.6474L181.995 35.7935C182.071 36.0188 182.205 36.1332 182.397 36.1366C182.589 36.1399 182.865 35.9207 183.225 35.4789C183.21 35.4306 183.317 35.2405 183.547 34.9084C183.776 34.6084 184.13 34.4945 184.609 34.5669C184.816 34.6025 184.918 34.7243 184.914 34.9323C184.928 35.0766 184.874 35.4357 184.752 36.0096C184.589 36.1668 184.506 36.3254 184.503 36.4854C184.386 36.7714 184.328 36.9304 184.327 36.9624C184.279 36.9615 184.231 36.9847 184.182 37.0318L184.058 37.2697C183.994 37.2686 183.953 37.2999 183.936 37.3636C183.756 37.5685 183.635 37.6704 183.571 37.6693C183.522 37.7164 183.393 37.7382 183.185 37.7346C182.879 37.8572 182.654 37.9173 182.51 37.9148L182.102 37.9317L181.839 37.8311L181.624 37.8033C181.433 37.72 181.282 37.6773 181.17 37.6754C181.074 37.6897 181.002 37.6804 180.955 37.6476C180.907 37.6308 180.843 37.5897 180.765 37.5243C180.575 37.3609 180.449 37.2787 180.385 37.2776C180.337 37.2768 180.25 37.2272 180.123 37.129C179.996 37.0948 179.893 37.037 179.814 36.9556L179.723 36.714C179.757 36.6025 179.742 36.5383 179.678 36.5212C179.47 36.5175 179.351 36.4754 179.32 36.3949L179.179 36.2004C179.182 36.0724 179.121 35.9033 178.996 35.6931L178.723 34.8242C178.692 34.7917 178.693 34.7357 178.726 34.6563L178.734 34.2243L178.479 32.3476L178.484 32.0116C178.638 31.4862 178.714 31.2155 178.715 31.1995C178.705 30.8473 178.79 30.5367 178.971 30.2679C178.976 29.9639 179.086 29.6538 179.299 29.3374ZM187.977 24.9762C188.028 24.8331 188.046 24.6974 188.032 24.5691C188.019 24.4409 188.032 24.1211 188.073 23.6097C188.156 23.4671 188.168 23.1873 188.112 22.7702C188.116 22.5303 188.216 22.284 188.413 22.0314C188.609 21.7628 188.821 21.5664 189.047 21.4424L189.047 21.4664C189.112 21.4035 189.256 21.358 189.481 21.3299C190.026 21.2594 190.415 21.4342 190.648 21.8544C190.582 21.9652 190.544 22.3246 190.533 22.9325L190.49 25.3802C190.5 25.7804 190.498 26.3244 190.486 27.0123L190.47 27.9242L190.539 29.4856C190.532 29.9016 190.548 30.3179 190.589 30.7347C190.576 31.5026 190.584 31.9668 190.613 32.1273C190.642 32.2879 190.656 32.4001 190.655 32.4641L190.648 32.8481C190.642 33.2 190.654 33.4562 190.683 33.6168C190.68 33.7767 190.717 33.9454 190.794 34.1228C190.71 34.3614 190.705 34.6333 190.78 34.9387C190.856 35.132 190.876 35.3804 190.839 35.6838C190.931 35.8775 190.959 36.134 190.921 36.4534L190.991 36.5986L191.035 36.8154C191.095 37.0245 191.059 37.2719 190.926 37.5576C190.809 37.8276 190.566 38.0074 190.197 38.097C189.843 38.2028 189.446 38.0279 189.005 37.5721C188.99 37.5238 188.904 37.4503 188.745 37.3515C188.555 37.2362 188.402 36.8575 188.285 36.2153C188.208 36.054 188.171 35.8853 188.174 35.7093C188 35.5623 187.916 35.3448 187.921 35.0568L187.93 34.5289C187.919 34.2886 187.889 34.1281 187.843 34.0473C187.796 33.9824 187.759 33.8138 187.732 33.5413L187.808 31.9343C187.817 31.4064 187.808 30.9982 187.781 30.7097L187.81 29.0779C187.771 28.5492 187.754 28.1488 187.759 27.8769C187.764 27.5889 187.829 27.022 187.956 26.1761C187.957 26.1121 187.935 26.0237 187.889 25.9108C187.941 25.6717 187.97 25.3602 187.977 24.9762ZM197.793 30.7884C197.783 30.4362 197.707 30.1708 197.566 29.9924C197.426 29.7979 197.164 29.6813 196.78 29.6426C196.667 29.7206 196.51 29.9899 196.31 30.4505C196.126 30.8954 196.006 31.3733 195.949 31.8844C195.776 32.6495 195.682 33.416 195.669 34.1839C195.671 34.968 195.789 35.5462 196.023 35.9183C196.054 35.9829 196.085 36.0074 196.118 35.992C196.198 35.9934 196.328 35.8356 196.51 35.5188C197.385 33.9978 197.812 32.421 197.793 30.7884ZM198.456 35.3847L198.08 36.3143C198.08 36.3463 197.842 36.6862 197.366 37.334C197.217 37.6354 196.942 37.7987 196.542 37.8237C196.157 37.849 195.782 37.8024 195.416 37.684C194.923 37.4994 194.551 37.2848 194.299 37.0404C194.047 36.796 193.798 36.3916 193.552 35.8272C193.322 35.2471 193.202 34.7729 193.193 34.4047C193.122 33.8754 193.088 33.5387 193.09 33.3948L193.1 32.8188C193.11 32.2429 193.14 31.9074 193.19 31.8123C193.207 31.7485 193.25 31.5813 193.319 31.3104C193.411 30.6399 193.614 30.0034 193.928 29.4008C194.541 28.2433 195.159 27.654 195.783 27.6329L195.903 27.635C195.935 27.6515 195.983 27.6604 196.047 27.6615L196.359 27.6669C196.918 27.7247 197.261 27.7787 197.388 27.8289C197.627 27.8971 197.834 27.9327 198.01 27.9358L198.632 28.0667C198.824 28.054 199.072 28.0983 199.374 28.1996C199.692 28.3012 199.859 28.3761 199.874 28.4244C199.905 28.4729 199.95 28.6498 200.009 28.9548C200.068 29.2599 200.104 29.4846 200.117 29.6288C200.147 29.7574 200.169 29.8938 200.182 30.038C200.29 31.2081 200.479 32.2995 200.749 33.3124C200.764 33.3607 200.779 33.4329 200.793 33.5292C200.808 33.6255 200.86 33.8184 200.951 34.1081C201.042 34.3817 201.11 34.6149 201.155 34.8077C201.2 35.0005 201.283 35.258 201.406 35.5802C201.497 35.8218 201.636 36.1043 201.823 36.4276C202.166 36.9297 201.975 37.3104 201.251 37.5698C201.154 37.6001 200.986 37.6132 200.746 37.609C200.698 37.6082 200.547 37.5255 200.294 37.3611C200.134 37.3583 199.984 37.2677 199.843 37.0892L199.652 37.0378C199.542 36.9239 199.447 36.8662 199.367 36.8648C199.335 36.8323 199.059 36.1793 198.537 34.906C198.486 35.0812 198.459 35.2407 198.456 35.3847ZM204.99 22.2727C205.007 22.257 205.159 22.2357 205.447 22.2087C205.913 22.1368 206.232 22.1744 206.406 22.3214C206.595 22.4528 206.729 22.5991 206.806 22.7605C206.829 23.273 206.745 23.9356 206.555 24.7484C206.37 25.2733 206.211 25.6626 206.079 25.9163L205.833 26.2721C205.782 26.3992 205.676 26.5334 205.514 26.6745C205.351 26.8157 205.23 26.8856 205.15 26.8842C205.086 26.8671 204.967 26.809 204.793 26.71C204.635 26.5952 204.54 26.5135 204.509 26.465C204.494 26.4167 204.479 26.3604 204.464 26.2962L204.352 25.8141L203.883 25.2059C203.79 25.0122 203.746 24.8194 203.749 24.6274C203.709 24.1787 203.771 23.8357 203.935 23.5985C203.936 23.5665 203.961 23.487 204.011 23.3598C204.097 23.0093 204.424 22.6469 204.99 22.2727ZM204.082 33.0345C204.085 32.8906 204.112 32.699 204.164 32.4599C204.233 32.205 204.252 32.0293 204.222 31.9328C204.207 31.8365 204.212 31.5646 204.236 31.1169C204.287 30.9258 204.299 30.71 204.271 30.4694C204.165 30.1155 204.138 29.859 204.189 29.6999C204.239 29.5407 204.346 29.3666 204.51 29.1774C204.673 28.9722 204.852 28.8313 205.045 28.7547C205.238 28.678 205.526 28.6911 205.909 28.7938C206.004 28.8434 206.161 29.0062 206.38 29.2821C206.427 29.3309 206.48 29.5158 206.538 29.8369C206.613 30.1583 206.655 30.511 206.664 30.8953C206.69 31.2638 206.704 31.8081 206.708 32.5283C206.711 33.2324 206.727 34.1849 206.754 35.3855C206.781 36.5702 206.776 37.3062 206.739 37.5936C206.718 37.8813 206.61 38.0954 206.416 38.2361C206.237 38.393 206.077 38.4222 205.934 38.3237C205.808 38.2414 205.673 38.1831 205.529 38.1486C205.273 38.1441 205.051 38.0362 204.863 37.8249C204.799 37.8078 204.648 37.7331 204.411 37.601C204.173 37.4528 204.026 37.1942 203.968 36.8251C203.891 36.6638 203.876 36.1434 203.923 35.2641L203.938 34.4002L204.073 33.5865L204.082 33.0345ZM209.241 31.1563L209.527 29.9371L209.56 29.4096C209.592 29.3941 209.634 29.2909 209.685 29.0997C209.776 28.5092 210.109 28.219 210.685 28.229C210.988 28.2503 211.315 28.344 211.664 28.5102C211.792 28.5124 211.887 28.5701 211.949 28.6832C212.029 28.7006 212.1 28.7498 212.162 28.8309C212.225 28.912 212.231 29.0241 212.181 29.1673C212.13 29.2944 212.096 29.4058 212.079 29.5016C212.077 29.5815 212.032 29.8608 211.944 30.3393C211.699 31.5352 211.589 32.3414 211.614 32.7579L212.944 30.8129L213.439 29.9574C213.713 29.8181 213.963 29.7265 214.188 29.6824C214.3 29.6843 214.427 29.7106 214.571 29.7611C215.033 29.8332 215.264 29.9012 215.263 29.9652L215.548 30.1622C215.736 30.3895 215.829 30.5752 215.826 30.7191C215.839 30.8634 215.821 31.0071 215.77 31.1502C215.736 31.2777 215.685 31.4448 215.618 31.6516C215.617 31.6676 215.434 32.5766 215.066 34.3784L216.062 32.3315L216.307 32.0237C216.31 31.8798 216.475 31.5786 216.803 31.1203L217.051 30.6925C217.051 30.6445 217.109 30.5655 217.223 30.4555C217.271 30.4563 217.32 30.3852 217.371 30.242C217.584 29.9257 217.78 29.7291 217.957 29.6522C218.231 29.5609 218.567 29.5508 218.966 29.6218L219.275 29.7712C219.337 29.9003 219.384 29.9731 219.415 29.9897L219.487 29.9909C219.676 30.1702 219.745 30.3715 219.693 30.5946C219.623 30.8974 219.588 31.0969 219.586 31.1928L219.29 33.0599C219.257 33.0914 219.24 33.1391 219.239 33.2031C219.207 33.2345 219.151 33.6656 219.073 34.4964C219.01 35.3274 218.972 36.1429 218.958 36.9427L218.977 37.2311L219.09 37.6412L219.251 38.028C219.28 38.2206 219.229 38.3797 219.099 38.5054C218.984 38.6475 218.839 38.7169 218.663 38.7139C217.576 38.6629 216.99 38.3086 216.905 37.651C216.859 37.5702 216.836 37.4818 216.838 37.3858C216.839 37.2898 216.81 37.1453 216.749 36.9522L216.754 36.6882L216.808 36.3291C216.76 36.3283 216.741 36.0719 216.75 35.56C216.759 35.0321 216.78 34.7284 216.814 34.649C216.882 34.3781 216.919 34.0907 216.925 33.7868C216.876 33.8499 216.794 33.9445 216.68 34.0705C216.451 34.3226 216.304 34.5121 216.238 34.6389L215.765 35.5908C215.399 36.3846 215.126 36.8919 214.946 37.1128C214.766 37.3337 214.477 37.4326 214.077 37.4096C213.677 37.3867 213.43 37.3263 213.336 37.2287C213.209 37.1625 213.106 37.1126 213.027 37.0793C212.963 37.0301 212.943 36.8458 212.964 36.5261L212.968 36.2861L213.315 34.3239C213.417 33.9736 213.468 33.7665 213.47 33.7025L213.576 33.1282L213.584 32.6723L213.338 33.0041L213.114 33.4322C213.049 33.4951 213.016 33.5745 213.014 33.6705C212.933 33.7171 212.868 33.804 212.817 33.9311L211.849 35.8105C211.567 36.3657 211.407 36.7869 211.37 37.0743C211.272 37.2326 211.148 37.4145 211.001 37.62C210.869 37.8257 210.724 37.9192 210.564 37.9004C210.42 37.8659 210.317 37.8241 210.254 37.775C210.191 37.7259 210.168 37.6615 210.185 37.5817C209.992 37.6584 209.841 37.5917 209.733 37.3818L209.17 36.6279C209.107 36.5788 209.076 36.4902 209.078 36.3622C209.13 36.1711 209.133 36.0111 209.087 35.8823C209.041 35.7535 209.027 35.6492 209.044 35.5695C209.015 35.425 209.002 35.2247 209.007 34.9688C209.012 34.6648 208.992 34.4404 208.947 34.2956C208.949 34.1676 208.967 34.0399 209.001 33.9125L209.005 33.6726C208.986 32.9681 209.041 32.553 209.171 32.4273C209.078 32.2816 209.091 31.9538 209.212 31.4438L209.241 31.1563ZM226.582 30.4988L226.587 30.2349C226.59 30.0589 226.583 29.9708 226.567 29.9705L226.424 29.92C226.312 29.918 226.225 29.9005 226.161 29.8674C226.049 29.8974 225.96 29.9439 225.895 30.0068C225.684 30.1311 225.538 30.2806 225.455 30.4551L224.908 31.5018C224.66 31.9935 224.513 32.631 224.467 33.4144C224.88 33.5976 225.184 33.5949 225.379 33.4063C225.493 33.3122 225.591 33.2019 225.673 33.0754C225.707 32.9639 225.773 32.8611 225.87 32.7668C225.968 32.6564 226.069 32.3942 226.172 31.9799C226.435 31.5844 226.572 31.0907 226.582 30.4988ZM228.712 30.8721L228.707 31.136C228.658 32.1113 228.355 32.9861 227.797 33.7605C227.715 33.8711 227.601 33.9971 227.455 34.1386L226.918 34.6573C226.804 34.7673 226.658 34.8688 226.48 34.9617L225.95 35.0965C225.902 35.0637 225.767 35.0293 225.544 34.9934C225.366 35.0543 225.215 35.0357 225.088 34.9374C225.072 34.9372 224.985 34.9036 224.826 34.8368C224.683 34.7703 224.5 34.7271 224.276 34.7072C224.304 34.9637 224.315 35.244 224.31 35.5479L224.578 36.6568C224.748 36.9958 224.913 37.2147 225.071 37.3135C225.246 37.3966 225.429 37.4478 225.62 37.4671C225.828 37.4707 225.981 37.4494 226.078 37.4031C226.19 37.357 226.376 37.2883 226.633 37.1967L227.117 36.9652C227.457 36.779 227.744 36.8321 227.979 37.1242C228.104 37.2704 228.157 37.4634 228.137 37.7031C228.117 37.9267 228.017 38.133 227.838 38.3219C227.738 38.5442 227.486 38.7479 227.083 38.9329C227.067 38.9326 226.995 38.9633 226.865 39.0251C226.139 39.3645 225.339 39.3985 224.463 39.1272L224.011 38.9032C223.963 38.9024 223.916 38.8776 223.868 38.8287C223.677 38.7774 223.471 38.6538 223.251 38.4579C223.03 38.262 222.873 38.0993 222.779 37.9696C222.701 37.8402 222.647 37.7513 222.616 37.7027C222.585 37.6542 222.531 37.5492 222.453 37.3878C222.19 36.8711 221.999 36.3797 221.879 35.9136L221.747 35.2152C221.78 35.1517 221.791 34.9679 221.781 34.6637L221.787 34.2797C221.648 34.0212 221.746 33.4389 222.082 32.5326C222.359 31.3212 222.58 30.613 222.743 30.4078L223.066 29.7894C223.066 29.7734 223.164 29.655 223.36 29.4344C223.394 29.355 223.58 29.1982 223.921 28.9641C223.986 28.8693 224.083 28.815 224.211 28.8012C224.277 28.7383 224.381 28.6841 224.526 28.6387C224.656 28.5289 224.849 28.4603 225.106 28.4327C225.347 28.3569 225.716 28.3394 226.211 28.38C227.345 28.4958 228.113 28.9893 228.514 29.8604L228.672 30.3913C228.671 30.4713 228.693 30.5677 228.739 30.6805C228.723 30.7122 228.714 30.7761 228.712 30.8721ZM235.372 32.2365L235.331 31.8757C235.284 31.8109 235.253 31.7303 235.239 31.6341C235.241 31.5221 235.22 31.3537 235.176 31.1289C235.181 30.8409 235.113 30.5837 234.973 30.3572C234.927 30.2284 234.736 30.1851 234.399 30.2272C234.171 30.4473 233.896 31.0746 233.574 32.1091C233.574 32.1251 233.549 32.1887 233.499 32.2998C233.433 32.4427 233.364 32.6815 233.295 33.0164C233.225 33.3352 233.182 33.5185 233.165 33.5662C233.131 33.6616 233.114 33.7493 233.112 33.8293C233.079 33.8927 233.061 33.9964 233.059 34.1404L232.955 34.5947C232.889 34.6895 232.871 34.8092 232.901 34.9538L232.895 35.2897C232.91 35.338 232.9 35.4738 232.864 35.6972L232.858 36.0332L232.892 36.8499C232.888 37.0419 233.043 37.3566 233.355 37.7941C233.483 37.8284 233.563 37.8218 233.596 37.7743C233.921 37.46 234.103 37.1351 234.141 36.7997L234.218 36.489C234.299 36.4104 234.368 36.1716 234.423 35.7725L234.55 35.3666C234.552 35.2226 234.587 35.0712 234.654 34.9124C234.72 34.7535 234.762 34.6342 234.78 34.5545C234.782 34.4265 234.892 34.1084 235.109 33.6001C235.093 33.5518 235.086 33.5037 235.087 33.4557L235.09 33.2877C235.278 32.6029 235.372 32.2525 235.372 32.2365ZM238.555 24.5389C238.545 25.0988 238.507 25.4422 238.441 25.569L238.246 27.1259L238.232 27.9417C238.211 28.2134 238.196 28.6212 238.186 29.1651C238.177 29.7091 238.177 30.1651 238.187 30.5334C238.212 30.8859 238.191 31.1815 238.123 31.4204C238.155 31.4529 238.17 31.5092 238.168 31.5892L238.189 31.7816L238.155 32.3331L238.138 33.3409C238.151 33.5172 238.153 33.8213 238.146 34.2532C238.171 34.6217 238.182 34.9179 238.178 35.1419C238.174 35.3659 238.194 35.5903 238.238 35.8151L238.233 36.127L238.312 37.1125L238.298 37.9284C238.328 38.041 238.342 38.1532 238.34 38.2652C238.338 38.3612 238.367 38.5297 238.427 38.7708C238.502 39.0282 238.53 39.2607 238.511 39.4684C238.054 39.9885 237.483 40.1065 236.8 39.8226C236.657 39.8041 236.506 39.7214 236.349 39.5747C236.207 39.4282 236.122 39.2827 236.092 39.1381L236.076 38.6578C235.997 38.6404 235.951 38.5036 235.94 38.2473C235.877 38.1502 235.855 38.0698 235.872 38.0061C235.921 37.9269 235.884 37.7903 235.759 37.5961L235.487 38.0474C235.405 38.174 235.315 38.2524 235.219 38.2827L235.118 38.569C234.89 38.8051 234.718 39.0021 234.603 39.1601L234.31 39.4431C233.925 39.5164 233.398 39.4751 232.728 39.3194C232.568 39.3166 232.441 39.2984 232.345 39.2647L232.177 39.2618C232.145 39.2932 231.97 39.2182 231.653 39.0366C231.383 38.9199 231.241 38.8134 231.227 38.7171L231.37 38.7436C231.148 38.6438 231.071 38.4904 231.138 38.2835C230.948 38.2002 230.831 38.0221 230.788 37.7493L230.586 36.9297C230.557 36.7212 230.569 36.4973 230.622 36.2582C230.591 36.1937 230.634 35.9784 230.753 35.6124L230.685 35.3952L230.644 34.9624C230.597 34.8976 230.608 34.7537 230.676 34.5309L230.536 34.2884C230.547 33.6485 230.578 33.257 230.628 33.1138L230.658 32.8023C230.58 32.6729 230.609 32.4014 230.744 31.9877L231.099 30.8897C231.1 30.8577 231.126 30.7142 231.179 30.459C231.266 30.0605 231.366 29.8062 231.48 29.6962L231.925 28.9838C232.006 28.9052 232.096 28.7868 232.195 28.6285C232.36 28.3433 232.698 28.2052 233.21 28.2142C233.74 28.1434 234.586 28.2222 235.751 28.4505L235.765 27.6107L235.711 26.6015C235.719 26.1216 235.711 25.6814 235.686 25.2809C235.677 24.8807 235.69 24.5609 235.727 24.3215C235.743 24.3058 235.829 23.9792 235.984 23.3418C236.139 22.7044 236.387 22.2287 236.729 21.9146C236.842 21.8526 237.043 21.8161 237.331 21.8051C237.635 21.7944 237.819 21.8136 237.882 21.8627C237.945 21.9118 238.032 21.9534 238.144 21.9873C238.589 22.1231 238.806 22.535 238.794 23.2228L238.555 24.5389Z" fill="#E7EDE7"/>
</svg>
