<svg width="13" height="15" viewBox="0 0 13 15" fill="none" xmlns="http://www.w3.org/2000/svg">
<path d="M11 2.5H12V1.5H11L10.5 0.5H2L1.5 1.5H0.5V2.5H1.5H11Z" fill="#261F05"/>
<path fill-rule="evenodd" clip-rule="evenodd" d="M1.73044 5.26524L1.5 2.5H11L10.6875 5L1.73044 5.26524ZM2.01048 8.62572L2.5 14.5H9.5L10.3125 8L2.01048 8.62572Z" fill="#A29872"/>
<path d="M10.6875 5L1.73044 5.26524L2.01048 8.62572L10.3125 8L10.6875 5Z" fill="#4D4835"/>
<path d="M1.5 2.5H0.5V1.5H1.5L2 0.5H10.5L11 1.5H12V2.5H11M1.5 2.5H11M1.5 2.5L1.73044 5.26524M11 2.5L10.6875 5M1.73044 5.26524L10.6875 5M1.73044 5.26524L2.01048 8.62572M10.6875 5L10.3125 8M10.3125 8L9.5 14.5H2.5L2.01048 8.62572M10.3125 8L2.01048 8.62572" stroke="black"/>
<path d="M3.72752 7.2683C3.74686 7.30601 3.74951 7.34392 3.73549 7.38204C3.72139 7.41883 3.69784 7.45344 3.66482 7.48588C3.63181 7.51832 3.59326 7.54705 3.54917 7.57205C3.50642 7.59699 3.46532 7.61517 3.42586 7.62658C3.38241 7.63821 3.33601 7.64464 3.28668 7.64589C3.23875 7.6484 3.18983 7.64496 3.13994 7.63556C3.09144 7.62742 3.04334 7.61392 2.99562 7.59506C2.94916 7.57479 2.90579 7.5497 2.8655 7.51976C2.81687 7.48359 2.77785 7.43957 2.74843 7.38771C2.72027 7.33444 2.69859 7.2775 2.6834 7.21688C2.66821 7.15626 2.65834 7.09536 2.6538 7.03418C2.65052 6.9716 2.64944 6.91291 2.65058 6.8581C2.65199 6.80863 2.65929 6.75684 2.67248 6.70274C2.68566 6.64865 2.70491 6.59557 2.73022 6.5435C2.75679 6.49004 2.7889 6.44029 2.82654 6.39426C2.86552 6.34816 2.9115 6.30836 2.96448 6.27488C3.0045 6.24875 3.0496 6.23036 3.09978 6.21972C3.15122 6.20768 3.20305 6.20296 3.25526 6.20556C3.30872 6.20677 3.35925 6.21547 3.40683 6.23167C3.45567 6.24646 3.49754 6.2683 3.53243 6.29718C3.55471 6.31471 3.57804 6.33952 3.60242 6.37162C3.62813 6.40365 3.64722 6.4367 3.65969 6.47076C3.67216 6.50482 3.67386 6.53744 3.66482 6.56863C3.65703 6.59841 3.63145 6.61978 3.58807 6.63273C3.56971 6.63903 3.55313 6.64124 3.53835 6.63934C3.52349 6.63612 3.50986 6.63082 3.49746 6.62346C3.48499 6.61477 3.47311 6.60471 3.46183 6.59328C3.45055 6.58186 3.43994 6.5704 3.42999 6.5589C3.39601 6.52196 3.35736 6.49795 3.31406 6.48687C3.27068 6.47446 3.2279 6.47336 3.18571 6.48358C3.14478 6.4924 3.10641 6.51177 3.07059 6.54169C3.03604 6.5702 3.00989 6.60629 2.99215 6.64994C2.97322 6.69633 2.95853 6.74717 2.94807 6.80246C2.93888 6.85635 2.93508 6.91129 2.93668 6.96728C2.93821 7.02194 2.94566 7.07496 2.95904 7.12633C2.97374 7.17763 2.99612 7.22252 3.02618 7.261C3.04916 7.29184 3.07648 7.31644 3.10815 7.33481C3.14116 7.35311 3.17584 7.36531 3.21221 7.37141C3.24858 7.37752 3.2846 7.37697 3.32027 7.36976C3.35728 7.36248 3.3926 7.34861 3.42624 7.32815C3.43661 7.32227 3.44755 7.31435 3.45904 7.3044C3.4718 7.29305 3.48456 7.2817 3.49731 7.27035C3.51007 7.259 3.52286 7.24832 3.53569 7.2383C3.54985 7.22821 3.56481 7.22075 3.58058 7.21592C3.60413 7.20668 3.63013 7.20598 3.65858 7.21384C3.68836 7.22162 3.71134 7.23978 3.72752 7.2683ZM4.14065 6.21324C4.22812 6.17527 4.30791 6.1564 4.38002 6.15663C4.45346 6.15679 4.51968 6.17201 4.57868 6.2023C4.63761 6.23125 4.68848 6.27198 4.73128 6.32448C4.77542 6.37691 4.81192 6.43641 4.84078 6.50299C4.8634 6.55254 4.8815 6.605 4.89509 6.66036C4.90867 6.71573 4.91759 6.77134 4.92185 6.82719C4.92738 6.88164 4.92821 6.93568 4.92434 6.98928C4.92181 7.04282 4.91507 7.09258 4.90412 7.13855C4.89774 7.16959 4.88989 7.19804 4.88056 7.2239C4.87123 7.24975 4.85991 7.27572 4.84659 7.30178C4.8163 7.36078 4.77547 7.40965 4.72409 7.44839C4.67405 7.48707 4.61812 7.51536 4.55631 7.53329C4.51426 7.54618 4.4706 7.55381 4.42533 7.55618C4.37998 7.55722 4.33507 7.55356 4.29057 7.54522C4.246 7.53553 4.20252 7.52112 4.16013 7.50198C4.11899 7.48144 4.08091 7.4554 4.04588 7.42385C4.00251 7.38607 3.96615 7.34192 3.9368 7.29138C3.90738 7.23952 3.88384 7.18534 3.8662 7.12885C3.84848 7.07104 3.83609 7.01294 3.82902 6.95456C3.82196 6.89618 3.81903 6.84026 3.82023 6.78679C3.82164 6.73732 3.82821 6.68423 3.83992 6.62754C3.85297 6.57078 3.87278 6.51567 3.89935 6.46221C3.92592 6.40874 3.95877 6.36029 3.99788 6.31685C4.03825 6.27201 4.08584 6.23747 4.14065 6.21324ZM4.65281 7.04357C4.66551 6.98015 4.66847 6.90923 4.66169 6.83081C4.65491 6.75239 4.63838 6.67916 4.61212 6.61111C4.59524 6.56927 4.57465 6.53296 4.55034 6.50219C4.52729 6.47002 4.5 6.44608 4.46847 6.43038C4.43826 6.4146 4.40319 6.40776 4.36325 6.40986C4.3233 6.41195 4.27932 6.42627 4.23131 6.45282C4.20279 6.469 4.17854 6.4903 4.15856 6.51671C4.13991 6.54306 4.12477 6.57256 4.11313 6.60521C4.10282 6.6378 4.09458 6.67161 4.0884 6.70665C4.08356 6.74161 4.08131 6.77511 4.08165 6.80714C4.0808 6.8419 4.08206 6.87855 4.08541 6.91709C4.0887 6.9543 4.09468 6.99204 4.10336 7.03031C4.11331 7.06717 4.12584 7.10256 4.14097 7.13648C4.15603 7.16907 4.17558 7.19809 4.19961 7.22353C4.23632 7.26167 4.27773 7.28753 4.32384 7.30114C4.37121 7.31334 4.41725 7.31293 4.46196 7.29991C4.53436 7.28009 4.58774 7.22856 4.62209 7.14532C4.63654 7.11519 4.64677 7.08127 4.65281 7.04357ZM5.98438 6.12863C5.9972 6.14398 6.0055 6.16223 6.00928 6.1834C6.00969 6.19139 6.00945 6.19941 6.00853 6.20747C6.00888 6.21413 6.00857 6.22082 6.00758 6.22755C6.00702 6.24226 5.9991 6.2567 5.98382 6.27085C5.97485 6.278 5.96321 6.28528 5.94891 6.29271C5.94106 6.29579 5.93251 6.29824 5.92326 6.30006C5.91527 6.30048 5.90599 6.30163 5.89541 6.30352C5.88756 6.3066 5.87897 6.30839 5.86965 6.30888C5.86033 6.30937 5.85101 6.30985 5.84169 6.31034L5.75181 6.31505L5.33449 6.33893L5.3348 6.34492L5.34987 6.67058C5.36052 6.67002 5.37184 6.66943 5.38382 6.6688C5.39714 6.6681 5.41308 6.6666 5.43165 6.66429C5.48491 6.6615 5.53218 6.65902 5.57346 6.65686C5.61607 6.65462 5.6627 6.65285 5.71337 6.65153L5.72535 6.6509C5.74 6.65013 5.75468 6.65003 5.7694 6.65059C5.78538 6.64976 5.80135 6.64892 5.81733 6.64808C5.83205 6.64864 5.8468 6.64987 5.86159 6.65177C5.8763 6.65233 5.89112 6.6549 5.90605 6.65945C5.93044 6.66619 5.94841 6.67793 5.95997 6.69468C5.97552 6.71122 5.98379 6.72881 5.98476 6.74745C5.98518 6.75544 5.9856 6.76343 5.98602 6.77142C5.98637 6.77808 5.98542 6.78547 5.98318 6.7936C5.9824 6.80432 5.97445 6.81809 5.9593 6.83491C5.94914 6.84479 5.93681 6.85144 5.9223 6.85487C5.91578 6.85788 5.90793 6.86096 5.89875 6.86412C5.89083 6.86587 5.88225 6.86765 5.873 6.86947C5.86374 6.87129 5.85449 6.87311 5.84524 6.87493C5.83725 6.87535 5.82793 6.87584 5.81728 6.8764L5.72541 6.88121L5.35802 6.90247L5.37631 7.36615L5.37715 7.38212C5.37749 7.38878 5.37718 7.39547 5.3762 7.4022C5.37647 7.40753 5.37612 7.41355 5.37514 7.42028C5.37283 7.42708 5.37055 7.43454 5.3683 7.44267C5.36732 7.4494 5.36567 7.45616 5.36336 7.46296C5.35501 7.48209 5.34702 7.49519 5.33938 7.50227C5.32529 7.51369 5.3077 7.52195 5.28661 7.52706C5.25108 7.53693 5.21691 7.53472 5.18412 7.52042C5.17725 7.51677 5.17035 7.51246 5.16341 7.50748C5.15774 7.5011 5.15266 7.49336 5.14818 7.48425C5.14523 7.47906 5.14369 7.47514 5.14355 7.47247L5.13693 7.4608C5.13259 7.45436 5.12958 7.44784 5.1279 7.44125C5.12615 7.43333 5.12443 7.42608 5.12275 7.41949C5.1224 7.41283 5.12139 7.40621 5.11971 7.39962C5.11936 7.39296 5.11835 7.38634 5.11666 7.37975C5.11478 7.36917 5.11422 7.35852 5.11499 7.3478L5.11332 7.31584L5.10715 7.15995L5.09407 6.87224C5.09317 6.82956 5.09157 6.78625 5.08927 6.74231C5.08696 6.69837 5.08459 6.6531 5.08215 6.6065C5.07831 6.55864 5.07541 6.51606 5.07345 6.47878C5.07283 6.44143 5.0727 6.40071 5.07306 6.35663L5.07254 6.34665C5.0731 6.33193 5.07307 6.31858 5.07244 6.3066C5.07174 6.29328 5.07238 6.2799 5.07434 6.26644C5.07547 6.23701 5.08077 6.2107 5.09023 6.1875C5.09837 6.16438 5.11084 6.1477 5.12766 6.13748C5.14701 6.12445 5.168 6.11734 5.19063 6.11615C5.20129 6.11559 5.20998 6.1158 5.2167 6.11679L5.2166 6.11479C5.24057 6.11353 5.25987 6.11252 5.27452 6.11175C5.28917 6.11099 5.30315 6.11025 5.31646 6.10956C5.32978 6.10886 5.34442 6.10809 5.3604 6.10725C5.37631 6.10508 5.39758 6.1033 5.42421 6.10191C5.53066 6.09499 5.63585 6.08948 5.73978 6.08537L5.74976 6.08485C5.76448 6.08541 5.77916 6.08531 5.79381 6.08454C5.80978 6.0837 5.8258 6.08353 5.84185 6.08402C5.85649 6.08326 5.87124 6.08449 5.8861 6.08771C5.90089 6.08961 5.91574 6.09284 5.93067 6.09739C5.95365 6.10287 5.97155 6.11328 5.98438 6.12863ZM7.07078 6.07169C7.0836 6.08704 7.0919 6.1053 7.09568 6.12646C7.09609 6.13445 7.09585 6.14248 7.09493 6.15053C7.09528 6.15719 7.09497 6.16388 7.09398 6.17061C7.09342 6.18533 7.0855 6.19976 7.07022 6.21391C7.06125 6.22106 7.04961 6.22835 7.03531 6.23577C7.02746 6.23885 7.01891 6.2413 7.00966 6.24312C7.00167 6.24354 6.99239 6.2447 6.98181 6.24659C6.97396 6.24967 6.96537 6.25145 6.95605 6.25194C6.94673 6.25243 6.93741 6.25292 6.92809 6.25341L6.83821 6.25812L6.42089 6.28199L6.4212 6.28798L6.43627 6.61364C6.44692 6.61308 6.45824 6.61249 6.47022 6.61186C6.48354 6.61116 6.49948 6.60966 6.51805 6.60735C6.57131 6.60456 6.61858 6.60208 6.65986 6.59992C6.70247 6.59769 6.7491 6.59591 6.79977 6.59459L6.81175 6.59396C6.8264 6.5932 6.84108 6.59309 6.8558 6.59366C6.87178 6.59282 6.88775 6.59198 6.90373 6.59115C6.91845 6.59171 6.9332 6.59294 6.94799 6.59483C6.9627 6.5954 6.97752 6.59796 6.99245 6.60252C7.01683 6.60925 7.03481 6.62099 7.04637 6.63774C7.06192 6.65429 7.07019 6.67188 7.07116 6.69052C7.07158 6.69851 7.072 6.7065 7.07242 6.71449C7.07277 6.72114 7.07182 6.72854 7.06958 6.73667C7.0688 6.74739 7.06085 6.76116 7.0457 6.77797C7.03554 6.78785 7.02321 6.7945 7.0087 6.79794C7.00218 6.80095 6.99433 6.80403 6.98515 6.80718C6.97723 6.80893 6.96865 6.81072 6.9594 6.81254C6.95014 6.81436 6.94089 6.81618 6.93164 6.818C6.92365 6.81841 6.91433 6.8189 6.90368 6.81946L6.81181 6.82428L6.44442 6.84553L6.46271 7.30921L6.46355 7.32519C6.46389 7.33185 6.46358 7.33854 6.4626 7.34527C6.46287 7.35059 6.46252 7.35662 6.46154 7.36335C6.45923 7.37014 6.45695 7.37761 6.4547 7.38573C6.45372 7.39246 6.45207 7.39922 6.44976 7.40602C6.44141 7.42515 6.43342 7.43825 6.42578 7.44533C6.41169 7.45675 6.3941 7.46501 6.37301 7.47013C6.33748 7.48 6.30331 7.47778 6.27052 7.46348C6.26365 7.45983 6.25675 7.45552 6.24981 7.45055C6.24414 7.44417 6.23906 7.43642 6.23458 7.42731C6.23163 7.42213 6.23009 7.4182 6.22995 7.41554L6.22333 7.40387C6.21899 7.39742 6.21598 7.3909 6.2143 7.38431C6.21255 7.3764 6.21083 7.36914 6.20915 7.36255C6.2088 7.3559 6.20779 7.34927 6.20611 7.34269C6.20576 7.33603 6.20475 7.32941 6.20306 7.32282C6.20117 7.31224 6.20062 7.30158 6.20139 7.29086L6.19972 7.25891L6.19355 7.10301L6.18047 6.8153C6.17957 6.77263 6.17797 6.72932 6.17567 6.68538C6.17336 6.64144 6.17099 6.59617 6.16855 6.54956C6.1647 6.5017 6.16181 6.45913 6.15985 6.42184C6.15923 6.38449 6.1591 6.34378 6.15946 6.2997L6.15894 6.28971C6.1595 6.275 6.15947 6.26165 6.15884 6.24966C6.15814 6.23635 6.15878 6.22296 6.16074 6.20951C6.16187 6.18007 6.16717 6.15376 6.17663 6.13057C6.18477 6.10744 6.19724 6.09077 6.21406 6.08054C6.23341 6.06751 6.2544 6.0604 6.27703 6.05921C6.28769 6.05866 6.29638 6.05887 6.3031 6.05985L6.303 6.05785C6.32697 6.0566 6.34627 6.05559 6.36092 6.05482C6.37557 6.05405 6.38955 6.05332 6.40286 6.05262C6.41618 6.05192 6.43082 6.05116 6.4468 6.05032C6.46271 6.04815 6.48398 6.04637 6.51061 6.04497C6.61706 6.03806 6.72225 6.03254 6.82618 6.02843L6.83616 6.02791C6.85088 6.02847 6.86556 6.02837 6.88021 6.0276C6.89618 6.02677 6.9122 6.0266 6.92825 6.02709C6.94289 6.02632 6.95764 6.02755 6.9725 6.03078C6.98729 6.03267 7.00214 6.0359 7.01707 6.04046C7.04005 6.04593 7.05795 6.05634 7.07078 6.07169ZM7.5075 6.22905L7.51994 6.54283L7.59983 6.53864C7.65435 6.53445 7.70292 6.53124 7.74552 6.529C7.78813 6.52677 7.83544 6.52496 7.88743 6.52357L7.89742 6.52305C7.9134 6.52221 7.92875 6.52207 7.94346 6.52264C7.95944 6.5218 7.97475 6.521 7.9894 6.52023C8.00545 6.52072 8.0209 6.52258 8.03575 6.52581C8.05054 6.52771 8.06536 6.53027 8.08022 6.53349C8.10327 6.5403 8.12254 6.5513 8.13803 6.56651C8.15225 6.58313 8.15992 6.60208 8.16103 6.62339C8.16138 6.63004 8.1618 6.63803 8.16229 6.64735C8.16271 6.65534 8.16176 6.66274 8.15945 6.66953C8.15755 6.68432 8.14959 6.69809 8.13558 6.71084C8.12941 6.72051 8.11711 6.72783 8.09867 6.7328C8.08164 6.73903 8.06451 6.74327 8.04727 6.74551C8.02884 6.75048 8.0103 6.75345 7.99166 6.75443L7.89779 6.75935L7.5284 6.78071L7.54492 7.17238L7.94259 7.15555L8.03646 7.15063C8.04711 7.15007 8.05709 7.14955 8.06642 7.14906C8.07574 7.14857 8.08443 7.14878 8.09248 7.1497C8.10328 7.1518 8.1127 7.15331 8.12076 7.15422C8.13008 7.15373 8.13881 7.15461 8.14693 7.15686C8.16319 7.16135 8.17689 7.16797 8.18803 7.17673C8.20204 7.18935 8.21143 7.20288 8.21619 7.21731C8.21787 7.2239 8.21892 7.23119 8.21934 7.23918C8.22102 7.24577 8.22141 7.25309 8.22049 7.26115C8.22161 7.28245 8.21596 7.30211 8.20356 7.32012C8.18855 7.3396 8.17054 7.35256 8.14952 7.359C8.12218 7.37245 8.09187 7.38004 8.05858 7.38179C8.04401 7.38389 8.02873 7.38536 8.01275 7.38619C7.99677 7.38703 7.9815 7.3885 7.96692 7.3906L7.95494 7.39123C7.85122 7.39933 7.74337 7.40498 7.63138 7.40818C7.60475 7.40958 7.58341 7.41003 7.56736 7.40954C7.55139 7.41037 7.53674 7.41114 7.52342 7.41184C7.51144 7.41247 7.49879 7.41313 7.48548 7.41383C7.47216 7.41452 7.45485 7.41543 7.43355 7.41655C7.40306 7.42082 7.37748 7.41682 7.35681 7.40455C7.34168 7.39599 7.3297 7.38394 7.32087 7.36838C7.31667 7.36459 7.31446 7.3607 7.31425 7.35671C7.31278 7.35412 7.31134 7.35219 7.30994 7.35093C7.30854 7.34967 7.30711 7.34774 7.30563 7.34514C7.30262 7.33863 7.30028 7.33207 7.2986 7.32549C7.29685 7.31757 7.2958 7.31028 7.29545 7.30362C7.29377 7.29703 7.29209 7.29045 7.29041 7.28386C7.29006 7.2772 7.28904 7.27058 7.28736 7.26399L7.28569 7.23203C7.28541 7.22671 7.28513 7.22138 7.28485 7.21606C7.2859 7.21066 7.28629 7.2053 7.28601 7.19997L7.27785 7.04419L7.26677 6.75637L7.25285 6.49074C7.25033 6.4428 7.2481 6.40019 7.24615 6.36291C7.24552 6.32556 7.24473 6.28488 7.24376 6.24087L7.24323 6.23088C7.2438 6.21617 7.24377 6.20282 7.24314 6.19083C7.24377 6.17745 7.24374 6.1641 7.24304 6.15078C7.24298 6.12408 7.24894 6.09774 7.26093 6.07174C7.2657 6.06081 7.27053 6.05121 7.27544 6.04294C7.28168 6.0346 7.28999 6.02749 7.30036 6.02161C7.3197 6.00858 7.34003 6.0015 7.36133 6.00039C7.37198 5.99983 7.38001 6.00008 7.3854 6.00113L7.3853 5.99913C7.40927 5.99787 7.42857 5.99686 7.44322 5.9961C7.45787 5.99533 7.47185 5.99459 7.48516 5.9939C7.49981 5.99313 7.51512 5.99233 7.5311 5.99149C7.54701 5.98932 7.56894 5.9875 7.5969 5.98604C7.65009 5.98192 7.70066 5.9786 7.74859 5.97609C7.79653 5.97357 7.84583 5.97166 7.89649 5.97034L7.90448 5.96992C7.9192 5.97048 7.93455 5.97035 7.95052 5.96951C7.9665 5.96867 7.98185 5.96853 7.99657 5.9691C8.01121 5.96833 8.02596 5.96956 8.04082 5.97279C8.0556 5.97468 8.07046 5.97791 8.08539 5.98247C8.10837 5.98794 8.12761 5.99828 8.14309 6.01349C8.15605 6.0315 8.16302 6.04983 8.164 6.06847C8.16441 6.07646 8.16483 6.08445 8.16525 6.09244C8.1656 6.0991 8.16462 6.10582 8.1623 6.11262C8.16167 6.12601 8.15441 6.14041 8.14053 6.15582C8.13535 6.15876 8.12953 6.1624 8.12308 6.16675C8.11797 6.17102 8.11148 6.1747 8.10363 6.17778C8.09578 6.18086 8.08723 6.18331 8.07798 6.18513C8.06999 6.18555 8.06204 6.18664 8.05412 6.18839C8.04361 6.19161 8.03369 6.19346 8.02437 6.19395C8.01638 6.19437 8.00706 6.19486 7.99641 6.19542L7.90653 6.20013L7.50719 6.22306L7.5075 6.22905ZM8.60365 6.1716L8.61609 6.48538L8.69598 6.4812C8.7505 6.477 8.79907 6.47379 8.84168 6.47156C8.88428 6.46932 8.93159 6.46751 8.98359 6.46612L8.99357 6.4656C9.00955 6.46476 9.0249 6.46463 9.03961 6.46519C9.05559 6.46435 9.0709 6.46355 9.08555 6.46278C9.1016 6.46328 9.11705 6.46514 9.13191 6.46836C9.14669 6.47026 9.16151 6.47282 9.17637 6.47605C9.19942 6.48285 9.21869 6.49386 9.23418 6.50907C9.2484 6.52568 9.25607 6.54464 9.25719 6.56594C9.25753 6.5726 9.25795 6.58059 9.25844 6.58991C9.25886 6.5979 9.25791 6.60529 9.2556 6.61209C9.2537 6.62687 9.24575 6.64064 9.23173 6.65339C9.22556 6.66306 9.21326 6.67038 9.19483 6.67535C9.1778 6.68159 9.16066 6.68582 9.14342 6.68806C9.12499 6.69303 9.10645 6.69601 9.08781 6.69698L8.99394 6.7019L8.62455 6.72327L8.64107 7.11494L9.03874 7.0981L9.13261 7.09318C9.14326 7.09262 9.15325 7.0921 9.16257 7.09161C9.17189 7.09112 9.18058 7.09134 9.18864 7.09225C9.19943 7.09435 9.20885 7.09586 9.21691 7.09678C9.22623 7.09629 9.23496 7.09717 9.24309 7.09941C9.25934 7.1039 9.27304 7.11052 9.28418 7.11929C9.2982 7.1319 9.30758 7.14543 9.31234 7.15987C9.31403 7.16646 9.31507 7.17374 9.31549 7.18173C9.31717 7.18832 9.31756 7.19564 9.31664 7.2037C9.31776 7.22501 9.31212 7.24466 9.29971 7.26267C9.28471 7.28215 9.26669 7.29511 9.24567 7.30155C9.21833 7.315 9.18802 7.3226 9.15474 7.32434C9.14016 7.32644 9.12488 7.32791 9.1089 7.32875C9.09293 7.32958 9.07765 7.33105 9.06307 7.33315L9.05109 7.33378C8.94737 7.34189 8.83952 7.34754 8.72753 7.35074C8.7009 7.35213 8.67956 7.35258 8.66352 7.35209C8.64754 7.35293 8.63289 7.35369 8.61958 7.35439C8.60759 7.35502 8.59494 7.35568 8.58163 7.35638C8.56831 7.35708 8.551 7.35798 8.5297 7.3591C8.49921 7.36337 8.47364 7.35937 8.45297 7.3471C8.43783 7.33855 8.42585 7.32649 8.41702 7.31093C8.41282 7.30715 8.41061 7.30326 8.4104 7.29926C8.40893 7.29667 8.4075 7.29474 8.4061 7.29348C8.40469 7.29222 8.40326 7.29029 8.40179 7.2877C8.39877 7.28118 8.39643 7.27463 8.39475 7.26804C8.393 7.26012 8.39195 7.25283 8.3916 7.24617C8.38992 7.23959 8.38824 7.233 8.38656 7.22641C8.38621 7.21975 8.38519 7.21313 8.38351 7.20654L8.38184 7.17459C8.38156 7.16926 8.38128 7.16393 8.381 7.15861C8.38205 7.15321 8.38244 7.14785 8.38216 7.14253L8.374 6.98674L8.36292 6.69892L8.349 6.43329C8.34649 6.38536 8.34425 6.34275 8.3423 6.30546C8.34168 6.26811 8.34088 6.22743 8.33991 6.18342L8.33939 6.17344C8.33995 6.15872 8.33992 6.14537 8.33929 6.13339C8.33992 6.12 8.33989 6.10665 8.33919 6.09334C8.33913 6.06664 8.34509 6.04029 8.35708 6.01429C8.36185 6.00336 8.36669 5.99376 8.37159 5.98549C8.37783 5.97716 8.38614 5.97004 8.39651 5.96416C8.41586 5.95113 8.43618 5.94406 8.45748 5.94294C8.46814 5.94238 8.47616 5.94263 8.48156 5.94368L8.48145 5.94168C8.50542 5.94043 8.52473 5.93942 8.53937 5.93865C8.55402 5.93788 8.568 5.93715 8.58131 5.93645C8.59596 5.93568 8.61127 5.93488 8.62725 5.93404C8.64316 5.93187 8.66509 5.93006 8.69306 5.92859C8.74625 5.92447 8.79681 5.92115 8.84474 5.91864C8.89268 5.91613 8.94198 5.91421 8.99264 5.91289L9.00063 5.91247C9.01535 5.91304 9.0307 5.9129 9.04668 5.91206C9.06265 5.91122 9.078 5.91109 9.09272 5.91165C9.10736 5.91088 9.12211 5.91211 9.13697 5.91534C9.15176 5.91724 9.16661 5.92046 9.18154 5.92502C9.20452 5.93049 9.22376 5.94083 9.23924 5.95604C9.2522 5.97406 9.25917 5.99238 9.26015 6.01102C9.26057 6.01901 9.26098 6.027 9.2614 6.03499C9.26175 6.04165 9.26077 6.04838 9.25846 6.05517C9.25782 6.06856 9.25057 6.08296 9.23669 6.09837C9.2315 6.10131 9.22568 6.10496 9.21923 6.1093C9.21412 6.11357 9.20763 6.11725 9.19979 6.12033C9.19194 6.12342 9.18339 6.12587 9.17414 6.12769C9.16615 6.1281 9.15819 6.12919 9.15027 6.13094C9.13976 6.13416 9.12984 6.13602 9.12052 6.1365C9.11253 6.13692 9.10321 6.13741 9.09256 6.13797L9.00268 6.14268L8.60334 6.16561L8.60365 6.1716Z" fill="white"/>
</svg>
