<svg width="736" height="317" viewBox="0 0 736 317" fill="none" xmlns="http://www.w3.org/2000/svg">
<path d="M25.7115 295.965C9.98387 279.79 -11.1694 65.7358 8.3375 50.9793C53.4018 16.8891 123.284 -16.7355 151.787 32.0546C162.945 51.1532 170.67 68.1891 160.782 87.975C146.656 116.243 95.5908 70.0733 80.4632 97.8182C69.2075 118.462 73.4587 140.154 89.5012 157.344C112.564 182.056 158.231 117.18 175.353 146.325C184.957 162.672 183.52 178.021 174.828 194.871C158.668 226.202 108.634 178.323 85.0771 204.55C58.7474 233.864 129.607 283.819 96.2702 304.823C72.7739 319.628 45.0711 315.876 25.7115 295.965Z" fill="#343346" stroke="black"/>
<path fill-rule="evenodd" clip-rule="evenodd" d="M211.047 294.966C229.114 333.855 264.525 294.966 264.525 294.966C264.525 294.966 253.399 206.386 283.315 206.386H359.918C389.833 206.386 372.926 289.925 372.926 289.925C372.926 289.925 396.051 322.332 427.126 289.925C458.201 257.518 415.563 14.103 343.296 5.46102C271.029 -3.18092 192.981 256.077 211.047 294.966ZM298.491 166.057C301.381 150.934 330.866 125.008 333.179 122.127C335.491 119.247 370.583 159.27 355.582 176.859C340.885 194.091 295.6 181.18 298.491 166.057Z" fill="#343346"/>
<path d="M283.315 206.386C253.399 206.386 264.525 294.966 264.525 294.966C264.525 294.966 229.114 333.855 211.047 294.966C192.981 256.077 271.029 -3.18092 343.296 5.46102C415.563 14.103 458.201 257.518 427.126 289.925C396.051 322.332 372.926 289.925 372.926 289.925C372.926 289.925 389.833 206.386 359.918 206.386M283.315 206.386C313.23 206.386 330.002 206.386 359.918 206.386M283.315 206.386H359.918M333.179 122.127C330.866 125.008 301.381 150.934 298.491 166.057C295.6 181.18 340.885 194.091 355.582 176.859C370.583 159.27 335.491 119.247 333.179 122.127Z" stroke="black"/>
<path fill-rule="evenodd" clip-rule="evenodd" d="M498.68 257.389C520.091 301.035 550.973 304.797 590.913 295.27C600.431 293 612.289 289.385 625.088 284.292L672.852 315.446L707.851 282.094L669.969 261.224C697.149 243.435 721.594 218.671 730.909 185.744C748.545 123.403 700.439 47.3956 680.675 27.6315C660.911 7.86735 643.617 -6.13222 617.265 3.74983C590.913 13.6319 518.444 55.6306 498.68 112.452C478.916 169.274 477.269 213.744 498.68 257.389ZM597.853 229.925C576.457 235.029 562.732 243.143 548.443 209.631C534.153 176.12 534.462 162.205 548.443 131.986C562.423 101.767 597.853 79.0461 611.971 73.7521C626.088 68.4581 635.352 75.958 645.94 86.5459C656.528 97.1339 682.3 137.852 672.852 171.25C662.729 207.033 619.25 224.821 597.853 229.925Z" fill="#343346" stroke="black"/>
</svg>
