<svg width="652" height="50" viewBox="0 0 652 50" fill="none" xmlns="http://www.w3.org/2000/svg">
<path d="M651.5 25.2705C643.69 13.9453 650.31 14.5957 642.5 3.27046C643.735 6.97587 644.164 10.2999 644.569 13.4436C645.318 19.2456 645.987 19.4332 651.5 25.2705Z" fill="#3FA400"/>
<path d="M601.5 18.2705C600.343 15.1018 599.186 11.9331 594.5 6.27046C596.421 9.56417 597.486 12.5189 598.493 15.3132C600.352 20.4706 602.014 25.0818 608.5 30.2705C603.814 24.6079 602.657 21.4392 601.5 18.2705Z" fill="#3FA400"/>
<path d="M545 10.2705C545 10.2705 569.5 38.2705 569.5 36.2705C569.5 34.9733 567.705 32.5386 565.698 29.8156C564.611 28.3402 563.461 26.7801 562.5 25.2705C556.642 21.5605 555.196 19.6655 553.75 17.7705C552.304 15.8755 550.858 13.9804 545 10.2705Z" fill="#3FA400"/>
<path d="M514 20.7705C514.324 16.8399 514.648 12.9094 512.5 6.27046C512.912 10.2503 512.725 13.7177 512.549 16.9969C512.224 23.049 511.933 28.4604 515.5 35.2705C513.352 28.6315 513.676 24.701 514 20.7705Z" fill="#3FA400"/>
<path d="M485.25 26.0205C485.285 23.3481 485.319 20.6757 482 16.7705C482.892 19.3094 483.095 21.6075 483.288 23.781C483.643 27.7923 483.96 31.379 488.5 35.2705C485.181 31.3652 485.215 28.6928 485.25 26.0205Z" fill="#3FA400"/>
<path d="M444.5 10.2705C447.5 18.2705 450 24.7705 456.5 30.2705C452.79 24.6079 451.645 22.4392 450.5 20.2705C449.355 18.1018 448.21 15.9331 444.5 10.2705Z" fill="#3FA400"/>
<path d="M413.5 18.7705C412.148 16.4968 410.796 14.2231 406.5 12.2705C408.421 14.0546 409.548 15.8814 410.614 17.6092C412.58 20.7979 414.338 23.649 420.5 25.2705C416.204 23.3178 414.852 21.0442 413.5 18.7705Z" fill="#3FA400"/>
<path d="M377.75 18.2705C376.109 15.1018 374.467 11.9331 369 6.27046C371.402 9.56416 372.856 12.5806 374.232 15.4334C376.771 20.6985 379.041 25.4061 386.5 30.2705C381.033 24.6079 379.391 21.4392 377.75 18.2705Z" fill="#3FA400"/>
<path d="M320.5 1.27046C323.5 12.2705 330 20.7705 340.5 30.2705C338.352 24.6079 334.426 20.1892 330.5 15.7705C326.574 11.3518 322.648 6.93306 320.5 1.27046Z" fill="#3FA400"/>
<path d="M288 18.2705C287.3 14.6136 286.601 10.9568 282.5 6.27046C284.348 9.69054 285.007 13.0384 285.637 16.2318C286.664 21.4418 287.61 26.2405 293.5 30.2705C289.399 25.5842 288.7 21.9273 288 18.2705Z" fill="#3FA400"/>
<path d="M240.5 18.2705C238.527 14.6136 236.553 10.9568 230.5 6.27046C233.245 9.56416 234.925 12.8276 236.514 15.914C239.446 21.6102 242.068 26.7033 250.5 30.2705C244.447 25.5842 242.473 21.9273 240.5 18.2705Z" fill="#3FA400"/>
<path d="M188.25 17.5205C185.444 13.4886 182.639 9.45675 176 4.77046C179.362 8.27002 181.535 11.5946 183.589 14.7388C187.381 20.5418 190.771 25.7304 200.5 30.2705C193.861 25.5842 191.056 21.5523 188.25 17.5205Z" fill="#3FA400"/>
<path d="M159.75 28.0205C157.937 25.3718 156.124 22.7231 153 20.7705C154.853 22.7604 155.897 24.7102 156.885 26.5542C158.708 29.9575 160.338 33.0004 166.5 35.2705C163.376 33.3178 161.563 30.6692 159.75 28.0205Z" fill="#3FA400"/>
<path d="M134.25 20.7705C131.625 16.3518 129 11.9331 129 6.27046C126.677 13.7044 132.125 22.8653 138.123 32.9508L138.13 32.9621C138.585 33.7263 139.042 34.4959 139.5 35.2705C139.5 29.6079 136.875 25.1892 134.25 20.7705Z" fill="#3FA400"/>
<path d="M89 13.2705C82.5931 9.61361 76.1863 5.95675 71.5 1.27046C72.8437 2.61417 74.1054 3.90566 75.3186 5.14765C84.0377 14.073 90.2599 20.4423 106.5 25.2705C101.814 20.5842 95.4069 16.9273 89 13.2705Z" fill="#3FA400"/>
<path d="M48.5 25.2705L38 4.77046C38.347 6.85266 38.4264 8.64048 38.4983 10.2577C38.7369 15.6308 38.8919 19.1213 48.5 25.2705Z" fill="#3FA400"/>
<path fill-rule="evenodd" clip-rule="evenodd" d="M0.5 49.2705H651.5V25.2705C645.987 19.4332 645.318 19.2456 644.569 13.4436C644.164 10.2999 643.735 6.97587 642.5 3.27046C638.009 8.93306 631.755 12.8518 625.5 16.7705C619.245 20.6892 612.991 24.6079 608.5 30.2705C602.014 25.0818 600.352 20.4706 598.493 15.3132C597.486 12.5189 596.421 9.56417 594.5 6.27046C590.204 10.9568 584.352 13.3636 578.5 15.7705C572.648 18.1773 566.796 20.5842 562.5 25.2705C563.461 26.7801 564.611 28.3402 565.698 29.8156C567.705 32.5386 569.5 34.9733 569.5 36.2705C569.5 38.2705 545 10.2705 545 10.2705C541.681 15.9331 535.965 19.3518 530.25 22.7705C524.535 26.1892 518.819 29.6079 515.5 35.2705C511.933 28.4604 512.224 23.049 512.549 16.9969C512.725 13.7177 512.912 10.2503 512.5 6.27046C509.376 12.9094 504.938 16.8399 500.5 20.7705C496.062 24.701 491.624 28.6315 488.5 35.2705C483.96 31.379 483.643 27.7923 483.288 23.781C483.095 21.6075 482.892 19.3094 482 16.7705C479.071 19.6994 474.161 21.6099 469.25 23.5205C464.339 25.431 459.429 27.3415 456.5 30.2705C450 24.7705 447.5 18.2705 444.5 10.2705C441.181 14.9568 436.84 16.3636 432.5 17.7705C428.16 19.1773 423.819 20.5842 420.5 25.2705C414.338 23.649 412.58 20.7979 410.614 17.6092C409.548 15.8814 408.421 14.0546 406.5 12.2705C404.157 15.1994 400.328 18.2349 396.5 21.2705C392.672 24.306 388.843 27.3415 386.5 30.2705C379.041 25.4061 376.771 20.6985 374.232 15.4334C372.856 12.5806 371.402 9.56416 369 6.27046C365.485 11.9331 360.118 15.1018 354.75 18.2705C349.382 21.4392 344.015 24.6079 340.5 30.2705C330 20.7705 323.5 12.2705 320.5 1.27046C313.471 6.93306 310.235 11.3518 307 15.7705C303.765 20.1892 300.529 24.6079 293.5 30.2705C287.61 26.2405 286.664 21.4418 285.637 16.2318C285.007 13.0384 284.348 9.69054 282.5 6.27046C278.204 10.9568 272.352 14.6136 266.5 18.2705C260.648 21.9273 254.796 25.5842 250.5 30.2705C242.068 26.7033 239.446 21.6102 236.514 15.914C234.925 12.8276 233.245 9.56416 230.5 6.27046C226.79 10.9568 221.145 14.6136 215.5 18.2705C209.855 21.9273 204.21 25.5842 200.5 30.2705C190.771 25.7304 187.381 20.5418 183.589 14.7388C181.535 11.5946 179.362 8.27002 176 4.77046C176 10.4331 173.625 15.2268 171.25 20.0205C168.875 24.8142 166.5 29.6079 166.5 35.2705C160.338 33.0004 158.708 29.9575 156.885 26.5542C155.897 24.7102 154.853 22.7604 153 20.7705C150.852 22.7231 148.551 25.3718 146.25 28.0205C143.949 30.6692 141.648 33.3178 139.5 35.2705C139.042 34.4959 138.585 33.7263 138.13 32.9621L138.123 32.9508C132.125 22.8653 126.677 13.7044 129 6.27046C122.556 9.98044 120.153 12.8755 117.75 15.7705C115.347 18.6655 112.944 21.5605 106.5 25.2705C90.2599 20.4423 84.0377 14.073 75.3186 5.14765C74.1054 3.90566 72.8437 2.61417 71.5 1.27046C64.8611 5.95675 62.4305 9.61361 60 13.2705C57.5695 16.9273 55.1389 20.5842 48.5 25.2705C38.8919 19.1213 38.7369 15.6308 38.4983 10.2577C38.4264 8.64048 38.347 6.85266 38 4.77046C35.6569 9.45675 32.7034 12.2386 29.75 15.0205C26.7966 17.8023 23.8431 20.5842 21.5 25.2705C13.7633 19.4679 14.9116 12.7301 16.2963 4.60478C16.3434 4.32829 16.3908 4.05019 16.4382 3.77046C16.0505 2.96798 15.5776 2.13681 15 1.27046C14.0237 5.95675 10.8868 9.61361 7.75 13.2705C4.61316 16.9273 1.47631 20.5842 0.5 25.2705V49.2705Z" fill="#317E01"/>
<path d="M18.25 13.2705C18.1987 10.2896 18.1475 7.30883 16.4382 3.77046C16.3908 4.05019 16.3434 4.32829 16.2963 4.60478C14.9116 12.7301 13.7633 19.4679 21.5 25.2705C18.3758 20.5842 18.3129 16.9273 18.25 13.2705Z" fill="#3FA400"/>
<path d="M642.5 3.27046C650.31 14.5957 643.69 13.9453 651.5 25.2705M642.5 3.27046C638.009 8.93306 631.755 12.8518 625.5 16.7705C619.245 20.6892 612.991 24.6079 608.5 30.2705M642.5 3.27046C643.735 6.97587 644.164 10.2999 644.569 13.4436C645.318 19.2456 645.987 19.4332 651.5 25.2705M608.5 30.2705C603.814 24.6079 602.657 21.4392 601.5 18.2705C600.343 15.1018 599.186 11.9331 594.5 6.27046M608.5 30.2705C602.014 25.0818 600.352 20.4706 598.493 15.3132C597.486 12.5189 596.421 9.56417 594.5 6.27046M594.5 6.27046C590.204 10.9568 584.352 13.3636 578.5 15.7705C572.648 18.1773 566.796 20.5842 562.5 25.2705M562.5 25.2705C556.642 21.5605 555.196 19.6655 553.75 17.7705C552.304 15.8755 550.858 13.9804 545 10.2705M562.5 25.2705C563.461 26.7801 564.611 28.3402 565.698 29.8156C567.705 32.5386 569.5 34.9733 569.5 36.2705C569.5 38.2705 545 10.2705 545 10.2705M545 10.2705C541.681 15.9331 535.965 19.3518 530.25 22.7705C524.535 26.1892 518.819 29.6079 515.5 35.2705M515.5 35.2705C513.352 28.6315 513.676 24.701 514 20.7705C514.324 16.8399 514.648 12.9094 512.5 6.27046M515.5 35.2705C511.933 28.4604 512.224 23.049 512.549 16.9969C512.725 13.7177 512.912 10.2503 512.5 6.27046M512.5 6.27046C509.376 12.9094 504.938 16.8399 500.5 20.7705C496.062 24.701 491.624 28.6315 488.5 35.2705M488.5 35.2705C485.181 31.3652 485.215 28.6928 485.25 26.0205C485.285 23.3481 485.319 20.6757 482 16.7705M488.5 35.2705C483.96 31.379 483.643 27.7923 483.288 23.781C483.095 21.6075 482.892 19.3094 482 16.7705M482 16.7705C479.071 19.6994 474.161 21.6099 469.25 23.5205C464.339 25.431 459.429 27.3415 456.5 30.2705M456.5 30.2705C450 24.7705 447.5 18.2705 444.5 10.2705M456.5 30.2705C452.79 24.6079 451.645 22.4392 450.5 20.2705C449.355 18.1018 448.21 15.9331 444.5 10.2705M444.5 10.2705C441.181 14.9568 436.84 16.3636 432.5 17.7705C428.16 19.1773 423.819 20.5842 420.5 25.2705M420.5 25.2705C416.204 23.3178 414.852 21.0442 413.5 18.7705C412.148 16.4968 410.796 14.2231 406.5 12.2705M420.5 25.2705C414.338 23.649 412.58 20.7979 410.614 17.6092C409.548 15.8814 408.421 14.0546 406.5 12.2705M406.5 12.2705C404.157 15.1994 400.328 18.2349 396.5 21.2705C392.672 24.306 388.843 27.3415 386.5 30.2705M386.5 30.2705C381.033 24.6079 379.391 21.4392 377.75 18.2705C376.109 15.1018 374.467 11.9331 369 6.27046M386.5 30.2705C379.041 25.4061 376.771 20.6985 374.232 15.4334C372.856 12.5806 371.402 9.56416 369 6.27046M369 6.27046C365.485 11.9331 360.118 15.1018 354.75 18.2705C349.382 21.4392 344.015 24.6079 340.5 30.2705M340.5 30.2705C330 20.7705 323.5 12.2705 320.5 1.27046M340.5 30.2705C338.352 24.6079 334.426 20.1892 330.5 15.7705C326.574 11.3518 322.648 6.93306 320.5 1.27046M320.5 1.27046C313.471 6.93306 310.235 11.3518 307 15.7705C303.765 20.1892 300.529 24.6079 293.5 30.2705M293.5 30.2705C289.399 25.5842 288.7 21.9273 288 18.2705C287.3 14.6136 286.601 10.9568 282.5 6.27046M293.5 30.2705C287.61 26.2405 286.664 21.4418 285.637 16.2318C285.007 13.0384 284.348 9.69054 282.5 6.27046M282.5 6.27046C278.204 10.9568 272.352 14.6136 266.5 18.2705C260.648 21.9273 254.796 25.5842 250.5 30.2705M250.5 30.2705C244.447 25.5842 242.473 21.9273 240.5 18.2705C238.527 14.6136 236.553 10.9568 230.5 6.27046M250.5 30.2705C242.068 26.7033 239.446 21.6102 236.514 15.914C234.925 12.8276 233.245 9.56416 230.5 6.27046M230.5 6.27046C226.79 10.9568 221.145 14.6136 215.5 18.2705C209.855 21.9273 204.21 25.5842 200.5 30.2705M200.5 30.2705C193.861 25.5842 191.056 21.5523 188.25 17.5205C185.444 13.4886 182.639 9.45675 176 4.77046M200.5 30.2705C190.771 25.7304 187.381 20.5418 183.589 14.7388C181.535 11.5946 179.362 8.27002 176 4.77046M176 4.77046C176 10.4331 173.625 15.2268 171.25 20.0205C168.875 24.8142 166.5 29.6079 166.5 35.2705M166.5 35.2705C163.376 33.3178 161.563 30.6692 159.75 28.0205C157.937 25.3718 156.124 22.7231 153 20.7705M166.5 35.2705C160.338 33.0004 158.708 29.9575 156.885 26.5542C155.897 24.7102 154.853 22.7604 153 20.7705M153 20.7705C150.852 22.7231 148.551 25.3718 146.25 28.0205C143.949 30.6692 141.648 33.3178 139.5 35.2705M139.5 35.2705C139.5 29.6079 136.875 25.1892 134.25 20.7705C131.625 16.3518 129 11.9331 129 6.27046M139.5 35.2705C139.042 34.4959 138.585 33.7263 138.13 32.9621M129 6.27046C122.556 9.98044 120.153 12.8755 117.75 15.7705C115.347 18.6655 112.944 21.5605 106.5 25.2705M129 6.27046C126.677 13.7044 132.125 22.8653 138.123 32.9508M106.5 25.2705C101.814 20.5842 95.4069 16.9273 89 13.2705C82.5931 9.61361 76.1863 5.95675 71.5 1.27046M106.5 25.2705C90.2599 20.4423 84.0377 14.073 75.3186 5.14765C74.1054 3.90566 72.8437 2.61417 71.5 1.27046M71.5 1.27046C64.8611 5.95675 62.4305 9.61361 60 13.2705C57.5695 16.9273 55.1389 20.5842 48.5 25.2705M48.5 25.2705L38 4.77046M48.5 25.2705C38.8919 19.1213 38.7369 15.6308 38.4983 10.2577C38.4264 8.64048 38.347 6.85266 38 4.77046M38 4.77046C35.6569 9.45675 32.7034 12.2386 29.75 15.0205C26.7966 17.8023 23.8431 20.5842 21.5 25.2705M21.5 25.2705C18.3758 20.5842 18.3129 16.9273 18.25 13.2705C18.1987 10.2896 18.1475 7.30883 16.4382 3.77046M21.5 25.2705C13.7633 19.4679 14.9116 12.7301 16.2963 4.60478C16.3434 4.32829 16.3908 4.05019 16.4382 3.77046M651.5 25.2705V49.2705H0.5V25.2705C1.47631 20.5842 4.61316 16.9273 7.75 13.2705C10.8868 9.61361 14.0237 5.95675 15 1.27046C15.5776 2.13681 16.0505 2.96798 16.4382 3.77046M138.123 32.9508L138.13 32.9621M138.123 32.9508C138.126 32.9546 138.128 32.9583 138.13 32.9621" stroke="black"/>
<path d="M651.5 48.7705L651.5 25.4705" stroke="#317E01"/>
<path d="M0.500001 48.7705L0.5 25.4705" stroke="#317E01"/>
</svg>
