<?xml version="1.0" encoding="utf-8"?>
<svg xmlns="http://www.w3.org/2000/svg" viewBox="0 0 500 117.081">
  <path fill-rule="evenodd" fill="#338eda" fill-opacity="1" d="M 425.112 6.516 C 425.311 6.422 425.589 6.29 425.866 6.159 C 425.52 6.059 425.169 5.909 424.815 5.876 C 424.604 5.857 424.179 6.059 424.184 6.117 C 424.261 6.601 424.679 6.464 425.112 6.516 M 454.595 78.877 C 455.076 78.666 455.631 78.439 455.565 77.823 C 455.495 77.148 454.925 77.161 454.402 77.233 C 453.986 77.288 453.662 77.506 453.623 77.931 C 453.568 78.594 454.033 78.798 454.595 78.877 M 316.517 108.524 C 315.796 108.208 315.075 107.723 314.51 108.74 C 315.213 109.001 315.9 109.179 316.517 108.524 M 191.262 104.919 C 192.065 105.814 192.893 105.711 193.812 105.197 C 193.068 104.18 192.211 104.569 191.262 104.919 M 339.02 109.641 C 337.78 109.089 336.8 108.034 335.603 110.013 C 336.848 110.276 337.813 110.678 339.02 109.641 M 465.274 75.017 C 463.748 73.218 462.011 73.128 460.334 72.884 C 461.555 74.225 462.501 76.107 465.274 75.017 M 29.393 29.519 C 30.327 30.06 31.62 28.722 32.5 30.311 C 32.891 31.036 34.376 30.87 35.164 30.527 C 37.729 29.414 40.408 29.604 43.033 29.674 C 48.368 29.819 53.52 28.245 59.58 28.435 C 56.773 27.526 54.538 28.855 52.364 27.529 C 58.962 26.069 65.513 26.333 72.473 26.102 C 70.682 27.61 68.704 25.749 67.148 27.36 C 68.581 28.157 69.976 27.568 71.272 27.459 C 72.52 27.36 74.321 28.42 74.834 26.14 C 74.877 25.975 75.682 25.758 75.927 25.904 C 78.062 27.2 80.376 26.29 82.568 26.568 C 85.367 26.921 87.506 25.867 89.618 24.345 C 90.14 23.967 90.183 23.764 89.98 23.1 C 89.123 20.276 89.189 20.276 91.974 19.303 C 92.454 19.137 92.959 18.816 92.845 17.926 C 91.158 17.082 88.967 17.449 87.313 16.239 C 86.993 16.003 86.719 15.711 86.399 15.424 C 86.672 14.098 87.714 13.836 88.769 13.699 C 89.425 13.618 90.112 13.802 90.782 13.765 C 91.672 13.712 92.878 13.914 92.874 12.534 C 92.869 11.578 92.021 11.286 91.145 11.244 C 89.646 11.168 88.298 10.636 86.908 9.914 C 87.978 7.959 90.103 8.519 91.578 8.063 C 94.82 7.05 97.845 5.079 101.62 5.715 C 104.631 6.225 107.756 5.207 110.843 5.64 C 111.922 5.796 112.525 4.914 113.378 4.58 C 115.126 3.887 116.677 5.957 118.732 4.631 C 120.489 3.501 122.944 4.241 125.089 4.169 C 127.11 4.108 129.132 4.156 131.149 4.264 C 131.554 4.283 129.806 5.471 131.516 5.371 C 132.318 5.325 133.129 5.39 133.925 5.338 C 134.858 5.277 135.786 5.06 136.719 5.06 C 137.515 5.065 138.312 5.305 139.108 5.39 C 140.037 5.485 140.965 5.579 141.894 5.589 C 146.827 5.625 151.757 5.582 156.686 5.673 C 162.329 5.776 167.989 5.936 173.605 5.927 C 176.339 5.924 179.091 6.111 181.837 6.087 C 193.144 5.999 204.445 5.824 215.749 5.658 C 216.646 5.645 217.837 6.422 218.03 4.467 C 218.105 3.718 220.123 3.736 220.519 4.231 C 221.749 5.743 223.144 4.881 224.492 5.057 C 225.702 5.211 226.73 5.909 227.418 4.217 C 227.527 3.954 228.69 3.986 229.331 4.084 C 232.889 4.622 236.418 4.081 239.952 4.071 C 242.287 4.057 244.685 4.382 247.07 4.222 C 249.129 7.002 251.99 4.797 254.383 5.507 C 253.459 4.104 252.054 5.347 250.477 4.48 C 252.772 4.316 254.603 4.156 256.446 4.066 C 257.192 4.033 257.89 3.869 258.031 5.183 C 258.129 6.117 259.844 5.829 259.971 5.422 C 260.674 3.241 262.37 3.981 263.771 3.911 C 268.133 3.694 272.502 4.023 276.881 3.83 C 279.387 3.722 281.924 4.547 284.453 4.646 C 287.428 4.758 290.457 5.715 293.394 4.307 C 294.953 3.558 296.545 4.033 298.139 4.274 C 303.275 5.065 308.389 5.984 313.642 5.422 C 315.31 5.244 315.938 3.208 317.96 3.628 C 319.76 3.999 321.706 3.689 323.586 3.67 C 324.382 3.661 325.499 3.425 325.835 4.104 C 326.602 5.664 327.003 4.839 327.832 4.184 C 329.345 2.991 331.976 3.048 332.738 3.84 C 334.661 5.824 335.876 4.254 337.544 3.963 C 340.169 3.501 342.908 3.538 345.594 3.604 C 348.944 3.689 352.285 4.029 355.641 3.74 C 356.433 3.676 357.267 3.826 358.043 4.023 C 359.33 4.349 358.436 4.462 357.959 4.622 C 357.63 4.731 357.134 4.961 357.819 5.211 C 358.294 5.386 358.883 5.235 359.42 5.253 C 359.822 5.272 360.221 5.347 360.626 5.371 C 361.164 5.4 361.735 5.527 362.233 5.39 C 364.19 4.848 366.716 6.45 368.175 3.787 C 368.351 3.477 369.453 3.633 370.126 3.652 C 380.612 3.915 391.097 3.921 401.588 4.311 C 407.742 4.543 413.941 4.462 420.109 4.698 C 431.389 5.126 442.666 5.758 453.949 6.32 C 454.731 6.361 455.692 6.163 456.188 6.936 C 457.299 8.694 458.764 8.024 460.396 8.011 C 466.217 7.959 472.155 6.96 477.772 9.651 C 480.293 10.863 483.277 10.8 485.787 12.214 C 486.566 12.651 487.465 12.473 486.99 14.038 C 486.547 15.484 486.684 17.445 489.398 16.611 C 490.128 16.385 490.317 17.218 490.576 17.898 C 491.136 19.388 492.093 20.744 492.178 22.402 C 492.216 23.109 492.344 23.683 493.045 24.067 C 493.855 24.508 495.891 24.617 493.78 26.13 C 494.525 26.423 495.26 26.682 495.642 25.631 L 495.637 25.625 C 495.675 25.886 495.703 26.149 495.755 26.408 C 496.202 28.637 497.135 30.311 500.085 29.882 C 498.13 31.483 495.647 30.706 493.701 32.102 C 494.289 34.335 494.958 36.525 497.532 37.069 C 497.414 38.812 496.188 38.609 495.458 39.019 C 494.761 39.41 493.964 39.636 493.252 40.014 C 492.461 40.433 486.688 42.605 485.887 42.666 C 484.912 42.742 484.36 42.802 484.139 44.179 C 483.822 46.074 481.443 45.451 480.204 46.388 C 479.713 46.757 479.426 47.624 478.582 47.228 C 477.843 46.884 478.573 46.167 478.413 45.905 C 477.857 44.971 477.093 45.796 476.396 45.823 C 474.893 45.885 474.907 48.345 473.389 47.789 C 468.794 46.116 464.615 49.321 460.135 48.759 C 457.969 48.487 455.731 49.527 453.611 47.723 C 452.861 47.083 450.891 48.284 449.595 47.219 C 449.509 47.152 449.137 47.364 448.949 47.506 C 446.414 49.397 445.88 49.457 443.651 48.058 C 443.439 47.931 443.327 47.591 443.115 47.53 C 441.391 47.02 440.066 49.387 438.516 48.487 C 436.691 47.426 435.334 47.351 433.935 48.953 C 433.712 49.207 433.34 49.212 432.945 48.953 C 431.017 47.713 430.899 47.587 430.184 48.071 C 429.156 48.765 427.913 48.862 426.857 49.131 C 425.475 49.475 423.662 50.098 422.327 48.552 C 422.103 48.288 421.381 48.029 421.342 48.085 C 419.019 51.327 415.396 48.802 412.545 50.254 C 416.258 50.904 419.958 51.116 423.472 52.62 C 426.263 53.816 429.556 52.233 432.567 53.326 C 433.812 53.783 435.428 53.586 436.329 54.58 C 437.959 56.39 440.198 55.621 441.358 55.018 C 443.397 53.949 445.179 54.518 447.046 54.674 C 449.034 54.834 450.989 55.405 452.973 55.692 C 455.145 56.003 457.661 55.598 458.209 58.746 C 458.299 59.26 458.912 59.594 459.471 59.604 C 461.178 59.646 462.543 60.311 463.738 61.531 C 464.586 62.402 465.821 60.857 466.505 61.587 C 467.65 63.105 465.571 65.174 467.876 66.069 C 467.319 68.062 470.062 68.217 470.029 69.966 C 469.991 71.79 471.056 72.865 472.961 73.373 C 470.982 74.08 470.604 74.428 467.004 78.873 C 470.373 77.177 471.169 81.357 473.969 80.584 C 471.335 80.696 469.355 83.49 466.514 82.11 C 466.179 81.946 465.665 82.435 465.797 82.798 C 465.957 83.236 466.438 83.562 466.838 84.009 C 465.995 84.82 464.873 84.472 463.913 84.731 C 463.274 84.901 462.775 85.107 462.564 85.946 C 461.933 88.411 460.64 89.005 458.091 88.094 C 456.196 87.42 454.52 87.393 453.072 89.099 C 452.158 90.178 452.29 91.247 453.327 91.804 C 455.178 92.784 456.474 94.64 458.737 94.834 C 458.356 96.084 457.657 96.229 456.791 95.969 C 455.768 95.667 454.768 95.183 453.728 95.06 C 452.432 94.899 450.805 94.628 449.971 95.739 C 448.898 97.162 450.979 98.344 450.843 99.929 C 450.773 100.743 452.021 100.781 452.822 100.89 C 454.345 101.087 456.036 100.489 457.403 101.739 C 456.879 102.756 456.103 102.582 455.347 102.464 C 454.157 102.506 452.955 102.487 451.771 102.605 C 451.127 102.676 450.311 102.977 450.569 103.817 C 450.805 104.576 451.602 104.448 452.281 104.298 C 453.511 104.019 454.387 103.165 455.347 102.445 C 455.239 103.246 455.405 103.977 455.68 104.754 C 456.365 106.705 457.115 106.922 458.02 104.962 C 458.426 104.08 458.61 104.146 458.751 104.999 C 458.953 106.237 460.338 105.56 461.225 106.319 C 458.695 107.714 456.211 107.436 453.901 107.898 C 452.601 108.152 451.668 108.566 450.533 109.448 C 448.336 111.149 445.974 112.94 442.832 113.11 C 440.343 113.245 437.823 113.708 435.607 115.103 C 434.67 115.695 433.562 115.72 432.482 115.734 C 427.501 115.78 422.521 115.828 417.535 115.855 C 416.088 115.867 414.717 116.069 413.859 114.226 C 413.346 113.128 412.531 113.388 411.702 114.816 C 411.46 115.234 411.176 115.352 410.877 115.281 C 409.222 114.886 407.008 116.432 405.971 113.825 C 405.72 113.185 405.093 113.466 404.627 113.735 C 403.37 114.462 402.181 114.816 401.045 113.457 C 400.697 113.039 399.839 113 399.637 113.514 C 398.915 115.342 397.426 114.853 396.211 114.644 C 391.541 113.849 386.771 114.466 382.13 113.777 C 376.325 112.925 370.456 112.577 364.661 112.511 C 360.089 112.46 355.626 111.497 351.065 111.653 C 349.415 111.71 347.219 112.94 346.135 110.382 C 346.083 110.264 345.679 110.231 345.453 110.258 C 335.721 111.563 326.046 110.276 316.334 109.901 C 309.501 109.636 302.643 109.608 295.796 109.357 C 293.246 109.269 290.848 107.959 288.252 108.618 C 287.615 105.451 284.797 107.826 283.261 106.691 C 282.47 106.107 282.192 106.403 281.074 108.246 C 280.791 108.717 280.471 108.711 280.114 108.699 C 275.712 108.575 271.315 108.433 266.913 108.288 C 266.381 108.27 265.802 108.316 265.324 108.128 C 261.503 106.596 259.925 106.258 256.292 106.3 C 256.528 107.346 257.451 106.573 258.063 107.21 C 255.971 107.34 253.978 107.554 251.984 107.572 C 249.978 107.596 247.987 107.714 245.957 107.388 C 243.459 106.992 240.892 107.053 238.351 106.941 C 236.339 106.847 233.72 108.702 232.799 105.173 C 230.928 104.72 228.878 104.428 227.295 105.46 C 226.135 106.215 226.135 105.865 225.099 105.291 C 223.016 104.132 220.358 104.669 218.19 105.612 C 215.523 106.772 214.764 106.945 212.362 105.258 C 212.145 105.101 211.918 104.956 211.674 104.863 C 210.622 104.448 210.015 106.591 209.74 105.819 C 209.293 104.542 208.713 104.576 207.743 104.588 C 206.81 104.602 205.877 104.442 204.94 104.409 C 203.997 104.373 203.055 104.386 202.113 104.406 C 201.17 104.428 200.222 104.442 199.288 104.546 C 198.431 104.645 196.82 104.551 198.757 105.847 C 197.775 106.53 196.735 106.195 195.675 106.107 C 194.615 106.022 193.534 106.167 192.465 106.182 C 191.796 106.185 190.655 106.355 190.528 106.083 C 188.978 102.751 185.83 105.527 183.756 104.259 C 183.459 104.08 182.577 104.349 182.323 104.683 C 180.321 107.285 177.813 106.27 175.509 105.521 C 174.629 105.234 174.082 105.337 173.3 105.551 C 171.772 105.965 170.146 106.511 168.808 105.023 C 168.276 104.424 167.714 104.527 167.017 104.787 C 162.536 106.431 157.605 106.206 152.836 104.358 C 152.139 104.089 150.197 102.799 151.102 105.484 C 151.239 105.881 150.645 106.276 150.319 106.13 C 148.241 105.215 145.942 106.705 143.741 105.117 C 142.129 103.947 139.589 102.422 137.959 105.636 C 134.989 106.064 131.95 106.987 129.226 104.938 C 128.788 104.608 128.18 104.07 127.935 104.264 C 125.225 106.37 121.709 102.826 119.095 105.584 C 118.628 106.074 117.855 105.767 117.275 105.286 C 114.924 103.325 111.927 102.808 109.655 104.292 C 107.766 105.521 105.89 105.715 103.991 104.82 C 102.219 103.99 100.183 104.324 98.435 103.228 C 97.756 102.799 96.545 102.892 95.404 104.019 C 94.113 105.3 91.715 104.871 89.81 104.377 C 85.164 103.18 80.739 101.031 75.782 101.168 C 75.527 101.177 75.089 101.149 75.037 101.017 C 74.001 98.365 71.385 97.727 69.33 96.323 C 67.86 95.32 67.959 93.232 69.203 91.329 C 69.967 90.16 71.168 89.32 70.754 87.526 C 70.258 85.423 71.149 83.698 73.619 82.599 C 71.766 81.234 69.928 80.847 68.218 80.484 C 66.446 80.103 65.004 79.547 64.81 77.672 C 64.637 76.032 66.234 75.584 67.369 74.919 C 67.699 74.73 68.185 74.711 68.175 74.095 C 66.842 73.292 64.57 74.279 63.906 71.95 C 63.746 71.385 62.911 71.643 62.441 71.814 C 58.687 73.147 54.837 72.422 51.017 72.478 C 50.06 72.491 49.103 72.591 48.46 71.691 C 47.741 70.678 46.7 70.941 45.896 71.253 C 42.98 72.37 40.109 71.869 37.208 71.286 C 34.177 70.673 31.023 70.842 28.03 70.905 C 22.603 71.008 17.467 70.014 12.943 67.54 C 10.157 66.032 6.934 64.763 4.936 61.587 C 3.658 59.547 4.316 58.387 5.166 57.012 C 6.383 55.018 6.498 55.085 6.643 52.577 C 5.418 53.039 4.316 53.958 2.892 53.539 C 2.433 52.856 3.267 52.713 3.39 52.308 C 4.599 48.227 4.584 48.222 8.542 48.958 C 8.549 47.798 7.393 48.444 6.98 47.925 C 6.444 47.261 5.564 47.237 4.76 47.125 C 3.528 46.946 2.456 46.376 1.492 45.621 C 0.489 44.834 0.558 43.943 1.583 43.355 C 2.938 42.576 4.408 42.008 6.008 41.267 C 5.388 40.131 4.469 39.779 3.367 39.844 C 2.425 39.9 1.775 39.609 1.568 38.655 C 1.346 37.648 1.568 36.776 2.54 36.244 C 4.73 35.042 6.98 34.006 9.406 33.387 C 10.317 33.157 11.282 33.105 11.955 32.341 C 14.336 29.628 17.023 29.698 19.916 31.432 C 20.138 31.564 20.429 31.686 20.666 31.658 C 23.675 31.323 26.836 31.634 29.393 29.514 L 29.393 29.519 Z M 29.393 29.519" style="stroke-width: 1px;"/>
</svg>