<svg width="1675" height="1278" viewBox="0 0 1675 1278" fill="none" xmlns="http://www.w3.org/2000/svg">
<g filter="url(#filter0_d_0_1)">
<path d="M198.652 875.499C198.652 875.499 170.92 878.181 165.652 891.499C159.393 907.32 171.686 927.22 188.652 928.499C203.819 929.643 233.652 907.499 233.652 907.499L295.652 1004.5C295.652 1004.5 270.919 1031.1 270.652 1042.5C270.652 1042.5 290.652 1087.39 295.652 1067.5C300.652 1047.61 379.652 1012.5 397.652 1004.5C415.652 996.499 396.727 965.872 379.652 964.5C369.027 963.646 343.652 983.499 343.652 983.499L280.652 875.499C280.652 875.499 311.484 871.777 316.652 860.499C322.592 847.536 312.837 837.298 302.98 826.952C302.202 826.136 301.424 825.318 300.652 824.499C270.118 792.079 198.652 875.499 198.652 875.499Z" fill="#7E471F"/>
<path d="M400.652 880.499C405.329 893.768 407.195 909.924 408.993 925.493C412.805 958.5 416.313 988.868 445.652 983.499C454.783 981.829 460.586 980.519 467.652 974.5C478.203 965.511 468.46 954.242 458.242 942.424C448.159 930.763 437.613 918.566 445.652 907.499C457.264 891.512 474.42 886.963 493.652 891.499C506.266 894.475 508.813 908.018 511.284 921.159L511.284 921.161C513.833 934.714 516.301 947.84 529.652 948.5C541.617 949.091 548.908 945.469 558.652 938.5C592.46 914.318 551.291 852.231 510.652 843.499C497.882 840.756 487.826 848.391 478.09 855.784C467.575 863.768 457.434 871.468 444.652 865.499C437.218 862.028 434.433 854.456 431.776 847.233C428.764 839.046 425.917 831.308 416.652 830.499C404.642 829.451 394.567 832.994 388.652 843.499C383.733 852.235 388.335 859.317 393.484 867.241C396.137 871.323 398.935 875.628 400.652 880.499Z" fill="#7E471F"/>
<path d="M629.651 938.5C538.757 922.528 578.651 697.499 578.651 697.499C578.651 697.499 611.087 690.286 629.651 697.499C652.032 706.195 645.781 731.101 639.393 756.548C633.072 781.731 626.617 807.444 647.651 818.499C664.324 827.262 679.23 818.857 694.377 810.317C708.979 802.083 723.805 793.724 740.651 800.5C787.426 819.311 832.905 903.926 785.651 921.499C769.18 927.625 756.74 928.57 740.651 921.499C726.652 915.347 726.463 900.063 726.276 884.847C726.087 869.54 725.899 854.301 711.651 848.499C690.721 839.975 670.79 842.679 654.651 858.499C644.645 868.308 650.41 882.615 655.942 896.347C661.666 910.552 667.142 924.142 654.651 931.499C650.632 933.867 648.193 935.684 646.411 937.011L646.41 937.012C641.781 940.46 641.595 940.598 629.651 938.5Z" fill="#7E471F"/>
<path fill-rule="evenodd" clip-rule="evenodd" d="M906.651 810.5C906.651 810.5 954.153 837.945 977.652 822.499C997.895 809.193 1002.16 788.595 999.652 764.5C994.355 713.606 917.874 714.551 871.651 736.5C810.907 765.344 795.719 853.743 838.651 905.499C870.885 944.358 933.311 978.854 963.652 938.5C974.264 924.384 980.276 912.963 977.652 895.499C974.873 877.005 955.434 880.781 934.731 884.802C914.397 888.752 892.843 892.938 884.651 876.499C871.876 850.862 898.651 804.5 898.651 804.5L901.5 807L906.651 810.5ZM925.874 802.83C922.519 796.652 919.323 787.377 925.874 784.83C928.422 783.839 932.874 784.83 932.874 784.83C932.874 784.83 964.078 776.92 965.874 789.83C967.084 798.522 961.65 804.76 953.874 808.83C943.966 814.015 931.211 812.657 925.874 802.83Z" fill="#7E471F"/>
<path d="M1029.65 974.5C1043.6 989.491 1048.25 989.849 1067.65 991.344C1068.3 991.395 1068.97 991.446 1069.65 991.5C1093.44 993.351 1096.9 971.393 1100.74 946.976C1104.11 925.587 1107.77 902.311 1125.65 891.499C1137.74 884.193 1153.52 886.544 1167.93 888.69C1185.94 891.375 1201.82 893.74 1205.65 876.499C1209.84 857.669 1203.8 841.048 1187.65 830.499C1177 823.542 1150.25 829.472 1138 838.829C1125.98 848.015 1107.15 845.718 1118.5 840.5C1128.66 835.829 1130.21 834.816 1136.64 829.498C1143.08 824.183 1149.52 818.866 1147.65 810.5C1143.62 792.39 1121.42 775.265 1106.65 786.5C1098.59 792.638 1096.77 810.5 1096.77 810.5C1096.77 810.5 984.182 925.643 1029.65 974.5Z" fill="#7E471F"/>
<path d="M1227.65 884.499C1192.8 904.609 1189.84 924.27 1185.96 950.107C1184.05 962.815 1181.92 977.016 1175.65 993.499C1156.65 1043.5 1183.65 1061.5 1220.65 1017.5C1248.97 983.823 1253.86 966.549 1263.11 933.846L1263.11 933.842C1263.11 933.838 1263.11 933.833 1263.12 933.829C1265.95 923.807 1269.2 912.335 1273.65 898.499C1290.15 847.27 1282.52 851.832 1246.19 873.561C1240.67 876.857 1234.5 880.548 1227.65 884.499Z" fill="#7E471F"/>
<path d="M1260.65 793.5C1249.89 806.763 1253.84 827.993 1268.65 836.499C1285.67 846.271 1312.4 830.109 1311.65 810.5C1310.85 789.521 1273.88 777.197 1260.65 793.5Z" fill="#7E471F"/>
<path d="M1257.65 1083.5C1257.65 1083.5 1274.25 1092.53 1285.19 1100.5C1316.18 1123.07 1337.8 1091.7 1356.19 1052.5C1358.55 1047.47 1360.85 1042.3 1363.16 1037.13L1363.16 1037.12C1378.37 1003.02 1393.76 968.5 1427.19 968.5C1429.99 968.5 1431.21 968.279 1431.72 968.187C1431.94 968.148 1432.02 968.132 1432.05 968.166C1432.07 968.189 1432.06 968.237 1432.05 968.317C1431.97 968.703 1431.75 969.853 1433.89 972.762C1438.49 978.997 1443.14 985.306 1451.65 985.973C1476.17 987.894 1498.54 967.547 1497.65 942.972C1497.22 931.005 1486.13 926.955 1474.94 922.868C1471.91 921.759 1469.73 921.29 1468.15 920.95C1463.98 920.05 1463.97 920.047 1463.19 911.499C1462.02 898.66 1474.52 893.029 1486.83 887.489C1499.31 881.872 1511.58 876.349 1509.19 863.499C1505.13 841.765 1485.11 827.651 1463.19 830.5C1452.98 831.826 1449.03 840.557 1445.05 849.35C1441.13 858.016 1437.18 866.742 1427.19 868.499C1425.32 868.828 1423.83 869.148 1422.62 869.41C1420.21 869.927 1418.86 870.218 1417.67 869.906C1416.13 869.505 1414.85 868.102 1411.93 864.893C1411.81 864.765 1411.69 864.633 1411.57 864.499C1404.83 857.105 1398.08 849.702 1387.58 851.466C1365.74 855.136 1350.64 872.313 1350.58 894.466C1350.56 903.433 1357.71 908.868 1364.59 914.098C1366.04 915.207 1367.16 915.959 1368.01 916.524C1369.27 917.374 1369.9 917.799 1370.1 918.371C1370.29 918.942 1370.04 919.659 1369.55 921.091C1369.2 922.12 1368.72 923.52 1368.19 925.499C1360.3 954.733 1333.46 970.451 1306.96 985.973C1276.35 1003.9 1246.19 1021.57 1246.19 1059.5C1246.19 1075.5 1257.65 1083.5 1257.65 1083.5Z" fill="#7E471F"/>
<path fill-rule="evenodd" clip-rule="evenodd" d="M107.652 1030.5C108.675 1016.18 119.369 1005.98 133.652 1004.5C135.713 1004.29 137.754 1004.29 139.75 1004.5L119.652 1055.34C111.797 1049.87 106.921 1040.74 107.652 1030.5ZM135.875 1070.83C152.913 1072.6 169.087 1057.92 167.874 1040.83C167.387 1033.96 162.171 1017.58 157.651 1013.03C155.869 1011.24 153.849 1009.68 151.652 1008.39L135.875 1070.83Z" fill="#99928C"/>
<path d="M119.652 1055.34C120.24 1055.74 120.844 1056.13 121.463 1056.5C125.027 1058.61 129.104 1060 133.488 1060.48C133.499 1060.48 133.51 1060.48 133.521 1060.49C133.544 1060.49 133.568 1060.49 133.592 1060.49C133.594 1060.49 133.596 1060.49 133.598 1060.49C133.602 1060.49 133.605 1060.49 133.608 1060.5C133.623 1060.5 135.86 1070.83 135.875 1070.83L151.652 1008.39C148.069 1006.3 144.015 1004.94 139.75 1004.5L119.652 1055.34Z" fill="#77716C"/>
<path fill-rule="evenodd" clip-rule="evenodd" d="M1454.9 1048.5C1452.15 1043.89 1450.9 1038.36 1451.65 1032.5C1453.39 1019.01 1465.06 1009.98 1478.65 1010.5C1485.51 1010.76 1491.6 1013.28 1496.08 1017.5L1491.88 1027.83L1454.9 1048.5ZM1463.65 1057.25C1463.72 1057.3 1463.79 1057.34 1463.86 1057.38C1463.98 1057.45 1464.1 1057.52 1464.23 1057.59C1464.37 1057.67 1464.51 1057.75 1464.65 1057.83C1466.79 1059 1471.36 1070.24 1473.88 1070.83C1490.04 1074.64 1508.13 1059.28 1505.88 1042.83C1505.54 1040.41 1502.69 1027.81 1501.8 1025.72C1501.62 1025.31 1501.44 1024.9 1501.24 1024.5C1486.56 1037.29 1478.33 1044.46 1463.65 1057.25Z" fill="#99928C"/>
<path d="M1491.88 1027.83L1454.9 1048.5C1457.01 1052.04 1460 1055.05 1463.65 1057.25C1478.33 1044.46 1486.56 1037.29 1501.24 1024.5C1499.93 1021.83 1498.18 1019.48 1496.08 1017.5L1491.88 1027.83Z" fill="#77716C"/>
<path d="M925.874 784.83C919.323 787.377 922.519 796.652 925.874 802.83C931.211 812.657 943.966 814.015 953.874 808.83C961.65 804.76 967.084 798.522 965.874 789.83C964.078 776.92 932.874 784.83 932.874 784.83C932.874 784.83 928.422 783.839 925.874 784.83Z" fill="#FFBF8F"/>
<path fill-rule="evenodd" clip-rule="evenodd" d="M318.875 1158.33C175.501 1217.67 31.9746 1233.9 20.8744 1065.67C4.00895 810.046 233.217 656.731 526.374 592.558C535.316 590.6 544.318 588.726 553.374 586.934C649.638 567.886 752.041 558.167 854.374 557.329C919.605 556.795 984.808 559.144 1048.37 565.298C1103.1 570.595 1156.61 578.713 1207.88 590.24C1398.64 633.129 1558.43 723.214 1634.38 890.829C1695.59 1025.91 1558.44 1226.77 1425.42 1247.31C1393.39 1252.25 1361.6 1246.74 1332.88 1227.33C947.538 966.966 469.874 1095.83 318.875 1158.33ZM1318.65 1172.5C1214.65 1050.5 563.652 936.5 334.652 1096.5C105.652 1256.5 27.3355 1041.25 64.652 928.499C204.652 505.499 1425.65 443.499 1609.65 898.499C1676.05 1062.69 1422.65 1294.5 1318.65 1172.5Z" fill="#AA5F27"/>
<path d="M1117.87 80.8293C1118.74 98.5061 1135.16 107.447 1152.7 109.829C1159.1 110.698 1165.92 110.058 1172.37 108.199C1172.37 108.199 1163.68 88.8743 1152.7 82.8293C1140.76 76.2614 1117.87 80.8293 1117.87 80.8293Z" fill="black"/>
<path d="M1200.87 72.3293C1196.56 51.846 1173.27 44.9322 1152.7 48.8293C1134.55 52.2677 1116.97 62.3817 1117.87 80.8293C1117.87 80.8293 1140.76 76.2614 1152.7 82.8293C1163.68 88.8743 1172.37 108.199 1172.37 108.199C1189.76 103.191 1204.46 89.3424 1200.87 72.3293Z" fill="white"/>
<path d="M185.257 865.829C185.257 865.829 157.525 868.511 152.257 881.829C145.998 897.65 158.291 917.55 175.257 918.829C190.424 919.973 220.257 897.829 220.257 897.829L282.257 994.829C282.257 994.829 257.524 1021.43 257.257 1032.83C257.257 1032.83 277.257 1077.72 282.257 1057.83C287.257 1037.94 366.257 1002.83 384.257 994.829C402.257 986.829 383.332 956.202 366.257 954.83C355.632 953.976 330.257 973.829 330.257 973.829L267.257 865.829C267.257 865.829 298.089 862.107 303.257 850.829C309.197 837.866 299.443 827.628 289.585 817.282C288.807 816.466 288.029 815.648 287.257 814.829C256.723 782.409 185.257 865.829 185.257 865.829Z" fill="#AA5F27"/>
<path d="M387.257 870.829C391.934 884.098 393.8 900.254 395.598 915.823C399.41 948.829 402.918 979.198 432.257 973.829C441.388 972.159 447.191 970.849 454.257 964.83C464.809 955.841 455.065 944.572 444.847 932.754C434.764 921.093 424.218 908.896 432.257 897.829C443.869 881.842 461.025 877.293 480.257 881.829C492.871 884.805 495.418 898.348 497.889 911.49C500.437 925.044 502.905 938.17 516.257 938.83C528.222 939.421 535.513 935.799 545.257 928.83C579.065 904.648 537.896 842.561 497.257 833.829C484.487 831.086 474.431 838.721 464.695 846.114C454.18 854.098 444.039 861.798 431.257 855.829C423.823 852.358 421.038 844.786 418.381 837.563C415.369 829.376 412.522 821.638 403.257 820.829C391.247 819.781 381.172 823.324 375.257 833.829C370.338 842.565 374.94 849.646 380.089 857.571C382.742 861.653 385.54 865.958 387.257 870.829Z" fill="#AA5F27"/>
<path d="M616.256 928.83C525.362 912.858 565.256 687.829 565.256 687.829C565.256 687.829 597.692 680.616 616.256 687.829C638.637 696.525 632.386 721.431 625.998 746.878C619.677 772.061 613.222 797.774 634.256 808.829C650.929 817.592 665.835 809.187 680.982 800.647C695.584 792.414 710.41 784.054 727.256 790.83C774.031 809.641 819.51 894.256 772.256 911.829C755.785 917.955 743.345 918.9 727.256 911.829C713.257 905.677 713.068 890.393 712.881 875.177C712.692 859.87 712.504 844.631 698.256 838.829C677.326 830.305 657.395 833.009 641.256 848.829C631.25 858.638 637.015 872.945 642.547 886.677C648.271 900.882 653.747 914.472 641.256 921.829C637.236 924.198 634.797 926.015 633.015 927.342C628.385 930.79 628.2 930.928 616.256 928.83Z" fill="#AA5F27"/>
<path fill-rule="evenodd" clip-rule="evenodd" d="M893.256 800.83C893.256 800.83 940.758 828.275 964.257 812.829C984.5 799.523 988.765 778.925 986.257 754.83C980.96 703.936 904.479 704.881 858.256 726.83C797.512 755.674 782.324 844.073 825.256 895.829C857.49 934.688 919.916 969.184 950.257 928.83C960.869 914.714 966.88 903.293 964.257 885.829C961.478 867.335 942.039 871.111 921.336 875.132C901.002 879.082 879.448 883.268 871.256 866.829C858.481 841.192 885.256 794.83 885.256 794.83L888 797.5L893.256 800.83ZM910.256 782.83C906.902 776.652 903.705 767.377 910.256 764.83C912.804 763.839 917.256 764.83 917.256 764.83C917.256 764.83 948.46 756.92 950.257 769.83C951.466 778.522 946.032 784.76 938.256 788.83C928.348 794.015 915.594 792.657 910.256 782.83Z" fill="#AA5F27"/>
<path d="M1016.26 964.83C1030.21 979.821 1034.85 980.179 1054.25 981.674C1054.9 981.725 1055.57 981.776 1056.26 981.83C1080.05 983.681 1083.5 961.723 1087.34 937.306C1090.71 915.917 1094.37 892.641 1112.26 881.829C1124.35 874.523 1140.12 876.874 1154.53 879.02C1172.55 881.705 1188.42 884.07 1192.26 866.829C1196.45 847.999 1190.41 831.378 1174.26 820.829C1163.61 813.872 1149.33 824.784 1137.08 834.141C1125.06 843.327 1115 851.014 1112.26 838.829C1110.38 830.462 1116.81 825.146 1123.25 819.828C1129.68 814.513 1136.12 809.196 1134.26 800.83C1130.23 782.72 1108.02 765.595 1093.26 776.83C1085.19 782.968 1083.37 800.83 1083.37 800.83C1083.37 800.83 970.787 915.973 1016.26 964.83Z" fill="#AA5F27"/>
<path d="M1214.26 874.829C1179.4 894.939 1176.45 914.6 1172.57 940.438C1170.66 953.145 1168.52 967.346 1162.26 983.829C1143.26 1033.83 1170.26 1051.83 1207.26 1007.83C1235.58 974.153 1240.46 956.879 1249.72 924.176C1252.55 914.149 1255.8 902.673 1260.26 888.829C1276.76 837.6 1269.13 842.162 1232.79 863.891C1227.28 867.187 1221.11 870.878 1214.26 874.829Z" fill="#AA5F27"/>
<path d="M1247.26 783.83C1236.5 797.093 1240.45 818.323 1255.26 826.829C1272.28 836.601 1299.01 820.439 1298.26 800.83C1297.46 779.851 1260.49 767.527 1247.26 783.83Z" fill="#AA5F27"/>
<path d="M1244.26 1073.83C1244.26 1073.83 1260.85 1082.86 1271.79 1090.83C1302.79 1113.4 1324.41 1082.03 1342.79 1042.83C1360.72 1004.62 1375.29 958.83 1413.79 958.83C1422.6 958.83 1415.75 956.658 1420.5 963.092C1425.1 969.327 1429.75 975.636 1438.26 976.303C1462.77 978.224 1485.14 957.877 1484.26 933.302C1483.83 921.335 1472.74 917.285 1461.55 913.198C1450.49 909.159 1450.87 913.612 1449.79 901.829C1448.62 888.99 1461.13 883.359 1473.44 877.819C1485.92 872.202 1498.19 866.678 1495.79 853.829C1491.74 832.095 1471.72 817.981 1449.79 820.83C1439.58 822.156 1435.63 830.887 1431.65 839.68C1427.73 848.346 1423.78 857.072 1413.79 858.829C1403.28 860.678 1404.93 862.241 1398.17 854.829C1391.43 847.435 1384.69 840.032 1374.19 841.796C1352.34 845.466 1337.24 862.643 1337.19 884.796C1337.17 893.763 1344.31 899.198 1351.19 904.428C1358.6 910.066 1357.31 906.499 1354.79 915.829C1346.9 945.062 1320.07 960.781 1293.57 976.303C1262.96 994.232 1232.79 1011.9 1232.79 1049.83C1232.79 1065.83 1244.26 1073.83 1244.26 1073.83Z" fill="#AA5F27"/>
<path d="M910.256 764.83C903.705 767.377 906.902 776.652 910.256 782.83C915.594 792.657 928.348 794.015 938.256 788.83C946.032 784.76 951.466 778.522 950.257 769.83C948.46 756.92 917.256 764.83 917.256 764.83C917.256 764.83 912.804 763.839 910.256 764.83Z" fill="#FFBF8F"/>
<path fill-rule="evenodd" clip-rule="evenodd" d="M526.374 592.558C526.374 592.558 531.087 507.05 497.257 472.829C485.66 464.783 481.185 471.193 472.925 483.026C467.768 490.413 461.136 499.913 450.374 509.329C431.71 525.661 478.374 452.329 478.374 452.329L503.874 457.829L526.374 436.329C526.374 436.329 607.134 435.706 585.374 443.829C576.24 445.767 567.803 445.012 560.071 444.321C545.984 443.062 534.236 442.011 524.874 457.829C524.874 507.688 534.716 535.052 551.676 582.211C552.235 583.764 552.801 585.337 553.374 586.934C544.318 588.726 535.316 590.6 526.374 592.558Z" fill="#256D1F"/>
<path d="M530.374 457.829C534.374 442.829 547.874 457.829 585.374 443.829C576.24 445.767 567.803 445.012 560.071 444.321C545.984 443.062 534.236 442.011 524.874 457.829C524.874 507.688 534.716 535.052 551.676 582.211C552.235 583.764 552.801 585.337 553.374 586.934C553.374 586.934 526.374 472.829 530.374 457.829Z" fill="#1A4C16"/>
<path fill-rule="evenodd" clip-rule="evenodd" d="M1207.88 590.24C1156.61 578.713 1103.1 570.595 1048.37 565.298C1048.37 565.298 1149.88 378.329 1138.87 223.085C1103.4 223.057 1060.43 219.02 1031.88 202.775C1047.87 202.775 1065.28 206.737 1082.33 210.618C1121.24 219.476 1158.28 227.908 1172.37 187.829L1167.87 185.086C1153.78 225.165 1116.74 216.733 1077.83 207.875C1060.78 203.994 1043.37 200.031 1027.37 200.031C1027.04 199.812 1026.71 199.591 1026.37 199.367C1014.05 191.048 1005.15 179.976 1001.88 165.329C984.227 86.3293 1125.87 36.3294 1200.87 18.3293C1221.9 32.0934 1241.31 43.0313 1258.66 52.8157C1309.41 81.4177 1342.66 100.162 1347.87 150.829C1345.12 319.578 1298 412.485 1218.33 569.618C1214.9 576.369 1211.42 583.24 1207.88 590.24ZM1116.03 80.6311C1116.94 99.3217 1134.23 108.775 1152.7 111.294C1159.43 112.213 1166.62 111.536 1173.42 109.57C1191.72 104.275 1207.2 89.6324 1203.42 71.6437C1198.88 49.9857 1174.35 42.6755 1152.7 46.796C1133.59 50.4317 1115.08 61.1256 1116.03 80.6311Z" fill="white"/>
<path d="M1207.88 590.24C1207.88 590.24 1427.1 242.829 1377.87 129.329C1328.65 15.8292 1275.88 0.329292 1200.87 18.3293C1221.9 32.0934 1241.31 43.0313 1258.66 52.8157C1309.41 81.4177 1342.66 100.162 1347.87 150.829C1345.12 319.578 1298 412.485 1218.33 569.618C1214.9 576.369 1211.42 583.24 1207.88 590.24Z" fill="#B9B9B9"/>
<path fill-rule="evenodd" clip-rule="evenodd" d="M334.652 1096.5C563.652 936.5 1214.65 1050.5 1318.65 1172.5C1422.65 1294.5 1676.05 1062.69 1609.65 898.499C1425.65 443.499 204.652 505.499 64.652 928.499C27.3355 1041.25 105.652 1256.5 334.652 1096.5ZM165.652 891.499C170.92 878.181 198.652 875.499 198.652 875.499C198.652 875.499 270.118 792.079 300.652 824.499C301.424 825.318 302.202 826.136 302.98 826.952C312.837 837.298 322.592 847.536 316.652 860.499C311.484 871.777 280.652 875.499 280.652 875.499L343.652 983.499C343.652 983.499 369.027 963.646 379.652 964.5C396.727 965.872 415.652 996.499 397.652 1004.5C379.652 1012.5 300.652 1047.61 295.652 1067.5C290.652 1087.39 270.652 1042.5 270.652 1042.5C270.919 1031.1 295.652 1004.5 295.652 1004.5L233.652 907.499C233.652 907.499 203.819 929.643 188.652 928.499C171.686 927.22 159.393 907.32 165.652 891.499ZM445.652 983.499C416.313 988.868 412.805 958.5 408.993 925.493C407.195 909.924 405.329 893.768 400.652 880.499C398.935 875.628 396.137 871.323 393.484 867.241C388.335 859.317 383.733 852.235 388.652 843.499C394.567 832.994 404.642 829.451 416.652 830.499C425.917 831.308 428.764 839.046 431.776 847.233C434.433 854.456 437.218 862.028 444.652 865.499C457.434 871.468 467.575 863.768 478.09 855.784C487.826 848.391 497.882 840.756 510.652 843.499C551.291 852.231 592.46 914.318 558.652 938.5C548.908 945.469 541.617 949.091 529.652 948.5C516.301 947.84 513.833 934.714 511.284 921.161L511.284 921.159C508.813 908.018 506.266 894.475 493.652 891.499C474.42 886.963 457.264 891.512 445.652 907.499C437.613 918.566 448.159 930.763 458.242 942.424C468.46 954.242 478.203 965.511 467.652 974.5C460.586 980.519 454.783 981.829 445.652 983.499ZM578.651 697.499C578.651 697.499 538.757 922.528 629.651 938.5C641.595 940.598 641.781 940.46 646.41 937.012L646.411 937.011C648.193 935.684 650.632 933.867 654.651 931.499C667.142 924.142 661.666 910.552 655.942 896.347C650.41 882.615 644.645 868.308 654.651 858.499C670.79 842.679 690.721 839.975 711.651 848.499C725.899 854.301 726.087 869.54 726.276 884.847C726.463 900.063 726.652 915.347 740.651 921.499C756.74 928.57 769.18 927.625 785.651 921.499C832.905 903.926 787.426 819.311 740.651 800.5C723.805 793.724 708.979 802.083 694.377 810.317C679.23 818.857 664.324 827.262 647.651 818.499C626.617 807.444 633.072 781.731 639.393 756.548C645.781 731.101 652.032 706.195 629.651 697.499C611.087 690.286 578.651 697.499 578.651 697.499ZM977.652 822.499C954.153 837.945 906.651 810.5 906.651 810.5L901.5 807L898.651 804.5C898.651 804.5 871.876 850.862 884.651 876.499C892.843 892.938 914.397 888.752 934.731 884.802C955.434 880.781 974.873 877.005 977.652 895.499C980.276 912.963 974.264 924.384 963.652 938.5C933.311 978.854 870.885 944.358 838.651 905.499C795.719 853.743 810.907 765.344 871.651 736.5C917.874 714.551 994.355 713.606 999.652 764.5C1002.16 788.595 997.895 809.193 977.652 822.499ZM1069.65 991.5C1068.97 991.446 1068.3 991.395 1067.65 991.344C1048.25 989.849 1043.6 989.491 1029.65 974.5C984.182 925.643 1096.77 810.5 1096.77 810.5C1096.77 810.5 1098.59 792.638 1106.65 786.5C1121.42 775.265 1143.62 792.39 1147.65 810.5C1149.52 818.866 1143.08 824.183 1136.64 829.498C1130.21 834.816 1128.66 835.829 1118.5 840.5C1107.15 845.718 1125.98 848.015 1138 838.829C1150.25 829.472 1177 823.542 1187.65 830.499C1203.8 841.048 1209.84 857.669 1205.65 876.499C1201.82 893.74 1185.94 891.375 1167.93 888.69C1153.52 886.544 1137.74 884.193 1125.65 891.499C1107.77 902.311 1104.11 925.587 1100.74 946.976C1096.9 971.393 1093.44 993.351 1069.65 991.5ZM1175.65 993.499C1181.92 977.016 1184.05 962.815 1185.96 950.107C1189.84 924.27 1192.8 904.609 1227.65 884.499C1234.5 880.548 1240.67 876.857 1246.19 873.561C1282.52 851.832 1290.15 847.27 1273.65 898.499C1269.2 912.335 1265.95 923.807 1263.12 933.829L1263.11 933.842L1263.11 933.846C1253.86 966.549 1248.97 983.823 1220.65 1017.5C1183.65 1061.5 1156.65 1043.5 1175.65 993.499ZM1268.65 836.499C1253.84 827.993 1249.89 806.763 1260.65 793.5C1273.88 777.197 1310.85 789.521 1311.65 810.5C1312.4 830.109 1285.67 846.271 1268.65 836.499ZM1285.19 1100.5C1274.25 1092.53 1257.65 1083.5 1257.65 1083.5C1257.65 1083.5 1246.19 1075.5 1246.19 1059.5C1246.19 1021.57 1276.35 1003.9 1306.96 985.973C1333.46 970.451 1360.3 954.733 1368.19 925.499C1368.72 923.52 1369.2 922.12 1369.55 921.091C1370.04 919.659 1370.29 918.942 1370.1 918.371C1369.9 917.799 1369.27 917.374 1368.01 916.524C1367.16 915.959 1366.04 915.207 1364.59 914.098C1357.71 908.868 1350.56 903.433 1350.58 894.466C1350.64 872.313 1365.74 855.136 1387.58 851.466C1398.08 849.702 1404.83 857.105 1411.57 864.499L1411.93 864.893C1414.85 868.102 1416.13 869.505 1417.67 869.906C1418.86 870.218 1420.21 869.927 1422.62 869.41C1423.83 869.148 1425.32 868.828 1427.19 868.499C1437.18 866.742 1441.13 858.016 1445.05 849.35C1449.03 840.557 1452.98 831.826 1463.19 830.5C1485.11 827.651 1505.13 841.765 1509.19 863.499C1511.58 876.349 1499.31 881.872 1486.83 887.489C1474.52 893.029 1462.02 898.66 1463.19 911.499C1463.97 920.047 1463.98 920.05 1468.15 920.95C1469.73 921.29 1471.91 921.759 1474.94 922.868C1486.13 926.955 1497.22 931.005 1497.65 942.972C1498.54 967.547 1476.17 987.894 1451.65 985.973C1443.14 985.306 1438.49 978.997 1433.89 972.762C1431.75 969.853 1431.97 968.703 1432.05 968.317C1432.06 968.237 1432.07 968.189 1432.05 968.166C1432.02 968.132 1431.94 968.148 1431.72 968.187C1431.21 968.279 1429.99 968.5 1427.19 968.5C1393.76 968.5 1378.37 1003.02 1363.16 1037.12L1363.16 1037.13C1360.85 1042.3 1358.55 1047.47 1356.19 1052.5C1337.8 1091.7 1316.18 1123.07 1285.19 1100.5ZM133.652 1004.5C119.369 1005.98 108.675 1016.18 107.652 1030.5C106.921 1040.74 111.797 1049.87 119.652 1055.34C120.24 1055.74 120.844 1056.13 121.463 1056.5C125.027 1058.61 129.104 1060 133.488 1060.48C133.499 1060.48 133.51 1060.48 133.521 1060.49L133.488 1060.48C168.505 1067.66 177.99 1027.47 157.651 1013.03C155.869 1011.24 153.849 1009.68 151.652 1008.39C148.069 1006.3 144.015 1004.94 139.75 1004.5C137.754 1004.29 135.713 1004.29 133.652 1004.5ZM133.608 1060.5C133.605 1060.49 133.602 1060.49 133.598 1060.49C133.596 1060.49 133.594 1060.49 133.592 1060.49L133.598 1060.49L133.608 1060.5ZM1501.24 1024.5C1501.44 1024.9 1501.62 1025.31 1501.8 1025.72C1513.5 1043.26 1495 1074.43 1464.65 1057.83C1464.51 1057.75 1464.37 1057.67 1464.23 1057.59C1464.1 1057.52 1463.98 1057.45 1463.86 1057.38C1463.79 1057.34 1463.72 1057.3 1463.65 1057.25C1460 1055.05 1457.01 1052.04 1454.9 1048.5C1452.15 1043.89 1450.9 1038.36 1451.65 1032.5C1453.39 1019.01 1465.06 1009.98 1478.65 1010.5C1485.51 1010.76 1491.6 1013.28 1496.08 1017.5C1498.18 1019.48 1499.93 1021.83 1501.24 1024.5Z" fill="#FFBF8F"/>
<path d="M1634.38 890.829C1695.59 1025.91 1558.44 1226.77 1425.42 1247.31C1607.37 1246.61 1697.98 994.213 1634.38 890.829Z" fill="#7E471F"/>
<path d="M1332.88 1227.33C947.538 966.966 469.874 1095.83 318.875 1158.33C727.256 1100.5 901.5 985.973 1332.88 1227.33Z" fill="#7E471F"/>
</g>
<path d="M633.5 371.5C670 371.5 668 371.5 670 408C672.5 371.5 672.5 371.5 711 371.5C672.5 371.5 672.5 371.5 670 337.5C670 371.5 672.5 371.5 633.5 371.5Z" fill="#FBED4C"/>
<path d="M323.5 312C351.5 315 355.5 310 354.5 345C355.921 321.787 350.61 316.079 374.287 310.866C347.297 316.101 356.5 307.5 354.5 288.5C353 313.5 353.5 314 323.5 312Z" fill="#FBED4C"/>
<path d="M374.287 310.866C350.61 316.079 355.921 321.787 354.5 345C355.5 310 351.5 315 323.5 312C353.5 314 353 313.5 354.5 288.5C356.5 307.5 347.297 316.101 374.287 310.866ZM374.287 310.866C375.595 310.612 376.997 310.324 378.5 310C377.002 310.289 375.6 310.577 374.287 310.866ZM633.5 371.5C670 371.5 668 371.5 670 408C672.5 371.5 672.5 371.5 711 371.5C672.5 371.5 672.5 371.5 670 337.5C670 371.5 672.5 371.5 633.5 371.5Z" stroke="black"/>
<defs>
<filter id="filter0_d_0_1" x="0" y="0" width="1674.64" height="1277.02" filterUnits="userSpaceOnUse" color-interpolation-filters="sRGB">
<feFlood flood-opacity="0" result="BackgroundImageFix"/>
<feColorMatrix in="SourceAlpha" type="matrix" values="0 0 0 0 0 0 0 0 0 0 0 0 0 0 0 0 0 0 127 0" result="hardAlpha"/>
<feOffset dy="8"/>
<feGaussianBlur stdDeviation="10"/>
<feComposite in2="hardAlpha" operator="out"/>
<feColorMatrix type="matrix" values="0 0 0 0 0.360577 0 0 0 0 0.218036 0 0 0 0 0.11268 0 0 0 0.4 0"/>
<feBlend mode="normal" in2="BackgroundImageFix" result="effect1_dropShadow_0_1"/>
<feBlend mode="normal" in="SourceGraphic" in2="effect1_dropShadow_0_1" result="shape"/>
</filter>
</defs>
</svg>
