<svg width="2304" height="2341" viewBox="0 0 2304 2341" fill="none" xmlns="http://www.w3.org/2000/svg">
<path fill-rule="evenodd" clip-rule="evenodd" d="M1107.92 1684.2C1125.33 1693.03 1127.38 1732.14 1131.42 1809.21C1134.41 1866.2 1135.7 1914.29 1135.9 1954.67C916.987 1958.35 761.321 2021.63 587.222 2092.39C492.89 2130.74 393.146 2171.28 274.998 2205.73C238.848 2185.36 264.596 2146.23 395.005 2078.54C411.652 2069.89 430.004 2060.79 450.151 2051.2C456.727 2048.06 463.239 2044.95 469.687 2041.84C478.264 2037.71 486.726 2033.6 495.077 2029.52C516.111 2019.24 536.434 2009.11 556.071 1999.14C568.025 1993.07 579.725 1987.06 591.176 1981.12C614.254 1969.14 636.322 1957.42 657.426 1945.97C670.443 1938.91 683.093 1931.96 695.386 1925.11C726.82 1907.61 755.924 1890.82 782.876 1874.83C795.126 1867.56 806.932 1860.46 818.309 1853.52C841.902 1839.15 863.655 1825.51 883.715 1812.68C896.152 1804.72 907.938 1797.07 919.11 1789.75C946.857 1771.57 970.811 1755.38 991.514 1741.44C1057.49 1697 1090.45 1675.34 1107.92 1684.2Z" fill="#D9D9D9"/>
<path d="M274.998 2205.73C389.312 2270.17 1122.59 2147.13 1122.59 2147.13C1122.59 2147.13 1136.63 2102.53 1135.9 1954.67C916.987 1958.35 761.321 2021.63 587.222 2092.39C492.89 2130.74 393.146 2171.28 274.998 2205.73Z" fill="#8D8D8D"/>
<path d="M395.005 2078.54C411.652 2069.89 430.004 2060.79 450.151 2051.2C456.727 2048.06 463.239 2044.95 469.687 2041.84C469.687 2041.84 364.176 1996.62 361.414 2010.78C358.651 2024.95 395.005 2078.54 395.005 2078.54Z" fill="#E6E6E6"/>
<path d="M455.827 1930.23C448.466 1942.63 495.077 2029.52 495.077 2029.52C516.111 2019.24 536.434 2009.11 556.071 1999.14C556.071 1999.14 463.188 1917.83 455.827 1930.23Z" fill="#E6E6E6"/>
<path d="M538.194 1868.2C534.136 1886.31 591.176 1981.12 591.176 1981.12C614.254 1969.14 636.322 1957.42 657.426 1945.97C657.006 1945.62 542.244 1850.13 538.194 1868.2Z" fill="#E6E6E6"/>
<path d="M647.086 1825.08C637.066 1843.59 695.117 1924.73 695.386 1925.11C726.82 1907.61 755.924 1890.82 782.876 1874.83C782.876 1874.83 657.129 1806.53 647.086 1825.08Z" fill="#E6E6E6"/>
<path d="M759 1753.62C747.801 1769.23 818.309 1853.52 818.309 1853.52C841.902 1839.15 863.655 1825.51 883.715 1812.68C883.715 1812.68 770.198 1738.02 759 1753.62Z" fill="#E6E6E6"/>
<path d="M870.756 1679.17C858.585 1695.33 919.11 1789.75 919.11 1789.75C946.857 1771.57 970.811 1755.38 991.514 1741.44C991.514 1741.44 882.927 1663.01 870.756 1679.17Z" fill="#E6E6E6"/>
<path d="M274.998 2205.73C389.312 2270.17 1122.59 2147.13 1122.59 2147.13C1122.59 2147.13 1136.63 2102.53 1135.9 1954.67M274.998 2205.73C393.146 2171.28 492.89 2130.74 587.222 2092.39C761.321 2021.63 916.987 1958.35 1135.9 1954.67M274.998 2205.73C238.848 2185.36 264.596 2146.23 395.005 2078.54M1135.9 1954.67C1135.7 1914.29 1134.41 1866.2 1131.42 1809.21C1127.38 1732.14 1125.33 1693.03 1107.92 1684.2C1090.45 1675.34 1057.49 1697 991.514 1741.44M395.005 2078.54C411.652 2069.89 430.004 2060.79 450.151 2051.2C456.727 2048.06 463.239 2044.95 469.687 2041.84M395.005 2078.54C395.005 2078.54 358.651 2024.95 361.414 2010.78C364.176 1996.62 469.687 2041.84 469.687 2041.84M469.687 2041.84C478.264 2037.71 486.726 2033.6 495.077 2029.52M495.077 2029.52C495.077 2029.52 448.466 1942.63 455.827 1930.23C463.188 1917.83 556.071 1999.14 556.071 1999.14M495.077 2029.52C516.111 2019.24 536.434 2009.11 556.071 1999.14M556.071 1999.14C568.025 1993.07 579.725 1987.06 591.176 1981.12M591.176 1981.12C591.176 1981.12 534.136 1886.31 538.194 1868.2M591.176 1981.12C614.254 1969.14 636.322 1957.42 657.426 1945.97M538.194 1868.2C542.244 1850.13 657.006 1945.62 657.426 1945.97M538.194 1868.2C542.244 1850.13 657.008 1945.62 657.426 1945.97M647.086 1825.08C657.129 1806.53 782.876 1874.83 782.876 1874.83M647.086 1825.08C637.066 1843.59 695.117 1924.73 695.386 1925.11M647.086 1825.08C637.067 1843.59 695.116 1924.73 695.386 1925.11M782.876 1874.83C795.126 1867.56 806.932 1860.46 818.309 1853.52M782.876 1874.83C755.924 1890.82 726.82 1907.61 695.386 1925.11M818.309 1853.52C818.309 1853.52 747.801 1769.23 759 1753.62C770.198 1738.02 883.715 1812.68 883.715 1812.68M818.309 1853.52C841.902 1839.15 863.655 1825.51 883.715 1812.68M883.715 1812.68C896.152 1804.72 907.938 1797.07 919.11 1789.75M919.11 1789.75C919.11 1789.75 858.585 1695.33 870.756 1679.17C882.927 1663.01 991.514 1741.44 991.514 1741.44M919.11 1789.75C946.857 1771.57 970.811 1755.38 991.514 1741.44M657.426 1945.97L657.427 1945.97L695.387 1925.11L695.386 1925.11M657.426 1945.97C670.443 1938.91 683.093 1931.96 695.386 1925.11" stroke="black"/>
<path d="M2230.69 2125.5C2211.21 1983.6 2014.98 1992.99 1925.39 2017.45C1923.95 2027.89 1922.33 2038.33 1920.56 2048.77C1920.67 2145 2019.72 2327.59 2230.69 2125.5Z" fill="#A8A8A8"/>
<path fill-rule="evenodd" clip-rule="evenodd" d="M769.555 2092C763.897 2044.8 760.192 1992.09 760.192 1935C760.192 1746 800.791 1626.52 818.443 1583.5C836.799 1687.25 864.081 1775.54 889.883 1859.04C937.504 2013.15 980.083 2150.94 952.194 2339.5H864.194C864.194 2269.13 839.93 2226.59 812.793 2179.01C798.09 2153.23 782.543 2125.97 769.555 2092Z" fill="#8D8D8D"/>
<path d="M769.555 2092C787.83 2244.46 826.48 2339.5 826.48 2339.5H864.194C864.194 2269.13 839.93 2226.59 812.793 2179.01C798.09 2153.23 782.543 2125.97 769.555 2092Z" fill="#7D7D7D"/>
<path d="M1744.19 1078C1720.28 1078 1696.98 1077.35 1674.19 1076.26C1738.75 1123.29 1784.17 1173.18 1827.14 1220.35C1906.43 1307.42 1977.32 1385.27 2144.58 1419C2033.61 1228.8 1880.99 1078 1744.19 1078Z" fill="#EEEEEE"/>
<path fill-rule="evenodd" clip-rule="evenodd" d="M371.694 1179.5C400.408 1221.5 923.194 1234.5 923.194 1234.5L826.48 1565.5C826.48 1565.5 532.983 1522.25 314.694 1445.58C131.194 1262.3 136.37 1097.12 142.159 912.368C145.295 812.266 148.612 706.421 122.194 588.845C124.897 591.045 127.735 593.112 130.694 595.047C194.251 636.609 313.204 617.11 337.194 547.5C361.694 563.965 354.212 656.929 338.225 750.28C315.19 884.787 286.148 1054.37 371.694 1179.5Z" fill="#D9D9D9"/>
<path d="M94.1935 547.5C4.69322 589.999 -60.6036 1058.34 94.1935 1315C124.558 1365.34 211.168 1409.22 314.694 1445.58C131.194 1262.3 136.37 1097.12 142.159 912.368C145.295 812.266 148.612 706.421 122.194 588.845C109.137 578.217 99.2336 564.477 94.1935 547.5Z" fill="#ACACAC"/>
<path fill-rule="evenodd" clip-rule="evenodd" d="M158.194 514.5C236.494 478.467 312.694 531.035 337.194 547.5C313.204 617.11 194.251 636.609 130.694 595.047L158.194 514.5Z" fill="#9A9A9A"/>
<path d="M94.1935 547.5C99.2336 564.477 109.137 578.217 122.194 588.845C124.897 591.045 127.735 593.112 130.694 595.047L158.194 514.5C148.964 518.748 103.631 543.018 94.1935 547.5Z" fill="#878787"/>
<path fill-rule="evenodd" clip-rule="evenodd" d="M1865.19 2339.5H952.194C1129.44 2057.22 1169.88 1813.34 1212.56 1555.94C1238.14 1401.63 1264.54 1242.45 1321.69 1067.23C1388.56 1058.55 1464.75 1058.63 1529.04 1064.79C1575.4 1069.22 1623.49 1073.83 1674.19 1076.26C1738.75 1123.29 1784.17 1173.18 1827.14 1220.35C1906.43 1307.42 1977.32 1385.27 2144.58 1419C2292.39 1672.33 2366.35 1995.56 2230.69 2125.5C2211.21 1983.6 2014.98 1992.99 1925.39 2017.45L1925.5 2016.65C1938.25 1980.99 1943.98 1909.44 1925.82 1806.35C1925.61 1805.19 1925.4 1804.02 1925.19 1802.86L1925.19 1802.86C1921.49 1782.29 1918.77 1764.23 1916.25 1747.4C1904.33 1668 1896.53 1616.06 1807.69 1457.5C1725.35 1310.53 1713.99 1291.77 1754.69 1375.5L1835.32 1518C1895.71 1642.22 1903.89 1685.89 1925.19 1802.86C1925.4 1804.02 1925.61 1805.19 1925.82 1806.35C1937.31 1872.27 1935.47 1944.25 1925.5 2016.65C1925.4 2016.93 1925.3 2017.22 1925.19 2017.5C1922.1 2025.93 1920.55 2036.67 1920.56 2048.77C1877.6 2302.49 1865.19 2339.5 1865.19 2339.5Z" fill="#D9D9D9"/>
<path d="M923.194 1234.5L826.48 1565.5C826.48 1565.5 823.347 1571.55 818.443 1583.5C836.799 1687.25 864.081 1775.54 889.883 1859.04C937.504 2013.15 980.083 2150.94 952.194 2339.5C1129.44 2057.22 1169.88 1813.34 1212.56 1555.94C1238.14 1401.63 1264.54 1242.45 1321.69 1067.23C1253.08 1076.14 1194.28 1094.26 1168.19 1124.5C1092.8 1150.51 1007.31 1155.6 923.194 1234.5Z" fill="#CFCFCF"/>
<path d="M1925.19 2017.5C1922.1 2025.93 1920.55 2036.67 1920.56 2048.77M1925.19 2017.5C1925.3 2017.22 1925.4 2016.93 1925.5 2016.65M1925.19 2017.5C1925.26 2017.48 1925.33 2017.46 1925.39 2017.45M2230.69 2125.5C2211.21 1983.6 2014.98 1992.99 1925.39 2017.45M2230.69 2125.5C2019.72 2327.59 1920.67 2145 1920.56 2048.77M2230.69 2125.5C2366.35 1995.56 2292.39 1672.33 2144.58 1419M923.194 1234.5C923.194 1234.5 400.408 1221.5 371.694 1179.5C286.148 1054.37 315.19 884.787 338.225 750.28C354.212 656.929 361.694 563.965 337.194 547.5M923.194 1234.5L826.48 1565.5M923.194 1234.5C1007.31 1155.6 1092.8 1150.51 1168.19 1124.5M337.194 547.5C312.694 531.035 236.494 478.467 158.194 514.5M337.194 547.5C313.204 617.11 194.251 636.609 130.694 595.047M94.1935 547.5C4.69322 589.999 -60.6036 1058.34 94.1935 1315C124.558 1365.34 211.168 1409.22 314.694 1445.58M94.1935 547.5C99.2336 564.477 109.137 578.217 122.194 588.845M94.1935 547.5C103.631 543.018 148.964 518.748 158.194 514.5M826.48 1565.5C826.48 1565.5 823.347 1571.55 818.443 1583.5M826.48 1565.5C826.48 1565.5 532.983 1522.25 314.694 1445.58M1920.56 2048.77C1877.6 2302.49 1865.19 2339.5 1865.19 2339.5H952.194M1920.56 2048.77C1922.33 2038.33 1923.95 2027.89 1925.39 2017.45M1925.5 2016.65C1935.47 1944.25 1937.31 1872.27 1925.82 1806.35M1925.5 2016.65C1938.25 1980.99 1943.98 1909.44 1925.82 1806.35M1925.5 2016.65C1925.47 2016.91 1925.43 2017.18 1925.39 2017.45M1925.5 2016.65L1925.39 2017.45M1925.82 1806.35C1925.61 1805.19 1925.4 1804.02 1925.19 1802.86M1925.82 1806.35C1925.61 1805.19 1925.4 1804.02 1925.19 1802.86L1925.19 1802.86M1925.19 1802.86C1903.89 1685.89 1895.71 1642.22 1835.32 1518L1754.69 1375.5C1713.99 1291.77 1725.35 1310.53 1807.69 1457.5C1896.53 1616.06 1904.33 1668 1916.25 1747.4C1918.77 1764.23 1921.49 1782.29 1925.19 1802.86ZM818.443 1583.5C800.791 1626.52 760.192 1746 760.192 1935C760.192 1992.09 763.897 2044.8 769.555 2092M818.443 1583.5C836.799 1687.25 864.081 1775.54 889.883 1859.04C937.504 2013.15 980.083 2150.94 952.194 2339.5M952.194 2339.5H864.194M952.194 2339.5C1129.44 2057.22 1169.88 1813.34 1212.56 1555.94C1238.14 1401.63 1264.54 1242.45 1321.69 1067.23M1529.04 1064.79C1575.4 1069.22 1623.49 1073.83 1674.19 1076.26M1529.04 1064.79C1398.78 1052.32 1219.69 1064.79 1168.19 1124.5M1529.04 1064.79C1464.75 1058.63 1388.56 1058.55 1321.69 1067.23M769.555 2092C787.83 2244.46 826.48 2339.5 826.48 2339.5H864.194M769.555 2092C782.543 2125.97 798.09 2153.23 812.793 2179.01C839.93 2226.59 864.194 2269.13 864.194 2339.5M1674.19 1076.26C1696.98 1077.35 1720.28 1078 1744.19 1078C1880.99 1078 2033.61 1228.8 2144.58 1419M1674.19 1076.26C1738.75 1123.29 1784.17 1173.18 1827.14 1220.35C1906.43 1307.42 1977.32 1385.27 2144.58 1419M122.194 588.845C148.612 706.421 145.295 812.266 142.159 912.368C136.37 1097.12 131.194 1262.3 314.694 1445.58M122.194 588.845C124.897 591.045 127.735 593.112 130.694 595.047M158.194 514.5L130.694 595.047M1168.19 1124.5C1194.28 1094.26 1253.08 1076.14 1321.69 1067.23" stroke="#1A1C1C" stroke-width="2"/>
<path d="M378.734 1012.6L406.734 1179.6L443.234 1172.1L433.734 1106.6L484.734 1097.6L495.734 1152.6H528.734L495.734 991.602L460.234 999.102L470.234 1043.1L433.734 1054.1L418.734 991.602L378.734 1012.6Z" fill="#EC3750"/>
<path d="M572.734 999.102C517.412 1030.66 495.984 1070.4 583.253 1116.37C670.522 1162.34 677.535 1098.06 611.694 1093.77C545.852 1089.49 564.553 1029.1 597.279 1017.02C630.004 1004.95 628.056 967.544 572.734 999.102Z" fill="#EC3750"/>
<path fill-rule="evenodd" clip-rule="evenodd" d="M369.194 1214L268.194 540C359.655 530.306 500.409 517.664 640.694 505.684L645.037 539.5L651.011 586L657.369 635.5L663.599 684L670.793 740L676.573 785L683.253 837L689.997 889.5L696.933 943.5L704.076 999.102L711.141 1054.1L718.167 1108.8L724.194 1155.72L725.194 1163.5L583.253 1183.64L369.194 1214ZM893.694 1139.6L1148.19 1103.5C1138.93 897.049 1118.37 489.392 1108.45 468.81C1108.19 468.273 1107.94 468 1107.69 468C1103.22 468 972.978 478.079 810.694 491.439L813.263 511.5L820.498 568L827.541 623L834.712 679L843.868 750.5L851.871 813L859.874 875.5L868.582 943.5L876.819 1007.83L884.141 1065L890.719 1116.37L893.694 1139.6ZM406.734 1179.6L378.734 1012.6L418.734 991.602L433.734 1054.1L470.234 1043.1L460.234 999.102L495.734 991.602L528.734 1152.6H495.734L484.734 1097.6L433.734 1106.6L443.234 1172.1L406.734 1179.6ZM572.734 999.102C517.412 1030.66 495.984 1070.4 583.253 1116.37C670.522 1162.34 677.535 1098.06 611.694 1093.77C545.852 1089.49 564.553 1029.1 597.279 1017.02C630.004 1004.95 628.056 967.544 572.734 999.102Z" fill="#E2A442"/>
<path d="M640.694 505.684L645.037 539.5L651.011 586L657.369 635.5L663.599 684L670.793 740L676.573 785L683.253 837L689.997 889.5L696.933 943.5L704.076 999.102L711.141 1054.1L718.167 1108.8L724.194 1155.72L725.194 1163.5L834.712 1147.97L893.694 1139.6L890.719 1116.37L884.141 1065L876.819 1007.83L868.582 943.5L859.874 875.5L851.871 813L843.868 750.5L834.712 679L827.541 623L820.498 568L813.263 511.5L810.694 491.439C797.554 492.521 784.204 493.624 770.694 494.745C755.376 496.016 739.851 497.31 724.194 498.622C707.154 500.05 689.956 501.499 672.694 502.962C662.044 503.864 651.37 504.772 640.694 505.684Z" fill="#A37833"/>
<path fill-rule="evenodd" clip-rule="evenodd" d="M583.253 1183.64L725.194 1163.5L834.712 1147.97L893.694 1139.6L1148.19 1103.5L1175.04 1136L961.194 1181.75L724.194 1214C705.234 1183.92 676.18 1220.54 634.208 1204.4C618.623 1198.4 601.601 1191.86 583.253 1183.64Z" fill="#B9893C"/>
<path d="M369.194 1214L447.194 1237L487.194 1246.25L724.194 1214C705.234 1183.92 676.18 1220.54 634.208 1204.4C618.623 1198.4 601.601 1191.86 583.253 1183.64L369.194 1214Z" fill="#B88739"/>
<path d="M1108.45 468.81C1118.37 489.392 1138.93 897.049 1148.19 1103.5L1175.04 1136L1175.19 1139.6L1133.69 511.5L1108.45 468.81Z" fill="#E4A541"/>
<path d="M369.194 1214L268.194 540C359.655 530.306 500.409 517.664 640.694 505.684M369.194 1214L447.194 1237L487.194 1246.25L724.194 1214M369.194 1214L583.253 1183.64M1148.19 1103.5L893.694 1139.6M1148.19 1103.5L1175.04 1136M1148.19 1103.5C1138.93 897.049 1118.37 489.392 1108.45 468.81M1107.69 468C1103.22 468 972.978 478.079 810.694 491.439M1107.69 468L1108.45 468.81M1107.69 468C1107.94 468 1108.19 468.273 1108.45 468.81M640.694 505.684L645.037 539.5M640.694 505.684C651.37 504.772 662.044 503.864 672.694 502.962M725.194 1163.5L724.194 1155.72M725.194 1163.5L834.712 1147.97M725.194 1163.5L583.253 1183.64M893.694 1139.6L834.712 1147.97M893.694 1139.6L890.719 1116.37M810.694 491.439C797.554 492.521 784.204 493.624 770.694 494.745M810.694 491.439L813.263 511.5M645.037 539.5L672.694 502.962M645.037 539.5L651.011 586M672.694 502.962C689.956 501.499 707.154 500.05 724.194 498.622M651.011 586C650.651 583.2 699.649 526.581 724.194 498.622M651.011 586L657.369 635.5M724.194 498.622C739.851 497.31 755.376 496.016 770.694 494.745M657.369 635.5L770.694 494.745M657.369 635.5L663.599 684M663.599 684L813.263 511.5M663.599 684L670.793 740M813.263 511.5L820.498 568M670.793 740L820.498 568M670.793 740L676.573 785M820.498 568L827.541 623M676.573 785L827.541 623M676.573 785L683.253 837M827.541 623L834.712 679M683.253 837L834.712 679M683.253 837L689.997 889.5M834.712 679L843.868 750.5M689.997 889.5L843.868 750.5M689.997 889.5L696.933 943.5M843.868 750.5L851.871 813M696.933 943.5L851.871 813M696.933 943.5L704.076 999.102M851.871 813L859.874 875.5M704.076 999.102L859.874 875.5M704.076 999.102L711.141 1054.1M859.874 875.5L868.582 943.5M711.141 1054.1L868.582 943.5M711.141 1054.1L718.167 1108.8M868.582 943.5L876.819 1007.83M718.167 1108.8L876.819 1007.83M718.167 1108.8L724.194 1155.72M876.819 1007.83L884.141 1065M724.194 1155.72L884.141 1065M884.141 1065L890.719 1116.37M834.712 1147.97L890.719 1116.37M1175.04 1136L961.194 1181.75L724.194 1214M1175.04 1136L1175.19 1139.6L1133.69 511.5L1108.45 468.81M583.253 1183.64C601.601 1191.86 618.623 1198.4 634.208 1204.4C676.18 1220.54 705.234 1183.92 724.194 1214M378.734 1012.6L406.734 1179.6L443.234 1172.1L433.734 1106.6L484.734 1097.6L495.734 1152.6H528.734L495.734 991.602L460.234 999.102L470.234 1043.1L433.734 1054.1L418.734 991.602L378.734 1012.6ZM572.734 999.102C517.412 1030.66 495.984 1070.4 583.253 1116.37C670.522 1162.34 677.535 1098.06 611.694 1093.77C545.852 1089.49 564.553 1029.1 597.279 1017.02C630.004 1004.95 628.056 967.544 572.734 999.102Z" stroke="#1A1C1C" stroke-width="2"/>
<path fill-rule="evenodd" clip-rule="evenodd" d="M1200.8 1335.22C1213.26 1317.07 1499.08 1291.06 1525.56 1306.81C1552.03 1322.56 1594.67 1775.57 1568.78 1800.92C1542.9 1826.28 1255.85 1838.34 1236.06 1830.03C1216.26 1821.73 1188.33 1353.38 1200.8 1335.22ZM1275.83 1768.33C1262.57 1754.44 1251.88 1620.86 1262.15 1611.93C1272.41 1603 1488.18 1568.06 1503.52 1582.78C1518.87 1597.5 1516.68 1733.21 1508.94 1747.94C1501.19 1762.67 1289.09 1782.23 1275.83 1768.33ZM1228.99 1376.42C1223.45 1370.38 1223.18 1367.4 1227.51 1359.49C1229.7 1355.49 1234.69 1356.53 1240.29 1357.71C1245.75 1358.86 1251.8 1360.14 1256.4 1356.96C1258.77 1355.33 1258.8 1353.01 1258.83 1350.65C1258.87 1347.01 1258.91 1343.3 1267.63 1341.92C1276.29 1340.56 1277.52 1344.47 1278.75 1348.38C1279.55 1350.95 1280.36 1353.53 1283.3 1354.61C1287.76 1356.24 1292.35 1354.16 1296.63 1352.23C1301.67 1349.95 1306.28 1347.87 1309.7 1352.3C1310.05 1352.75 1310.38 1353.17 1310.7 1353.58L1310.71 1353.58C1314.14 1357.9 1315.89 1360.1 1311.18 1369.23C1306.03 1379.22 1234.54 1382.46 1228.99 1376.42ZM1423.75 1359.38C1418.2 1353.34 1417.94 1350.36 1422.27 1342.45C1424.46 1338.45 1429.45 1339.5 1435.04 1340.67C1440.51 1341.82 1446.55 1343.1 1451.16 1339.92C1453.53 1338.29 1453.55 1335.97 1453.58 1333.62C1453.62 1329.98 1453.67 1326.26 1462.39 1324.89C1471.05 1323.52 1472.27 1327.43 1473.5 1331.34C1474.31 1333.91 1475.12 1336.49 1478.06 1337.57C1482.52 1339.2 1487.11 1337.13 1491.39 1335.19C1496.43 1332.91 1501.03 1330.83 1504.45 1335.26C1504.8 1335.7 1505.13 1336.13 1505.45 1336.53L1505.46 1336.54L1505.46 1336.54C1508.9 1340.86 1510.64 1343.06 1505.94 1352.19C1500.79 1362.18 1429.3 1365.42 1423.75 1359.38ZM1214.12 1473.82C1211.77 1473.94 1209.97 1475.94 1210.09 1478.29C1210.22 1480.63 1212.22 1482.43 1214.56 1482.31C1216.9 1482.19 1218.71 1480.19 1218.58 1477.84C1218.46 1475.5 1216.46 1473.7 1214.12 1473.82ZM1209.39 1464.81C1209.26 1462.46 1211.07 1460.46 1213.41 1460.34C1215.75 1460.22 1217.75 1462.02 1217.88 1464.36C1218 1466.71 1216.2 1468.71 1213.85 1468.83C1211.51 1468.95 1209.51 1467.15 1209.39 1464.81ZM1212.65 1445.86C1210.31 1445.98 1208.51 1447.98 1208.63 1450.33C1208.75 1452.67 1210.75 1454.47 1213.1 1454.35C1215.44 1454.23 1217.24 1452.23 1217.12 1449.88C1216.99 1447.54 1214.99 1445.74 1212.65 1445.86ZM1207.95 1437.34C1207.83 1435 1209.63 1433 1211.97 1432.88C1214.31 1432.76 1216.31 1434.56 1216.44 1436.9C1216.56 1439.24 1214.76 1441.24 1212.42 1441.37C1210.07 1441.49 1208.07 1439.69 1207.95 1437.34ZM1211.25 1419.15C1208.91 1419.27 1207.11 1421.27 1207.23 1423.61C1207.35 1425.96 1209.35 1427.76 1211.7 1427.64C1214.04 1427.51 1215.84 1425.51 1215.72 1423.17C1215.59 1420.82 1213.59 1419.02 1211.25 1419.15ZM1206.47 1409.13C1206.35 1406.79 1208.15 1404.79 1210.49 1404.67C1212.84 1404.54 1214.84 1406.34 1214.96 1408.69C1215.08 1411.03 1213.28 1413.03 1210.94 1413.16C1208.59 1413.28 1206.59 1411.48 1206.47 1409.13Z" fill="#292122"/>
<path d="M1262.15 1611.93C1251.88 1620.86 1262.57 1754.44 1275.83 1768.33C1289.09 1782.23 1501.19 1762.67 1508.94 1747.94C1516.68 1733.21 1518.87 1597.5 1503.52 1582.78C1488.18 1568.06 1272.41 1603 1262.15 1611.93Z" fill="#434F46"/>
<path d="M1505.46 1336.54L1505.46 1336.54C1508.9 1340.86 1510.64 1343.06 1505.94 1352.19C1500.79 1362.18 1429.3 1365.42 1423.75 1359.38C1418.2 1353.34 1417.94 1350.36 1422.27 1342.45C1424.46 1338.45 1429.45 1339.5 1435.04 1340.67C1440.51 1341.82 1446.55 1343.1 1451.16 1339.92C1453.53 1338.29 1453.55 1335.97 1453.58 1333.62C1453.62 1329.98 1453.67 1326.26 1462.39 1324.89C1471.05 1323.52 1472.27 1327.43 1473.5 1331.34C1474.31 1333.91 1475.12 1336.49 1478.06 1337.57C1482.52 1339.2 1487.11 1337.13 1491.39 1335.19C1496.43 1332.91 1501.03 1330.83 1504.45 1335.26C1504.8 1335.7 1505.13 1336.13 1505.45 1336.53M1505.46 1336.54L1505.45 1336.53M1505.46 1336.54C1505.46 1336.53 1505.45 1336.53 1505.45 1336.53M1200.8 1335.22C1213.26 1317.07 1499.08 1291.06 1525.56 1306.81C1552.03 1322.56 1594.67 1775.57 1568.78 1800.92C1542.9 1826.28 1255.85 1838.34 1236.06 1830.03C1216.26 1821.73 1188.33 1353.38 1200.8 1335.22ZM1262.15 1611.93C1251.88 1620.86 1262.57 1754.44 1275.83 1768.33C1289.09 1782.23 1501.19 1762.67 1508.94 1747.94C1516.68 1733.21 1518.87 1597.5 1503.52 1582.78C1488.18 1568.06 1272.41 1603 1262.15 1611.93ZM1227.51 1359.49C1223.18 1367.4 1223.45 1370.38 1228.99 1376.42C1234.54 1382.46 1306.03 1379.22 1311.18 1369.23C1315.89 1360.1 1314.14 1357.9 1310.71 1353.58L1310.7 1353.58C1310.38 1353.17 1310.05 1352.75 1309.7 1352.3C1306.28 1347.87 1301.67 1349.95 1296.63 1352.23C1292.35 1354.16 1287.76 1356.24 1283.3 1354.61C1280.36 1353.53 1279.55 1350.95 1278.75 1348.38C1277.52 1344.47 1276.29 1340.56 1267.63 1341.92C1258.91 1343.3 1258.87 1347.01 1258.83 1350.65C1258.8 1353.01 1258.77 1355.33 1256.4 1356.96C1251.8 1360.14 1245.75 1358.86 1240.29 1357.71C1234.69 1356.53 1229.7 1355.49 1227.51 1359.49ZM1210.49 1404.67C1208.15 1404.79 1206.35 1406.79 1206.47 1409.13C1206.59 1411.48 1208.59 1413.28 1210.94 1413.16C1213.28 1413.03 1215.08 1411.03 1214.96 1408.69C1214.84 1406.34 1212.84 1404.54 1210.49 1404.67ZM1211.25 1419.15C1208.91 1419.27 1207.11 1421.27 1207.23 1423.61C1207.35 1425.96 1209.35 1427.76 1211.7 1427.64C1214.04 1427.51 1215.84 1425.51 1215.72 1423.17C1215.59 1420.82 1213.59 1419.02 1211.25 1419.15ZM1211.97 1432.88C1209.63 1433 1207.83 1435 1207.95 1437.34C1208.07 1439.69 1210.07 1441.49 1212.42 1441.37C1214.76 1441.24 1216.56 1439.24 1216.44 1436.9C1216.31 1434.56 1214.31 1432.76 1211.97 1432.88ZM1212.65 1445.86C1210.31 1445.98 1208.51 1447.98 1208.63 1450.33C1208.75 1452.67 1210.75 1454.47 1213.1 1454.35C1215.44 1454.23 1217.24 1452.23 1217.12 1449.88C1216.99 1447.54 1214.99 1445.74 1212.65 1445.86ZM1213.41 1460.34C1211.07 1460.46 1209.26 1462.46 1209.39 1464.81C1209.51 1467.15 1211.51 1468.95 1213.85 1468.83C1216.2 1468.71 1218 1466.71 1217.88 1464.36C1217.75 1462.02 1215.75 1460.22 1213.41 1460.34ZM1214.12 1473.82C1211.77 1473.94 1209.97 1475.94 1210.09 1478.29C1210.22 1480.63 1212.22 1482.43 1214.56 1482.31C1216.9 1482.19 1218.71 1480.19 1218.58 1477.84C1218.46 1475.5 1216.46 1473.7 1214.12 1473.82Z" stroke="black"/>
<path d="M1458.78 1788.46C1458.67 1780.96 1465.18 1775.18 1472.68 1775.2C1480.45 1775.23 1487.21 1781.81 1486.48 1789.55C1485.79 1796.83 1479.26 1801.75 1471.95 1801.36C1464.76 1800.98 1458.89 1795.66 1458.78 1788.46Z" fill="#100E0F"/>
<path d="M1379.58 1795.39C1379.47 1787.89 1385.98 1782.1 1393.48 1782.13C1401.26 1782.16 1408.02 1788.74 1407.28 1796.48C1406.59 1803.76 1400.06 1808.68 1392.76 1808.29C1385.57 1807.91 1379.69 1802.59 1379.58 1795.39Z" fill="#100E0F"/>
<path d="M1302.07 1798.66C1301.96 1791.16 1308.47 1785.37 1315.97 1785.4C1323.75 1785.43 1330.51 1792.01 1329.77 1799.75C1329.08 1807.03 1322.55 1811.95 1315.25 1811.56C1308.06 1811.18 1302.18 1805.86 1302.07 1798.66Z" fill="#100E0F"/>
<path d="M1532.28 1699.22C1532.17 1691.72 1538.68 1685.93 1546.18 1685.96C1553.95 1685.98 1560.72 1692.57 1559.98 1700.31C1559.29 1707.59 1552.76 1712.51 1545.46 1712.12C1538.27 1711.74 1532.39 1706.42 1532.28 1699.22Z" fill="#100E0F"/>
<path d="M1528.38 1620.26C1528.27 1612.76 1534.78 1606.97 1542.28 1607C1550.06 1607.02 1556.82 1613.61 1556.09 1621.35C1555.39 1628.63 1548.86 1633.54 1541.56 1633.16C1534.37 1632.78 1528.49 1627.46 1528.38 1620.26Z" fill="#100E0F"/>
<path d="M1458.78 1788.46C1458.67 1780.96 1465.18 1775.18 1472.68 1775.2C1480.45 1775.23 1487.21 1781.81 1486.48 1789.55C1485.79 1796.83 1479.26 1801.75 1471.95 1801.36C1464.76 1800.98 1458.89 1795.66 1458.78 1788.46Z" stroke="#1A1C1C" stroke-width="2"/>
<path d="M1379.58 1795.39C1379.47 1787.89 1385.98 1782.1 1393.48 1782.13C1401.26 1782.16 1408.02 1788.74 1407.28 1796.48C1406.59 1803.76 1400.06 1808.68 1392.76 1808.29C1385.57 1807.91 1379.69 1802.59 1379.58 1795.39Z" stroke="#1A1C1C" stroke-width="2"/>
<path d="M1302.07 1798.66C1301.96 1791.16 1308.47 1785.37 1315.97 1785.4C1323.75 1785.43 1330.51 1792.01 1329.77 1799.75C1329.08 1807.03 1322.55 1811.95 1315.25 1811.56C1308.06 1811.18 1302.18 1805.86 1302.07 1798.66Z" stroke="#1A1C1C" stroke-width="2"/>
<path d="M1532.28 1699.22C1532.17 1691.72 1538.68 1685.93 1546.18 1685.96C1553.95 1685.98 1560.72 1692.57 1559.98 1700.31C1559.29 1707.59 1552.76 1712.51 1545.46 1712.12C1538.27 1711.74 1532.39 1706.42 1532.28 1699.22Z" stroke="#1A1C1C" stroke-width="2"/>
<path d="M1528.38 1620.26C1528.27 1612.76 1534.78 1606.97 1542.28 1607C1550.06 1607.02 1556.82 1613.61 1556.09 1621.35C1555.39 1628.63 1548.86 1633.54 1541.56 1633.16C1534.37 1632.78 1528.49 1627.46 1528.38 1620.26Z" stroke="#1A1C1C" stroke-width="2"/>
<path d="M1431.51 1499.74L1463.39 1496.95L1477.61 1521.81L1463.42 1543.13L1435.52 1545.57L1419.35 1521.38L1431.51 1499.74Z" fill="#292122"/>
<path d="M1449.74 1518.73L1463.39 1496.95M1449.74 1518.73L1419.35 1521.38M1449.74 1518.73L1463.42 1543.13M1463.39 1496.95L1431.51 1499.74L1419.35 1521.38M1463.39 1496.95L1477.61 1521.81L1463.42 1543.13M1419.35 1521.38L1435.52 1545.57L1463.42 1543.13" stroke="#DAAF48"/>
<path d="M1258.8 1476.2L1262.58 1459.68L1280.84 1455.2L1291.73 1468.02L1288.45 1481.97L1270.26 1487.8L1258.8 1476.2Z" fill="#292122"/>
<path d="M1273.85 1472.24L1262.58 1459.68M1273.85 1472.24L1270.26 1487.8M1273.85 1472.24L1291.73 1468.02M1262.58 1459.68L1258.8 1476.2L1270.26 1487.8M1262.58 1459.68L1280.84 1455.2L1291.73 1468.02M1270.26 1487.8L1288.45 1481.97L1291.73 1468.02" stroke="#DAAF48"/>
<path d="M1206.47 1409.13C1206.35 1406.79 1208.15 1404.79 1210.49 1404.67C1212.84 1404.54 1214.84 1406.34 1214.96 1408.69C1215.08 1411.03 1213.28 1413.03 1210.94 1413.16C1208.59 1413.28 1206.59 1411.48 1206.47 1409.13Z" fill="#292122"/>
<path d="M1207.23 1423.61C1207.11 1421.27 1208.91 1419.27 1211.25 1419.15C1213.59 1419.02 1215.59 1420.82 1215.72 1423.17C1215.84 1425.51 1214.04 1427.51 1211.7 1427.64C1209.35 1427.76 1207.35 1425.96 1207.23 1423.61Z" fill="#292122"/>
<path d="M1207.95 1437.34C1207.83 1435 1209.63 1433 1211.97 1432.88C1214.31 1432.76 1216.31 1434.56 1216.44 1436.9C1216.56 1439.24 1214.76 1441.24 1212.42 1441.37C1210.07 1441.49 1208.07 1439.69 1207.95 1437.34Z" fill="#292122"/>
<path d="M1208.63 1450.33C1208.51 1447.98 1210.31 1445.98 1212.65 1445.86C1214.99 1445.74 1216.99 1447.54 1217.12 1449.88C1217.24 1452.23 1215.44 1454.23 1213.1 1454.35C1210.75 1454.47 1208.75 1452.67 1208.63 1450.33Z" fill="#292122"/>
<path d="M1209.39 1464.81C1209.26 1462.46 1211.07 1460.46 1213.41 1460.34C1215.75 1460.22 1217.75 1462.02 1217.88 1464.36C1218 1466.71 1216.2 1468.71 1213.85 1468.83C1211.51 1468.95 1209.51 1467.15 1209.39 1464.81Z" fill="#292122"/>
<path d="M1210.09 1478.29C1209.97 1475.94 1211.77 1473.94 1214.12 1473.82C1216.46 1473.7 1218.46 1475.5 1218.58 1477.84C1218.71 1480.19 1216.9 1482.19 1214.56 1482.31C1212.22 1482.43 1210.22 1480.63 1210.09 1478.29Z" fill="#292122"/>
<path d="M1206.47 1409.13C1206.35 1406.79 1208.15 1404.79 1210.49 1404.67C1212.84 1404.54 1214.84 1406.34 1214.96 1408.69C1215.08 1411.03 1213.28 1413.03 1210.94 1413.16C1208.59 1413.28 1206.59 1411.48 1206.47 1409.13Z" stroke="#E8BF53" stroke-width="2"/>
<path d="M1207.23 1423.61C1207.11 1421.27 1208.91 1419.27 1211.25 1419.15C1213.59 1419.02 1215.59 1420.82 1215.72 1423.17C1215.84 1425.51 1214.04 1427.51 1211.7 1427.64C1209.35 1427.76 1207.35 1425.96 1207.23 1423.61Z" stroke="#E8BF53" stroke-width="2"/>
<path d="M1207.95 1437.34C1207.83 1435 1209.63 1433 1211.97 1432.88C1214.31 1432.76 1216.31 1434.56 1216.44 1436.9C1216.56 1439.24 1214.76 1441.24 1212.42 1441.37C1210.07 1441.49 1208.07 1439.69 1207.95 1437.34Z" stroke="#E8BF53" stroke-width="2"/>
<path d="M1208.63 1450.33C1208.51 1447.98 1210.31 1445.98 1212.65 1445.86C1214.99 1445.74 1216.99 1447.54 1217.12 1449.88C1217.24 1452.23 1215.44 1454.23 1213.1 1454.35C1210.75 1454.47 1208.75 1452.67 1208.63 1450.33Z" stroke="#E8BF53" stroke-width="2"/>
<path d="M1209.39 1464.81C1209.26 1462.46 1211.07 1460.46 1213.41 1460.34C1215.75 1460.22 1217.75 1462.02 1217.88 1464.36C1218 1466.71 1216.2 1468.71 1213.85 1468.83C1211.51 1468.95 1209.51 1467.15 1209.39 1464.81Z" stroke="#E8BF53" stroke-width="2"/>
<path d="M1210.09 1478.29C1209.97 1475.94 1211.77 1473.94 1214.12 1473.82C1216.46 1473.7 1218.46 1475.5 1218.58 1477.84C1218.71 1480.19 1216.9 1482.19 1214.56 1482.31C1212.22 1482.43 1210.22 1480.63 1210.09 1478.29Z" stroke="#E8BF53" stroke-width="2"/>
<mask id="path-15-inside-1_0_1" fill="white">
<path d="M1322.29 1431.38L1308.97 1432.55C1308.62 1432.58 1308.37 1432.88 1308.4 1433.22L1308.97 1439.72C1309 1440.07 1309.3 1440.32 1309.64 1440.29L1314.84 1439.84L1315.55 1447.91C1315.55 1447.91 1314.42 1448.41 1311.19 1448.69C1307.38 1449.03 1301.95 1448.1 1300.92 1436.44C1299.9 1424.77 1305.31 1422.75 1310.5 1422.29C1315 1421.9 1317.01 1422.52 1318.28 1422.79C1318.67 1422.88 1319 1422.46 1318.97 1422.12L1319.91 1415.71C1319.89 1415.55 1319.82 1415.36 1319.63 1415.24C1319.09 1414.93 1315.89 1413.49 1308.17 1414.17C1299.28 1414.94 1290.48 1419.52 1292.07 1437.67C1293.66 1455.82 1304.34 1457.61 1313.14 1456.84C1320.43 1456.2 1324.58 1452.71 1324.58 1452.71C1324.75 1452.59 1324.75 1452.34 1324.74 1452.22L1322.97 1431.95C1322.94 1431.61 1322.63 1431.35 1322.29 1431.38ZM1389.5 1409.34C1389.47 1408.99 1389.17 1408.74 1388.83 1408.77L1381.33 1409.43C1380.99 1409.46 1380.73 1409.76 1380.76 1410.1C1380.76 1410.11 1382.03 1424.57 1382.03 1424.57L1370.34 1425.59L1369.07 1411.13C1369.04 1410.78 1368.74 1410.53 1368.4 1410.56L1360.9 1411.21C1360.56 1411.24 1360.3 1411.55 1360.33 1411.89L1363.76 1451.06C1363.79 1451.4 1364.09 1451.66 1364.43 1451.63L1371.93 1450.98C1372.28 1450.95 1372.53 1450.64 1372.5 1450.29L1371.03 1433.54L1382.73 1432.52C1382.73 1432.52 1384.17 1449.27 1384.17 1449.27C1384.2 1449.62 1384.5 1449.88 1384.85 1449.85L1392.37 1449.19C1392.71 1449.16 1392.96 1448.85 1392.93 1448.51L1389.5 1409.34ZM1335.47 1419.34C1335.24 1416.65 1332.88 1414.66 1330.21 1414.89C1327.54 1415.13 1325.57 1417.49 1325.8 1420.19C1326.04 1422.88 1328.39 1424.88 1331.06 1424.64C1333.73 1424.41 1335.71 1422.04 1335.47 1419.34ZM1337.13 1445.08L1335.54 1427C1335.51 1426.66 1335.21 1426.41 1334.87 1426.44L1327.39 1427.09C1327.05 1427.12 1326.77 1427.5 1326.8 1427.84L1329.07 1453.75C1329.14 1454.51 1329.63 1454.69 1330.25 1454.64L1336.98 1454.05C1337.72 1453.98 1337.87 1453.61 1337.82 1452.97L1337.13 1445.08ZM1419.24 1419.05L1411.8 1419.7C1411.45 1419.73 1411.2 1420.04 1411.23 1420.39L1412.91 1439.59C1412.91 1439.59 1411.14 1441.14 1408.46 1441.37C1405.77 1441.61 1404.96 1440.45 1404.73 1437.83L1403.26 1421.08C1403.23 1420.74 1402.93 1420.48 1402.59 1420.51L1395.03 1421.17C1394.69 1421.2 1394.44 1421.51 1394.47 1421.85L1396.04 1439.87C1396.72 1447.66 1401.24 1449.18 1407.23 1448.66C1412.14 1448.23 1415.86 1445.18 1415.86 1445.18C1415.86 1445.18 1416.17 1446.59 1416.27 1446.75C1416.37 1446.91 1416.61 1447.06 1416.85 1447.04L1421.65 1446.6C1421.99 1446.57 1422.25 1446.26 1422.22 1445.92L1419.92 1419.63C1419.89 1419.28 1419.58 1419.02 1419.24 1419.05ZM1438.25 1438.78C1435.66 1438.93 1433.8 1437.91 1433.8 1437.91L1432.72 1425.51C1432.72 1425.51 1434.35 1424.3 1436.46 1423.93C1439.12 1423.45 1441.77 1424.03 1442.33 1430.41C1442.92 1437.14 1441.87 1438.57 1438.25 1438.78ZM1439.25 1416.46C1435.02 1416.83 1432.31 1418.96 1432.31 1418.96L1431.15 1405.7C1431.12 1405.35 1430.82 1405.1 1430.48 1405.13L1422.96 1405.78C1422.62 1405.81 1422.36 1406.12 1422.39 1406.46L1425.82 1445.63C1425.85 1445.98 1426.15 1446.23 1426.49 1446.2L1431.71 1445.75C1431.95 1445.73 1432.12 1445.59 1432.23 1445.37C1432.34 1445.14 1432.39 1443.53 1432.39 1443.53C1432.39 1443.53 1435.72 1446.17 1441.54 1445.66C1448.38 1445.06 1451.99 1441.26 1450.94 1429.19C1449.88 1417.11 1443.48 1416.09 1439.25 1416.46ZM1357.07 1424.42L1351.45 1424.92C1351.45 1424.92 1350.79 1417.5 1350.79 1417.5C1350.76 1417.22 1350.61 1417.09 1350.28 1417.12L1342.61 1417.79C1342.32 1417.82 1342.17 1417.96 1342.19 1418.25L1342.86 1425.91C1342.86 1425.91 1339.1 1427.18 1338.85 1427.27C1338.6 1427.37 1338.43 1427.62 1338.45 1427.91L1338.87 1432.73C1338.9 1433.07 1339.2 1433.33 1339.55 1433.3L1343.48 1432.95L1344.49 1444.54C1345.25 1453.15 1351.37 1453.46 1355.45 1453.11C1357.32 1452.94 1359.5 1452.15 1359.85 1451.98C1360.07 1451.88 1360.18 1451.64 1360.16 1451.39L1359.7 1446.09C1359.67 1445.75 1359.35 1445.49 1359.02 1445.52C1358.69 1445.55 1357.87 1445.76 1357 1445.83C1354.24 1446.07 1353.19 1444.87 1353.05 1443.21C1352.9 1441.55 1352.08 1432.2 1352.08 1432.2L1357.71 1431.71C1358.05 1431.68 1358.31 1431.37 1358.28 1431.03L1357.75 1424.99C1357.72 1424.65 1357.41 1424.39 1357.07 1424.42Z"/>
</mask>
<path d="M1322.29 1431.38L1308.97 1432.55C1308.62 1432.58 1308.37 1432.88 1308.4 1433.22L1308.97 1439.72C1309 1440.07 1309.3 1440.32 1309.64 1440.29L1314.84 1439.84L1315.55 1447.91C1315.55 1447.91 1314.42 1448.41 1311.19 1448.69C1307.38 1449.03 1301.95 1448.1 1300.92 1436.44C1299.9 1424.77 1305.31 1422.75 1310.5 1422.29C1315 1421.9 1317.01 1422.52 1318.28 1422.79C1318.67 1422.88 1319 1422.46 1318.97 1422.12L1319.91 1415.71C1319.89 1415.55 1319.82 1415.36 1319.63 1415.24C1319.09 1414.93 1315.89 1413.49 1308.17 1414.17C1299.28 1414.94 1290.48 1419.52 1292.07 1437.67C1293.66 1455.82 1304.34 1457.61 1313.14 1456.84C1320.43 1456.2 1324.58 1452.71 1324.58 1452.71C1324.75 1452.59 1324.75 1452.34 1324.74 1452.22L1322.97 1431.95C1322.94 1431.61 1322.63 1431.35 1322.29 1431.38ZM1389.5 1409.34C1389.47 1408.99 1389.17 1408.74 1388.83 1408.77L1381.33 1409.43C1380.99 1409.46 1380.73 1409.76 1380.76 1410.1C1380.76 1410.11 1382.03 1424.57 1382.03 1424.57L1370.34 1425.59L1369.07 1411.13C1369.04 1410.78 1368.74 1410.53 1368.4 1410.56L1360.9 1411.21C1360.56 1411.24 1360.3 1411.55 1360.33 1411.89L1363.76 1451.06C1363.79 1451.4 1364.09 1451.66 1364.43 1451.63L1371.93 1450.98C1372.28 1450.95 1372.53 1450.64 1372.5 1450.29L1371.03 1433.54L1382.73 1432.52C1382.73 1432.52 1384.17 1449.27 1384.17 1449.27C1384.2 1449.62 1384.5 1449.88 1384.85 1449.85L1392.37 1449.19C1392.71 1449.16 1392.96 1448.85 1392.93 1448.51L1389.5 1409.34ZM1335.47 1419.34C1335.24 1416.65 1332.88 1414.66 1330.21 1414.89C1327.54 1415.13 1325.57 1417.49 1325.8 1420.19C1326.04 1422.88 1328.39 1424.88 1331.06 1424.64C1333.73 1424.41 1335.71 1422.04 1335.47 1419.34ZM1337.13 1445.08L1335.54 1427C1335.51 1426.66 1335.21 1426.41 1334.87 1426.44L1327.39 1427.09C1327.05 1427.12 1326.77 1427.5 1326.8 1427.84L1329.07 1453.75C1329.14 1454.51 1329.63 1454.69 1330.25 1454.64L1336.98 1454.05C1337.72 1453.98 1337.87 1453.61 1337.82 1452.97L1337.13 1445.08ZM1419.24 1419.05L1411.8 1419.7C1411.45 1419.73 1411.2 1420.04 1411.23 1420.39L1412.91 1439.59C1412.91 1439.59 1411.14 1441.14 1408.46 1441.37C1405.77 1441.61 1404.96 1440.45 1404.73 1437.83L1403.26 1421.08C1403.23 1420.74 1402.93 1420.48 1402.59 1420.51L1395.03 1421.17C1394.69 1421.2 1394.44 1421.51 1394.47 1421.85L1396.04 1439.87C1396.72 1447.66 1401.24 1449.18 1407.23 1448.66C1412.14 1448.23 1415.86 1445.18 1415.86 1445.18C1415.86 1445.18 1416.17 1446.59 1416.27 1446.75C1416.37 1446.91 1416.61 1447.06 1416.85 1447.04L1421.65 1446.6C1421.99 1446.57 1422.25 1446.26 1422.22 1445.92L1419.92 1419.63C1419.89 1419.28 1419.58 1419.02 1419.24 1419.05ZM1438.25 1438.78C1435.66 1438.93 1433.8 1437.91 1433.8 1437.91L1432.72 1425.51C1432.72 1425.51 1434.35 1424.3 1436.46 1423.93C1439.12 1423.45 1441.77 1424.03 1442.33 1430.41C1442.92 1437.14 1441.87 1438.57 1438.25 1438.78ZM1439.25 1416.46C1435.02 1416.83 1432.31 1418.96 1432.31 1418.96L1431.15 1405.7C1431.12 1405.35 1430.82 1405.1 1430.48 1405.13L1422.96 1405.78C1422.62 1405.81 1422.36 1406.12 1422.39 1406.46L1425.82 1445.63C1425.85 1445.98 1426.15 1446.23 1426.49 1446.2L1431.71 1445.75C1431.95 1445.73 1432.12 1445.59 1432.23 1445.37C1432.34 1445.14 1432.39 1443.53 1432.39 1443.53C1432.39 1443.53 1435.72 1446.17 1441.54 1445.66C1448.38 1445.06 1451.99 1441.26 1450.94 1429.19C1449.88 1417.11 1443.48 1416.09 1439.25 1416.46ZM1357.07 1424.42L1351.45 1424.92C1351.45 1424.92 1350.79 1417.5 1350.79 1417.5C1350.76 1417.22 1350.61 1417.09 1350.28 1417.12L1342.61 1417.79C1342.32 1417.82 1342.17 1417.96 1342.19 1418.25L1342.86 1425.91C1342.86 1425.91 1339.1 1427.18 1338.85 1427.27C1338.6 1427.37 1338.43 1427.62 1338.45 1427.91L1338.87 1432.73C1338.9 1433.07 1339.2 1433.33 1339.55 1433.3L1343.48 1432.95L1344.49 1444.54C1345.25 1453.15 1351.37 1453.46 1355.45 1453.11C1357.32 1452.94 1359.5 1452.15 1359.85 1451.98C1360.07 1451.88 1360.18 1451.64 1360.16 1451.39L1359.7 1446.09C1359.67 1445.75 1359.35 1445.49 1359.02 1445.52C1358.69 1445.55 1357.87 1445.76 1357 1445.83C1354.24 1446.07 1353.19 1444.87 1353.05 1443.21C1352.9 1441.55 1352.08 1432.2 1352.08 1432.2L1357.71 1431.71C1358.05 1431.68 1358.31 1431.37 1358.28 1431.03L1357.75 1424.99C1357.72 1424.65 1357.41 1424.39 1357.07 1424.42Z" fill="#F5F4F5" stroke="black" stroke-width="3" mask="url(#path-15-inside-1_0_1)"/>
<path d="M1357.44 1536.08C1356.87 1536.28 1356.42 1536.82 1356.62 1537.39C1356.82 1537.99 1357.59 1538.11 1358.17 1537.85C1358.67 1537.63 1359.05 1537.2 1358.92 1536.67C1358.77 1536.07 1358.03 1535.88 1357.44 1536.08Z" fill="#EFEAE9"/>
<path fill-rule="evenodd" clip-rule="evenodd" d="M1372.87 1529.5C1372.26 1530.38 1365.53 1534.53 1360.94 1532.96C1359.91 1532.61 1347.82 1517.69 1355.01 1514.52C1362.51 1511.22 1373.49 1528.62 1372.87 1529.5ZM1371.84 1529.11C1371.72 1529.52 1369.07 1530.95 1368.51 1531.04C1367.95 1531.14 1362.27 1521.92 1362.27 1521.92C1362.27 1521.92 1364.08 1521.25 1364.05 1521.03C1364.01 1520.83 1363.55 1521 1363.08 1521.17C1362.68 1521.32 1362.27 1521.47 1362.18 1521.36C1362.13 1521.31 1362.09 1521.26 1362.04 1521.21C1361.36 1520.46 1360.91 1519.97 1362.84 1518.54C1364.88 1517.02 1371.96 1528.7 1371.84 1529.11Z" fill="#EFEAE9"/>
<path d="M1344.56 1496.96C1342.55 1496.38 1340.41 1495.89 1338.13 1495.5C1313.27 1491.3 1303.42 1495.03 1296.31 1499.67M1344.56 1496.96C1344.56 1496.96 1323.96 1520.19 1339.67 1539.22C1355.37 1558.25 1353.05 1581.23 1374.44 1578.81M1344.56 1496.96C1367.33 1503.55 1372.67 1519.27 1380.73 1534.68C1380.73 1534.68 1382.92 1535.06 1384.37 1536.74C1385.82 1538.41 1384.7 1542.27 1384.7 1542.27C1385.26 1543.22 1385.83 1544.15 1386.42 1545.06C1390.47 1551.29 1381.52 1564.8 1374.44 1578.81M1374.44 1578.81C1372.67 1582.3 1371.02 1585.83 1369.72 1589.29L1301.99 1601.23C1301.99 1601.23 1263.15 1571.07 1265.45 1544.97C1266.52 1532.8 1270.19 1523.57 1276.9 1515.67M1282.89 1492.9C1281.91 1509.27 1288.41 1515.46 1296.4 1527.94M1282.89 1492.9C1275.99 1502.55 1275.73 1508.05 1276.9 1515.67M1282.89 1492.9C1287.78 1493.76 1292.97 1496.9 1296.31 1499.67M1296.4 1527.94C1296.4 1527.94 1279.33 1529.6 1277.58 1519.69C1277.33 1518.27 1277.09 1516.94 1276.9 1515.67M1296.4 1527.94C1291 1515.97 1298.16 1505.14 1299.73 1504.2C1300.43 1503.79 1298.94 1501.85 1296.31 1499.67M1296.4 1527.94C1278.97 1494.75 1288.82 1499.18 1300.11 1504.14M1360.94 1532.96C1365.53 1534.53 1372.26 1530.38 1372.87 1529.5C1373.49 1528.62 1362.51 1511.22 1355.01 1514.52C1347.82 1517.69 1359.91 1532.61 1360.94 1532.96ZM1357.44 1536.08C1356.87 1536.28 1356.42 1536.82 1356.62 1537.39C1356.82 1537.99 1357.59 1538.11 1358.17 1537.85C1358.67 1537.63 1359.05 1537.2 1358.92 1536.67C1358.77 1536.07 1358.03 1535.88 1357.44 1536.08ZM1368.51 1531.04C1369.07 1530.95 1371.72 1529.52 1371.84 1529.11C1371.96 1528.7 1364.88 1517.02 1362.84 1518.54C1360.91 1519.97 1361.36 1520.46 1362.04 1521.21C1362.09 1521.26 1362.13 1521.31 1362.18 1521.36C1362.27 1521.47 1362.68 1521.32 1363.08 1521.17C1363.55 1521 1364.01 1520.83 1364.05 1521.03C1364.08 1521.25 1362.27 1521.92 1362.27 1521.92C1362.27 1521.92 1367.95 1531.14 1368.51 1531.04Z" stroke="#EFEAE9"/>
<path d="M1329.88 1558.11C1329.3 1555.9 1340.29 1552.61 1341.94 1552.13C1343.59 1551.64 1336.34 1557.55 1334.78 1560.72C1333.21 1563.89 1330.46 1560.32 1329.88 1558.11Z" stroke="#EFEAE9"/>
<path d="M1324.76 1548.79C1325.18 1546.79 1338.19 1545.07 1338.42 1546.38C1338.65 1547.69 1329.38 1550.87 1327.53 1553.51C1325.68 1556.15 1324.35 1550.79 1324.76 1548.79Z" stroke="#EFEAE9"/>
<path d="M1381.62 1533.44C1381.62 1533.44 1378.3 1522.25 1381.41 1524.6C1384.53 1526.94 1387.09 1530.31 1386.65 1533.51C1386.21 1536.72 1389.56 1531.46 1396.31 1534.7C1403.06 1537.95 1388.3 1539.59 1384.9 1536.72C1381.5 1533.84 1381.62 1533.44 1381.62 1533.44Z" fill="#F3B31E" stroke="#F3B31E"/>
<path d="M1259.19 1348.5C1259.19 1348.5 1182.98 1200.43 1216.69 1116C1227.22 1089.63 1254.69 1054 1254.69 1054L1270.69 1067.5C1270.69 1067.5 1252.69 1063.5 1241.19 1116C1229.69 1168.5 1281.19 1353.5 1281.19 1353.5L1259.19 1348.5Z" fill="#535353"/>
<path d="M1457.19 1326.5C1457.19 1326.5 1603.55 1210.44 1585.19 1116C1579.62 1087.31 1556.19 1047 1556.19 1047L1585.19 1039.5C1585.19 1039.5 1610.12 1084.31 1615.19 1116C1631.12 1215.52 1474.69 1332.5 1474.69 1332.5L1457.19 1326.5Z" fill="#535353"/>
<path d="M1259.19 1348.5C1259.19 1348.5 1182.98 1200.43 1216.69 1116C1227.22 1089.63 1254.69 1054 1254.69 1054L1270.69 1067.5C1270.69 1067.5 1252.69 1063.5 1241.19 1116C1229.69 1168.5 1281.19 1353.5 1281.19 1353.5L1259.19 1348.5Z" stroke="#1A1C1C" stroke-width="2"/>
<path d="M1457.19 1326.5C1457.19 1326.5 1603.55 1210.44 1585.19 1116C1579.62 1087.31 1556.19 1047 1556.19 1047L1585.19 1039.5C1585.19 1039.5 1610.12 1084.31 1615.19 1116C1631.12 1215.52 1474.69 1332.5 1474.69 1332.5L1457.19 1326.5Z" stroke="#1A1C1C" stroke-width="2"/>
<path d="M1284.69 705C1284.69 705 1213.69 1072.5 1252.69 1132.5C1260.2 1144.05 1274.73 1155.45 1293.69 1165.51C1284.69 951 1293.69 839 1377.69 641.327C1329.92 680.588 1284.69 705 1284.69 705Z" fill="#BCBCBC"/>
<path fill-rule="evenodd" clip-rule="evenodd" d="M1293.69 1165.51C1373.24 1207.69 1530.78 1226.17 1575.19 1132.5C1630.19 1016.5 1801.19 336.5 1641.69 223.5C1482.19 110.5 1362.69 144 1243.69 218C1124.69 292 1066.69 383 1066.69 524C1066.69 625.491 1095.19 762 1284.69 705C1284.69 705 1329.92 680.588 1377.69 641.327C1293.69 839 1284.69 951 1293.69 1165.51Z" fill="#D9D9D9"/>
<path fill-rule="evenodd" clip-rule="evenodd" d="M1301.69 463.565C1356.19 426 1319.19 386.5 1280.07 370.5C1275.67 383.498 1274.25 397.936 1276.19 412C1278.97 432.042 1288.14 450.722 1301.69 463.565Z" fill="#202020"/>
<path d="M1284.69 705C1095.19 762 1066.69 625.491 1066.69 524C1066.69 383 1124.69 292 1243.69 218C1362.69 144 1482.19 110.5 1641.69 223.5C1801.19 336.5 1630.19 1016.5 1575.19 1132.5C1530.78 1226.17 1373.24 1207.69 1293.69 1165.51M1284.69 705C1284.69 705 1213.69 1072.5 1252.69 1132.5C1260.2 1144.05 1274.73 1155.45 1293.69 1165.51M1284.69 705C1284.69 705 1329.92 680.588 1377.69 641.327M1486.19 487C1476.65 547.009 1425.88 601.723 1377.69 641.327M1377.69 641.327C1293.69 839 1284.69 951 1293.69 1165.51M1301.69 463.565C1288.14 450.722 1278.97 432.042 1276.19 412C1274.25 397.936 1275.67 383.498 1280.07 370.5M1301.69 463.565C1356.19 426 1319.19 386.5 1280.07 370.5M1301.69 463.565C1304.06 465.81 1306.57 467.876 1309.19 469.74C1309.19 469.74 1331.52 440.24 1353.19 433C1372.59 426.519 1402.87 433 1402.87 433C1406.89 419.928 1407.94 405.499 1405.69 391.5C1399.6 353.577 1371.97 321.316 1333.69 324.5C1307.09 326.712 1288.33 346.062 1280.07 370.5" stroke="#1A1C1C" stroke-width="2"/>
<path d="M1428.49 293.435L1438.49 134.435C1263.49 201.935 1243.49 100.935 1243.49 100.935L1221.99 233.935L1247.69 241.341L1428.49 293.435Z" fill="#E5A236"/>
<path d="M1243.49 100.935C1243.49 100.935 1263.49 201.935 1438.49 134.435C1431.5 114.46 1429.97 94.5249 1429.7 73.2003L1243.49 100.935Z" fill="#E0A23D"/>
<path d="M1428.49 3.43457C1346.43 12.3369 1243.49 100.935 1243.49 100.935L1429.7 73.2003C1429.44 51.8216 1430.44 29.0463 1428.49 3.43457Z" fill="#E4A541"/>
<path d="M1619.49 44.9345C1567.49 5.43456 1499.46 -4.26484 1428.49 3.43457C1430.44 29.0463 1429.44 51.8216 1429.7 73.2003L1619.49 44.9345Z" fill="#EEB559"/>
<path d="M1438.49 134.435C1523.99 144.435 1603.49 120.935 1619.49 44.9345L1429.7 73.2003C1429.97 94.5249 1431.5 114.46 1438.49 134.435Z" fill="#E9B258"/>
<path d="M1438.49 134.435L1428.49 293.435C1627.69 279 1619.49 201.935 1619.49 201.935V44.9345C1603.49 120.935 1523.99 144.435 1438.49 134.435Z" fill="#F9B951"/>
<path d="M1247.69 241.341L1221.99 233.935C1221.99 233.935 1143.4 256.451 1093.23 267.749C1094.53 268.023 1095.85 268.314 1097.19 268.624C1106.04 270.656 1115.96 273.437 1126.69 276.731C1182.19 280.5 1211.69 267.5 1247.69 241.341Z" fill="#C2263C"/>
<path fill-rule="evenodd" clip-rule="evenodd" d="M1126.69 276.731C1182.19 280.5 1211.69 267.5 1247.69 241.341L1428.49 293.435C1423.99 378.045 1290.71 332.345 1184.33 295.868C1169.26 290.702 1154.74 285.722 1141.19 281.322C1136.22 279.707 1131.38 278.17 1126.69 276.731Z" fill="#EC3750"/>
<path d="M1126.69 276.731C1115.96 273.437 1106.04 270.656 1097.19 268.624C1114.38 273.583 1123.19 281 1141.19 281.322C1136.22 279.707 1131.38 278.17 1126.69 276.731Z" fill="#C2263C"/>
<path d="M1221.99 233.935L1243.49 100.935M1221.99 233.935L1247.69 241.341M1221.99 233.935C1221.99 233.935 1143.4 256.451 1093.23 267.749C1094.53 268.023 1095.85 268.314 1097.19 268.624M1428.49 293.435C1432.39 231.341 1434.58 196.528 1438.49 134.435M1428.49 293.435C1627.69 279 1619.49 201.935 1619.49 201.935M1428.49 293.435L1438.49 134.435M1428.49 293.435L1247.69 241.341M1428.49 293.435C1423.99 378.045 1290.71 332.345 1184.33 295.868C1169.26 290.702 1154.74 285.722 1141.19 281.322M1438.49 134.435C1263.49 201.935 1243.49 100.935 1243.49 100.935M1438.49 134.435C1523.99 144.435 1603.49 120.935 1619.49 44.9345M1438.49 134.435C1431.5 114.46 1429.97 94.5249 1429.7 73.2003M1243.49 100.935C1243.49 100.935 1346.43 12.3369 1428.49 3.43457M1243.49 100.935L1429.7 73.2003M1619.49 201.935C1619.49 201.935 1619.49 106.247 1619.49 44.9345M1619.49 201.935V44.9345M1619.49 44.9345C1567.49 5.43456 1499.46 -4.26484 1428.49 3.43457M1619.49 44.9345L1429.7 73.2003M1428.49 3.43457C1430.44 29.0463 1429.44 51.8216 1429.7 73.2003M1126.69 276.731C1182.19 280.5 1211.69 267.5 1247.69 241.341M1126.69 276.731C1115.96 273.437 1106.04 270.656 1097.19 268.624M1126.69 276.731C1131.38 278.17 1136.22 279.707 1141.19 281.322M1097.19 268.624C1114.38 273.583 1123.19 281 1141.19 281.322" stroke="#1A1C1C" stroke-width="2"/>
</svg>
