<svg width="297" height="516" viewBox="0 0 297 516" fill="none" xmlns="http://www.w3.org/2000/svg">
<path fill-rule="evenodd" clip-rule="evenodd" d="M10.1067 2.22033C-5.89332 11.2203 0.936421 72.0544 10.1067 115.22C15.8458 142.235 33.5107 172.34 51.3495 197.433C51.3495 197.433 5.1067 284.45 46.1067 272.22L96.1067 252.22C125.107 208.22 152.107 191.22 206.107 182.22C206.107 182.22 258.607 155.72 245.607 139.72C232.607 123.72 180.126 131.15 180.126 131.15C164.223 103.039 142.648 70.1166 120.107 51.2203C84.0679 21.0086 26.1067 -6.77965 10.1067 2.22033ZM34.1067 96.2204L13.6067 93.2204C13.6067 93.2204 -0.256546 30.8916 26.6067 17.7204C51.4487 5.54018 92.1067 44.7204 92.1067 44.7204L89.1067 62.7204C89.1067 62.7204 56.4501 33.3233 39.1067 44.7204C22.22 55.8173 34.1067 96.2204 34.1067 96.2204Z" fill="url(#paint0_linear_0_1)"/>
<path d="M13.6067 93.2204L34.1067 96.2204C34.1067 96.2204 22.22 55.8173 39.1067 44.7204C56.4501 33.3233 89.1067 62.7204 89.1067 62.7204L92.1067 44.7204C92.1067 44.7204 51.4487 5.54018 26.6067 17.7204C-0.256546 30.8916 13.6067 93.2204 13.6067 93.2204Z" fill="#26AAC2"/>
<path d="M96.1067 252.22C146.694 258.018 197.107 227.22 206.107 182.22C152.107 191.22 125.107 208.22 96.1067 252.22Z" fill="#504F4F"/>
<path d="M96.1067 252.22C146.694 258.018 197.107 227.22 206.107 182.22M96.1067 252.22C125.107 208.22 152.107 191.22 206.107 182.22M96.1067 252.22L46.1067 272.22C5.1067 284.45 51.3495 197.433 51.3495 197.433M206.107 182.22C206.107 182.22 258.607 155.72 245.607 139.72C232.607 123.72 180.126 131.15 180.126 131.15M57.1067 185.72L51.3495 197.433M51.3495 197.433C33.5107 172.34 15.8458 142.235 10.1067 115.22C0.936421 72.0544 -5.89332 11.2203 10.1067 2.22033C26.1067 -6.77965 84.068 21.0086 120.107 51.2203C142.648 70.1166 164.223 103.039 180.126 131.15M161.607 128.72L180.126 131.15M13.6067 93.2204L34.1067 96.2204C34.1067 96.2204 22.22 55.8173 39.1067 44.7204C56.4501 33.3233 89.1067 62.7204 89.1067 62.7204L92.1067 44.7204C92.1067 44.7204 51.4487 5.54018 26.6067 17.7204C-0.256546 30.8916 13.6067 93.2204 13.6067 93.2204Z" stroke="black"/>
<path fill-rule="evenodd" clip-rule="evenodd" d="M116.107 241.72C120.399 249.027 130.066 247.935 137.665 244.184C145.583 240.275 152.59 232.428 148.751 224.474C144.848 216.386 133.847 217.097 125.962 221.394C118.216 225.616 111.638 234.114 116.107 241.72ZM137.107 241.72C130.939 244.765 123.091 245.651 119.607 239.72C115.979 233.546 121.319 226.647 127.607 223.22C134.008 219.732 142.938 219.155 146.107 225.72C149.223 232.177 143.535 238.547 137.107 241.72Z" fill="#1A1A1A"/>
<path d="M119.607 239.72C123.091 245.651 130.939 244.765 137.107 241.72C143.535 238.547 149.223 232.177 146.107 225.72C142.938 219.155 134.008 219.732 127.607 223.22C121.319 226.647 115.979 233.546 119.607 239.72Z" fill="#151515"/>
<path fill-rule="evenodd" clip-rule="evenodd" d="M116.107 241.72C120.399 249.027 130.066 247.935 137.665 244.184C145.583 240.275 152.59 232.428 148.751 224.474C144.848 216.386 133.847 217.097 125.962 221.394C118.216 225.616 111.638 234.114 116.107 241.72ZM137.107 241.72C130.939 244.765 123.091 245.651 119.607 239.72C115.979 233.546 121.319 226.647 127.607 223.22C134.008 219.732 142.938 219.155 146.107 225.72C149.223 232.177 143.535 238.547 137.107 241.72Z" stroke="black"/>
<path d="M119.607 239.72C123.091 245.651 130.939 244.765 137.107 241.72C143.535 238.547 149.223 232.177 146.107 225.72C142.938 219.155 134.008 219.732 127.607 223.22C121.319 226.647 115.979 233.546 119.607 239.72Z" stroke="black"/>
<path fill-rule="evenodd" clip-rule="evenodd" d="M158.558 216.694C162.85 224 172.517 222.909 180.116 219.158C188.035 215.248 195.041 207.401 191.202 199.448C187.299 191.36 176.299 192.071 168.413 196.368C160.667 200.59 154.089 209.088 158.558 216.694ZM179.558 216.694C173.39 219.739 165.542 220.625 162.058 214.694C158.43 208.52 163.77 201.621 170.058 198.194C176.459 194.705 185.389 194.129 188.558 200.694C191.674 207.15 185.986 213.521 179.558 216.694Z" fill="#1A1A1A"/>
<path d="M162.058 214.694C165.542 220.625 173.39 219.739 179.558 216.694C185.986 213.521 191.674 207.15 188.558 200.694C185.389 194.129 176.459 194.705 170.058 198.194C163.77 201.621 158.43 208.52 162.058 214.694Z" fill="#151515"/>
<path fill-rule="evenodd" clip-rule="evenodd" d="M158.558 216.694C162.85 224 172.517 222.909 180.116 219.158C188.035 215.248 195.041 207.401 191.202 199.448C187.299 191.36 176.299 192.071 168.413 196.368C160.667 200.59 154.089 209.088 158.558 216.694ZM179.558 216.694C173.39 219.739 165.542 220.625 162.058 214.694C158.43 208.52 163.77 201.621 170.058 198.194C176.459 194.705 185.389 194.129 188.558 200.694C191.674 207.15 185.986 213.521 179.558 216.694Z" stroke="black"/>
<path d="M162.058 214.694C165.542 220.625 173.39 219.739 179.558 216.694C185.986 213.521 191.674 207.15 188.558 200.694C185.389 194.129 176.459 194.705 170.058 198.194C163.77 201.621 158.43 208.52 162.058 214.694Z" stroke="black"/>
<path fill-rule="evenodd" clip-rule="evenodd" d="M126.107 514.72C117.549 514.693 110.959 510.289 108.107 502.22C106.975 499.019 107.306 496.583 107.69 493.755C107.858 492.518 108.036 491.205 108.107 489.72C108.35 484.589 109.514 480.153 110.615 475.96C111.928 470.956 113.151 466.299 112.607 461.22C111.607 451.887 109.307 431.42 108.107 424.22C106.907 417.02 102.94 416.554 101.107 417.22C100.502 417.44 101.034 415.718 101.882 412.969C103.605 407.39 106.634 397.585 104.107 391.22C102.615 387.463 99.354 385.687 96.1959 383.966C92.666 382.043 89.2648 380.19 88.6067 375.72C87.7985 370.231 93.4179 367.644 98.8771 365.132C104.429 362.577 109.814 360.098 108.107 354.72C107.423 352.566 106.016 351.36 104.6 350.147C103.227 348.969 101.845 347.785 101.107 345.72C99.1792 340.332 103.908 335.228 107.943 330.873C111.112 327.452 113.853 324.493 112.607 322.22C109.773 317.054 104.107 305.22 104.107 299.22C104.107 293.22 109.773 287.72 112.607 285.72C114.196 284.598 112.815 282.716 111.168 280.471C109.879 278.713 108.426 276.733 108.107 274.72C106.537 264.834 117.107 250.72 117.107 250.72L123.607 236.22C123.607 236.22 126.749 245.01 126.107 250.72C125.442 256.631 120.252 258.774 120.107 264.72C119.953 271.028 125.152 273.484 126.107 279.72C127.268 287.31 123.607 299.22 123.607 299.22V311.72C123.607 311.72 123.607 321.472 123.607 327.72C121.068 334.75 117.107 345.72 117.107 345.72C117.107 345.72 112.631 361.108 112.607 371.22C112.575 384.436 120.107 404.22 120.107 404.22C120.107 404.22 128.773 436.887 126.107 442.72C123.44 448.554 119.707 461.82 126.107 468.22C130.543 472.656 131.135 472.173 132.743 470.862C134.036 469.808 135.983 468.22 141.107 468.22C142.938 468.22 144.566 468.309 146.008 468.388C153.62 468.803 156.027 468.934 155.607 454.22C155.346 445.107 151.018 440.061 148.059 436.612C145.336 433.438 143.773 431.616 147.607 429.22C150.612 427.342 153.265 426.099 155.75 424.934C159.88 422.998 163.549 421.279 167.607 417.22C174.107 410.72 174.607 400.22 163.607 391.22C159.181 387.6 154.352 387.216 150.517 386.911C144.82 386.458 141.319 386.18 144.607 375.72C147.965 365.035 150.205 363.111 153.374 360.388C155.396 358.651 157.797 356.588 161.107 351.72C162.447 349.75 163.687 348.015 164.801 346.458C170.752 338.138 173.082 334.88 167.607 327.72C165.257 324.648 163.365 323.34 161.907 322.331C159.33 320.549 158.107 319.703 158.107 311.72C158.107 305.198 154.431 304.121 150.916 303.091C147.694 302.146 144.607 301.242 144.607 296.22C144.607 292.539 143.869 289.903 143.213 287.557C141.997 283.212 141.061 279.864 145.607 272.72C148.507 268.162 151.58 267.467 153.614 267.007C156.489 266.357 157.292 266.176 152.607 256.22C149.827 250.314 148.195 246.098 147.038 243.11C144.864 237.498 144.37 236.22 141.107 236.22C137.107 236.22 141.773 233.554 144.607 232.22C144.607 232.22 158.776 241.56 163.607 250.72C164.065 251.589 164.527 252.382 164.968 253.137C166.576 255.895 167.887 258.143 167.607 261.72C167.285 265.826 163.941 267.23 160.415 268.712C157.304 270.019 154.05 271.386 152.607 274.72C148.661 283.834 157.1 290.86 164.737 297.217C168.678 300.498 172.405 303.6 174.107 306.72C175.556 309.378 177.433 311.97 179.365 314.639C184.097 321.175 189.162 328.171 189.107 337.72C189.016 353.405 168.282 368.886 160.778 373.977C164.349 372.188 171.377 370.352 181.107 375.72C195.607 383.72 207.922 451.034 181.107 445.72C173.568 444.227 168.44 442.72 163.607 436.72C163.607 436.72 193.124 504.59 167.607 502.22C162.805 501.774 159.667 498.643 156.63 495.612C153.228 492.218 149.952 488.949 144.607 489.72C138.672 490.577 137.048 496.691 135.464 502.658C133.839 508.777 132.256 514.74 126.107 514.72Z" fill="#F49715"/>
<path d="M144.607 232.22L123.607 236.22C123.607 236.22 126.749 245.01 126.107 250.72C125.442 256.631 120.252 258.774 120.107 264.72C119.953 271.028 125.152 273.484 126.107 279.72C127.268 287.31 123.607 299.22 123.607 299.22V311.72C123.607 311.72 123.607 321.472 123.607 327.72C121.068 334.75 117.107 345.72 117.107 345.72C117.107 345.72 112.631 361.108 112.607 371.22C112.575 384.436 120.107 404.22 120.107 404.22C120.107 404.22 128.773 436.887 126.107 442.72C123.44 448.554 119.707 461.82 126.107 468.22C130.543 472.656 131.135 472.173 132.743 470.862C134.036 469.808 135.983 468.22 141.107 468.22C142.938 468.22 144.566 468.309 146.008 468.388C153.62 468.803 156.027 468.934 155.607 454.22C155.346 445.107 151.018 440.061 148.059 436.612C145.336 433.438 143.773 431.616 147.607 429.22C150.612 427.342 153.265 426.099 155.75 424.934C159.88 422.998 163.549 421.279 167.607 417.22C174.107 410.72 174.607 400.22 163.607 391.22C159.181 387.6 154.352 387.216 150.517 386.911C144.82 386.458 141.319 386.18 144.607 375.72C147.965 365.035 150.205 363.111 153.374 360.388C155.396 358.651 157.797 356.588 161.107 351.72C162.447 349.75 163.687 348.015 164.801 346.458C170.752 338.138 173.082 334.88 167.607 327.72C165.257 324.648 163.365 323.34 161.907 322.331C159.33 320.549 158.107 319.703 158.107 311.72C158.107 305.198 154.431 304.121 150.916 303.091C147.694 302.146 144.607 301.242 144.607 296.22C144.607 292.539 143.869 289.903 143.213 287.557C141.997 283.212 141.061 279.864 145.607 272.72C148.507 268.162 151.58 267.467 153.614 267.007C156.489 266.357 157.292 266.176 152.607 256.22C149.827 250.314 148.195 246.098 147.038 243.11C144.864 237.498 144.37 236.22 141.107 236.22C137.107 236.22 141.773 233.554 144.607 232.22Z" fill="#E8C023"/>
<path d="M144.607 232.22C144.607 232.22 158.776 241.56 163.607 250.72C164.065 251.589 164.527 252.382 164.968 253.137C166.576 255.895 167.887 258.143 167.607 261.72C167.285 265.826 163.941 267.23 160.415 268.712C157.304 270.019 154.05 271.386 152.607 274.72C148.661 283.834 157.1 290.86 164.737 297.217C168.678 300.498 172.405 303.6 174.107 306.72C175.556 309.378 177.433 311.97 179.365 314.639C184.097 321.175 189.162 328.171 189.107 337.72C189.016 353.405 168.282 368.886 160.778 373.977M144.607 232.22L123.607 236.22M144.607 232.22C141.773 233.554 137.107 236.22 141.107 236.22C144.37 236.22 144.864 237.498 147.038 243.11C148.195 246.098 149.827 250.314 152.607 256.22C157.292 266.176 156.489 266.357 153.614 267.007C151.58 267.467 148.507 268.162 145.607 272.72C141.061 279.864 141.997 283.212 143.213 287.557C143.869 289.903 144.607 292.539 144.607 296.22C144.607 301.242 147.694 302.146 150.916 303.091C154.431 304.121 158.107 305.198 158.107 311.72C158.107 319.703 159.33 320.549 161.907 322.331C163.365 323.34 165.257 324.648 167.607 327.72C173.082 334.88 170.752 338.138 164.801 346.458C163.687 348.015 162.447 349.75 161.107 351.72C157.797 356.588 155.396 358.651 153.374 360.388C150.205 363.111 147.965 365.035 144.607 375.72C141.319 386.18 144.82 386.458 150.517 386.911C154.352 387.216 159.181 387.6 163.607 391.22C174.607 400.22 174.107 410.72 167.607 417.22C163.549 421.279 159.88 422.998 155.75 424.934C153.265 426.099 150.612 427.342 147.607 429.22C143.773 431.616 145.336 433.438 148.059 436.612C151.018 440.061 155.346 445.107 155.607 454.22C156.027 468.934 153.62 468.803 146.008 468.388C144.566 468.309 142.938 468.22 141.107 468.22C135.983 468.22 134.036 469.808 132.743 470.862C131.135 472.173 130.543 472.656 126.107 468.22C119.707 461.82 123.44 448.554 126.107 442.72C128.773 436.887 120.107 404.22 120.107 404.22C120.107 404.22 112.575 384.436 112.607 371.22C112.631 361.108 117.107 345.72 117.107 345.72C117.107 345.72 121.068 334.75 123.607 327.72M123.607 236.22L117.107 250.72C117.107 250.72 106.537 264.834 108.107 274.72C108.426 276.733 109.879 278.713 111.168 280.471C112.815 282.716 114.196 284.598 112.607 285.72C109.773 287.72 104.107 293.22 104.107 299.22C104.107 305.22 109.773 317.054 112.607 322.22C113.853 324.493 111.112 327.452 107.943 330.873C103.908 335.228 99.1792 340.332 101.107 345.72C101.845 347.785 103.227 348.969 104.6 350.147C106.016 351.36 107.423 352.566 108.107 354.72C109.814 360.098 104.429 362.577 98.8771 365.132C93.4179 367.644 87.7985 370.231 88.6067 375.72C89.2648 380.19 92.666 382.043 96.1959 383.966C99.354 385.687 102.615 387.463 104.107 391.22C106.634 397.585 103.605 407.39 101.882 412.969C101.034 415.718 100.502 417.44 101.107 417.22C102.94 416.554 106.907 417.02 108.107 424.22C109.307 431.42 111.607 451.887 112.607 461.22C113.151 466.299 111.928 470.956 110.615 475.96C109.514 480.153 108.35 484.589 108.107 489.72C108.036 491.205 107.858 492.518 107.69 493.755C107.306 496.583 106.975 499.019 108.107 502.22C110.959 510.289 117.549 514.693 126.107 514.72C132.256 514.74 133.839 508.777 135.464 502.658C137.048 496.691 138.672 490.577 144.607 489.72C149.952 488.949 153.228 492.218 156.63 495.612C159.667 498.643 162.805 501.774 167.607 502.22C193.124 504.59 163.607 436.72 163.607 436.72C168.44 442.72 173.568 444.227 181.107 445.72C207.922 451.034 195.607 383.72 181.107 375.72C171.377 370.352 164.349 372.188 160.778 373.977M123.607 236.22C123.607 236.22 126.749 245.01 126.107 250.72C125.442 256.631 120.252 258.774 120.107 264.72C119.953 271.028 125.152 273.484 126.107 279.72C127.268 287.31 123.607 299.22 123.607 299.22M123.607 299.22C123.607 302.554 123.607 309.72 123.607 311.72M123.607 299.22V311.72M123.607 311.72C123.607 313.72 123.607 323.22 123.607 327.72M123.607 311.72C123.607 311.72 123.607 321.472 123.607 327.72M160.778 373.977C159.119 375.103 158.107 375.72 158.107 375.72C158.107 375.72 159.027 374.854 160.778 373.977Z" stroke="black"/>
<path fill-rule="evenodd" clip-rule="evenodd" d="M223.674 476.714C223.157 476.218 222.637 475.72 222.111 475.22C215.712 469.134 213.35 463.891 210.027 456.514C209.566 455.491 209.087 454.427 208.576 453.313C206.151 448.033 205.139 442.965 204.184 438.184C203.225 433.382 202.323 428.869 200.107 424.72C197.812 420.425 197.839 414.995 197.864 409.895C197.887 405.164 197.909 400.716 196.076 397.72C193.91 394.181 193.231 389.719 192.782 386.768C192.489 384.841 192.293 383.558 191.846 383.595C193.93 382.022 204.86 372.707 203.107 365.72C202.105 361.729 198.466 360.883 194.698 360.006C191.19 359.191 187.57 358.349 185.863 354.919C183.405 349.981 187.584 345.501 191.6 341.195C195.734 336.763 199.695 332.516 196.076 328.143C194.635 326.402 192.879 325.811 191.112 325.216C189.397 324.639 187.672 324.059 186.214 322.421C182.409 318.147 184.881 311.644 186.991 306.094C188.647 301.735 190.081 297.965 188.074 296.324C187.133 295.555 185.95 294.733 184.65 293.829C179.646 290.351 172.908 285.667 171.577 278.183C170.486 272.049 172.523 265.398 174.401 262.482C174.401 262.482 168.499 257.946 166.108 253.969C160.949 245.39 165.462 228.345 165.462 228.345L166.057 212.466L177.607 229.22L185.863 253.969C182.589 258.695 178.447 270.154 188.074 278.183C193.416 282.639 196.138 284.147 197.886 286.407C200.076 289.239 200.738 293.252 203.107 305.72C204.433 312.698 205.463 317.445 206.253 321.085C208.002 329.143 208.576 331.785 208.576 341.22C208.576 347.188 210.061 348.242 211.738 349.432C213.911 350.973 216.405 352.743 216.405 365.72C216.405 375.572 214.147 381.571 212.273 386.548C209.774 393.186 207.96 398.004 213.107 407.72C217.021 415.11 217.687 420.8 218.23 425.445C218.937 431.487 219.437 435.763 226.607 439.72C231.644 442.501 234.744 446.07 237.086 448.767C240.642 452.861 242.453 454.947 246.648 449.22C249.675 445.087 251.452 443.131 252.192 440.84C253.138 437.911 252.391 434.436 250.398 425.169C250.367 425.021 250.334 424.871 250.302 424.72C249.415 420.595 248.363 416.528 247.371 412.691C244.274 400.716 241.757 390.982 246.648 388.715C249.1 387.578 250.217 387.565 250.659 387.012C251.381 386.108 250.302 383.764 250.302 372.72C250.302 364.333 250.592 361.03 249.957 357.915C249.244 354.42 247.366 351.162 242.607 341.22C235.068 325.474 235.503 323.478 237.793 312.961C238.237 310.922 238.75 308.563 239.289 305.72C240.582 298.9 242.793 296.967 244.26 295.684C246.557 293.675 247.029 293.263 239.289 278.183C233.121 266.165 230.788 268.081 228.059 270.322C225.177 272.688 221.854 275.417 213.107 262.482C205.691 251.517 199.81 246.971 195.902 243.95C190.834 240.033 189.083 238.68 191.607 229.22C196.023 212.664 192.211 203.052 188.217 201.895C193.677 203.343 203.166 206.355 208.576 210.926C209.326 211.56 210.052 212.122 210.743 212.657C213.267 214.611 215.325 216.204 216.405 219.626C217.645 223.553 215.071 226.108 212.356 228.803C209.961 231.18 207.457 233.666 207.367 237.299C207.123 247.227 217.58 250.579 227.042 253.613C231.925 255.179 236.542 256.659 239.289 258.915C245.285 263.838 245.854 276.189 246.181 283.278C246.294 285.731 246.378 287.553 246.648 288.22L250.302 328.884L259.107 354.919L280.49 388.715C280.49 388.715 265.836 411.473 259.107 407.72C256.885 406.481 262.285 414.811 269.582 426.066C284.385 448.898 306.994 483.771 289.607 475.22C284.623 472.769 281.825 468.044 279.195 463.603C275.815 457.896 272.713 452.657 265.607 453.313C258.051 454.011 257.928 462.046 257.8 470.324C257.675 478.48 257.546 486.874 250.302 488.72C239.176 491.557 231.865 484.556 223.674 476.714ZM188.074 201.857C185.63 201.213 184.029 200.89 184.029 200.89L188.074 201.857ZM191.607 383.72C191.694 383.642 191.774 383.601 191.846 383.595C191.517 383.843 191.409 383.898 191.607 383.72Z" fill="#F49715"/>
<path d="M184.029 200.89L166.057 212.466L177.607 229.22L185.863 253.969C182.589 258.695 178.447 270.154 188.074 278.183C193.416 282.639 196.138 284.147 197.886 286.407C200.076 289.239 200.738 293.252 203.107 305.72C204.433 312.698 205.463 317.445 206.253 321.085C208.002 329.143 208.576 331.785 208.576 341.22C208.576 347.188 210.061 348.242 211.738 349.432C213.911 350.973 216.405 352.743 216.405 365.72C216.405 375.572 214.147 381.571 212.273 386.548C209.774 393.186 207.96 398.004 213.107 407.72C217.021 415.11 217.687 420.8 218.23 425.445C218.937 431.487 219.437 435.763 226.607 439.72C231.644 442.501 234.744 446.07 237.086 448.767C240.642 452.861 242.453 454.947 246.648 449.22C249.675 445.087 251.452 443.131 252.192 440.84C253.138 437.911 252.391 434.436 250.398 425.169L250.302 424.72C249.415 420.595 248.363 416.528 247.371 412.691C244.274 400.716 241.757 390.982 246.648 388.715C249.1 387.578 250.217 387.565 250.659 387.012C251.381 386.108 250.302 383.764 250.302 372.72C250.302 364.333 250.592 361.03 249.957 357.915C249.244 354.42 247.366 351.162 242.607 341.22C235.068 325.474 235.503 323.478 237.793 312.961C238.237 310.922 238.75 308.563 239.289 305.72C240.582 298.9 242.793 296.967 244.26 295.684C246.557 293.675 247.029 293.263 239.289 278.183C233.121 266.165 230.788 268.081 228.059 270.322C225.177 272.688 221.854 275.417 213.107 262.482C205.691 251.517 199.81 246.971 195.902 243.95C190.834 240.033 189.083 238.68 191.607 229.22C196.023 212.664 192.211 203.052 188.217 201.895L188.074 201.857L184.029 200.89Z" fill="#E8C023"/>
<path d="M184.029 200.89L166.057 212.466M184.029 200.89C184.029 200.89 185.63 201.213 188.074 201.857M184.029 200.89L188.074 201.857M166.057 212.466L165.462 228.345C165.462 228.345 160.949 245.39 166.108 253.969C168.499 257.946 174.401 262.482 174.401 262.482C172.523 265.398 170.486 272.049 171.577 278.183C172.908 285.667 179.646 290.351 184.65 293.829C185.95 294.733 187.133 295.555 188.074 296.324C190.081 297.965 188.647 301.735 186.991 306.094C184.881 311.644 182.409 318.147 186.214 322.421C187.672 324.059 189.397 324.639 191.112 325.216C192.879 325.811 194.635 326.402 196.076 328.143C199.695 332.516 195.734 336.763 191.6 341.195C187.584 345.501 183.405 349.981 185.863 354.919C187.57 358.349 191.19 359.191 194.698 360.006C198.466 360.883 202.105 361.729 203.107 365.72C204.86 372.707 193.93 382.022 191.846 383.595M166.057 212.466L177.607 229.22L185.863 253.969C182.589 258.695 178.447 270.154 188.074 278.183C193.416 282.639 196.138 284.147 197.886 286.407C200.076 289.239 200.738 293.252 203.107 305.72C204.433 312.698 205.463 317.445 206.253 321.085C208.002 329.143 208.576 331.785 208.576 341.22C208.576 347.188 210.061 348.242 211.738 349.432C213.911 350.973 216.405 352.743 216.405 365.72C216.405 375.572 214.147 381.571 212.273 386.548C209.774 393.186 207.96 398.004 213.107 407.72C217.021 415.11 217.687 420.8 218.23 425.445C218.937 431.487 219.437 435.763 226.607 439.72C231.644 442.501 234.744 446.07 237.086 448.767C240.642 452.861 242.453 454.947 246.648 449.22C249.675 445.087 251.452 443.131 252.192 440.84C253.138 437.911 252.391 434.436 250.398 425.169M250.302 424.72C249.415 420.595 248.363 416.528 247.371 412.691C244.274 400.716 241.757 390.982 246.648 388.715C249.1 387.578 250.217 387.565 250.659 387.012C251.381 386.108 250.302 383.764 250.302 372.72C250.302 364.333 250.592 361.03 249.957 357.915C249.244 354.42 247.366 351.162 242.607 341.22C235.068 325.474 235.503 323.478 237.793 312.961C238.237 310.922 238.75 308.563 239.289 305.72C240.582 298.9 242.793 296.967 244.26 295.684C246.557 293.675 247.029 293.263 239.289 278.183C233.121 266.165 230.788 268.081 228.059 270.322C225.177 272.688 221.854 275.417 213.107 262.482C205.691 251.517 199.81 246.971 195.902 243.95C190.834 240.033 189.083 238.68 191.607 229.22C196.023 212.664 192.211 203.052 188.217 201.895M250.302 424.72L250.398 425.169M250.302 424.72C250.334 424.871 250.367 425.021 250.398 425.169M188.074 201.857C188.121 201.868 188.169 201.881 188.217 201.895M188.074 201.857C188.121 201.87 188.169 201.882 188.217 201.895M188.074 201.857L188.217 201.895M191.846 383.595C192.293 383.558 192.489 384.841 192.782 386.768C193.231 389.719 193.91 394.181 196.076 397.72C197.909 400.716 197.887 405.164 197.864 409.895C197.839 414.995 197.812 420.425 200.107 424.72C202.323 428.869 203.225 433.382 204.184 438.184C205.139 442.965 206.151 448.033 208.576 453.313C209.087 454.427 209.566 455.491 210.027 456.514C213.35 463.891 215.712 469.134 222.111 475.22C222.637 475.72 223.157 476.218 223.674 476.714C231.865 484.556 239.176 491.557 250.302 488.72C257.546 486.874 257.675 478.48 257.8 470.324C257.928 462.046 258.051 454.011 265.607 453.313C272.713 452.657 275.815 457.896 279.195 463.603C281.825 468.044 284.623 472.769 289.607 475.22C306.994 483.771 284.385 448.898 269.582 426.066C262.285 414.811 256.885 406.481 259.107 407.72C265.836 411.473 280.49 388.715 280.49 388.715L259.107 354.919L250.302 328.884L246.648 288.22C246.378 287.553 246.294 285.731 246.181 283.278C245.854 276.189 245.285 263.838 239.289 258.915C236.542 256.659 231.925 255.179 227.042 253.613C217.58 250.579 207.123 247.227 207.367 237.299C207.457 233.666 209.961 231.18 212.356 228.803C215.071 226.108 217.645 223.553 216.405 219.626C215.325 216.204 213.267 214.611 210.743 212.657C210.052 212.122 209.326 211.56 208.576 210.926C203.166 206.355 193.677 203.343 188.217 201.895M191.846 383.595C191.774 383.601 191.694 383.642 191.607 383.72C191.409 383.898 191.517 383.843 191.846 383.595Z" stroke="black"/>
<defs>
<linearGradient id="paint0_linear_0_1" x1="124.088" y1="0.5" x2="124.088" y2="273.398" gradientUnits="userSpaceOnUse">
<stop stop-color="#5E5E5E"/>
<stop offset="1" stop-color="#828181"/>
</linearGradient>
</defs>
</svg>
