<svg width="76" height="173" viewBox="0 0 76 173" fill="none" xmlns="http://www.w3.org/2000/svg">
<path fill-rule="evenodd" clip-rule="evenodd" d="M31.0932 134.464C29.3886 135.962 29.1309 138.425 30.4886 140.243C31.9801 142.312 35.1946 142.571 36.9983 140.768C38.6724 139.094 38.6738 136.382 37.0016 134.706C35.3978 133.045 32.8279 132.939 31.0932 134.464ZM36.3599 140.369C35.7896 140.946 35.0508 141.258 34.2864 141.325C33.1081 141.429 31.8692 140.951 31.0932 139.97C29.8786 138.434 30.0586 136.175 31.6119 134.982C33.0914 133.847 35.1029 134.123 36.3599 135.501C37.0393 136.246 37.3738 137.189 37.3389 138.113C37.308 138.931 36.9874 139.734 36.3599 140.369Z" fill="#5C0101"/>
<path d="M31.0932 139.97C31.8692 140.951 33.1081 141.429 34.2864 141.325C35.0508 141.258 35.7896 140.946 36.3599 140.369C36.9874 139.734 37.308 138.931 37.3389 138.113C37.3738 137.189 37.0393 136.246 36.3599 135.501C35.1029 134.123 33.0914 133.847 31.6119 134.982C30.0586 136.175 29.8786 138.434 31.0932 139.97Z" fill="#770F0F"/>
<path d="M43.3423 103.302C26.5447 118.903 16.1309 128.838 0.649939 145.995C11.2172 143.454 19.7342 141.812 30.4886 140.243C29.1309 138.425 29.3886 135.962 31.0932 134.464C32.8279 132.939 35.3978 133.045 37.0016 134.706C40.0694 127.949 40.595 114.646 43.3423 103.302Z" fill="#C3BC8B"/>
<path d="M0.649939 145.995C9.02883 156.927 21.3976 171.53 26.5447 171.889C31.6917 172.248 69.9552 132.868 69.237 129.197C68.5189 125.526 46.5343 104.898 43.3423 103.302C40.595 114.646 40.0694 127.949 37.0016 134.706C38.6738 136.382 38.6724 139.094 36.9983 140.768C35.1946 142.571 31.9801 142.312 30.4886 140.243C19.7342 141.812 11.2172 143.454 0.649939 145.995Z" fill="#ACA67B"/>
<path d="M0.649939 145.995C9.02883 156.927 21.3976 171.53 26.5447 171.889C31.6917 172.248 69.9552 132.868 69.237 129.197C68.5189 125.526 46.5343 104.898 43.3423 103.302M0.649939 145.995C16.1309 128.838 26.5447 118.903 43.3423 103.302M0.649939 145.995C11.2172 143.454 19.7342 141.812 30.4886 140.243M43.3423 103.302C40.595 114.646 40.0694 127.949 37.0016 134.706M30.4886 140.243C29.1309 138.425 29.3886 135.962 31.0932 134.464C32.8279 132.939 35.3978 133.045 37.0016 134.706M30.4886 140.243C31.9801 142.312 35.1946 142.571 36.9983 140.768C38.6724 139.094 38.6738 136.382 37.0016 134.706M34.2864 141.325C33.1081 141.429 31.8692 140.951 31.0932 139.97C29.8786 138.434 30.0586 136.175 31.6119 134.982C33.0914 133.847 35.1029 134.123 36.3599 135.501C37.0393 136.246 37.3738 137.189 37.3389 138.113M34.2864 141.325C35.0508 141.258 35.7896 140.946 36.3599 140.369C36.9874 139.734 37.308 138.931 37.3389 138.113M34.2864 141.325L33.8439 139.768L33.8064 139.73C33.8064 139.73 32.9569 139.83 32.4897 139.611C32.2274 139.487 31.8912 139.172 31.8912 139.172L32.2902 138.773C32.2902 138.773 32.6078 139.021 32.8488 139.092C33.1492 139.181 33.6507 139.088 33.6507 139.088L33.5271 138.653C33.5271 138.653 32.7526 138.45 32.5296 138.055C32.3229 137.688 32.3063 137.356 32.4897 136.977C32.6743 136.596 32.9481 136.401 33.3675 136.339C33.6974 136.291 33.9373 136.326 34.1992 136.532C34.5579 136.815 34.5246 137.656 34.5246 137.656L34.9364 137.723C34.9364 137.723 35.1479 137.097 35.0832 136.698C35.0405 136.435 34.8438 136.06 34.8438 136.06L35.5221 135.86C35.5221 135.86 35.7983 136.352 35.8811 136.698C35.9884 137.147 35.8974 137.879 35.8974 137.879L37.3389 138.113" stroke="black"/>
<path fill-rule="evenodd" clip-rule="evenodd" d="M34.7005 47.8889C37.1651 53.9567 46.2006 61.8888 46.2006 61.8888C46.2006 61.8888 59.9291 54.5698 65.7005 46.8888C70.6908 40.2475 73.898 35.6906 74.2005 27.3888C74.502 19.1193 73.2465 13.0389 67.2005 7.38883C61.0066 1.60043 54.3869 -0.314452 46.2006 1.88883C38.463 3.97134 34.4484 8.5637 31.2005 15.8888C26.241 27.0744 29.88 36.0281 34.4533 47.2805C34.5355 47.4825 34.6179 47.6853 34.7005 47.8889ZM39.7005 18.8889C37.107 16.6747 40.2005 12.3889 43.2005 10.8889C44.4119 10.2832 45.2121 9.43286 45.9018 8.70008C46.9201 7.61805 47.6972 6.7923 49.2005 7.38883C52.3702 8.64661 49.477 13.3498 47.2005 15.8888C45.0947 18.2376 42.0997 20.9371 39.7005 18.8889Z" fill="#D40808"/>
<path d="M43.2005 10.8889C40.2005 12.3889 37.107 16.6747 39.7005 18.8889C42.0997 20.9371 45.0947 18.2376 47.2005 15.8888C49.477 13.3498 52.3702 8.64661 49.2005 7.38883C47.6972 6.7923 46.9201 7.61805 45.9018 8.70008C45.2121 9.43286 44.4119 10.2832 43.2005 10.8889Z" fill="#D5B2B2"/>
<path d="M43.2005 103.889C43.2005 103.889 46.8169 89.6201 46.2006 80.3888C45.9375 76.4487 44.5987 74.3365 44.7005 70.3888C44.7874 67.0192 46.2006 61.8888 46.2006 61.8888M46.2006 61.8888C46.2006 61.8888 37.1651 53.9567 34.7005 47.8889C34.6179 47.6853 34.5355 47.4825 34.4533 47.2805C29.88 36.0281 26.241 27.0744 31.2005 15.8888C34.4484 8.5637 38.463 3.97134 46.2006 1.88883C54.3869 -0.314452 61.0066 1.60043 67.2005 7.38883C73.2465 13.0389 74.502 19.1193 74.2005 27.3888C73.898 35.6906 70.6908 40.2475 65.7005 46.8888C59.9291 54.5698 46.2006 61.8888 46.2006 61.8888ZM43.2005 10.8889C40.2005 12.3889 37.107 16.6747 39.7005 18.8889C42.0997 20.9371 45.0947 18.2376 47.2005 15.8888C49.477 13.3498 52.3702 8.64661 49.2005 7.38883C47.6972 6.7923 46.9201 7.61805 45.9018 8.70008C45.2121 9.43286 44.4119 10.2832 43.2005 10.8889Z" stroke="black" stroke-width="2"/>
</svg>
