<svg width="215" height="129" viewBox="0 0 215 129" fill="none" xmlns="http://www.w3.org/2000/svg">
<path d="M58.7593 45.1971L88.3916 53.6191L197.573 12.381L182.705 4.13927L58.7593 45.1971Z" fill="#D9D9D9"/>
<path d="M12.1391 46.7956L32.6353 49.01L176.145 0.503197L164.49 0.90282L12.1391 46.7956Z" fill="#D2D2D2"/>
<path d="M88.3916 53.6191L58.7593 45.1971L51.9916 78.033L213.359 14.8428L182.705 4.13927L197.573 12.381L88.3916 53.6191Z" fill="#BFBFBF"/>
<path d="M51.9916 78.033L58.7593 45.1971L182.705 4.13927L213.359 14.8428L176.145 0.503197L32.6353 49.01L51.9916 78.033Z" fill="#A9A9A9"/>
<path d="M58.7593 45.1971L88.3916 53.6191L197.573 12.381L182.705 4.13927M58.7593 45.1971L51.9916 78.033M58.7593 45.1971L182.705 4.13927M51.9916 78.033L32.6353 49.01M51.9916 78.033L213.359 14.8428M32.6353 49.01L12.1391 46.7956L164.49 0.90282L176.145 0.503197M32.6353 49.01L176.145 0.503197M176.145 0.503197L213.359 14.8428M182.705 4.13927L213.359 14.8428" stroke="black"/>
<path d="M153.163 99.4703C153.225 99.6182 153.327 99.7255 153.46 99.7977C154.668 100.455 158.431 98.197 157.748 97.0667C157.662 96.9249 157.506 96.8008 157.267 96.7024C154.908 95.7346 152.468 97.8071 153.163 99.4703Z" fill="#D9D9D9"/>
<path d="M157.748 97.0667C158.431 98.197 154.668 100.455 153.46 99.7977C154.531 101.133 153.793 102.254 155.345 103.969C156.613 102.688 157.008 103.274 159.257 102.183C158.617 100.652 159.386 98.5319 157.748 97.0667Z" fill="#D9D9D9"/>
<path d="M159.257 102.183C157.008 103.274 156.613 102.688 155.345 103.969C155.345 103.969 149.885 107.474 150.348 111.657C150.47 112.764 151.007 113.918 152.169 115.067C152.289 115.186 152.408 115.299 152.527 115.405C153.179 115.988 153.808 116.384 154.413 116.626C155.664 117.126 156.81 116.966 157.827 116.435C161.001 114.778 162.925 109.518 162.925 109.518L166.143 106.068C168.372 100.537 170.74 97.5167 171.928 91.9948C171.525 93.5445 170.467 94.7297 168.828 94.8748C168.06 94.9428 167.558 94.65 166.996 94.3225C166.691 94.1451 166.369 93.9575 165.978 93.8116L159.257 102.183Z" fill="#D9D9D9"/>
<path d="M169.797 110.853C170.478 109.967 166.143 106.068 166.143 106.068L162.925 109.518C162.925 109.518 165.312 115.584 165.598 114.112C165.884 112.64 169.115 111.74 169.797 110.853Z" fill="#D9D9D9"/>
<path d="M169.797 110.853C169.115 111.74 165.884 112.64 165.598 114.112C166.579 114.303 169.32 113.307 169.797 110.853Z" fill="#D9D9D9"/>
<path d="M154.413 116.626C153.56 118.394 151.815 120.601 153.124 120.856C154.433 121.11 156.723 123.083 157.309 122.688C157.796 122.36 158.066 119.532 157.949 117.531C157.925 117.121 157.885 116.747 157.827 116.435C156.81 116.966 155.664 117.126 154.413 116.626Z" fill="#D9D9D9"/>
<path d="M152.169 115.067C151.007 113.918 150.47 112.764 150.348 111.657C149.377 113.457 145.375 116.803 146.046 116.933C146.716 117.063 149.012 120.057 149.408 120.643C149.803 121.229 151.551 116.503 152.527 115.405C152.408 115.299 152.289 115.186 152.169 115.067Z" fill="#D9D9D9"/>
<path d="M146.046 116.933C146.716 117.063 149.012 120.057 149.408 120.643C147.84 120.847 146.346 118.01 146.046 116.933Z" fill="#BDBDBD"/>
<path d="M167.614 88.0172C167.072 87.9119 166.37 88.2604 166.442 88.8081C166.602 88.6995 166.771 88.6908 166.931 88.6826C167.226 88.6675 167.49 88.6539 167.614 88.0172Z" fill="black"/>
<path fill-rule="evenodd" clip-rule="evenodd" d="M165.978 93.8116C166.369 93.9575 166.691 94.1451 166.996 94.3225C167.558 94.65 168.06 94.9428 168.828 94.8748C170.467 94.7297 171.525 93.5445 171.928 91.9948C171.969 91.8079 172.008 91.6182 172.045 91.4253C172.376 89.2412 168.786 87.2264 168.786 87.2264C168.786 87.2264 167.309 87.0652 165.819 87.2638C165.313 87.3312 164.805 87.4401 164.354 87.6109C164.06 87.7218 163.791 87.8587 163.56 88.0273C163.186 88.3009 162.916 88.6578 162.815 89.1218C162.512 90.5222 163.413 91.3084 164.421 92.1878C164.967 92.6642 165.544 93.168 165.978 93.8116ZM167.614 88.0172C167.072 87.9119 166.37 88.2604 166.442 88.8081C166.602 88.6995 166.771 88.6908 166.931 88.6826C167.226 88.6675 167.49 88.6539 167.614 88.0172ZM165.366 89.5907C165.08 89.1545 164.442 88.9857 164.055 89.3358C163.766 89.598 163.865 90.3175 163.865 90.3175C163.865 90.3175 164.899 91.1327 165.118 90.8682C165.337 90.6037 165.645 90.0157 165.366 89.5907Z" fill="#D9D9D9"/>
<path d="M164.055 89.3358C164.442 88.9857 165.08 89.1545 165.366 89.5907C165.645 90.0157 165.337 90.6037 165.118 90.8682C164.899 91.1327 163.865 90.3175 163.865 90.3175C163.865 90.3175 163.766 89.598 164.055 89.3358Z" fill="black"/>
<path d="M153.163 99.4703C152.468 97.8071 154.908 95.7346 157.267 96.7024M153.163 99.4703C153.275 99.5811 153.373 99.6901 153.46 99.7977M153.163 99.4703C153.225 99.6182 153.327 99.7255 153.46 99.7977M157.267 96.7024C157.447 96.8184 157.606 96.9401 157.748 97.0667M157.267 96.7024C157.506 96.8008 157.662 96.9249 157.748 97.0667M155.345 103.969C156.613 102.688 157.008 103.274 159.257 102.183M155.345 103.969C153.793 102.254 154.531 101.133 153.46 99.7977M155.345 103.969C155.345 103.969 149.885 107.474 150.348 111.657M159.257 102.183C159.257 102.183 163.354 97.0808 165.978 93.8116M159.257 102.183C158.617 100.652 159.386 98.5319 157.748 97.0667M159.257 102.183L165.978 93.8116M165.978 93.8116C166.369 93.9575 166.691 94.1451 166.996 94.3225C167.558 94.65 168.06 94.9428 168.828 94.8748C170.467 94.7297 171.525 93.5445 171.928 91.9948M165.978 93.8116C165.544 93.168 164.967 92.6642 164.421 92.1878C163.413 91.3084 162.512 90.5222 162.815 89.1218C162.916 88.6578 163.186 88.3009 163.56 88.0273C163.791 87.8587 164.06 87.7218 164.354 87.6109M172.045 91.4253C172.376 89.2412 168.786 87.2264 168.786 87.2264C168.786 87.2264 167.309 87.0652 165.819 87.2638M172.045 91.4253C172.008 91.6182 171.969 91.8079 171.928 91.9948M172.045 91.4253C172.016 91.6196 171.977 91.8098 171.928 91.9948M166.143 106.068C168.372 100.537 170.74 97.5167 171.928 91.9948M166.143 106.068C166.143 106.068 170.478 109.967 169.797 110.853M166.143 106.068L162.925 109.518M157.748 97.0667C158.431 98.197 154.668 100.455 153.46 99.7977M169.797 110.853C169.115 111.74 165.884 112.64 165.598 114.112M169.797 110.853C169.32 113.307 166.579 114.303 165.598 114.112M165.598 114.112C165.312 115.584 162.925 109.518 162.925 109.518M162.925 109.518C162.925 109.518 161.001 114.778 157.827 116.435M154.413 116.626C153.56 118.394 151.815 120.601 153.124 120.856M154.413 116.626C155.664 117.126 156.81 116.966 157.827 116.435M154.413 116.626C153.808 116.384 153.179 115.988 152.527 115.405M153.124 120.856C154.433 121.11 156.723 123.083 157.309 122.688M153.124 120.856C154.46 121.625 154.76 122.702 157.309 122.688M157.309 122.688C157.796 122.36 158.066 119.532 157.949 117.531C157.925 117.121 157.885 116.747 157.827 116.435M150.348 111.657C150.47 112.764 151.007 113.918 152.169 115.067C152.289 115.186 152.408 115.299 152.527 115.405M150.348 111.657C149.377 113.457 145.375 116.803 146.046 116.933M146.046 116.933C146.716 117.063 149.012 120.057 149.408 120.643M146.046 116.933C146.346 118.01 147.84 120.847 149.408 120.643M149.408 120.643C149.803 121.229 151.551 116.503 152.527 115.405M167.614 88.0172C167.072 87.9119 166.37 88.2604 166.442 88.8081M167.614 88.0172C168.156 88.1226 168.676 88.7087 168.405 89.1897C168.19 89.5699 167.756 89.573 167.328 89.4897C166.899 89.4064 166.498 89.241 166.442 88.8081M167.614 88.0172C167.49 88.6539 167.226 88.6675 166.931 88.6826C166.771 88.6908 166.602 88.6995 166.442 88.8081M165.819 87.2638C165.313 87.3312 164.805 87.4401 164.354 87.6109M165.819 87.2638C165.651 87.6356 165.276 87.7901 164.354 87.6109M164.055 89.3358C164.442 88.9857 165.08 89.1545 165.366 89.5907C165.645 90.0157 165.337 90.6037 165.118 90.8682C164.899 91.1327 163.865 90.3175 163.865 90.3175C163.865 90.3175 163.766 89.598 164.055 89.3358Z" stroke="black" stroke-width="0.4"/>
<path d="M155.002 74.5574C153.002 90.0574 153.002 94.0574 155.002 97.5574H156.002C154.002 94.0574 154.002 90.0574 156.002 74.5574L155.002 74.5574Z" fill="#A4A4A4"/>
<path fill-rule="evenodd" clip-rule="evenodd" d="M155.002 74.5574C152.502 74.5574 141.502 65.0574 143.502 56.5574C144.836 50.887 149.191 46.654 155.002 47.0574C160.376 47.4305 163.39 51.4178 165.002 56.5574C167.409 64.2303 157.502 74.5574 155.002 74.5574ZM158.502 54.5574C157.392 53.1406 155.91 50.8966 157.502 50.0574C158.871 49.3363 159.992 50.7672 160.952 51.9927C160.969 52.0144 160.985 52.0359 161.002 52.0574C162.113 53.4743 163.002 56.0574 162.002 56.5574C161.002 57.0574 159.473 55.7965 158.502 54.5574Z" fill="#B82424"/>
<path d="M157.502 50.0574C155.91 50.8966 157.392 53.1406 158.502 54.5574C159.473 55.7965 161.002 57.0574 162.002 56.5574C163.002 56.0574 162.113 53.4743 161.002 52.0574L160.952 51.9927C159.992 50.7672 158.871 49.3363 157.502 50.0574Z" fill="#E57D7D"/>
<path d="M155.002 74.5574C152.502 74.5574 141.502 65.0574 143.502 56.5574C144.836 50.887 149.191 46.654 155.002 47.0574C160.376 47.4305 163.39 51.4178 165.002 56.5574C167.409 64.2303 157.502 74.5574 155.002 74.5574ZM155.002 74.5574C153.002 90.0574 153.002 94.0574 155.002 97.5574H156.002C154.002 94.0574 154.002 90.0574 156.002 74.5574L155.002 74.5574ZM161.002 52.0574C162.113 53.4743 163.002 56.0574 162.002 56.5574C161.002 57.0574 159.473 55.7965 158.502 54.5574C157.392 53.1406 155.91 50.8966 157.502 50.0574C158.871 49.3363 159.992 50.7672 160.952 51.9927M161.002 52.0574C160.985 52.0359 160.969 52.0144 160.952 51.9927M161.002 52.0574L160.952 51.9927" stroke="black" stroke-width="0.4"/>
<path d="M0.486793 128.188C0.486793 128.188 4.12408 112.663 23.2582 99.6575M23.2582 99.6575C42.3923 86.6523 66.6411 99.2418 46.0038 114.745C25.3666 130.248 11.5831 109.651 23.2582 99.6575ZM23.2582 99.6575C33.0677 90.2399 38.6925 81.8241 50.4336 77.2801" stroke="#525252" stroke-dasharray="2 2"/>
</svg>
